<svg height="512pt" viewBox="-66 0 512 512" width="512pt" xmlns="http://www.w3.org/2000/svg"><path d="m370 30v452c0 11.050781-8.949219 20-20 20h-320c-11.050781 0-20-8.949219-20-20v-452c0-11.050781 8.949219-20 20-20h320c11.050781 0 20 8.949219 20 20zm0 0" fill="#656d88"/><path d="m210 336h120v124h-120zm0 0" fill="#ed5575"/><path d="m210 172h120v124h-120zm0 0" fill="#ede9e8"/><path d="m330 52v80h-280v-80zm0 0" fill="#90e36a"/><path d="m50 336h120v124h-120zm0 0" fill="#ede9e8"/><path d="m50 172h120v124h-120zm0 0" fill="#ede9e8"/><path d="m160 92c0 5.523438-4.476562 10-10 10s-10-4.476562-10-10 4.476562-10 10-10 10 4.476562 10 10zm0 0"/><path d="m30 512h320c16.542969 0 30-13.457031 30-30v-452c0-16.542969-13.457031-30-30-30h-320c-16.542969 0-30 13.457031-30 30v452c0 16.542969 13.457031 30 30 30zm-10-482c0-5.515625 4.484375-10 10-10h320c5.515625 0 10 4.484375 10 10v452c0 5.515625-4.484375 10-10 10h-320c-5.515625 0-10-4.484375-10-10zm0 0"/><path d="m130 224h-10v-10c0-5.523438-4.476562-10-10-10s-10 4.476562-10 10v10h-10c-5.523438 0-10 4.476562-10 10s4.476562 10 10 10h10v12c0 5.523438 4.476562 10 10 10s10-4.476562 10-10v-12h10c5.523438 0 10-4.476562 10-10s-4.476562-10-10-10zm0 0"/><path d="m50 306h120c5.523438 0 10-4.476562 10-10v-124c0-5.523438-4.476562-10-10-10h-120c-5.523438 0-10 4.476562-10 10v124c0 5.523438 4.476562 10 10 10zm10-124h100v104h-100zm0 0"/><path d="m131.210938 376.789062c-3.90625-3.90625-10.238282-3.90625-14.144532 0l-7.066406 7.066407-7.070312-7.066407c-3.902344-3.90625-10.234376-3.90625-14.140626 0-3.90625 3.902344-3.90625 10.234376 0 14.140626l7.066407 7.070312-7.066407 7.070312c-3.90625 3.902344-3.90625 10.234376 0 14.140626 3.902344 3.90625 10.234376 3.90625 14.140626 0l7.070312-7.066407 7.070312 7.066407c3.902344 3.90625 10.234376 3.90625 14.140626 0 3.90625-3.902344 3.90625-10.234376 0-14.140626l-7.066407-7.070312 7.066407-7.070312c3.90625-3.902344 3.90625-10.234376 0-14.140626zm0 0"/><path d="m50 470h120c5.523438 0 10-4.476562 10-10v-124c0-5.523438-4.476562-10-10-10h-120c-5.523438 0-10 4.476562-10 10v124c0 5.523438 4.476562 10 10 10zm10-124h100v104h-100zm0 0"/><path d="m250 244h40c5.523438 0 10-4.476562 10-10s-4.476562-10-10-10h-40c-5.523438 0-10 4.476562-10 10s4.476562 10 10 10zm0 0"/><path d="m330 162h-120c-5.523438 0-10 4.476562-10 10v124c0 5.523438 4.476562 10 10 10h120c5.523438 0 10-4.476562 10-10v-124c0-5.523438-4.476562-10-10-10zm-10 124h-100v-104h100zm0 0"/><path d="m250 388h40c5.523438 0 10-4.476562 10-10s-4.476562-10-10-10h-40c-5.523438 0-10 4.476562-10 10s4.476562 10 10 10zm0 0"/><path d="m250 428h40c5.523438 0 10-4.476562 10-10s-4.476562-10-10-10h-40c-5.523438 0-10 4.476562-10 10s4.476562 10 10 10zm0 0"/><path d="m330 326h-120c-5.523438 0-10 4.476562-10 10v124c0 5.523438 4.476562 10 10 10h120c5.523438 0 10-4.476562 10-10v-124c0-5.523438-4.476562-10-10-10zm-10 124h-100v-104h100zm0 0"/><path d="m50 142h280c5.523438 0 10-4.476562 10-10v-80c0-5.523438-4.476562-10-10-10h-280c-5.523438 0-10 4.476562-10 10v80c0 5.523438 4.476562 10 10 10zm10-80h260v60h-260zm0 0"/><path d="m290 82h-100c-5.523438 0-10 4.476562-10 10s4.476562 10 10 10h100c5.523438 0 10-4.476562 10-10s-4.476562-10-10-10zm0 0"/></svg>