<svg height="512pt" viewBox="0 0 512 512" width="512pt" xmlns="http://www.w3.org/2000/svg"><path d="m512 512h-512l.289062-162.992188 66.464844-349.007812h378.492188l66.753906 352zm0 0" fill="#b0b4b9"/><g fill="#9da3aa"><path d="m80 272h352v32h-352zm0 0"/><path d="m96 208h320v32h-320zm0 0"/><path d="m112 144h288v32h-288zm0 0"/><path d="m128 80h256v32h-256zm0 0"/></g><path d="m320 400h-128l-32-48h-159.726562l-.273438 160h512v-160h-160zm0 0" fill="#5f90ff"/><path d="m32 384h32v32h-32zm0 0" fill="#fff"/><path d="m96 384h32v32h-32zm0 0" fill="#fff"/><path d="m0 480h512v32h-512zm0 0" fill="#347bf7"/></svg>