<svg height="512pt" viewBox="0 0 512.01314 512" width="512pt" xmlns="http://www.w3.org/2000/svg"><path d="m512 352.007812v160h-512l.320312-163.042968 66.398438-348.9570315h378.5625zm0 0" fill="#b0b4b9"/><path d="m512 384.648438v127.359374h-305.28125c-1.117188-1.441406-2.238281-3.042968-3.199219-4.640624-14.078125-22.878907-15.359375-51.039063-3.359375-75.039063l98.71875-197.601563c13.28125-26.238281 39.679688-42.71875 69.121094-42.71875s55.839844 16.480469 69.121094 42.71875zm0 0" fill="#9da3aa"/><path d="m264.320312 304.007812 7.679688-15.519531v15.519531zm0 0" fill="#acabb1"/><path d="m304 226.085938v13.921874h-7.679688l2.558594-5.28125c1.601563-3.039062 3.199219-5.921874 5.121094-8.640624zm0 0" fill="#acabb1"/><path d="m320 400.007812h-128l-32-48h-159.726562l-.273438 160h512v-160h-160zm0 0" fill="#5f90ff"/><path d="m32 384.007812h32v32h-32zm0 0" fill="#fff"/><path d="m96 384.007812h32v32h-32zm0 0" fill="#fff"/><path d="m272 288.488281v15.519531h-7.679688zm0 0" fill="#8b8b8e"/><path d="m304 226.085938v13.921874h-7.679688l2.558594-5.28125c1.601563-3.039062 3.199219-5.921874 5.121094-8.640624zm0 0" fill="#8b8b8e"/><g fill="#9da3aa"><path d="m80 272.007812h224v32h-224zm0 0"/><path d="m96 208.007812h240v32h-240zm0 0"/><path d="m112 144.007812h288v32h-288zm0 0"/><path d="m128 80.007812h256v32h-256zm0 0"/></g><path d="m495.695312 352.007812h-143.695312l-32 48h-103.695312l-16.144532 32.320313c-7.519531 15.039063-9.808594 31.695313-7.023437 47.679687h-193.136719v32h512v-127.359374zm0 0" fill="#347bf7"/><path d="m466.753906 512.007812h-197.507812c-15.773438 0-30.15625-8.015624-38.445313-21.441406-8.289062-13.425781-9.039062-29.855468-1.984375-43.984375l98.769532-197.519531c7.695312-15.40625 23.199218-24.992188 40.429687-24.992188s32.71875 9.566407 40.433594 24.992188l98.75 197.535156c7.058593 14.113282 6.320312 30.5625-1.984375 43.984375-8.304688 13.425781-22.671875 21.425781-38.460938 21.425781zm0 0" fill="#e76e54"/><path d="m384 448.007812h-32v-32h32zm0-64h-32v-64h32zm0 0" fill="#fff"/></svg>