<svg height="512pt" viewBox="0 0 512 512" width="512pt" xmlns="http://www.w3.org/2000/svg"><path d="m502 256c0 132.550781-113.449219 246-246 246v-246zm0 0" fill="#f2df33"/><path d="m256 10v246h246c0-132.382812-113.238281-246-246-246zm0 0" fill="#90e36a"/><path d="m256 256v246c-132.550781 0-246-113.449219-246-246zm0 0" fill="#ed5575"/><path d="m256 256h-246c0-132.550781 113.449219-246 246-246zm0 0" fill="#5c9cee"/><path d="m70 316c0 5.523438-4.476562 10-10 10s-10-4.476562-10-10 4.476562-10 10-10 10 4.476562 10 10zm0 0"/><path d="m256 512c137.980469 0 256-117.800781 256-256 0-138.257812-118.121094-256-256-256-137.980469 0-256 117.800781-256 256 0 138.011719 117.816406 256 256 256zm-235.761719-246h225.761719v225.761719c-120.1875-5.304688-220.457031-105.574219-225.761719-225.761719zm375.164063-198.394531-129.402344 129.402343v-56.574218l94.675781-94.675782c12.105469 6.238282 23.722657 13.566407 34.726563 21.847657zm-129.402344 44.542969v-91.90625c25.78125 1.144531 51.019531 6.703124 75.304688 16.601562zm0 379.613281v-225.773438h225.761719c-5.304688 120.1875-105.574219 220.46875-225.761719 225.773438zm184.730469-366.347657c7.875 11.492188 14.734375 23.574219 20.457031 36.105469l-84.480469 84.480469h-56.5625zm41.035156 120.585938h-76.773437l64.308593-64.304688c7.308594 20.90625 11.488281 42.445313 12.464844 64.304688zm-53.128906-136.78125-136.78125 136.78125h-35.855469v-20.707031l144.964844-144.964844c9.984375 8.871094 19.253906 18.542969 27.671875 28.890625zm-192.636719-88.980469v225.761719h-225.761719c5.304688-120.1875 105.574219-220.457031 225.761719-225.761719zm0 0"/><path d="m174.011719 430.140625c-37.929688-16.617187-69.9375-45.734375-90.125-81.984375-2.6875-4.828125-8.777344-6.558594-13.601563-3.875-4.824218 2.691406-6.558594 8.777344-3.871094 13.605469 22.300782 40.042969 57.664063 72.210937 99.574219 90.574219 5.046875 2.210937 10.949219-.082032 13.171875-5.148438 2.214844-5.058594-.089844-10.957031-5.148437-13.171875zm0 0"/></svg>