<svg height="511pt" viewBox="0 -1 511.99961 511" width="511pt" xmlns="http://www.w3.org/2000/svg"><path d="m340.464844.503906h-318.898438c-11.910156 0-21.566406 9.65625-21.566406 21.566406v465.359376c0 11.914062 9.65625 21.566406 21.566406 21.566406h318.898438c11.914062 0 21.570312-9.652344 21.570312-21.566406v-465.359376c0-11.910156-9.65625-21.566406-21.570312-21.566406zm0 0" fill="#fff5f4"/><path d="m47.902344 96.09375h33.148437c2.859375 0 5.179688 2.320312 5.179688 5.179688v195.742187c0 2.863281-2.320313 5.179687-5.179688 5.179687h-33.148437c-2.859375 0-5.179688-2.316406-5.179688-5.179687v-195.742187c0-2.859376 2.320313-5.179688 5.179688-5.179688zm0 0" fill="#6ad394"/><path d="m158.746094 302.195312h-33.148438c-2.863281 0-5.179687-2.316406-5.179687-5.179687v-230.964844c0-2.859375 2.316406-5.179687 5.179687-5.179687h33.148438c2.859375 0 5.179687 2.320312 5.179687 5.179687v230.964844c0 2.863281-2.320312 5.179687-5.179687 5.179687zm0 0" fill="#6ad394"/><path d="m236.441406 302.195312h-33.152344c-2.859374 0-5.179687-2.316406-5.179687-5.179687v-144.867187c0-2.859376 2.320313-5.179688 5.179687-5.179688h33.152344c2.859375 0 5.179688 2.320312 5.179688 5.179688v144.867187c0 2.863281-2.320313 5.179687-5.179688 5.179687zm0 0" fill="#6ad394"/><path d="m314.132812 302.195312h-33.148437c-2.859375 0-5.179687-2.316406-5.179687-5.179687v-203.339844c0-2.859375 2.320312-5.179687 5.179687-5.179687h33.148437c2.863282 0 5.179688 2.320312 5.179688 5.179687v203.339844c0 2.863281-2.316406 5.179687-5.179688 5.179687zm0 0" fill="#6ad394"/><path d="m86.230469 79.121094v39.125c0-2.859375-2.320313-5.179688-5.179688-5.179688h-33.148437c-2.859375 0-5.179688 2.320313-5.179688 5.179688v-39.125c0-2.859375 2.320313-5.179688 5.179688-5.179688h33.148437c2.859375 0 5.179688 2.320313 5.179688 5.179688zm0 0" fill="#7af4ab"/><path d="m163.925781 43.898438v39.128906c0-2.859375-2.320312-5.179688-5.179687-5.179688h-33.152344c-2.859375 0-5.179688 2.320313-5.179688 5.179688v-39.128906c0-2.859376 2.320313-5.179688 5.179688-5.179688h33.152344c2.859375 0 5.179687 2.320312 5.179687 5.179688zm0 0" fill="#7af4ab"/><path d="m241.617188 130.003906v39.117188c0-2.859375-2.320313-5.179688-5.179688-5.179688h-33.148438c-2.859374 0-5.179687 2.320313-5.179687 5.179688v-39.117188c0-2.867187 2.320313-5.179687 5.179687-5.179687h33.148438c2.859375 0 5.179688 2.3125 5.179688 5.179687zm0 0" fill="#7af4ab"/><path d="m319.3125 71.527344v39.125c0-2.859375-2.320312-5.179688-5.179688-5.179688h-33.148437c-2.859375 0-5.179687 2.320313-5.179687 5.179688v-39.125c0-2.859375 2.320312-5.179688 5.179687-5.179688h33.148437c2.859376 0 5.179688 2.320313 5.179688 5.179688zm0 0" fill="#7af4ab"/><path d="m506.730469 383.019531-35.664063 6.289063c-.425781 6.421875-1.542968 12.65625-3.273437 18.632812l31.355469 18.097656c3.046874 1.761719 4.09375 5.65625 2.332031 8.703126l-14.710938 25.484374c-1.761719 3.046876-5.65625 4.089844-8.703125 2.332032l-31.375-18.109375c-4.371094 4.546875-9.222656 8.640625-14.484375 12.160156l12.390625 34.042969c1.203125 3.304687-.507812 6.949218-3.8125 8.160156l-2.839844 1.039062c-8.621093 3.132813-3.296874 1.195313-24.808593 9.019532-3.304688 1.203125-6.960938-.496094-8.164063-3.800782l-9.21875-25.347656-2.269531-6.226562-.902344-2.464844c-.535156.050781-1.074219.113281-1.613281.144531-5.671875.53125-11.464844.476563-17.300781-.144531l-12.390625 34.039062c-1.199219 3.304688-4.859375 5.003907-8.160156 3.800782l-27.652344-10.058594c-3.304688-1.210938-5.011719-4.855469-3.8125-8.160156l12.390625-34.042969c-5.261719-3.519531-10.109375-7.613281-14.480469-12.160156l-31.378906 18.109375c-3.046875 1.757812-6.941406.714844-8.703125-2.332032l-14.707031-25.484374c-1.761719-3.046876-.714844-6.941407 2.328124-8.703126l31.359376-18.097656c-1.730469-5.976562-2.839844-12.210937-3.273438-18.632812l-35.667969-6.289063c-3.46875-.613281-5.78125-3.917969-5.167969-7.386719l5.105469-28.976562c.613281-3.457031 3.917969-5.777344 7.386719-5.167969l35.644531 6.289063c2.582031-5.824219 5.761719-11.300782 9.480469-16.378906l-23.289062-27.742188c-2.257813-2.703125-1.90625-6.710938.789062-8.980469l22.542969-18.917969c2.691406-2.257812 6.710937-1.90625 8.96875.789063l23.277343 27.742187c5.613282-2.765624 11.570313-4.953124 17.785157-6.476562v-36.203125c0-3.523437 2.851562-6.371094 6.371093-6.371094h29.421876c3.523437 0 6.371093 2.847657 6.371093 6.371094v36.203125c6.214844 1.523438 12.171875 3.710938 17.785157 6.476562l23.277343-27.742187c2.261719-2.695313 6.277344-3.046875 8.972657-.789063l22.542968 18.917969c2.691406 2.269531 3.042969 6.277344.785156 8.980469l-23.285156 27.742188c3.71875 5.078124 6.898438 10.554687 9.476563 16.378906l35.65625-6.289063c3.460937-.609375 6.765625 1.710938 7.375 5.167969l5.109375 28.976562c.609375 3.46875-1.699219 6.773438-5.171875 7.386719zm0 0" fill="#1980f9"/><path d="m368.074219 442.269531c-11.332031-19.363281-17.828125-41.894531-17.828125-65.9375 0-18.449219 3.824218-36.007812 10.722656-51.917969 9.355469-21.632812 24.398438-40.238281 43.242188-53.933593v-8.875c0-3.523438-2.851563-6.371094-6.371094-6.371094h-29.421875c-3.523438 0-6.371094 2.847656-6.371094 6.371094v36.203125c-6.214844 1.523437-12.171875 3.710937-17.785156 6.476562l-23.277344-27.742187c-2.257813-2.695313-6.277344-3.046875-8.972656-.789063l-22.542969 18.917969c-2.691406 2.269531-3.042969 6.277344-.785156 8.980469l23.285156 27.742187c-3.71875 5.074219-6.898438 10.554688-9.476562 16.378907l-35.648438-6.289063c-3.46875-.609375-6.773438 1.710937-7.382812 5.167969l-5.109376 28.976562c-.609374 3.46875 1.699219 6.773438 5.171876 7.386719l35.664062 6.285156c.4375 6.425781 1.542969 12.660157 3.273438 18.636719l-31.355469 18.097656c-3.046875 1.761719-4.09375 5.65625-2.332031 8.703125l14.710937 25.484375c1.761719 3.042969 5.65625 4.089844 8.703125 2.332032l31.375-18.109376c4.371094 4.546876 9.222656 8.640626 14.484375 12.160157l-12.390625 34.042969c-1.203125 3.304687.507812 6.949218 3.8125 8.160156l27.648438 10.058594c3.304687 1.203124 6.960937-.496094 8.164062-3.800782l12.390625-34.039062c5.832031.621094 11.621094.671875 17.296875.144531-8.917969-8.472656-16.644531-18.203125-22.894531-28.902344zm0 0" fill="#285fb3"/><path d="m393.488281 473.492188 2.269531 6.226562 9.21875 25.347656c1.199219 3.304688 4.859376 5.003906 8.164063 3.800782 21.503906-7.820313 16.179687-5.882813 24.808594-9.019532-16.605469-5.78125-31.679688-14.824218-44.460938-26.355468zm0 0" fill="#285fb3"/><path d="m445 382.253906c0 40.699219-38.460938 69.726563-76.925781 60.019532h-.011719c-.558594-.132813-1.117188-.289063-1.675781-.445313-26.042969-7.292969-45.136719-31.203125-45.136719-59.574219 0-27.019531 17.09375-49.011718 39.71875-57.835937 11.652344-4.550781 24.777344-5.605469 37.789062-2.050781 26.601563 6.917968 46.242188 31.105468 46.242188 59.886718zm0 0" fill="#63a6fd"/><path d="m368.074219 442.269531h-.007813c-.558594-.136719-1.121094-.289062-1.679687-.445312-26.042969-7.292969-45.132813-31.203125-45.132813-59.578125 0-27.015625 17.089844-49.007813 39.714844-57.832032-6.898438 15.910157-10.722656 33.46875-10.722656 51.917969 0 24.042969 6.496094 46.574219 17.828125 65.9375zm0 0" fill="#4395fb"/><path d="m414.402344 382.246094c0 8.351562-3.253906 16.203125-9.15625 22.109375-2.351563 2.339843-5.003906 4.265625-7.863282 5.726562-.863281.457031-2.199218 1.066407-3.035156 1.359375-10.824218 4.164063-24.066406 2.183594-33.328125-7.085937-5.914062-5.90625-9.167969-13.757813-9.167969-22.109375 0-8.359375 3.253907-16.210938 9.167969-22.113282 5.90625-5.90625 13.757813-9.160156 22.109375-9.160156 4.90625 0 9.683594 1.191406 13.226563 2.921875 3.242187 1.570313 6.0625 3.421875 8.890625 6.238281 5.902344 5.902344 9.15625 13.753907 9.15625 22.113282zm0 0" fill="#1980f9"/><path d="m394.347656 411.441406c-10.824218 4.164063-24.066406 2.183594-33.328125-7.085937-5.914062-5.90625-9.167969-13.757813-9.167969-22.109375 0-8.359375 3.253907-16.210938 9.167969-22.113282 5.90625-5.90625 13.757813-9.160156 22.109375-9.160156 4.90625 0 9.683594 1.191406 13.226563 2.921875-20.902344 12.992188-21.648438 43.40625-2.007813 57.546875zm0 0" fill="#285fb3"/><path d="m57.828125 508.992188h-36.257813c-11.914062 0-21.56640575-9.652344-21.56640575-21.566407v-465.359375c0-11.910156 9.65234375-21.566406 21.56640575-21.566406h36.257813c-11.914063 0-21.570313 9.65625-21.570313 21.566406v465.359375c0 11.914063 9.65625 21.566407 21.570313 21.566407zm0 0" fill="#ebe0da"/><g fill="#c8bebc"><path d="m129.023438 355.832031h-94.578126c-4.292968 0-7.769531 3.480469-7.769531 7.769531 0 4.289063 3.476563 7.769532 7.769531 7.769532h94.578126c4.289062 0 7.769531-3.480469 7.769531-7.769532 0-4.289062-3.480469-7.769531-7.769531-7.769531zm0 0"/><path d="m129.023438 399.4375h-94.578126c-4.292968 0-7.769531 3.476562-7.769531 7.769531 0 4.289063 3.476563 7.769531 7.769531 7.769531h94.578126c4.289062 0 7.769531-3.480468 7.769531-7.769531 0-4.292969-3.480469-7.769531-7.769531-7.769531zm0 0"/><path d="m129.023438 443.042969h-94.578126c-4.292968 0-7.769531 3.480469-7.769531 7.769531s3.476563 7.769531 7.769531 7.769531h94.578126c4.289062 0 7.769531-3.480469 7.769531-7.769531s-3.480469-7.769531-7.769531-7.769531zm0 0"/><path d="m158.550781 371.371094h61.316407c4.289062 0 7.769531-3.480469 7.769531-7.769532 0-4.289062-3.480469-7.769531-7.769531-7.769531h-61.316407c-4.289062 0-7.769531 3.480469-7.769531 7.769531 0 4.289063 3.480469 7.769532 7.769531 7.769532zm0 0"/><path d="m158.550781 414.976562h78.933594c4.292969 0 7.769531-3.480468 7.769531-7.769531 0-4.292969-3.476562-7.769531-7.769531-7.769531h-78.933594c-4.289062 0-7.769531 3.476562-7.769531 7.769531 0 4.289063 3.480469 7.769531 7.769531 7.769531zm0 0"/><path d="m255.097656 443.042969h-96.546875c-4.289062 0-7.769531 3.480469-7.769531 7.769531s3.480469 7.769531 7.769531 7.769531h96.546875c4.289063 0 7.769532-3.480469 7.769532-7.769531s-3.480469-7.769531-7.769532-7.769531zm0 0"/></g></svg>