<svg height="512pt" viewBox="0 0 512 512" width="512pt" xmlns="http://www.w3.org/2000/svg"><path d="m512 512h-512l.289062-162.992188 66.464844-349.007812h378.492188l66.753906 352zm0 0" fill="#b0b4b9"/><path d="m80 0h352v288h-352zm0 0" fill="#ffd337"/><path d="m320 400h-128l-32-48h-159.726562l-.273438 160h512v-160h-160zm0 0" fill="#5f90ff"/><path d="m32 384h32v32h-32zm0 0" fill="#fff"/><path d="m96 384h32v32h-32zm0 0" fill="#fff"/><path d="m0 480h512v32h-512zm0 0" fill="#347bf7"/><g fill="#fff"><path d="m144 64h96v32h-96zm0 0"/><path d="m144 128h224v32h-224zm0 0"/><path d="m368 224h-32v-32h32zm-64 0h-32v-32h32zm-64 0h-96v-32h96zm0 0"/></g></svg>