<svg height="512pt" viewBox="0 -26 512 512" width="512pt" xmlns="http://www.w3.org/2000/svg"><path d="m482 90h-452c-11.050781 0-20 8.949219-20 20v320c0 11.050781 8.949219 20 20 20h452c11.050781 0 20-8.949219 20-20v-320c0-11.050781-8.949219-20-20-20zm0 0" fill="#ed5575"/><path d="m462 170v240h-412v-240zm0 0" fill="#ede9e8"/><path d="m296 130h-80v-100c0-11.050781 8.949219-20 20-20h40c11.050781 0 20 8.949219 20 20zm0 0" fill="#656d88"/><path d="m210 350h-120c0-33.136719 26.859375-60 60-60 33.136719 0 60 26.859375 60 60zm0 0" fill="#5c9cee"/><path d="m180 260c0 16.570312-13.429688 30-30 30s-30-13.429688-30-30 13.429688-30 30-30 30 13.429688 30 30zm0 0" fill="#5c9cee"/><path d="m286 230c0 5.523438-4.476562 10-10 10s-10-4.476562-10-10 4.476562-10 10-10 10 4.476562 10 10zm0 0"/><path d="m286 290c0 5.523438-4.476562 10-10 10s-10-4.476562-10-10 4.476562-10 10-10 10 4.476562 10 10zm0 0"/><path d="m266 50c0 5.523438-4.476562 10-10 10s-10-4.476562-10-10 4.476562-10 10-10 10 4.476562 10 10zm0 0"/><path d="m482 80h-176v-50c0-16.542969-13.457031-30-30-30h-40c-16.542969 0-30 13.457031-30 30v50h-176c-16.542969 0-30 13.457031-30 30v320c0 16.542969 13.457031 30 30 30h452c16.542969 0 30-13.457031 30-30v-320c0-16.542969-13.457031-30-30-30zm-256-50c0-5.515625 4.484375-10 10-10h40c5.515625 0 10 4.484375 10 10v90h-60zm266 400c0 5.515625-4.484375 10-10 10h-452c-5.515625 0-10-4.484375-10-10v-320c0-5.515625 4.484375-10 10-10h176v20h-10c-5.523438 0-10 4.476562-10 10s4.476562 10 10 10h120c5.523438 0 10-4.476562 10-10s-4.476562-10-10-10h-10v-20h176c5.515625 0 10 4.484375 10 10zm0 0"/><path d="m462 160h-412c-5.523438 0-10 4.476562-10 10v240c0 5.523438 4.476562 10 10 10h412c5.523438 0 10-4.476562 10-10v-240c0-5.523438-4.476562-10-10-10zm-10 240h-392v-220h392zm0 0"/><path d="m90 360h120c5.523438 0 10-4.476562 10-10 0-28.257812-16.660156-52.285156-40.183594-63.371094 6.328125-7.078125 10.183594-16.410156 10.183594-26.628906 0-22.054688-17.945312-40-40-40s-40 17.945312-40 40c0 10.21875 3.855469 19.550781 10.1875 26.628906-23.5625 11.105469-40.1875 35.128906-40.1875 63.371094 0 5.523438 4.476562 10 10 10zm40-100c0-11.027344 8.972656-20 20-20s20 8.972656 20 20-8.972656 20-20 20-20-8.972656-20-20zm20 40c24.484375 0 44.453125 17.460938 49.003906 40h-98.011718c4.558593-22.570312 24.554687-40 49.007812-40zm0 0"/><path d="m316 240h106c5.523438 0 10-4.476562 10-10s-4.476562-10-10-10h-106c-5.523438 0-10 4.476562-10 10s4.476562 10 10 10zm0 0"/><path d="m316 300h106c5.523438 0 10-4.476562 10-10s-4.476562-10-10-10h-106c-5.523438 0-10 4.476562-10 10s4.476562 10 10 10zm0 0"/><path d="m276 360h146c5.523438 0 10-4.476562 10-10s-4.476562-10-10-10h-146c-5.523438 0-10 4.476562-10 10s4.476562 10 10 10zm0 0"/></svg>