<svg height="512pt" viewBox="0 -1 512 512" width="512pt" xmlns="http://www.w3.org/2000/svg"><path d="m342.027344 0c-7.339844 0-309 0-320.359375 0-11.96875 0-21.667969 9.699219-21.667969 21.667969v467.488281c0 11.96875 9.699219 21.667969 21.667969 21.667969h320.359375c11.96875 0 21.667968-9.699219 21.667968-21.667969v-467.488281c0-11.96875-9.699218-21.667969-21.667968-21.667969zm0 0" fill="#fff5f4"/><path d="m58.09375 510.824219h-36.421875c-11.96875 0-21.66796875-9.699219-21.66796875-21.667969v-467.488281c0-11.96875 9.69921875-21.667969 21.66796875-21.667969h36.421875c-11.964844 0-21.664062 9.699219-21.664062 21.667969v467.488281c0 11.96875 9.699218 21.667969 21.664062 21.667969zm0 0" fill="#ebe0da"/><path d="m47.28125 164.03125h34.984375c2.40625 0 4.359375 1.953125 4.359375 4.359375v130.320313c0 2.410156-1.953125 4.363281-4.359375 4.363281h-34.984375c-2.410156 0-4.363281-1.953125-4.363281-4.363281v-130.320313c0-2.40625 1.953125-4.359375 4.363281-4.359375zm0 0" fill="#6ad394"/><path d="m160.3125 303.074219h-34.980469c-2.410156 0-4.363281-1.953125-4.363281-4.359375v-155.195313c0-2.410156 1.953125-4.363281 4.363281-4.363281h34.980469c2.410156 0 4.363281 1.953125 4.363281 4.363281v155.191407c0 2.410156-1.953125 4.363281-4.363281 4.363281zm0 0" fill="#6ad394"/><path d="m238.363281 303.074219h-34.980469c-2.410156 0-4.363281-1.953125-4.363281-4.359375v-113.078125c0-2.40625 1.953125-4.359375 4.363281-4.359375h34.980469c2.410157 0 4.363281 1.953125 4.363281 4.359375v113.074219c0 2.410156-1.953124 4.363281-4.363281 4.363281zm0 0" fill="#6ad394"/><path d="m316.414062 303.074219h-34.980468c-2.410156 0-4.363282-1.953125-4.363282-4.359375v-135.6875c0-2.410156 1.953126-4.363282 4.363282-4.363282h34.980468c2.410157 0 4.363282 1.953126 4.363282 4.363282v135.683594c0 2.410156-1.953125 4.363281-4.363282 4.363281zm0 0" fill="#6ad394"/><g fill="#c8bebc"><path d="m335.78125 324.8125h-307.867188c-4.308593 0-7.804687 3.496094-7.804687 7.804688 0 4.3125 3.496094 7.804687 7.804687 7.804687h307.867188c4.3125 0 7.804688-3.492187 7.804688-7.804687 0-4.308594-3.492188-7.804688-7.804688-7.804688zm0 0"/><path d="m111.394531 375.6875h-76.792969c-4.308593 0-7.804687 3.496094-7.804687 7.804688 0 4.3125 3.496094 7.804687 7.804687 7.804687h76.792969c4.308594 0 7.804688-3.492187 7.804688-7.804687 0-4.308594-3.496094-7.804688-7.804688-7.804688zm0 0"/><path d="m111.394531 419.492188h-76.792969c-4.308593 0-7.804687 3.496093-7.804687 7.804687 0 4.3125 3.496094 7.808594 7.804687 7.808594h76.792969c4.308594 0 7.804688-3.496094 7.804688-7.808594 0-4.308594-3.496094-7.804687-7.804688-7.804687zm0 0"/><path d="m111.394531 463.300781h-76.792969c-4.308593 0-7.804687 3.492188-7.804687 7.804688 0 4.308593 3.496094 7.804687 7.804687 7.804687h76.792969c4.308594 0 7.804688-3.496094 7.804688-7.804687 0-4.3125-3.496094-7.804688-7.804688-7.804688zm0 0"/><path d="m185.152344 375.6875h-49.78125c-4.3125 0-7.804688 3.496094-7.804688 7.804688 0 4.3125 3.492188 7.804687 7.804688 7.804687h49.78125c4.3125 0 7.804687-3.492187 7.804687-7.804687 0-4.308594-3.492187-7.804688-7.804687-7.804688zm0 0"/><path d="m185.152344 419.492188h-49.78125c-4.3125 0-7.804688 3.496093-7.804688 7.804687 0 4.3125 3.492188 7.808594 7.804688 7.808594h49.78125c4.3125 0 7.804687-3.496094 7.804687-7.808594 0-4.308594-3.492187-7.804687-7.804687-7.804687zm0 0"/><path d="m185.152344 463.300781h-49.78125c-4.3125 0-7.804688 3.492188-7.804688 7.804688 0 4.308593 3.492188 7.804687 7.804688 7.804687h49.78125c4.3125 0 7.804687-3.496094 7.804687-7.804687 0-4.3125-3.492187-7.804688-7.804687-7.804688zm0 0"/></g><path d="m320.777344 42.59375h-52.796875c-4.3125 0-7.804688 3.496094-7.804688 7.804688 0 4.3125 3.492188 7.804687 7.804688 7.804687h26.367187l-73.058594 46.671875-78.902343-60.664062c-2.636719-2.023438-6.265625-2.160157-9.042969-.335938l-72.859375 47.871094c-3.601563 2.367187-4.601563 7.207031-2.234375 10.8125 2.363281 3.601562 7.203125 4.601562 10.808594 2.234375l68.214844-44.820313 78.84375 60.617188c2.597656 1.996094 6.179687 2.164062 8.957031.390625l79.941406-51.066407-10.257813 27c-1.941406 5.109376 1.847657 10.578126 7.296876 10.578126 3.144531 0 6.113281-1.917969 7.296874-5.035157l18.3125-48.207031c2.738282-5.15625-.847656-11.65625-6.886718-11.65625zm0 0" fill="#7af4ab"/><path d="m477.792969 195.054688c-7.1875 0-212.222657 0-222.714844 0-18.886719 0-34.207031 15.316406-34.207031 34.207031v247.355469c0 18.886718 15.320312 34.207031 34.207031 34.207031h222.714844c18.886719 0 34.207031-15.320313 34.207031-34.207031v-247.355469c0-18.890625-15.320312-34.207031-34.207031-34.207031zm0 0" fill="#63a6fd"/><path d="m477.792969 223.152344c-8.632813 0-214.050781 0-222.714844 0-3.371094 0-6.109375 2.734375-6.109375 6.109375v46.371093c0 3.371094 2.738281 6.109376 6.109375 6.109376h222.714844c3.363281 0 6.109375-2.738282 6.109375-6.109376v-46.371093c0-3.375-2.746094-6.109375-6.109375-6.109375zm0 0" fill="#fff5f4"/><path d="m86.625 146.234375v36.683594c0-2.414063-1.957031-4.359375-4.359375-4.359375h-34.988281c-2.402344 0-4.359375 1.945312-4.359375 4.359375v-36.683594c0-2.402344 1.957031-4.359375 4.359375-4.359375h34.988281c2.402344 0 4.359375 1.957031 4.359375 4.359375zm0 0" fill="#7af4ab"/><path d="m164.675781 121.363281v36.683594c0-2.414063-1.957031-4.371094-4.359375-4.371094h-34.988281c-2.402344 0-4.359375 1.957031-4.359375 4.371094v-36.683594c0-2.402343 1.957031-4.359375 4.359375-4.359375h34.988281c2.402344 0 4.359375 1.957032 4.359375 4.359375zm0 0" fill="#7af4ab"/><path d="m242.726562 163.488281v36.675781c0-2.414062-1.957031-4.363281-4.359374-4.363281h-34.988282c-2.40625 0-4.359375 1.949219-4.359375 4.363281v-36.675781c0-2.414062 1.953125-4.371093 4.359375-4.371093h34.988282c2.402343 0 4.359374 1.957031 4.359374 4.371093zm0 0" fill="#7af4ab"/><path d="m320.777344 140.875v36.675781c0-2.40625-1.957032-4.363281-4.359375-4.363281h-34.988281c-2.40625 0-4.359376 1.957031-4.359376 4.363281v-36.675781c0-2.414062 1.953126-4.359375 4.359376-4.359375h34.988281c2.402343 0 4.359375 1.945313 4.359375 4.359375zm0 0" fill="#7af4ab"/><path d="m291.496094 281.742188h-36.421875c-3.371094 0-6.109375-2.738282-6.109375-6.109376v-46.371093c0-3.375 2.738281-6.109375 6.109375-6.109375h36.421875c-3.371094 0-6.109375 2.734375-6.109375 6.109375v46.371093c0 3.371094 2.738281 6.109376 6.109375 6.109376zm0 0" fill="#ebe0da"/><path d="m251.617188 377.910156v-60.683594c0-3.085937 2.5-5.582031 5.582031-5.582031h87.664062c3.082031 0 5.582031 2.5 5.582031 5.582031v60.683594c0 3.082032-2.5 5.582032-5.582031 5.582032h-87.660156c-3.085937 0-5.585937-2.5-5.585937-5.582032zm0 0" fill="#1980f9"/><path d="m385.066406 377.910156v-60.683594c0-3.085937 2.503906-5.582031 5.585938-5.582031h87.660156c3.085938 0 5.585938 2.5 5.585938 5.582031v60.683594c0 3.082032-2.5 5.582032-5.582032 5.582032h-87.664062c-3.085938 0-5.585938-2.5-5.585938-5.582032zm0 0" fill="#1980f9"/><path d="m251.617188 476.738281v-60.679687c0-3.085938 2.5-5.585938 5.582031-5.585938h87.664062c3.082031 0 5.582031 2.5 5.582031 5.585938v60.679687c0 3.085938-2.5 5.585938-5.582031 5.585938h-87.660156c-3.085937 0-5.585937-2.5-5.585937-5.585938zm0 0" fill="#1980f9"/><path d="m385.066406 476.738281v-60.679687c0-3.085938 2.503906-5.585938 5.585938-5.585938h87.660156c3.085938 0 5.585938 2.5 5.585938 5.585938v60.679687c0 3.085938-2.5 5.585938-5.582032 5.585938h-87.664062c-3.085938 0-5.585938-2.5-5.585938-5.585938zm0 0" fill="#1980f9"/><path d="m417.671875 355.371094h33.625c4.3125 0 7.804687-3.492188 7.804687-7.804688 0-4.308594-3.492187-7.804687-7.804687-7.804687h-33.625c-4.3125 0-7.804687 3.496093-7.804687 7.804687 0 4.3125 3.492187 7.804688 7.804687 7.804688zm0 0" fill="#274c93"/><path d="m317.84375 339.761719h-9.007812v-9.007813c0-4.308594-3.492188-7.804687-7.804688-7.804687s-7.804688 3.496093-7.804688 7.804687v9.007813h-9.007812c-4.3125 0-7.804688 3.496093-7.804688 7.804687 0 4.3125 3.492188 7.804688 7.804688 7.804688h9.007812v9.007812c0 4.3125 3.492188 7.808594 7.804688 7.808594s7.804688-3.496094 7.804688-7.808594v-9.007812h9.007812c4.3125 0 7.804688-3.492188 7.804688-7.804688 0-4.308594-3.492188-7.804687-7.804688-7.804687zm0 0" fill="#274c93"/><path d="m451.296875 438.59375h-33.625c-4.3125 0-7.804687 3.492188-7.804687 7.804688 0 4.308593 3.492187 7.804687 7.804687 7.804687h33.625c4.3125 0 7.804687-3.496094 7.804687-7.804687 0-4.3125-3.492187-7.804688-7.804687-7.804688zm0 0" fill="#274c93"/><path d="m318.4375 428.988281c-3.046875-3.046875-7.988281-3.046875-11.039062 0l-6.367188 6.371094-6.371094-6.371094c-3.046875-3.046875-7.988281-3.046875-11.035156 0-3.050781 3.050781-3.050781 7.992188 0 11.039063l6.367188 6.371094-6.367188 6.367187c-3.050781 3.050781-3.050781 7.992187 0 11.039063 1.523438 1.523437 3.519531 2.285156 5.519531 2.285156 1.996094 0 3.992188-.761719 5.519531-2.285156l6.367188-6.371094 6.371094 6.371094c1.523437 1.523437 3.519531 2.285156 5.519531 2.285156 1.996094 0 3.992187-.761719 5.519531-2.285156 3.046875-3.046876 3.046875-7.992188 0-11.039063l-6.371094-6.367187 6.371094-6.371094c3.046875-3.046875 3.046875-7.988282-.003906-11.039063zm0 0" fill="#274c93"/><path d="m442.808594 428.511719c0 4.597656-3.726563 8.324219-8.324219 8.324219s-8.328125-3.726563-8.328125-8.324219c0-4.601563 3.730469-8.328125 8.328125-8.328125s8.324219 3.726562 8.324219 8.328125zm0 0" fill="#274c93"/><path d="m442.808594 464.285156c0 4.597656-3.726563 8.324219-8.324219 8.324219s-8.328125-3.726563-8.328125-8.324219 3.730469-8.324218 8.328125-8.324218 8.324219 3.726562 8.324219 8.324218zm0 0" fill="#274c93"/><path d="m283.171875 510.824219h-28.097656c-18.878907 0-34.207031-15.320313-34.207031-34.207031v-247.355469c0-18.890625 15.328124-34.207031 34.207031-34.207031h28.097656c-18.878906 0-34.207031 15.316406-34.207031 34.207031v247.355469c0 18.886718 15.328125 34.207031 34.207031 34.207031zm0 0" fill="#4395fb"/></svg>