<svg height="512pt" viewBox="0 0 512 512" width="512pt" xmlns="http://www.w3.org/2000/svg"><path d="m512 263.839844v248.160156h-512v-512h149.28125zm0 0" fill="#bcaaa4"/><path d="m448 153.441406v214.558594h-384v-304h294.558594zm0 0" fill="#e4edfb"/><path d="m448 153.601562v-.226562l-89.375-89.375h-.226562v89.601562zm0 0" fill="#ffd337"/><path d="m512 373.28125v138.71875h-512v-400h154.398438zm0 0" fill="#a1887f"/><path d="m448 326.558594v41.441406h-384v-256h90.398438zm0 0" fill="#d7e1f2"/><path d="m144 144h-144v368h512v-99.070312zm0 0" fill="#e76e54"/><path d="m64 288h192v160h-192zm0 0" fill="#ffd337"/><g fill="#fff"><path d="m128 352h64v32h-64zm0 0"/><path d="m32 176h32v32h-32zm0 0"/><path d="m96 176h32v32h-32zm0 0"/></g></svg>