<svg height="512pt" viewBox="0 -10 512 511" width="512pt" xmlns="http://www.w3.org/2000/svg"><path d="m90 50.5c-44.179688 0-80 35.820312-80 80 0 32.570312 19.46875 60.589844 47.390625 73.078125l94.789063-123.417969c-14.667969-18.089844-37.070313-29.660156-62.179688-29.660156zm0 0" fill="#656d88"/><path d="m422 50.5c-25.109375 0-47.511719 11.570312-62.179688 29.660156l94.789063 123.410156c27.929687-12.480468 47.390625-40.5 47.390625-73.070312 0-44.179688-35.820312-80-80-80zm0 0" fill="#656d88"/><path d="m256 462.5c-110.21875 0-206-95.304688-206-206 0-110.792969 95.8125-206 206-206 110.566406 0 206 95.660156 206 206 0 110.453125-95.535156 206-206 206zm0 0" fill="#90e36a"/><path d="m256 93.5c88.21875 0 163 74.78125 163 163s-74.78125 163-163 163-163-74.78125-163-163 74.78125-163 163-163zm0 0" fill="#ede9e8"/><g fill="#656d88"><path d="m421.011719 465.898438-29.082031-56.929688-35.410157 25.832031 48.492188 43.097657c4.1875 3.761718 10.636719 3.402343 14.398437-.796876 2.820313-3.160156 3.308594-7.601562 1.601563-11.203124zm0 0"/><path d="m286 10.5h-60c-11.050781 0-20 8.949219-20 20v26.589844h100v-26.589844c0-11.050781-8.949219-20-20-20zm0 0"/><path d="m120.070312 408.96875-29.082031 56.929688c-1.707031 3.601562-1.21875 8.042968 1.601563 11.203124 3.761718 4.199219 10.210937 4.558594 14.398437.796876l48.492188-43.097657zm0 0"/></g><path d="m386 256.5c0 5.523438-4.476562 10-10 10s-10-4.476562-10-10 4.476562-10 10-10 10 4.476562 10 10zm0 0"/><path d="m266 136.5c0 5.523438-4.476562 10-10 10s-10-4.476562-10-10 4.476562-10 10-10 10 4.476562 10 10zm0 0"/><path d="m266 376.5c0 5.523438-4.476562 10-10 10s-10-4.476562-10-10 4.476562-10 10-10 10 4.476562 10 10zm0 0"/><path d="m146 256.5c0 5.523438-4.476562 10-10 10s-10-4.476562-10-10 4.476562-10 10-10 10 4.476562 10 10zm0 0"/><path d="m256 83.5c-93.773438 0-173 79.222656-173 173s79.226562 173 173 173 173-79.222656 173-173-79.226562-173-173-173zm0 326c-82.933594 0-153-70.066406-153-153s70.066406-153 153-153 153 70.066406 153 153-70.066406 153-153 153zm0 0"/><path d="m225.992188 139.863281c-1.820313-5.210937-7.523438-7.964843-12.738282-6.144531-37.148437 12.96875-67.066406 42.886719-80.035156 80.035156-1.820312 5.214844.933594 10.917969 6.144531 12.738282 5.234375 1.828124 10.925781-.953126 12.738281-6.148438 10.976563-31.441406 36.300782-56.765625 67.746094-67.742188 5.210938-1.820312 7.964844-7.523437 6.144532-12.738281zm0 0"/><path d="m256 246.5c-5.515625 0-10-4.484375-10-10s4.484375-10 10-10c3.542969 0 7.28125 1.808594 10.816406 5.226562 3.96875 3.839844 10.296875 3.738282 14.140625-.230468 3.839844-3.96875 3.734375-10.300782-.234375-14.140625-5.074218-4.914063-10.152344-7.691407-14.722656-9.207031v-11.648438c0-5.523438-4.476562-10-10-10s-10 4.476562-10 10v11.722656c-11.640625 4.125-20 15.242188-20 28.277344 0 16.542969 13.457031 30 30 30 5.515625 0 10 4.488281 10 10 0 5.515625-4.484375 10-10 10-4.273438 0-8.882812-2.6875-12.984375-7.5625-3.554687-4.230469-9.863281-4.773438-14.089844-1.21875-4.226562 3.550781-4.773437 9.859375-1.21875 14.085938 5.34375 6.359374 11.632813 10.792968 18.292969 13.023437v11.671875c0 5.523438 4.476562 10 10 10s10-4.476562 10-10v-11.71875c11.640625-4.128906 20-15.242188 20-28.28125 0-16.542969-13.457031-30-30-30zm0 0"/><path d="m422 40.5c-24.363281 0-47.3125 9.71875-64.191406 26.921875-13.378906-7.460937-27.382813-13.449219-41.808594-17.867187v-19.054688c0-16.542969-13.457031-30-30-30h-60c-16.542969 0-30 13.457031-30 30v19.054688c-14.425781 4.417968-28.433594 10.40625-41.808594 17.867187-16.878906-17.203125-39.828125-26.921875-64.191406-26.921875-49.625 0-90 40.375-90 90 0 32.558594 17.65625 62.421875 45.6875 78.332031-3.773438 15.6875-5.6875 31.683594-5.6875 47.667969 0 57.269531 24.601562 113.199219 67.734375 154.636719l-25.648437 50.214843-.128907.257813c-6.359375 13.394531 3.371094 28.890625 18.265625 28.890625 4.976563 0 9.710938-1.808594 13.410156-5.125l43.167969-38.367188c30.9375 16.695313 65.082031 25.492188 99.199219 25.492188 34.121094 0 68.265625-8.796875 99.199219-25.492188l43.132812 38.335938c8.167969 7.332031 20.957031 6.886719 28.539063-1.585938 5.429687-6.082031 6.671875-14.777343 3.171875-22.148437l-25.777344-50.472656c43.132813-41.4375 67.734375-97.367188 67.734375-154.636719 0-15.988281-1.914062-31.984375-5.6875-47.667969 28.003906-15.859375 45.6875-45.738281 45.6875-78.332031 0-49.625-40.375-90-90-90zm-196-20h60c5.515625 0 10 4.484375 10 10v14.003906c-26.4375-5.285156-53.5625-5.285156-80 0v-14.003906c0-5.515625 4.484375-10 10-10zm-206 110c0-38.597656 31.402344-70 70-70 17.414062 0 33.894531 6.394531 46.644531 17.816406-39.421875 27.050782-69.695312 66.421875-85.117187 110.667969-19.445313-12.824219-31.527344-34.730469-31.527344-58.484375zm80.3125 339.957031c-.027344.023438-.0625.050781-.128906.042969-.082032-.003906-.117188-.039062-.132813-.058594-.066406-.078125-.050781-.175781-.039062-.222656l23.230469-45.472656c5.050781 4.042968 10.269531 7.859375 15.625 11.4375zm311.648438-.027343c-.027344.03125-.0625.066406-.144532.070312-.058594.011719-.101562-.019531-.164062-.074219l-38.519532-34.242187c5.355469-3.578125 10.574219-7.394532 15.628907-11.4375l23.226562 45.472656c.015625.050781.03125.144531-.027343.210938zm-155.960938-17.929688c-104.566406 0-196-90.664062-196-196 0-104.570312 90.742188-196 196-196 105.101562 0 196 91.277344 196 196 0 105.40625-91.503906 196-196 196zm204.46875-263.519531c-15.429688-44.25-45.703125-83.621094-85.113281-110.664063 12.75-11.421875 29.230469-17.816406 46.644531-17.816406 38.597656 0 70 31.402344 70 70 0 23.761719-12.082031 45.664062-31.53125 58.480469zm0 0"/></svg>