<svg height="512pt" viewBox="0 0 512 512" width="512pt" xmlns="http://www.w3.org/2000/svg"><path d="m439 270v-100c0-33.140625 29.859375-60 63-60v165.519531c0 9.359375-3.28125 18.421875-9.269531 25.609375l-89.089844 103.3125c-3 3.589844-4.640625 8.117188-4.640625 12.796875v84.761719h-123v-135.429688c0-10.609374 4.210938-20.78125 11.71875-28.289062l71.28125-68.28125c22.089844-22.089844 57.910156-22.089844 80 0zm0 0" fill="#ffcebf"/><path d="m336 210v20h-160v-20c0-44.179688 35.820312-80 80-80 44.175781 0 80 35.820312 80 80zm0 0" fill="#5c9cee"/><path d="m306 60c0 27.613281-22.386719 50-50 50-27.617188 0-50-22.386719-50-50s22.382812-50 50-50c27.613281 0 50 22.386719 50 50zm0 0" fill="#5c9cee"/><path d="m73 270c22.089844-22.089844 57.910156-22.089844 80 0l71.277344 68.28125c7.511718 7.507812 11.722656 17.679688 11.722656 28.289062v135.429688h-123v-84.761719c0-4.679687-1.640625-9.207031-4.640625-12.796875l-89.089844-103.3125c-5.992187-7.1875-9.269531-16.25-9.269531-25.609375v-165.519531c16.570312 0 32.320312 6.71875 43.929688 17.570312 11.609374 10.859376 19.070312 25.859376 19.070312 42.429688zm0 0" fill="#ffcebf"/><path d="m349 370c0 5.523438-4.476562 10-10 10s-10-4.476562-10-10 4.476562-10 10-10 10 4.476562 10 10zm0 0"/><path d="m183 370c0 5.523438-4.476562 10-10 10s-10-4.476562-10-10 4.476562-10 10-10 10 4.476562 10 10zm0 0"/><path d="m176 240h160c5.519531 0 10-4.476562 10-10v-20c0-49.539062-40.082031-90-90-90-49.628906 0-90 40.375-90 90v20c0 5.523438 4.476562 10 10 10zm10-30c0-38.597656 31.402344-70 70-70 38.523438 0 70 31.167969 70 70v10h-140zm0 0"/><path d="m316 60c0-33.085938-26.917969-60-60-60-33.085938 0-60 26.914062-60 60s26.914062 60 60 60c33.082031 0 60-26.914062 60-60zm-60 40c-22.058594 0-40-17.945312-40-40s17.941406-40 40-40c22.054688 0 40 17.945312 40 40s-17.945312 40-40 40zm0 0"/><path d="m11.695312 307.660156 89.03125 103.242188c1.464844 1.777344 2.273438 4.027344 2.273438 6.335937v84.761719c0 5.523438 4.476562 10 10 10h123c5.519531 0 10-4.476562 10-10v-135.429688c0-13.355468-5.203125-25.914062-14.648438-35.359374-.050781-.054688-.101562-.101563-.15625-.152344l-71.203124-68.207032c-21.214844-21.148437-52.554688-24.671874-76.992188-12.3125v-80.539062c0-39.179688-34.855469-70-73-70-5.523438 0-10 4.476562-10 10v165.519531c0 11.671875 4.113281 23.042969 11.585938 32.011719.035156.042969.070312.085938.109374.128906zm8.304688-186.675781c23.515625 4.621094 43 24.796875 43 49.015625v99.996094.027344c.007812 2.644531 1.105469 5.226562 2.929688 7.046874l71.726562 71.730469c3.90625 3.90625 10.238281 3.90625 14.144531 0s3.90625-10.238281 0-14.144531l-63.886719-63.882812c18.015626-11.523438 42.285157-9.433594 58.015626 6.296874.050781.050782.101562.101563.152343.152344l71.195313 68.199219c5.625 5.660156 8.722656 13.167969 8.722656 21.148437v125.429688h-103v-74.761719c0-7.011719-2.476562-13.835937-6.96875-19.210937-.03125-.039063-.066406-.078125-.097656-.117188l-89.03125-103.238281c-4.453125-5.375-6.902344-12.171875-6.902344-19.152344zm0 0"/><path d="m502 100c-39.570312 0-73 32.054688-73 70v80.539062c-9.1875-4.648437-19.40625-7.105468-30-7.105468-17.746094 0-34.429688 6.894531-46.992188 19.417968l-71.207031 68.207032c-.050781.046875-.101562.097656-.152343.148437-9.449219 9.449219-14.648438 22.007813-14.648438 35.363281v135.429688c0 5.523438 4.476562 10 10 10h123c5.519531 0 10-4.476562 10-10v-84.761719c0-2.308593.804688-4.558593 2.269531-6.335937l89.035157-103.242188c.035156-.042968.074218-.085937.109374-.128906 7.472657-8.96875 11.585938-20.335938 11.585938-32.011719v-165.519531c0-5.523438-4.480469-10-10-10zm-10 175.519531c0 6.980469-2.453125 13.777344-6.90625 19.152344l-89.027344 103.238281c-.035156.039063-.066406.078125-.101562.117188-4.492188 5.375-6.964844 12.199218-6.964844 19.210937v74.761719h-103v-125.429688c0-7.980468 3.097656-15.488281 8.71875-21.148437l71.195312-68.199219c.054688-.050781.105469-.101562.15625-.152344 15.730469-15.726562 40-17.820312 58.011719-6.296874l-63.886719 63.882812c-3.902343 3.90625-3.902343 10.238281 0 14.144531 3.90625 3.90625 10.238282 3.90625 14.144532 0l71.730468-71.730469c1.8125-1.808593 2.921876-4.371093 2.925782-7.046874 0-.007813.003906-.019532.003906-.027344v-99.996094c0-23.429688 19.167969-44.332031 43-49.019531zm0 0"/></svg>