<svg height="512pt" viewBox="-2 0 511 512" width="512pt" xmlns="http://www.w3.org/2000/svg"><path d="m128.5 32h160v480h-160zm0 0" fill="#ffd337"/><path d="m128.5 96h160v32h-160zm0 0" fill="#fcc000"/><path d="m128.5 352h160v32h-160zm0 0" fill="#fcc000"/><path d="m192.5 416h32v32h-32zm0 0" fill="#fff"/><path d="m192.5 176h32v128h-32zm0 0" fill="#fff"/><path d="m.5 0h160v512h-160zm0 0" fill="#5f90ff"/><path d="m.5 64h160v32h-160zm0 0" fill="#347bf7"/><path d="m.5 352h160v32h-160zm0 0" fill="#347bf7"/><path d="m64.5 416h32v32h-32zm0 0" fill="#fff"/><path d="m64.5 144h32v160h-32zm0 0" fill="#fff"/><path d="m507.058594 478.71875-157.597656 27.839844-83.359376-472.796875 157.597657-27.683594zm0 0" fill="#e76e54"/><path d="m440.339844 100.480469-157.601563 27.679687-5.4375-31.199218 157.4375-27.839844zm0 0" fill="#dd523c"/><path d="m484.820312 352.800781-157.441406 28.640625-5.4375-31.363281 157.4375-28.636719zm0 0" fill="#dd523c"/><g fill="#fff"><path d="m395.851562 400.910156 31.496094-5.5625 5.5625 31.496094-31.496094 5.5625zm0 0"/><path d="m354.15625 164.527344 31.496094-5.554688 22.21875 126.039063-31.496094 5.554687zm0 0"/></g></svg>