<svg height="512pt" viewBox="-93 0 512 512" width="512pt" xmlns="http://www.w3.org/2000/svg"><path d="m315.152344 0c-11.136719 0-293.613282 0-304.769532 0-5.742187 0-10.382812 4.652344-10.382812 10.382812v491.234376c0 5.730468 4.640625 10.382812 10.382812 10.382812h304.769532c5.742187 0 10.382812-4.652344 10.382812-10.382812v-491.234376c0-5.730468-4.640625-10.382812-10.382812-10.382812zm0 0" fill="#fff5f4"/><path d="m63.855469 501.617188v-491.234376c0-5.730468 4.652343-10.382812 10.382812-10.382812h-63.855469c-5.742187 0-10.382812 4.652344-10.382812 10.382812v491.234376c0 5.730468 4.640625 10.382812 10.382812 10.382812h63.855469c-5.730469 0-10.382812-4.652344-10.382812-10.382812zm0 0" fill="#ebe0da"/><path d="m103.402344 114.425781h118.730468v101.765625h-118.730468zm0 0" fill="#63a6fd"/><path d="m103.402344 210.914062h118.730468v90.171876h-118.730468zm0 0" fill="#4395fb"/><path d="m103.402344 295.808594h118.730468v102.113281h-118.730468zm0 0" fill="#63a6fd"/><path d="m103.402344 391.257812h118.730468v90.171876h-118.730468zm0 0" fill="#4395fb"/><path d="m103.402344 30.570312h118.730468v90.171876h-118.730468zm0 0" fill="#4395fb"/><path d="m207.855469 114.425781h90.171875v105.226563h-90.171875zm0 0" fill="#4395fb"/><path d="m207.855469 291.652344h90.171875v108h-90.171875zm0 0" fill="#4395fb"/><path d="m63.855469 114.425781 16.527343 52.613281-16.527343 52.609376h-36.347657v-105.222657zm0 0" fill="#1980f9"/><path d="m63.855469 291.65625 16.527343 54-16.527343 53.996094h-36.347657v-107.996094zm0 0" fill="#1980f9"/><path d="m63.855469 114.425781h53.824219v105.226563h-53.824219zm0 0" fill="#4395fb"/><path d="m63.855469 291.65625h53.824219v107.996094h-53.824219zm0 0" fill="#4395fb"/><path d="m63.855469 30.570312 16.527343 45.085938-16.527343 45.085938h-36.347657v-83.773438c0-3.53125 2.867188-6.398438 6.40625-6.398438zm0 0" fill="#4395fb"/><path d="m63.855469 210.910156 16.527343 47.167969-16.527343 43.011719h-36.347657v-90.179688zm0 0" fill="#4395fb"/><path d="m63.855469 391.257812 16.527343 45.085938-16.527343 45.085938h-29.941407c-3.539062 0-6.40625-2.867188-6.40625-6.398438v-83.773438zm0 0" fill="#4395fb"/><path d="m63.855469 30.570312h53.824219v90.171876h-53.824219zm0 0" fill="#63a6fd"/><path d="m63.855469 210.910156h53.824219v90.179688h-53.824219zm0 0" fill="#63a6fd"/><path d="m63.855469 391.257812h53.824219v90.171876h-53.824219zm0 0" fill="#63a6fd"/><path d="m298.027344 120.742188h-90.171875v-90.171876h83.769531c3.535156 0 6.402344 2.867188 6.402344 6.402344zm0 0" fill="#63a6fd"/><path d="m207.855469 210.914062h90.171875v90.171876h-90.171875zm0 0" fill="#63a6fd"/><path d="m291.621094 481.429688h-83.769532v-90.171876h90.171876v83.769532c.003906 3.535156-2.863282 6.402344-6.402344 6.402344zm0 0" fill="#63a6fd"/><g fill="#274c93"><path d="m229.921875 70.808594h46.039063c4.300781 0 7.785156-3.488282 7.785156-7.789063s-3.484375-7.789062-7.785156-7.789062h-46.039063c-4.304687 0-7.789063 3.488281-7.789063 7.789062s3.484376 7.789063 7.789063 7.789063zm0 0"/><path d="m275.960938 80.5h-23.019532c-4.304687 0-7.789062 3.488281-7.789062 7.789062 0 4.300782 3.484375 7.789063 7.789062 7.789063h23.019532c4.300781 0 7.785156-3.488281 7.785156-7.789063 0-4.300781-3.484375-7.789062-7.785156-7.789062zm0 0"/><path d="m95.613281 145.40625h-46.039062c-4.300781 0-7.785157 3.484375-7.785157 7.785156 0 4.304688 3.484376 7.789063 7.785157 7.789063h46.039062c4.300781 0 7.789063-3.484375 7.789063-7.789063 0-4.300781-3.488282-7.785156-7.789063-7.785156zm0 0"/><path d="m49.574219 186.25h23.019531c4.304688 0 7.789062-3.484375 7.789062-7.789062 0-4.300782-3.484374-7.785157-7.789062-7.785157h-23.019531c-4.300781 0-7.785157 3.484375-7.785157 7.785157 0 4.304687 3.484376 7.789062 7.785157 7.789062zm0 0"/><path d="m185.785156 260.847656h-46.039062c-4.300782 0-7.785156 3.484375-7.785156 7.789063 0 4.300781 3.484374 7.785156 7.785156 7.785156h46.039062c4.304688 0 7.789063-3.484375 7.789063-7.785156 0-4.304688-3.484375-7.789063-7.789063-7.789063zm0 0"/><path d="m139.746094 251.15625h23.019531c4.304687 0 7.789063-3.488281 7.789063-7.789062 0-4.300782-3.484376-7.789063-7.789063-7.789063h-23.019531c-4.300782 0-7.785156 3.488281-7.785156 7.789063 0 4.300781 3.484374 7.789062 7.785156 7.789062zm0 0"/><path d="m274.226562 338.386719h-42.574218c-4.304688 0-7.789063 3.484375-7.789063 7.785156s3.484375 7.789063 7.789063 7.789063h42.574218c4.304688 0 7.789063-3.488282 7.789063-7.789063s-3.484375-7.785156-7.789063-7.785156zm0 0"/><path d="m93.882812 428.558594h-42.574218c-4.304688 0-7.789063 3.484375-7.789063 7.785156 0 4.304688 3.484375 7.789062 7.789063 7.789062h42.574218c4.304688 0 7.789063-3.484374 7.789063-7.789062 0-4.300781-3.484375-7.785156-7.789063-7.785156zm0 0"/></g></svg>