<svg height="512pt" viewBox="-15 0 512 512.00175" width="512pt" xmlns="http://www.w3.org/2000/svg"><path d="m311.699219 512h-301.894531c-5.414063 0-9.804688-4.390625-9.804688-9.804688v-447.589843c0-5.414063 4.390625-9.804688 9.804688-9.804688h301.894531c5.414062 0 9.804687 4.390625 9.804687 9.804688v447.589843c0 5.414063-4.390625 9.804688-9.804687 9.804688zm0 0" fill="#fed22b"/><path d="m284.753906 77.480469h-248.011718c-2.242188 0-4.066407 1.8125-4.066407 4.066406v393.707031c0 2.25 1.824219 4.066406 4.066407 4.066406h248.011718c2.253906 0 4.066406-1.816406 4.066406-4.066406v-393.707031c0-2.253906-1.8125-4.066406-4.066406-4.066406zm0 0" fill="#fff5f4"/><path d="m238.671875 51.765625v43.308594c0 3.839843-3.121094 6.957031-6.96875 6.957031h-141.898437c-3.847657 0-6.96875-3.117188-6.96875-6.957031v-43.308594c0-3.847656 3.121093-6.964844 6.96875-6.964844h26.148437c0-24.742187 20.058594-44.800781 44.800781-44.800781 6.5 0 12.671875 1.386719 18.253906 3.878906 15.644532 6.980469 26.546876 22.675782 26.546876 40.921875h26.148437c3.847656 0 6.96875 3.117188 6.96875 6.964844zm0 0" fill="#d8cecc"/><path d="m179.007812 3.878906c-15.644531 6.980469-26.546874 22.675782-26.546874 40.921875h-26.148438c-3.847656 0-6.96875 3.117188-6.96875 6.964844v43.308594c0 3.839843 3.121094 6.957031 6.96875 6.957031h-36.507812c-3.847657 0-6.964844-3.117188-6.964844-6.957031v-43.308594c0-3.847656 3.117187-6.964844 6.964844-6.964844h26.152343c0-24.742187 20.058594-44.800781 44.796875-44.800781 6.5 0 12.675782 1.386719 18.253906 3.878906zm0 0" fill="#c8bebc"/><path d="m362.933594 263.824219h-21.445313v-51.960938h21.445313zm0 0" fill="#4395fb"/><path d="m434.140625 281.472656c-55.617187-45.25-137.386719-36.84375-182.636719 18.773438-45.25 55.617187-36.84375 137.386718 18.773438 182.636718 55.617187 45.25 137.386718 36.84375 182.636718-18.773437s36.847657-137.386719-18.773437-182.636719zm0 0" fill="#63a6fd"/><path d="m377.941406 193.671875h-51.464844c-9.09375 0-16.535156 7.4375-16.535156 16.535156 0 9.09375 7.441406 16.53125 16.535156 16.53125h51.464844c9.097656 0 16.535156-7.4375 16.535156-16.53125s-7.441406-16.535156-16.535156-16.535156zm0 0" fill="#63a6fd"/><path d="m414.742188 466.523438c-13.539063 10.03125-28.695313 16.324218-44.226563 19.054687-37.9375 6.699219-78.15625-7.832031-102.660156-40.875-34.535157-46.59375-24.761719-112.351563 21.820312-146.886719 24.097657-17.867187 53.332031-23.875 80.714844-19.058594 25.554687 4.488282 49.503906 18.390626 66.171875 40.890626 34.535156 46.582031 24.761719 112.347656-21.820312 146.875zm0 0" fill="#fff5f4"/><path d="m370.515625 485.578125c-37.9375 6.699219-78.15625-7.832031-102.660156-40.875-34.535157-46.59375-24.761719-112.351563 21.824219-146.886719 24.09375-17.867187 53.332031-23.875 80.710937-19.058594-15.53125 2.734376-30.675781 9.023438-44.203125 19.058594-46.585938 34.535156-56.359375 100.292969-21.824219 146.886719 16.667969 22.476563 40.609375 36.390625 66.152344 40.875zm0 0" fill="#ebe0da"/><g fill="#285fb3"><path d="m352.210938 323.132812c4.320312 0 7.824218-3.5 7.824218-7.820312v-17.015625c0-4.320313-3.503906-7.824219-7.824218-7.824219-4.320313 0-7.824219 3.503906-7.824219 7.824219v17.015625c0 4.320312 3.503906 7.820312 7.824219 7.820312zm0 0"/><path d="m398.058594 302.761719c-3.742188-2.164063-8.527344-.878907-10.6875 2.863281l-8.503906 14.730469c-3.023438 5.234375.792968 11.738281 6.765624 11.738281 2.703126 0 5.332032-1.40625 6.78125-3.914062l8.507813-14.734376c2.160156-3.742187.878906-8.527343-2.863281-10.683593zm0 0"/><path d="m410.121094 356.566406c2.777344 0 2.804687-.414062 18.636718-9.558594 3.742188-2.160156 5.023438-6.941406 2.863282-10.683593-2.160156-3.742188-6.945313-5.023438-10.6875-2.863281l-14.730469 8.503906c-6.917969 3.992187-4.054687 14.601562 3.917969 14.601562zm0 0"/><path d="m436.082031 374.347656h-17.011719c-4.320312 0-7.824218 3.503906-7.824218 7.824219s3.503906 7.824219 7.824218 7.824219h17.011719c4.320313 0 7.824219-3.503906 7.824219-7.824219s-3.503906-7.824219-7.824219-7.824219zm0 0"/><path d="m428.757812 417.332031-14.734374-8.503906c-3.742188-2.160156-8.523438-.878906-10.683594 2.863281-2.160156 3.742188-.878906 8.523438 2.863281 10.683594 16.015625 9.25 15.894531 9.558594 18.636719 9.558594 7.972656 0 10.835937-10.605469 3.917968-14.601563zm0 0"/><path d="m392.414062 436.164062c-2.160156-3.742187-6.945312-5.023437-10.683593-2.863281-3.742188 2.160157-5.023438 6.945313-2.863281 10.6875l8.503906 14.730469c1.449218 2.511719 4.078125 3.914062 6.78125 3.914062 5.96875 0 9.792968-6.5 6.769531-11.734374zm0 0"/><path d="m352.210938 441.210938c-4.320313 0-7.824219 3.5-7.824219 7.820312v17.015625c0 4.320313 3.503906 7.820313 7.824219 7.820313 4.320312 0 7.824218-3.5 7.824218-7.820313v-17.015625c0-4.320312-3.503906-7.820312-7.824218-7.820312zm0 0"/><path d="m322.691406 433.300781c-3.742187-2.164062-8.527344-.878906-10.6875 2.863281l-8.503906 14.730469c-3.027344 5.238281.804688 11.738281 6.765625 11.738281 2.703125 0 5.335937-1.402343 6.78125-3.914062l8.507813-14.734375c2.160156-3.738281.878906-8.523437-2.863282-10.683594zm0 0"/><path d="m290.394531 408.828125-14.734375 8.503906c-6.910156 3.992188-4.054687 14.601563 3.921875 14.601563 2.777344 0 2.804688-.414063 18.636719-9.558594 3.742188-2.160156 5.023438-6.941406 2.863281-10.683594-2.160156-3.742187-6.945312-5.023437-10.6875-2.863281zm0 0"/><path d="m293.171875 382.171875c0-4.320313-3.503906-7.824219-7.824219-7.824219h-17.011718c-4.320313 0-7.824219 3.503906-7.824219 7.824219s3.503906 7.824219 7.824219 7.824219h17.011718c4.324219 0 7.824219-3.503906 7.824219-7.824219zm0 0"/><path d="m298.21875 341.964844-14.734375-8.503906c-3.742187-2.160157-8.527344-.878907-10.6875 2.863281-2.160156 3.742187-.875 8.523437 2.863281 10.683593 16.019532 9.25 15.898438 9.558594 18.640625 9.558594 7.972657 0 10.835938-10.605468 3.917969-14.601562zm0 0"/><path d="m317.046875 305.625c-2.160156-3.742188-6.945313-5.027344-10.683594-2.863281-3.742187 2.160156-5.023437 6.945312-2.863281 10.683593l8.503906 14.734376c2.160156 3.742187 6.945313 5.023437 10.6875 2.863281 3.742188-2.160157 5.023438-6.945313 2.863282-10.6875zm0 0"/><path d="m377.410156 344.519531c-3.636718-2.328125-8.476562-1.269531-10.804687 2.367188l-16.753907 25.972656c-3.355468 5.234375.46875 12.042969 6.578126 12.042969 2.578124 0 5.101562-1.273438 6.597656-3.605469l16.75-25.96875c2.332031-3.636719 1.273437-8.476563-2.367188-10.808594zm0 0"/></g><path d="m367.152344 384.390625c.417968-2.820313.273437-7.058594-2.808594-11.214844-4.089844-5.519531-9.90625-6.117187-12.214844-6.117187-12.058594 0-19.558594 13.980468-12.054687 24.109375 8.042969 10.847656 25.117187 6.414062 27.078125-6.777344zm0 0" fill="#f64346"/><path d="m73.253906 479.320312h-36.507812c-2.242188 0-4.070313-1.816406-4.070313-4.066406v-393.707031c0-2.253906 1.828125-4.066406 4.070313-4.066406h36.507812c-2.242187 0-4.070312 1.8125-4.070312 4.066406v393.707031c0 2.25 1.828125 4.066406 4.070312 4.066406zm0 0" fill="#ebe0da"/><path d="m132.589844 170.300781h126.542968c4.320313 0 7.824219-3.5 7.824219-7.820312 0-4.320313-3.503906-7.824219-7.824219-7.824219h-126.542968c-4.320313 0-7.824219 3.503906-7.824219 7.824219 0 4.320312 3.503906 7.820312 7.824219 7.820312zm0 0" fill="#c8bebc"/><path d="m105.890625 134.574219c-3.378906-2.691407-8.300781-2.128907-10.992187 1.25l-21 26.382812-5.199219-7.160156c-2.539063-3.496094-7.433594-4.269531-10.929688-1.730469-3.496093 2.539063-4.269531 7.429688-1.730469 10.925782l11.242188 15.484374c3.042969 4.1875 9.234375 4.316407 12.453125.273438l27.40625-34.433594c2.6875-3.378906 2.128906-8.300781-1.25-10.992187zm0 0" fill="#c8bebc"/><path d="m259.132812 220.011719h-126.542968c-4.320313 0-7.824219 3.5-7.824219 7.824219 0 4.320312 3.503906 7.820312 7.824219 7.820312h126.542968c4.320313 0 7.824219-3.5 7.824219-7.820312 0-4.324219-3.503906-7.824219-7.824219-7.824219zm0 0" fill="#c8bebc"/><path d="m187.53125 256h-54.941406c-4.320313 0-7.824219 3.503906-7.824219 7.824219 0 4.320312 3.503906 7.820312 7.824219 7.820312h54.941406c4.320312 0 7.820312-3.5 7.820312-7.820312 0-4.320313-3.5-7.824219-7.820312-7.824219zm0 0" fill="#c8bebc"/><path d="m105.890625 199.929688c-3.378906-2.691407-8.300781-2.132813-10.992187 1.25l-21 26.382812-5.199219-7.160156c-2.539063-3.496094-7.433594-4.273438-10.929688-1.734375-3.496093 2.539062-4.269531 7.433593-1.730469 10.929687l11.242188 15.484375c3.035156 4.179688 9.226562 4.324219 12.453125.273438l27.40625-34.433594c2.6875-3.378906 2.128906-8.300781-1.25-10.992187zm0 0" fill="#c8bebc"/></svg>