<svg height="511pt" viewBox="0 0 511.99974 511" width="511pt" xmlns="http://www.w3.org/2000/svg"><path d="m314.898438.5c-10.914063 0-273.042969 0-297.636719 0-9.539063 0-17.261719 7.722656-17.261719 17.25v476.191406c0 9.527344 7.722656 17.25 17.261719 17.25h297.636719c9.539062 0 17.261718-7.722656 17.261718-17.25v-476.191406c0-9.527344-7.722656-17.25-17.261718-17.25zm0 0" fill="#fff5f4"/><path d="m53.589844 511.191406h-36.328125c-9.539063 0-17.261719-7.722656-17.261719-17.25v-476.191406c0-9.527344 7.722656-17.25 17.261719-17.25h36.328125c-9.539063 0-17.261719 7.722656-17.261719 17.25v476.191406c0 9.53125 7.722656 17.25 17.261719 17.25zm0 0" fill="#ebe0da"/><path d="m275.582031 51.082031h-219.003906c-7.558594 0-13.691406 6.132813-13.691406 13.699219v76.335938c0 7.566406 6.132812 13.703124 13.691406 13.703124h219.003906c7.558594 0 13.691407-6.136718 13.691407-13.703124v-76.335938c0-7.566406-6.132813-13.699219-13.691407-13.699219zm0 0" fill="#63a6fd"/><path d="m275.582031 204.464844h-219.003906c-7.558594 0-13.691406 6.136718-13.691406 13.703125v76.332031c0 7.566406 6.132812 13.703125 13.691406 13.703125h219.003906c7.558594 0 13.691407-6.136719 13.691407-13.703125v-76.332031c0-7.566407-6.132813-13.703125-13.691407-13.703125zm0 0" fill="#63a6fd"/><path d="m275.582031 357.851562h-219.003906c-7.558594 0-13.691406 6.132813-13.691406 13.699219v76.335938c0 7.566406 6.132812 13.699219 13.691406 13.699219h219.003906c7.558594 0 13.691407-6.132813 13.691407-13.699219v-76.335938c0-7.566406-6.132813-13.699219-13.691407-13.699219zm0 0" fill="#63a6fd"/><path d="m90.035156 154.820312h-33.453125c-7.558593 0-13.691406-6.136718-13.691406-13.703124v-76.335938c0-7.566406 6.132813-13.699219 13.691406-13.699219h33.453125c-7.554687 0-13.691406 6.132813-13.691406 13.699219v76.335938c0 7.566406 6.136719 13.703124 13.691406 13.703124zm0 0" fill="#1980f9"/><path d="m90.035156 308.203125h-33.453125c-7.558593 0-13.691406-6.136719-13.691406-13.703125v-76.332031c0-7.566407 6.132813-13.703125 13.691406-13.703125h33.453125c-7.554687 0-13.691406 6.136718-13.691406 13.703125v76.332031c0 7.566406 6.136719 13.703125 13.691406 13.703125zm0 0" fill="#1980f9"/><path d="m90.035156 461.585938h-33.453125c-7.558593 0-13.691406-6.132813-13.691406-13.699219v-76.335938c0-7.566406 6.132813-13.699219 13.691406-13.699219h33.453125c-7.554687 0-13.691406 6.132813-13.691406 13.699219v76.335938c0 7.566406 6.136719 13.699219 13.691406 13.699219zm0 0" fill="#1980f9"/><g fill="#274c93"><path d="m73.597656 91.292969h179.21875c4.296875 0 7.785156-3.484375 7.785156-7.785157 0-4.296874-3.484374-7.785156-7.785156-7.785156h-179.21875c-4.300781 0-7.785156 3.488282-7.785156 7.785156 0 4.300782 3.484375 7.785157 7.785156 7.785157zm0 0"/><path d="m73.597656 130.179688h70.582032c4.300781 0 7.785156-3.484376 7.785156-7.785157 0-4.296875-3.484375-7.785156-7.785156-7.785156h-70.582032c-4.300781 0-7.785156 3.488281-7.785156 7.785156 0 4.300781 3.484375 7.785157 7.785156 7.785157zm0 0"/><path d="m175.320312 114.609375c-4.300781 0-7.785156 3.488281-7.785156 7.785156 0 4.300781 3.484375 7.785157 7.785156 7.785157h29.144532c4.296875 0 7.785156-3.484376 7.785156-7.785157 0-4.296875-3.488281-7.785156-7.785156-7.785156zm0 0"/><path d="m252.816406 228.617188h-179.21875c-4.300781 0-7.785156 3.488281-7.785156 7.785156 0 4.300781 3.484375 7.785156 7.785156 7.785156h179.21875c4.296875 0 7.785156-3.484375 7.785156-7.785156 0-4.296875-3.488281-7.785156-7.785156-7.785156zm0 0"/><path d="m73.597656 283.074219h51.078125c4.300781 0 7.785157-3.484375 7.785157-7.785157 0-4.296874-3.484376-7.785156-7.785157-7.785156h-51.078125c-4.300781 0-7.785156 3.488282-7.785156 7.785156 0 4.300782 3.484375 7.785157 7.785156 7.785157zm0 0"/><path d="m73.597656 397.082031h128.273438c4.300781 0 7.785156-3.484375 7.785156-7.785156 0-4.296875-3.484375-7.785156-7.785156-7.785156h-128.273438c-4.300781 0-7.785156 3.488281-7.785156 7.785156 0 4.300781 3.484375 7.785156 7.785156 7.785156zm0 0"/><path d="m214.820312 420.398438h-47.804687c-4.300781 0-7.785156 3.488281-7.785156 7.785156 0 4.300781 3.484375 7.785156 7.785156 7.785156h47.804687c4.296876 0 7.785157-3.484375 7.785157-7.785156 0-4.296875-3.488281-7.785156-7.785157-7.785156zm0 0"/><path d="m135.875 420.398438h-62.277344c-4.300781 0-7.785156 3.488281-7.785156 7.785156 0 4.300781 3.484375 7.785156 7.785156 7.785156h62.277344c4.300781 0 7.785156-3.484375 7.785156-7.785156 0-4.296875-3.484375-7.785156-7.785156-7.785156zm0 0"/></g><path d="m390.183594 510.007812c-1.246094.167969-2.503906.3125-3.757813.4375-76.832031 7.898438-145.527343-47.984374-153.425781-124.828124-7.898438-76.832032 47.984375-145.527344 124.828125-153.425782 11.074219-1.144531 21.996094-.957031 32.574219.433594 62.808594 8.222656 114.09375 58.628906 120.851562 124.394531 7.777344 75.578125-46.167968 143.273438-121.070312 152.988281zm0 0" fill="#f64346"/><path d="m390.183594 510.007812c-1.246094.167969-2.503906.3125-3.757813.4375-76.832031 7.898438-145.527343-47.984374-153.425781-124.828124-7.902344-76.832032 47.984375-145.527344 124.828125-153.425782 11.074219-1.144531 21.996094-.957031 32.570313.433594-74.898438 9.71875-128.84375 77.414062-121.070313 152.992188 6.757813 65.765624 58.042969 116.171874 120.855469 124.390624zm0 0" fill="#cb353c"/><path d="m475.308594 379.992188c-3.871094 46.375-38.789063 85.09375-85.074219 93.273437-5.914063 1.046875-12.019531 1.597656-18.269531 1.597656 0 0 0 0-.007813 0-52.429687 0-97.355469-39.765625-102.824219-92.953125-5.894531-57.410156 36.527344-108.894531 94.332032-113.761718 4.078125-.34375 7.671875 2.4375 8.480468 6.277343.113282.539063.175782 1.089844.175782 1.660157v87.277343c0 4.398438 3.5625 7.960938 7.960937 7.960938h87.296875c4.671875 0 8.324219 4.003906 7.929688 8.667969zm0 0" fill="#7af4a9"/><path d="m390.234375 473.265625c-5.917969 1.046875-12.019531 1.597656-18.269531 1.597656 0 0 0 0-.011719 0-52.425781 0-97.351563-39.765625-102.820313-92.953125-5.898437-57.410156 36.523438-108.894531 94.332032-113.761718 4.078125-.34375 7.671875 2.4375 8.480468 6.277343-42.921874 16.171875-71.382812 59.777344-66.484374 107.484375 4.828124 46.960938 40.417968 83.457032 84.773437 91.355469zm0 0" fill="#6fd191"/></svg>