<svg height="512pt" viewBox="-48 0 512 512" width="512pt" xmlns="http://www.w3.org/2000/svg"><path d="m416 0v512h-336c-44.160156 0-80-35.839844-80-80v-352c0-44.160156 35.839844-80 80-80zm0 0" fill="#8382ff"/><path d="m416 0v160h-336c-44.160156 0-80-35.839844-80-80s35.839844-80 80-80zm0 0" fill="#e4edfb"/><path d="m80 64h336v32h-336zm0 0" fill="#d7e1f2"/><path d="m352 336c0 70.691406-57.308594 128-128 128s-128-57.308594-128-128 57.308594-128 128-128 128 57.308594 128 128zm0 0" fill="#e76e54"/><path d="m280.574219 302.0625-22.621094-22.621094-33.953125 33.933594-33.953125-33.933594-22.621094 22.621094 33.949219 33.9375-33.949219 33.9375 22.621094 22.621094 33.953125-33.933594 33.953125 33.933594 22.621094-22.621094-33.949219-33.9375zm0 0" fill="#fff"/></svg>