<svg height="512pt" viewBox="-1 0 512 512.00052" width="512pt" xmlns="http://www.w3.org/2000/svg"><path d="m496.691406 498.398438c-18.144531 18.136718-47.550781 18.136718-65.6875 0l-102.585937-102.585938-68.769531-68.757812 65.6875-65.691407 71.300781 71.304688 100.054687 100.042969c18.136719 18.136718 18.136719 47.550781 0 65.6875zm0 0" fill="#4395fb"/><path d="m396.636719 332.667969c-17.28125 26.15625-40.707031 47.90625-68.21875 63.144531l-68.769531-68.757812 65.6875-65.691407zm0 0" fill="#1980f9"/><path d="m194.046875 388.09375c-106.996094 0-194.046875-87.046875-194.046875-194.046875 0-106.996094 87.050781-194.046875 194.046875-194.046875 107 0 194.046875 87.050781 194.046875 194.046875 0 107-87.050781 194.046875-194.046875 194.046875zm0 0" fill="#63a6fd"/><path d="m346.429688 194.050781c0 77.992188-58.59375 142.292969-134.15625 151.292969-5.980469.71875-12.066407 1.085938-18.230469 1.085938-84.15625 0-152.378907-68.222657-152.378907-152.378907s68.222657-152.386719 152.378907-152.386719c6.164062 0 12.25.363282 18.230469 1.082032 75.5625 9 134.15625 73.316406 134.15625 151.304687zm0 0" fill="#ebe0da"/><path d="m212.273438 345.34375c-5.980469.71875-12.066407 1.085938-18.230469 1.085938-84.15625 0-152.378907-68.222657-152.378907-152.378907s68.222657-152.386719 152.378907-152.386719c6.164062 0 12.25.363282 18.230469 1.082032-75.566407 9-134.148438 73.316406-134.148438 151.304687 0 77.992188 58.582031 142.292969 134.148438 151.292969zm0 0" fill="#d8cecc"/><path d="m150.488281 232.109375c0 16-12.972656 28.96875-28.972656 28.96875s-28.96875-12.96875-28.96875-28.96875 12.96875-28.972656 28.96875-28.972656 28.972656 12.972656 28.972656 28.972656zm0 0" fill="#f2bb88"/><path d="m295.546875 232.113281c0 16-12.96875 28.96875-28.96875 28.96875s-28.972656-12.96875-28.972656-28.96875 12.972656-28.96875 28.972656-28.96875 28.96875 12.96875 28.96875 28.96875zm0 0" fill="#f2bb88"/><path d="m269.367188 118.039062v134.710938c0 20.800781-14.449219 39.625-31.28125 53.261719-9.054688 7.324219-18.792969 13.144531-27.335938 16.96875-7.351562 3.292969-13.824219 5.09375-18.230469 5.09375-19.03125 0-76.84375-33.730469-76.84375-75.324219v-134.710938c0-13.738281 11.136719-24.863281 24.875-24.863281h103.949219c13.742188 0 24.867188 11.125 24.867188 24.863281zm0 0" fill="#f2bb88"/><path d="m276.710938 174.683594h-27.984376c-14.316406 0-25.925781-11.605469-25.925781-25.925782v-31.140624c0-14.316407 11.609375-25.925782 25.925781-25.925782h6.867188c14.320312 0 25.929688 11.609375 25.929688 25.925782v52.257812c0 2.65625-2.152344 4.808594-4.8125 4.808594zm0 0" fill="#a86000"/><path d="m210.75 322.980469c-7.351562 3.292969-13.824219 5.09375-18.230469 5.09375-19.03125 0-76.84375-33.730469-76.84375-75.324219v-134.710938c0-13.738281 11.136719-24.863281 24.875-24.863281h36.460938c-13.742188 0-24.875 11.125-24.875 24.863281v134.710938c0 31.980469 34.164062 59.3125 58.613281 70.230469zm0 0" fill="#e3a76f"/><path d="m266.574219 83.332031v10.695313c0 39.929687-52.136719 81.417968-123.792969 86.972656h-.011719c-5.957031.46875-12.050781.675781-18.269531.625h-13.957031c-7.855469 0-14.210938-6.210938-14.210938-13.875v-46.8125c0-24 19.96875-43.449219 44.617188-43.449219h119.636719c3.3125 0 5.988281 2.613281 5.988281 5.84375zm0 0" fill="#b96a00"/><path d="m132.792969 120.9375v46.8125c0 6.226562 4.195312 11.5 9.976562 13.25-5.957031.46875-12.050781.675781-18.269531.625h-13.957031c-7.855469 0-14.210938-6.210938-14.210938-13.875v-46.8125c0-24 19.96875-43.449219 44.617188-43.449219h36.457031c-24.644531 0-44.613281 19.449219-44.613281 43.449219zm0 0" fill="#a86000"/><g fill="#7c3f2c"><path d="m207.851562 248.355469c-4.316406 0-7.8125 3.496093-7.8125 7.8125 0 4.140625-3.371093 7.511719-7.511718 7.511719-4.144532 0-7.515625-3.371094-7.515625-7.511719 0-4.316407-3.496094-7.8125-7.8125-7.8125-14.992188 0-7.550781 30.949219 15.328125 30.949219 22.910156 0 30.28125-30.949219 15.324218-30.949219zm0 0"/><path d="m241.007812 222.285156c0 5.03125-4.074218 9.105469-9.101562 9.105469s-9.105469-4.074219-9.105469-9.105469c0-5.027344 4.078125-9.101562 9.105469-9.101562s9.101562 4.074218 9.101562 9.101562zm0 0"/><path d="m162.25 222.285156c0 5.03125-4.074219 9.105469-9.105469 9.105469-5.027343 0-9.101562-4.074219-9.101562-9.105469 0-5.027344 4.074219-9.101562 9.101562-9.101562 5.03125 0 9.105469 4.074218 9.105469 9.101562zm0 0"/><path d="m253.742188 197.644531c-12.953126-8.144531-33.410157-4.191406-35.699219-3.714843-4.21875.878906-6.921875 5.007812-6.050781 9.226562.875 4.222656 5.003906 6.9375 9.226562 6.074219 6.292969-1.292969 18.433594-1.988281 24.207031 1.640625 3.65625 2.296875 8.476563 1.195312 10.769531-2.453125 2.296876-3.652344 1.199219-8.476563-2.453124-10.773438zm0 0"/><path d="m173.0625 203.171875c.878906-4.222656-1.832031-8.359375-6.054688-9.242187-2.289062-.476563-22.746093-4.425782-35.699218 3.714843-3.65625 2.296875-4.753906 7.121094-2.457032 10.773438 2.296876 3.652343 7.121094 4.75 10.773438 2.457031 5.769531-3.628906 17.910156-2.933594 24.207031-1.644531 4.230469.875 8.351563-1.839844 9.230469-6.058594zm0 0"/></g></svg>