<svg height="512pt" viewBox="-1 0 512 512.00017" width="512pt" xmlns="http://www.w3.org/2000/svg"><path d="m224.691406 216.976562-8.960937 24.480469c-1.078125 2.925781-4.3125 4.4375-7.246094 3.359375l-30.128906-11.03125c-3.132813 4.632813-6.742188 8.949219-10.796875 12.816406l15.988281 27.828126c1.558594 2.695312.613281 6.136718-2.082031 7.703124l-7.890625 4.53125-14.714844 8.449219c-2.695313 1.558594-6.148437.632813-7.703125-2.070312l-11.902344-20.730469-4.085937-7.101562c-1.511719.4375-3.039063.820312-4.582031 1.164062-1.183594.277344-2.386719.507812-3.597657.722656-2.777343.488282-5.566406.808594-8.328125.996094l-5.640625 31.59375c-.546875 3.070312-3.472656 5.101562-6.539062 4.5625l-25.664063-4.574219c-3.070312-.558593-5.121094-3.484375-4.570312-6.550781l5.636718-31.59375c-5.128906-2.269531-9.984374-5.101562-14.492187-8.410156l-24.625 20.582031c-2.398437 1.992187-5.953125 1.679687-7.953125-.714844l-16.714844-20c-2-2.394531-1.679687-5.953125.703125-7.953125l24.617188-20.5625c-2.417969-4.953125-4.335938-10.234375-5.683594-15.769531l-32.089844-.0625c-3.121093-.011719-5.64062475-2.539063-5.64062475-5.660156l.05078125-26.066407c.0117187-3.109374 2.5429685-5.640624 5.6640625-5.640624l32.070312.070312c1.367188-5.472656 3.304688-10.738281 5.785157-15.738281l-24.554688-20.664063c-2.375-2.023437-2.675781-5.578125-.671875-7.964844l16.796875-19.9375c2.011719-2.382812 5.566407-2.683593 7.953125-.671874l24.53125 20.664062c4.476563-3.265625 9.339844-6.078125 14.535156-8.347656l-5.503906-31.601563c-.539062-3.082031 1.511719-5.996093 4.59375-6.535156l25.671875-4.476563c3.078125-.53125 6.003907 1.523438 6.53125 4.59375l2.3125 13.269532 3.191407 18.332031c5.664062.382813 11.1875 1.390625 16.519531 2.945313l16.089843-27.757813c1.566407-2.683594 5.019532-3.609375 7.714844-2.050781l22.550782 13.082031c2.699218 1.578125 3.609374 5.019531 2.054687 7.726563l-16.113281 27.746093c4.023437 3.867188 7.632812 8.167969 10.761718 12.855469l30.171876-10.90625c2.925781-1.070312 6.160156.457031 7.21875 3.390625l8.863281 24.511719c1.070312 2.933594-.445313 6.167968-3.378907 7.226562l-30.183593 10.917969c.613281 5.671875.582031 11.28125-.019531 16.765625l30.121093 11.019531c2.933594 1.082031 4.4375 4.316407 3.359375 7.238281zm0 0" fill="#1980f9"/><path d="m377.117188 424.640625-8.957032 24.476563c-1.078125 2.9375-4.324218 4.4375-7.246094 3.359374l-30.144531-11.03125c-3.121093 4.636719-6.726562 8.949219-10.78125 12.816407l15.988281 27.828125c1.554688 2.707031.613282 6.148437-2.085937 7.703125l-7.890625 4.53125-14.710938 8.453125c-2.707031 1.554687-6.148437.632812-7.703124-2.074219l-11.902344-20.71875-4.085938-7.101563c-1.515625.425782-3.039062.808594-4.59375 1.160157-1.183594.273437-2.375.511719-3.589844.71875-2.789062.484375-5.566406.808593-8.335937.992187l-5.628906 31.59375c-.550781 3.070313-3.484375 5.113282-6.542969 4.5625l-25.660156-4.570312c-3.070313-.5625-5.125-3.484375-4.574219-6.542969l5.640625-31.605469c-5.132812-2.269531-9.984375-5.101562-14.496094-8.40625l-24.632812 20.578125c-2.386719 2.003907-5.941406 1.679688-7.945313-.714843l-16.710937-20c-2.003906-2.394532-1.683594-5.953126.703125-7.953126l24.613281-20.558593c-2.414062-4.957031-4.332031-10.234375-5.691406-15.773438l-32.078125-.0625c-3.121094-.007812-5.640625-2.539062-5.640625-5.660156l.050781-26.066406c.011719-3.109375 2.539063-5.640625 5.660156-5.628907l32.070313.0625c1.367187-5.476562 3.308594-10.742187 5.777344-15.742187l-24.542969-20.664063c-2.386719-2.019531-2.6875-5.566406-.675781-7.960937l16.796874-19.941406c2.003907-2.371094 5.570313-2.683594 7.941407-.671875l24.542969 20.675781c4.480468-3.277344 9.34375-6.085937 14.539062-8.359375l-5.507812-31.601562c-.539063-3.070313 1.515624-5.992188 4.59375-6.53125l25.671874-4.46875c3.082032-.539063 5.996094 1.511718 6.535157 4.582031l2.308593 13.269531 3.195313 18.332031c5.660156.382813 11.1875 1.390625 16.507813 2.945313l16.101562-27.746094c1.554688-2.695312 5.019531-3.617188 7.703125-2.054688l22.550781 13.078126c2.695313 1.574218 3.621094 5.015624 2.054688 7.722656l-16.101563 27.757812c4.023438 3.855469 7.628907 8.160156 10.761719 12.847656l30.160156-10.910156c2.9375-1.058594 6.171875.457032 7.226563 3.390625l8.867187 24.511719c1.058594 2.933594-.457031 6.167969-3.390625 7.226562l-30.171875 10.917969c.609375 5.671875.578125 11.28125-.019531 16.765625l30.117187 11.023438c2.925782 1.078125 4.4375 4.3125 3.359376 7.238281zm0 0" fill="#1980f9"/><g fill="#285fb3"><path d="m130.582031 266.375c-1.183593.277344-2.386719.507812-3.597656.722656-2.78125.488282-5.570313.808594-8.328125.996094l-5.640625 31.59375c-.546875 3.070312-3.472656 5.101562-6.539063 4.5625l-25.664062-4.574219c-3.070312-.558593-5.121094-3.484375-4.574219-6.550781l5.640625-31.59375c-5.128906-2.269531-9.984375-5.101562-14.492187-8.410156l-24.625 20.582031c-2.398438 1.992187-5.953125 1.679687-7.953125-.714844l-16.714844-20c-2-2.394531-1.679688-5.953125.703125-7.953125l24.617187-20.5625c-2.417968-4.953125-4.335937-10.234375-5.683593-15.769531l-32.089844-.0625c-3.121094-.011719-5.640625-2.539063-5.640625-5.660156l.0507812-26.066407c.0117188-3.109374 2.5429688-5.640624 5.6640628-5.640624l32.066406.070312c1.371094-5.472656 3.308594-10.738281 5.789062-15.738281l-24.554687-20.664063c-2.375-2.023437-2.675781-5.578125-.671875-7.964844l16.796875-19.9375c2.011719-2.382812 5.566406-2.683593 7.949219-.671874l24.535156 20.664062c4.476562-3.265625 9.339844-6.078125 14.535156-8.347656l-5.503906-31.601563c-.539062-3.082031 1.511719-5.996093 4.589844-6.535156l25.675781-4.476563c3.078125-.53125 6.003906 1.523438 6.53125 4.59375l2.3125 13.269532c-12.203125 13.035156-21.347656 28.785156-26.542969 46.027344h-.011718c-5.070313 16.804687-6.398438 35.035156-3.183594 53.511718 3.296875 18.910156 10.980468 35.9375 21.816406 50.246094l.011719-.011719c6.519531 8.617188 14.183593 16.226563 22.726562 22.667969zm0 0"/><path d="m173.570312 286.664062-14.714843 8.449219c-2.695313 1.558594-6.148438.632813-7.703125-2.070312l-11.902344-20.730469c10.523438 6.542969 22.09375 11.429688 34.320312 14.351562zm0 0"/><path d="m283 474.042969c-1.183594.273437-2.375.511719-3.589844.71875-2.789062.484375-5.566406.808593-8.335937.992187l-5.628907 31.59375c-.550781 3.070313-3.484374 5.113282-6.542968 4.5625l-25.660156-4.570312c-3.070313-.5625-5.125-3.484375-4.574219-6.542969l5.640625-31.605469c-5.132813-2.269531-9.984375-5.101562-14.496094-8.40625l-24.636719 20.578125c-2.382812 2.003907-5.9375 1.679688-7.941406-.714843l-16.714844-20c-2-2.394532-1.679687-5.953126.707031-7.953126l24.613282-20.558593c-2.414063-4.957031-4.332032-10.234375-5.691406-15.773438l-32.078126-.0625c-3.121093-.007812-5.640624-2.539062-5.640624-5.660156l.050781-26.066406c.011719-3.109375 2.539062-5.640625 5.660156-5.628907l32.070313.0625c1.367187-5.476562 3.308593-10.742187 5.777343-15.742187l-24.542969-20.664063c-2.386718-2.019531-2.6875-5.566406-.675781-7.960937l16.796875-19.941406c2-2.371094 5.570313-2.683594 7.941406-.671875l24.542969 20.675781c4.480469-3.277344 9.34375-6.085937 14.539063-8.359375l-5.507813-31.601562c-.539062-3.070313 1.515625-5.992188 4.59375-6.53125l25.671875-4.46875c3.082032-.539063 5.992188 1.511718 6.53125 4.582031l2.3125 13.269531c-12.203125 13.035156-21.347656 28.785156-26.542968 46.027344h-.007813c-5.070313 16.816406-6.410156 35.035156-3.183594 53.511718 3.296875 18.914063 10.980469 35.9375 21.8125 50.246094h.011719c6.523438 8.605469 14.183594 16.226563 22.71875 22.664063zm0 0"/><path d="m325.996094 494.324219-14.710938 8.453125c-2.707031 1.554687-6.148437.632812-7.703125-2.074219l-11.902343-20.71875c10.523437 6.542969 22.09375 11.417969 34.316406 14.339844zm0 0"/></g><path d="m167.414062 179.757812c4.378907 25.117188-9.085937 49.207032-31.253906 59.292969-.09375.042969-.199218.089844-.292968.125-4.078126 1.839844-8.441407 3.195313-13.046876 3.996094-5.0625.882813-10.085937 1.042969-14.960937.539063-23.835937-2.402344-44.136719-20.367188-48.453125-45.128907-4.28125-24.566406 8.503906-48.167969 29.824219-58.625 4.554687-2.25 9.515625-3.886719 14.765625-4.800781 4.601562-.800781 9.171875-1 13.628906-.652344.101562.003906.214844.011719.320312.019532 24.269532 1.992187 45.09375 20.117187 49.46875 45.234374zm0 0" fill="#63a6fd"/><path d="m140.707031 184.410156c1.269531 7.289063-.375 14.636719-4.632812 20.6875-1.695313 2.402344-3.714844 4.488282-5.988281 6.199219-.609376.46875-1.234376.894531-1.871094 1.304687-3.027344 1.914063-6.421875 3.222657-10.046875 3.855469-7.289063 1.269531-14.636719-.375-20.6875-4.628906-6.0625-4.257813-10.09375-10.613281-11.367188-17.902344-1.269531-7.296875.375-14.644531 4.640625-20.699219 4.253906-6.050781 10.613282-10.082031 17.898438-11.351562 3.628906-.632812 7.265625-.539062 10.765625.230469.734375.167969 1.46875.355469 2.199219.59375 2.71875.839843 5.324218 2.117187 7.734374 3.804687 6.050782 4.253906 10.082032 10.613282 11.355469 17.90625zm0 0" fill="#1980f9"/><path d="m319.839844 387.421875c4.378906 25.117187-9.085938 49.207031-31.253906 59.292969-.09375.042968-.195313.089844-.292969.125-4.078125 1.835937-8.441407 3.195312-13.046875 3.996094-5.0625.882812-10.082032 1.039062-14.960938.539062-23.835937-2.402344-44.136718-20.367188-48.453125-45.132812-4.28125-24.566407 8.503907-48.164063 29.824219-58.625 4.554688-2.246094 9.515625-3.882813 14.765625-4.796876 4.601563-.800781 9.171875-1.003906 13.628906-.652343.101563 0 .214844.007812.320313.019531 24.269531 1.992188 45.09375 20.117188 49.46875 45.234375zm0 0" fill="#63a6fd"/><path d="m288.5 412.765625c-2.695312 3.816406-5.992188 6.65625-9.589844 8.585937-15.605468 8.335938-36.984375-.3125-40.367187-19.761718-2.632813-15.078125 7.457031-29.425782 22.53125-32.050782 1.566406-.269531 3.101562-.414062 4.59375-.433593 21.929687-.363281 35.988281 24.976562 22.832031 43.660156zm0 0" fill="#1980f9"/><path d="m107.863281 243.71875c-.007812 0-.007812 0-.019531 0l.011719-.011719zm0 0" fill="#4395fb"/><path d="m107.863281 243.71875c-.007812 0-.007812 0-.019531 0l.011719-.011719zm0 0" fill="#4395fb"/><path d="m130.082031 211.292969c-.609375.46875-1.230469.894531-1.863281 1.308593-3.027344 1.917969-6.429688 3.222657-10.046875 3.855469-7.289063 1.265625-14.640625-.371093-20.695313-4.632812-6.058593-4.253907-10.089843-10.609375-11.367187-17.898438-1.261719-7.296875.375-14.648437 4.648437-20.695312 4.25-6.054688 10.605469-10.085938 17.894532-11.363281 3.628906-.632813 7.269531-.539063 10.761718.238281.738282.167969 1.472657.351562 2.199219.589843-2.28125 1.710938-4.3125 3.796876-5.992187 6.203126-4.273438 6.042968-5.910156 13.394531-4.644532 20.695312 1.273438 7.289062 5.308594 13.644531 11.363282 17.894531 2.402344 1.691407 5.015625 2.96875 7.742187 3.804688zm0 0" fill="#285fb3"/><path d="m278.90625 421.351562c-15.605469 8.335938-36.984375-.3125-40.367188-19.761718-2.632812-15.078125 7.457032-29.425782 22.53125-32.050782 1.566407-.269531 3.101563-.414062 4.59375-.433593-11.601562 17.625-5.539062 42.230469 13.242188 52.246093zm0 0" fill="#285fb3"/><path d="m86.027344 193.472656c3.300781 18.910156 10.980468 35.9375 21.816406 50.246094-23.835938-2.417969-44.117188-20.386719-48.441406-45.136719-4.28125-24.5625 8.503906-48.160156 29.808594-58.613281-5.070313 16.808594-6.398438 35.027344-3.183594 53.503906zm0 0" fill="#4395fb"/><path d="m260.273438 451.378906c-23.839844-2.414062-44.128907-20.375-48.441407-45.132812-4.285156-24.554688 8.492188-48.152344 29.808594-58.613282-5.070313 16.816407-6.410156 35.023438-3.183594 53.5 3.296875 18.914063 10.980469 35.9375 21.816407 50.246094zm0 0" fill="#4395fb"/><path d="m509.511719 166.371094-10.566407 28.875c-1.273437 3.453125-5.089843 5.238281-8.542968 3.960937l-35.523438-13.023437c-3.679687 5.476562-7.941406 10.554687-12.71875 15.117187l18.839844 32.839844c1.824219 3.191406.722656 7.246094-2.460938 9.09375l-9.308593 5.339844-17.335938 9.972656c-3.183593 1.824219-7.25.734375-9.082031-2.457031l-14.019531-24.449219-4.820313-8.378906c-1.773437.5-3.578125.953125-5.402344 1.371093-1.402343.308594-2.8125.589844-4.242187.839844-3.277344.578125-6.5625.964844-9.820313 1.171875l-6.65625 37.273438c-.640624 3.617187-4.09375 6.023437-7.714843 5.382812l-30.242188-5.402343c-3.621093-.65625-6.035156-4.105469-5.382812-7.726563l6.648437-37.273437c-6.046875-2.6875-11.769531-6.023438-17.078125-9.921876l-29.042969 24.261719c-2.820312 2.363281-7.007812 1.980469-9.371093-.839843l-19.691407-23.601563c-2.363281-2.828125-1.980468-7.019531.839844-9.382813l29.019532-24.25c-2.851563-5.847656-5.109376-12.070312-6.707032-18.613281l-37.824218-.082031c-3.679688-.011719-6.644532-2.996094-6.636719-6.675781l.0625-30.753907c.011719-3.671874 2.996093-6.65625 6.679687-6.648437l37.800782.085937c1.609374-6.449218 3.898437-12.671874 6.8125-18.5625l-28.925782-24.394531c-2.800781-2.375-3.164062-6.574219-.789062-9.394531l19.804687-23.515625c2.363281-2.8125 6.5625-3.164063 9.363281-.800781l28.917969 24.398437c5.285157-3.855469 11.019531-7.175781 17.136719-9.851562l-6.480469-37.285157c-.632812-3.628906 1.792969-7.070312 5.414063-7.703124l30.273437-5.265626c3.621094-.632812 7.0625 1.78125 7.695313 5.410157l2.714844 15.65625 3.765624 21.628906c6.667969.457031 13.1875 1.640625 19.460938 3.484375l18.984375-32.742188c1.835937-3.171874 5.910156-4.261718 9.082031-2.417968l26.585938 15.441406c3.171875 1.855469 4.253906 5.917969 2.417968 9.101562l-18.996093 32.746094c4.738281 4.5625 8.988281 9.628906 12.691406 15.167969l35.554687-12.867187c3.449219-1.246094 7.265626.550781 8.511719 4l10.449219 28.917968c1.246094 3.476563-.539062 7.289063-4 8.535156l-35.566406 12.867188c.707031 6.699219.675781 13.3125-.039063 19.78125l35.511719 13.015625c3.441406 1.273437 5.214844 5.089844 3.949219 8.542969zm0 0" fill="#1980f9"/><path d="m398.566406 224.632812c-1.402344.308594-2.8125.589844-4.242187.839844-3.277344.578125-6.5625.964844-9.820313 1.171875l-6.65625 37.273438c-.640625 3.617187-4.09375 6.023437-7.714844 5.382812l-30.242187-5.402343c-3.621094-.65625-6.035156-4.105469-5.382813-7.726563l6.648438-37.273437c-6.046875-2.6875-11.769531-6.023438-17.078125-9.921876l-29.042969 24.261719c-2.820312 2.363281-7.007812 1.980469-9.375-.839843l-19.6875-23.601563c-2.363281-2.828125-1.980468-7.019531.839844-9.382813l29.019531-24.25c-2.851562-5.847656-5.109375-12.070312-6.707031-18.613281l-37.824219-.082031c-3.679687-.011719-6.644531-2.996094-6.636719-6.675781l.0625-30.753907c.011719-3.671874 2.996094-6.65625 6.675782-6.648437l37.804687.085937c1.609375-6.449218 3.898438-12.671874 6.8125-18.5625l-28.925781-24.394531c-2.800781-2.375-3.164062-6.574219-.789062-9.394531l19.804687-23.515625c2.363281-2.8125 6.5625-3.164063 9.359375-.800781l28.917969 24.398437c5.289062-3.855469 11.023437-7.175781 17.140625-9.851562l-6.480469-37.285157c-.632813-3.628906 1.792969-7.070312 5.414063-7.703124l30.273437-5.265626c3.621094-.632812 7.0625 1.78125 7.695313 5.410157l2.714843 15.65625c-14.390625 15.378906-25.164062 33.957031-31.289062 54.292969h-.011719c-5.984375 19.832031-7.558594 41.335937-3.773438 63.144531 3.875 22.300781 12.929688 42.394531 25.703126 59.273437h.007812c7.6875 10.164063 16.714844 19.152344 26.785156 26.753906zm0 0" fill="#285fb3"/><path d="m449.226562 248.574219-17.335937 9.972656c-3.183594 1.824219-7.246094.734375-9.082031-2.457031l-14.019532-24.449219c12.398438 7.722656 26.035157 13.480469 40.4375 16.933594zm0 0" fill="#285fb3"/><path d="m442.007812 122.441406c5.152344 29.636719-10.726562 58.054688-36.859374 69.945313-.113282.054687-.234376.109375-.347657.148437-4.804687 2.167969-9.953125 3.769532-15.375 4.714844-5.972656 1.039062-11.890625 1.222656-17.636719.628906-28.101562-2.84375-52.027343-24.042968-57.105468-53.261718-5.039063-28.984376 10.039062-56.824219 35.171875-69.160157 5.371093-2.648437 11.21875-4.578125 17.410156-5.65625 5.421875-.945312 10.808594-1.179687 16.0625-.765625.121094 0 .253906.007813.378906.019532 28.609375 2.363281 53.148438 23.753906 58.300781 53.386718zm0 0" fill="#63a6fd"/><path d="m410.523438 127.925781c1.496093 8.597657-.445313 17.265625-5.464844 24.40625-2 2.832031-4.382813 5.292969-7.0625 7.308594-.71875.554687-1.453125 1.054687-2.203125 1.539063-3.574219 2.257812-7.574219 3.800781-11.851563 4.546874-8.589844 1.496094-17.25-.445312-24.382812-5.46875-7.144532-5.019531-11.894532-12.523437-13.390625-21.121093-1.496094-8.609375.445312-17.28125 5.472656-24.421875 5.019531-7.136719 12.515625-11.894532 21.105469-13.390625 4.273437-.742188 8.5625-.632813 12.6875.273437.867187.199219 1.730468.425782 2.59375.703125 3.199218.992188 6.273437 2.5 9.113281 4.488281 7.132813 5.023438 11.886719 12.527344 13.382813 21.136719zm0 0" fill="#1980f9"/><path d="m397.996094 159.640625c-.714844.550781-1.453125 1.058594-2.207032 1.535156-3.570312 2.261719-7.570312 3.804688-11.84375 4.550781-8.59375 1.496094-17.253906-.445312-24.386718-5.472656-7.144532-5.019531-11.890625-12.527344-13.386719-21.121094-1.5-8.605468.4375-17.273437 5.464844-24.417968 5.019531-7.132813 12.515625-11.894532 21.113281-13.386719 4.269531-.746094 8.5625-.640625 12.679688.269531.871093.199219 1.730468.425782 2.589843.707032-2.683593 2.011718-5.078125 4.476562-7.070312 7.308593-5.027344 7.132813-6.96875 15.8125-5.472657 24.417969 1.503907 8.59375 6.25 16.101562 13.394532 21.121094 2.832031 1.992187 5.910156 3.492187 9.125 4.488281zm0 0" fill="#285fb3"/><path d="m371.773438 197.878906c-28.097657-2.847656-52.007813-24.054687-57.089844-53.261718-5.039063-28.980469 10.039062-56.808594 35.160156-69.148438-5.980469 19.835938-7.558594 41.328125-3.773438 63.136719 3.878907 22.300781 12.929688 42.394531 25.703126 59.273437zm0 0" fill="#4395fb"/></svg>