<svg height="512pt" viewBox="-48 0 512 512" width="512pt" xmlns="http://www.w3.org/2000/svg"><path d="m416 0v512h-336c-44.160156 0-80-35.839844-80-80v-352c0-44.160156 35.839844-80 80-80zm0 0" fill="#8382ff"/><path d="m320 416h-192c-17.679688 0-32-14.320312-32-32v-128c0-17.679688 14.320312-32 32-32h192c17.679688 0 32 14.320312 32 32v128c0 17.679688-14.320312 32-32 32zm0 0" fill="#e76e54"/><path d="m416 0v160h-336c-44.160156 0-80-35.839844-80-80s35.839844-80 80-80zm0 0" fill="#e4edfb"/><path d="m80 64h336v32h-336zm0 0" fill="#d7e1f2"/><path d="m160 304h128v32h-128zm0 0" fill="#fff"/></svg>