<svg height="512pt" viewBox="0 0 512 512" width="512pt" xmlns="http://www.w3.org/2000/svg"><path d="m482 10c11.050781 0 20 8.949219 20 20 0 11.039062-8.960938 20-20 20h-452c-11.050781 0-20-8.949219-20-20 0-11.039062 8.960938-20 20-20zm0 0" fill="#656d88"/><path d="m482 50v326h-452v-326zm0 0" fill="#ede9e8"/><path d="m276 482c0 11.046875-8.953125 20-20 20s-20-8.953125-20-20 8.953125-20 20-20 20 8.953125 20 20zm0 0" fill="#ed5575"/><path d="m326 90c0 5.523438-4.476562 10-10 10s-10-4.476562-10-10 4.476562-10 10-10 10 4.476562 10 10zm0 0"/><path d="m512 30c0-16.542969-13.457031-30-30-30h-452c-16.574219 0-30 13.425781-30 30 0 13.035156 8.359375 24.152344 20 28.28125v307.71875h-10c-5.523438 0-10 4.476562-10 10s4.476562 10 10 10h236v67.71875c-11.640625 4.128906-20 15.246094-20 28.28125 0 16.542969 13.457031 30 30 30s30-13.457031 30-30c0-13.035156-8.359375-24.152344-20-28.28125v-67.71875h236c5.523438 0 10-4.476562 10-10s-4.476562-10-10-10h-10v-307.703125c11.390625-4.019531 20-14.964844 20-28.296875zm-256 462c-5.515625 0-10-4.484375-10-10s4.484375-10 10-10 10 4.484375 10 10-4.484375 10-10 10zm-226-472h452c5.515625 0 10 4.484375 10 10 0 5.523438-4.480469 10-10 10h-452c-5.515625 0-10-4.484375-10-10 0-5.523438 4.480469-10 10-10zm10 346v-306h432v306zm0 0"/><path d="m423.164062 289.03125c-.03125-.03125-.058593-.070312-.09375-.101562l-20-20c-3.90625-3.90625-10.234374-3.90625-14.140624 0-3.90625 3.902343-3.90625 10.234374 0 14.140624l2.925781 2.929688h-265.855469v-151.859375l2.929688 2.929687c3.90625 3.90625 10.234374 3.90625 14.140624 0s3.90625-10.234374 0-14.140624l-20-20c-.03125-.035157-.066406-.0625-.097656-.09375-3.90625-3.804688-10.183594-3.769532-14.042968.09375l-20 20c-3.90625 3.902343-3.90625 10.234374 0 14.140624s10.234374 3.90625 14.144531 0l2.929687-2.929687v151.859375h-36.003906c-5.523438 0-10 4.476562-10 10s4.476562 10 10 10h36v30c0 5.523438 4.476562 10 10 10s10-4.476562 10-10v-30h265.855469l-2.925781 2.929688c-3.90625 3.90625-3.90625 10.234374 0 14.140624s10.234374 3.90625 14.140624 0l20-20c.035157-.03125.0625-.070312.09375-.101562 3.703126-3.8125 3.847657-9.980469 0-13.9375zm0 0"/><path d="m442 80h-86c-5.523438 0-10 4.476562-10 10s4.476562 10 10 10h86c5.523438 0 10-4.476562 10-10s-4.476562-10-10-10zm0 0"/><path d="m159.742188 187.972656c5.59375 4.480469 11.824218 14.125 17.855468 23.453125 11.492188 17.78125 22.347656 34.574219 38.402344 34.574219 16.046875 0 26.902344-16.792969 38.398438-34.570312 4.566406-7.066407 9.292968-14.375 13.761718-19.441407 5.136719-5.820312 7.578125-5.988281 7.839844-5.988281s2.703125.167969 7.839844 5.988281c4.46875 5.066407 9.195312 12.375 13.761718 19.441407 11.496094 17.777343 22.351563 34.570312 38.398438 34.570312 16.054688 0 26.910156-16.792969 38.402344-34.574219 6.027344-9.328125 12.261718-18.972656 17.855468-23.453125 4.308594-3.457031 5-9.75 1.542969-14.058594-3.453125-4.308593-9.746093-5-14.058593-1.546874-8.113282 6.511718-15.242188 17.535156-22.136719 28.199218-4.566407 7.066406-9.292969 14.375-13.761719 19.441406-5.132812 5.824219-7.582031 5.992188-7.84375 5.992188s-2.703125-.167969-7.839844-5.988281c-4.46875-5.066407-9.195312-12.375-13.761718-19.441407-11.496094-17.777343-22.351563-34.570312-38.398438-34.570312s-26.902344 16.792969-38.398438 34.570312c-4.566406 7.066407-9.292968 14.375-13.761718 19.441407-5.136719 5.820312-7.578125 5.988281-7.839844 5.988281s-2.710938-.167969-7.847656-5.992188c-4.46875-5.066406-9.191406-12.375-13.757813-19.441406-6.894531-10.660156-14.023437-21.6875-22.136719-28.199218-4.308593-3.453126-10.605468-2.761719-14.058593 1.546874-3.457031 4.308594-2.761719 10.601563 1.542969 14.058594zm0 0"/></svg>