<svg height="512pt" viewBox="0 -26 512 512" width="512pt" xmlns="http://www.w3.org/2000/svg"><path d="m382 150c22.089844 0 40 17.910156 40 40s-17.910156 40-40 40zm0 0" fill="#f2df33"/><path d="m382 350c0 11.050781-8.949219 20-20 20s-20-8.949219-20-20c0-11.386719 0-308.859375 0-320 0-11.050781 8.949219-20 20-20 11.039062 0 20 8.960938 20 20zm0 0" fill="#ed5575"/><path d="m342 50v280l-1.589844-1.179688c-51.75-38.53125-119.320312-59.261718-184.410156-59.421874-6.699219-.019532-13.371094.179687-20 .601562v-160c70.480469 4.679688 146.339844-15.828125 203.109375-57.859375zm0 0" fill="#ede9e8"/><path d="m136 110v160c-28.285156 0-61.058594 0-86 0-22.089844 0-40-17.910156-40-40v-80c0-22.089844 17.910156-40 40-40zm0 0" fill="#ed5575"/><path d="m116 420c0 16.570312-13.429688 30-30 30s-30-13.429688-30-30v-150h60zm0 0" fill="#656d88"/><path d="m312 120c0 5.523438-4.476562 10-10 10s-10-4.476562-10-10 4.476562-10 10-10 10 4.476562 10 10zm0 0"/><path d="m46 279.824219v140.175781c0 22.054688 17.945312 40 40 40s40-17.945312 40-40v-80h10c16.542969 0 30-13.457031 30-30v-30.394531c60.191406 2.136719 120.011719 22.066406 166 55.460937v14.933594c0 16.542969 13.457031 30 30 30s30-13.457031 30-30v-111.007812c22.796875-4.644532 40-24.84375 40-48.992188s-17.203125-44.347656-40-48.992188v-111.007812c0-16.574219-13.425781-30-30-30-16.542969 0-30 13.457031-30 30v14.9375c-52.824219 38.640625-124.679688 59.199219-193 55.230469-.78125-.046875-2.898438-.167969-3-.167969h-86c-27.570312 0-50 22.429688-50 50v80c0 26.222656 20.296875 47.777344 46 49.824219zm60 140.175781c0 11.027344-8.972656 20-20 20s-20-8.972656-20-20v-140h40zm30-100h-10v-40h10c.742188 0 4.164062-.277344 10-.460938v30.460938c0 5.515625-4.484375 10-10 10zm276-130c0 13.035156-8.359375 24.152344-20 28.28125v-56.5625c11.640625 4.128906 20 15.246094 20 28.28125zm-60-160c0-5.515625 4.484375-10 10-10 5.519531 0 10 4.476562 10 10v320c0 5.515625-4.484375 10-10 10s-10-4.484375-10-10zm-20 39.242188v241.554687c-50.191406-32.660156-113.324219-51.242187-175.96875-51.398437-3.332031-.007813-6.6875.035156-10.03125.132812v-139.035156c65.386719 2.050781 133.121094-16.6875 186-51.253906zm-312 80.757812c0-16.542969 13.457031-30 30-30h76v140c-18.480469 0-63.410156 0-76 0-16.542969 0-30-13.457031-30-30zm0 0"/><path d="m175.992188 160.039062c.203124 0 .40625-.003906.609374-.015624 31.890626-1.925782 65.980469-7.882813 91.183594-15.9375 5.261719-1.683594 8.160156-7.308594 6.480469-12.570313s-7.308594-8.160156-12.570313-6.480469c-23.710937 7.578125-55.96875 13.191406-86.296874 15.023438-5.511719.332031-9.710938 5.070312-9.378907 10.582031.320313 5.308594 4.722657 9.398437 9.972657 9.398437zm0 0"/><path d="m502 180h-40c-5.523438 0-10 4.476562-10 10s4.476562 10 10 10h40c5.523438 0 10-4.476562 10-10s-4.476562-10-10-10zm0 0"/><path d="m464.628906 129.792969 28.292969-28.28125c3.902344-3.90625 3.90625-10.234375 0-14.140625-3.902344-3.90625-10.234375-3.910156-14.140625-.003906l-28.292969 28.28125c-3.902343 3.90625-3.90625 10.234374 0 14.140624 3.902344 3.90625 10.234375 3.910157 14.140625.003907zm0 0"/><path d="m478.78125 292.632812c3.902344 3.902344 10.234375 3.902344 14.140625-.003906s3.902344-10.234375 0-14.140625l-28.292969-28.28125c-3.902344-3.902343-10.234375-3.902343-14.140625.003907s-3.902343 10.234374 0 14.140624zm0 0"/></svg>