<svg height="512pt" viewBox="0 -4 512.00051 512" width="512pt" xmlns="http://www.w3.org/2000/svg"><path d="m501.539062 253.828125-70.855468 12.5c-.835938 12.757813-3.070313 25.140625-6.503906 37.019531l62.296874 35.949219c6.042969 3.5 8.128907 11.230469 4.628907 17.285156l-29.226563 50.617188c-3.496094 6.054687-11.230468 8.128906-17.285156 4.632812l-62.328125-35.972656c-8.683594 9.039063-18.308594 17.167969-28.765625 24.164063l24.609375 67.621093c2.386719 6.554688-1.007813 13.804688-7.574219 16.214844l-19.179687 6.976563-35.742188 13c-6.558593 2.386718-13.828125-.984376-16.21875-7.554688l-18.308593-50.355469-6.296876-17.261719c-3.5.367188-7.019531.640626-10.582031.808594-2.710937.132813-5.445312.195313-8.210937.195313-6.335938 0-12.613282-.34375-18.78125-1.003907l-24.617188 67.617188c-2.378906 6.570312-9.648437 9.941406-16.21875 7.554688l-54.921875-19.976563c-6.554687-2.410156-9.949219-9.660156-7.5625-16.214844l24.605469-67.621093c-10.453125-6.996094-20.078125-15.125-28.765625-24.164063l-62.328125 35.972656c-6.054688 3.496094-13.796875 1.421875-17.292969-4.632812l-29.214843-50.617188c-3.5-6.054687-1.425782-13.785156 4.628906-17.285156l62.285156-35.949219c-3.433594-11.878906-5.632812-24.261718-6.503906-37.019531l-70.84375-12.5c-6.894532-1.203125-11.484375-7.769531-10.269532-14.664063l10.140626-57.5625c1.214843-6.871093 7.785156-11.480468 14.675781-10.265624l70.804687 12.496093c5.121094-11.5625 11.449219-22.457031 18.835938-32.535156l-46.261719-55.113281c-4.480469-5.371094-3.789063-13.332032 1.5625-17.835938l44.78125-37.578125c5.34375-4.484375 13.335937-3.78125 17.820313 1.5625l46.238281 55.109375c11.15625-5.5 22.984375-9.835937 35.332031-12.863281v-71.914063c0-6.996093 5.65625-12.664062 12.65625-12.664062h58.441406c6.996094 0 12.652344 5.667969 12.652344 12.664062v71.914063c12.351562 3.027344 24.179688 7.363281 35.335938 12.863281l46.238281-55.109375c4.484375-5.34375 12.464843-6.046875 17.816406-1.5625l44.785156 37.578125c5.339844 4.503906 6.042969 12.464844 1.558594 17.835938l-46.257813 55.113281c7.386719 10.078125 13.703126 20.972656 18.824219 32.535156l70.835938-12.496093c6.871093-1.214844 13.4375 3.394531 14.644531 10.265624l10.148438 57.5625c1.214843 6.894532-3.371094 13.460938-10.265626 14.664063zm0 0" fill="#1980f9"/><path d="m371.273438 483.558594c-.242188.113281-.484376.207031-.734376.300781l-19.179687 6.976563-35.742187 13c-6.558594 2.390624-13.828126-.984376-16.214844-7.550782l-18.3125-50.355468-6.304688-17.261719c-3.488281.363281-7.007812.636719-10.570312.804687-2.722656.136719-5.449219.199219-8.222656.199219-6.328126 0-12.601563-.34375-18.773438-1.003906l-24.617188 67.617187c-2.378906 6.566406-9.648437 9.941406-16.214843 7.550782l-54.921875-19.976563c-6.558594-2.40625-9.953125-9.65625-7.574219-16.214844l24.617187-67.617187c-10.457031-7-20.082031-15.128906-28.765624-24.167969l-62.328126 35.972656c-6.066406 3.5-13.796874 1.425781-17.296874-4.628906l-29.214844-50.617187c-3.5-6.054688-1.425782-13.785157 4.628906-17.285157l62.289062-35.953125c-3.4375-11.878906-5.636718-24.257812-6.507812-37.019531l-70.84375-12.496094c-6.894531-1.203125-11.480469-7.773437-10.277344-14.664062l10.152344-57.5625c1.214844-6.875 7.78125-11.484375 14.664062-10.265625l70.8125 12.496094c5.125-11.566407 11.453126-22.460938 18.835938-32.539063l-46.257812-55.109375c-4.496094-5.375-3.792969-13.335938 1.558593-17.839844l44.785157-37.574218c5.332031-4.484376 13.324218-3.78125 17.816406 1.558593l46.238281 55.113281c11.15625-5.5 22.984375-9.835937 35.335937-12.863281v-71.914062c0-7 5.65625-12.66406275 12.652344-12.66406275h58.441406c7 0 12.65625 5.66406275 12.65625 12.66406275v46.824219c-15.882812 16.121093-29.710937 34.265624-41.054687 54.023437-48.628906 84.632813-47.433594 192.390625 8.601563 277.292969 26.175781 39.671875 62.757812 71.882812 105.84375 92.75zm0 0" fill="#285fb3"/><path d="m394.8125 252.324219c0 73.484375-57.101562 133.644531-129.382812 138.484375-3.113282.210937-6.253907.3125-9.417969.3125-76.691407 0-138.800781-62.160156-138.800781-138.796875 0-75.371094 60.539062-138.808594 139.617187-138.808594 76.273437.4375 137.984375 62.421875 137.984375 138.808594zm0 0" fill="#63a6fd"/><path d="m265.429688 390.808594c-3.113282.210937-6.253907.3125-9.417969.3125-76.691407 0-138.800781-62.160156-138.800781-138.796875 0-75.371094 60.539062-138.808594 139.617187-138.808594-48.625 84.628906-47.433594 192.390625 8.601563 277.292969zm0 0" fill="#4395fb"/><g fill="#fed22b"><path d="m323.824219 238.378906c0 19.628906-8.339844 37.300782-21.652344 49.675782-.136719.144531-.28125.269531-.429687.40625-5.425782 4.957031-8.621094 10.351562-10.496094 15.304687-3.414063 9.03125-2.460938 16.59375-2.609375 17.347656h-65.261719c.011719.03125.828125-7.980469-2.722656-17.347656-1.90625-5.039063-5.082032-10.476563-10.320313-15.25-.164062-.148437-.332031-.304687-.492187-.460937-13.542969-12.59375-21.933594-30.640626-21.640625-50.660157.523437-36.726562 30.589843-66.570312 67.316406-66.832031 6.535156-.042969 12.871094.835938 18.863281 2.523438 28.527344 8.003906 49.445313 34.203124 49.445313 65.292968zm0 0"/><path d="m256.007812 123.574219c-4.339843 0-7.859374 3.515625-7.859374 7.855469v19.675781c0 4.339843 3.519531 7.855469 7.859374 7.855469 4.335938 0 7.855469-3.515626 7.855469-7.855469v-19.675781c0-4.339844-3.519531-7.855469-7.855469-7.855469zm0 0"/><path d="m184.945312 157.183594c-3.070312-3.066406-8.042968-3.066406-11.109374 0-3.070313 3.070312-3.070313 8.042968 0 11.113281 14.855468 14.851563 15.253906 16.210937 19.464843 16.210937 6.9375 0 10.523438-8.449218 5.554688-13.410156zm0 0"/><path d="m178.671875 239.054688c0-4.339844-3.515625-7.855469-7.855469-7.855469h-19.675781c-4.339844 0-7.855469 3.515625-7.855469 7.855469 0 4.339843 3.515625 7.855468 7.855469 7.855468h19.675781c4.339844 0 7.855469-3.515625 7.855469-7.855468zm0 0"/><path d="m187.019531 296.203125-13.914062 13.914063c-3.070313 3.066406-3.070313 8.042968 0 11.109374 3.066406 3.070313 8.042969 3.070313 11.109375 0l13.914062-13.910156c3.066406-3.070312 3.066406-8.042968 0-11.113281-3.066406-3.066406-8.042968-3.066406-11.109375 0zm0 0"/><path d="m324.265625 182.207031 13.914063-13.910156c3.070312-3.070313 3.070312-8.042969 0-11.113281-3.066407-3.066406-8.042969-3.066406-11.109376 0l-13.914062 13.914062c-3.066406 3.066406-3.066406 8.042969 0 11.109375 3.066406 3.070313 8.042969 3.070313 11.109375 0zm0 0"/><path d="m360.871094 231.199219h-19.671875c-4.339844 0-7.859375 3.515625-7.859375 7.855469 0 4.339843 3.519531 7.855468 7.859375 7.855468h19.671875c4.339844 0 7.859375-3.515625 7.859375-7.855468 0-4.339844-3.519531-7.855469-7.859375-7.855469zm0 0"/><path d="m324.996094 296.203125c-3.070313-3.066406-8.042969-3.066406-11.109375 0-3.070313 3.070313-3.070313 8.042969 0 11.113281l13.910156 13.910156c3.070313 3.070313 8.042969 3.070313 11.109375 0 3.070312-3.066406 3.070312-8.042968 0-11.109374zm0 0"/></g><path d="m288.636719 321.113281v19.464844c0 9.007813-3.65625 17.167969-9.5625 23.074219-1.445313 1.445312-3.027344 2.757812-4.734375 3.917968-5.21875 3.550782-11.535156 5.636719-18.332032 5.636719-18.019531 0-32.632812-14.613281-32.632812-32.628906v-19.464844zm0 0" fill="#1980f9"/><path d="m257.320312 303.769531c3.550782 9.363281 2.722657 17.378907 2.722657 17.347657h-36.660157c0 .03125.824219-7.984376-2.726562-17.347657-1.914062-5.039062-5.078125-10.476562-10.316406-15.253906-.179688-.144531-.335938-.304687-.503906-.460937-13.535157-12.589844-21.933594-30.640626-21.632813-50.660157.523437-36.726562 30.589844-66.570312 67.316406-66.832031 6.535157-.042969 12.875.839844 18.867188 2.523438-28.179688 7.941406-49.078125 33.742187-49.519531 64.308593-.300782 20.019531 8.097656 38.070313 21.632812 50.660157.167969.15625.324219.316406.503906.460937 5.238282 4.777344 8.398438 10.214844 10.316406 15.253906zm0 0" fill="#fdc202"/><path d="m302.171875 288.054688c-.136719.144531-.28125.269531-.429687.40625-5.425782 4.957031-8.621094 10.351562-10.496094 15.304687h-70.59375c-1.90625-5.039063-5.082032-10.476563-10.320313-15.25-.164062-.148437-.332031-.304687-.492187-.460937zm0 0" fill="#1980f9"/><path d="m257.320312 303.769531h-36.664062c-1.914062-5.039062-5.078125-10.476562-10.316406-15.253906-.179688-.144531-.335938-.304687-.503906-.460937h36.664062c.167969.15625.324219.316406.503906.460937 5.238282 4.777344 8.398438 10.214844 10.316406 15.253906zm0 0" fill="#285fb3"/><path d="m274.34375 367.574219c-5.214844 3.550781-11.542969 5.636719-18.332031 5.636719-18.027344 0-32.628907-14.613282-32.628907-32.632813v-19.460937h36.660157v19.460937c0 11.21875 5.667969 21.117187 14.300781 26.996094zm0 0" fill="#285fb3"/></svg>