<svg height="512pt" viewBox="-48 0 512 512" width="512pt" xmlns="http://www.w3.org/2000/svg"><path d="m416 0v512h-336c-44.160156 0-80-35.839844-80-80v-352c0-44.160156 35.839844-80 80-80zm0 0" fill="#8382ff"/><path d="m416 0v160h-336c-44.160156 0-80-35.839844-80-80s35.839844-80 80-80zm0 0" fill="#e4edfb"/><path d="m80 64h336v32h-336zm0 0" fill="#d7e1f2"/><path d="m144 246.398438v125.105468h-16c-26.464844 0-48 21.535156-48 48s21.535156 48 48 48 48-21.535156 48-48v-146.894531l128-25.601563v92.480469h-16c-26.464844 0-48 21.535157-48 48 0 26.464844 21.535156 48 48 48s48-21.535156 48-48v-179.488281zm0 0" fill="#ffd337"/><g fill="#fff"><path d="m64 208h32v32h-32zm0 0"/><path d="m64 272h32v32h-32zm0 0"/></g></svg>