<svg height="511pt" viewBox="-31 0 511 511.99975" width="511pt" xmlns="http://www.w3.org/2000/svg"><path d="m436.117188 277.179688c9.691406 13.207031.25 31.828124-16.128907 31.828124h-48.476562v86.996094c0 11.050782-9.011719 20-20.050781 20h-59.996094c-11.050782 0-19.949219 8.949219-19.949219 20v65.996094h-180.046875v-10.539062c-.007812-192.742188-125.34375-232.730469-64.074219-379.039063 68.617188-163.871094 344.066407-125.742187 344.066407 76.589844zm0 0" fill="#ffcebf"/><path d="m303.511719 189.011719c0 60.75-49.246094 109.996093-109.996094 109.996093-60.746094 0-109.996094-49.246093-109.996094-109.996093s49.25-109.996094 109.996094-109.996094c60.75 0 109.996094 49.246094 109.996094 109.996094zm0 0" fill="#90e36a"/><path d="m263.515625 376.003906c0 5.523438-4.476563 10-10 10s-10-4.476562-10-10c0-5.523437 4.476563-10 10-10s10 4.476563 10 10zm0 0"/><path d="m91.472656 512h180.042969c5.523437 0 10-4.476562 10-10v-65.996094c0-5.515625 4.464844-10 9.949219-10h59.996094c16.570312 0 30.050781-13.457031 30.050781-30v-76.996094h38.476562c11.371094 0 21.625-6.300781 26.765625-16.445312 5.136719-10.140625 4.152344-22.132812-2.570312-31.296875l-62.746094-85.558594c-1.390625-95.488281-63.695312-163.9375-151.335938-181.546875-85.566406-17.191406-176.234374 19.152344-211.929687 104.402344-35.167969 83.96875-11.488281 135.355469 15.929687 194.851562 22.203126 48.175782 47.367188 102.777344 47.371094 188.046876v10.539062c0 5.523438 4.476563 10 10 10zm-39.203125-216.953125c-26.496093-57.492187-47.421875-102.898437-15.652343-178.761719 34.65625-82.769531 122.550781-105.976562 189.546874-92.515625 62.414063 12.539063 135.296876 63.339844 135.296876 165.242188 0 2.128906.679687 4.199219 1.9375 5.914062l64.65625 88.167969c2.273437 3.101562 2.59375 7 .855468 10.433594-1.738281 3.433594-5.074218 5.480468-8.921875 5.480468h-48.476562c-5.523438 0-10 4.476563-10 10v86.996094c0 5.515625-4.507813 10-10.050781 10h-59.996094c-16.515625 0-29.949219 13.457032-29.949219 30v55.996094h-160.046875v-.539062c-.003906-89.65625-26.140625-146.375-49.199219-196.414063zm0 0"/><path d="m283.515625 376.003906c0 5.523438 4.476563 10 9.996094 10h40c5.523437 0 10-4.476562 10-10 0-5.523437-4.476563-10-10-10h-40c-5.519531 0-9.996094 4.476563-9.996094 10zm0 0"/><path d="m193.515625 199.011719h60c5.523437 0 10-4.476563 10-10 0-5.523438-4.476563-10-10-10h-50v-50c0-5.519531-4.476563-10-10-10s-10 4.480469-10 10v60c0 5.523437 4.476563 10 10 10zm0 0"/><path d="m193.515625 309.007812c66.167969 0 119.996094-53.832031 119.996094-119.996093 0-66.167969-53.828125-119.996094-119.996094-119.996094-66.164063 0-119.996094 53.828125-119.996094 119.996094 0 66.164062 53.832031 119.996093 119.996094 119.996093zm0-219.992187c55.140625 0 99.996094 44.859375 99.996094 99.996094s-44.855469 99.996093-99.996094 99.996093c-55.136719 0-99.996094-44.859374-99.996094-99.996093s44.859375-99.996094 99.996094-99.996094zm0 0"/></svg>