<svg height="512pt" viewBox="0 -2 512 512" width="512pt" xmlns="http://www.w3.org/2000/svg"><path d="m53.753906 367.949219c4.339844 0 7.855469-3.515625 7.855469-7.851563v-27.667968c0-13.902344 11.308594-25.210938 25.207031-25.210938h161.332032v52.878906c0 4.335938 3.515624 7.851563 7.851562 7.851563s7.851562-3.515625 7.851562-7.851563v-52.878906h161.332032c13.898437 0 25.207031 11.308594 25.207031 25.210938v27.667968c0 4.335938 3.515625 7.851563 7.855469 7.851563 4.335937 0 7.851562-3.515625 7.851562-7.851563v-27.667968c0-22.5625-18.355468-40.917969-40.914062-40.917969h-161.332032v-36.910157c0-4.335937-3.515624-7.851562-7.851562-7.851562s-7.851562 3.515625-7.851562 7.851562v36.910157h-161.332032c-22.558594 0-40.914062 18.355469-40.914062 40.917969v27.667968c0 4.335938 3.515625 7.851563 7.851562 7.851563zm0 0" fill="#285fb3"/><path d="m501.527344 344.042969h-86.558594c-5.78125 0-10.472656 4.683593-10.472656 10.472656v143.269531c0 5.78125 4.691406 10.472656 10.472656 10.472656h86.558594c5.78125 0 10.472656-4.691406 10.472656-10.472656v-143.269531c0-5.789063-4.691406-10.472656-10.472656-10.472656zm0 0" fill="#63a6fd"/><path d="m97.03125 344.042969h-86.558594c-5.78125 0-10.472656 4.683593-10.472656 10.472656v143.269531c0 5.78125 4.691406 10.472656 10.472656 10.472656h86.558594c5.78125 0 10.472656-4.691406 10.472656-10.472656v-143.269531c0-5.789063-4.691406-10.472656-10.472656-10.472656zm0 0" fill="#63a6fd"/><path d="m351.628906 344.042969h-191.257812c-5.792969 0-10.472656 4.683593-10.472656 10.472656v143.269531c0 5.78125 4.679687 10.472656 10.472656 10.472656h191.257812c5.792969 0 10.472656-4.691406 10.472656-10.472656v-143.269531c0-5.789063-4.679687-10.472656-10.472656-10.472656zm0 0" fill="#63a6fd"/><path d="m451.613281 508.261719h-36.644531c-5.78125 0-10.472656-4.691407-10.472656-10.472657v-143.269531c0-5.792969 4.691406-10.472656 10.472656-10.472656h36.644531c-5.777343 0-10.46875 4.679687-10.46875 10.472656v143.269531c0 5.78125 4.691407 10.472657 10.46875 10.472657zm0 0" fill="#4395fb"/><path d="m47.117188 508.261719h-36.644532c-5.78125 0-10.472656-4.691407-10.472656-10.472657v-143.269531c0-5.792969 4.691406-10.472656 10.472656-10.472656h36.644532c-5.777344 0-10.46875 4.679687-10.46875 10.472656v143.269531c0 5.78125 4.691406 10.472657 10.46875 10.472657zm0 0" fill="#4395fb"/><path d="m197.019531 508.261719h-36.648437c-5.792969 0-10.472656-4.691407-10.472656-10.472657v-143.269531c0-5.792969 4.679687-10.472656 10.472656-10.472656h36.648437c-5.792969 0-10.472656 4.679687-10.472656 10.472656v143.269531c0 5.78125 4.679687 10.472657 10.472656 10.472657zm0 0" fill="#4395fb"/><path d="m338.71875 387.144531h-156.363281c-4.335938 0-7.855469 3.519531-7.855469 7.855469s3.519531 7.851562 7.855469 7.851562h156.363281c4.335938 0 7.851562-3.515624 7.851562-7.851562s-3.515624-7.855469-7.851562-7.855469zm0 0" fill="#285fb3"/><path d="m338.71875 419.257812h-156.363281c-4.335938 0-7.855469 3.515626-7.855469 7.851563s3.519531 7.851563 7.855469 7.851563h156.363281c4.335938 0 7.851562-3.515626 7.851562-7.851563s-3.515624-7.851563-7.851562-7.851563zm0 0" fill="#285fb3"/><path d="m235.40625 451.367188h-53.050781c-4.335938 0-7.855469 3.515624-7.855469 7.851562 0 4.339844 3.519531 7.855469 7.855469 7.855469h53.050781c4.335938 0 7.855469-3.515625 7.855469-7.855469 0-4.335938-3.515625-7.851562-7.855469-7.851562zm0 0" fill="#285fb3"/><path d="m80.28125 387.144531h-53.050781c-4.339844 0-7.855469 3.519531-7.855469 7.855469s3.515625 7.851562 7.855469 7.851562h53.050781c4.335938 0 7.851562-3.515624 7.851562-7.851562s-3.515624-7.855469-7.851562-7.855469zm0 0" fill="#285fb3"/><path d="m80.28125 419.257812h-53.050781c-4.339844 0-7.855469 3.515626-7.855469 7.851563s3.515625 7.851563 7.855469 7.851563h53.050781c4.335938 0 7.851562-3.515626 7.851562-7.851563s-3.515624-7.851563-7.851562-7.851563zm0 0" fill="#285fb3"/><path d="m65.699219 451.367188h-23.890625c-4.335938 0-7.851563 3.515624-7.851563 7.851562 0 4.339844 3.515625 7.855469 7.851563 7.855469h23.890625c4.339843 0 7.855469-3.515625 7.855469-7.855469 0-4.335938-3.515626-7.851562-7.855469-7.851562zm0 0" fill="#285fb3"/><path d="m431.71875 402.851562h53.050781c4.339844 0 7.855469-3.515624 7.855469-7.851562s-3.515625-7.855469-7.855469-7.855469h-53.050781c-4.335938 0-7.851562 3.519531-7.851562 7.855469s3.515624 7.851562 7.851562 7.851562zm0 0" fill="#285fb3"/><path d="m484.769531 419.257812h-53.050781c-4.335938 0-7.851562 3.515626-7.851562 7.851563s3.515624 7.851563 7.851562 7.851563h53.050781c4.339844 0 7.855469-3.515626 7.855469-7.851563s-3.515625-7.851563-7.855469-7.851563zm0 0" fill="#285fb3"/><path d="m470.191406 451.542969h-38.472656c-4.335938 0-7.851562 3.515625-7.851562 7.851562 0 4.335938 3.515624 7.851563 7.851562 7.851563h38.472656c4.335938 0 7.851563-3.515625 7.851563-7.851563 0-4.335937-3.515625-7.851562-7.851563-7.851562zm0 0" fill="#285fb3"/><path d="m338.25 29.230469c-55.832031-45.421875-137.917969-36.984375-183.339844 18.847656-45.425781 55.828125-36.988281 137.914063 18.84375 183.335937 55.832032 45.425782 137.914063 36.988282 183.339844-18.84375 45.421875-55.832031 36.988281-137.914062-18.84375-183.339843zm0 0" fill="#63a6fd"/><path d="m318.773438 215.003906c-13.582032 10.070313-28.785157 16.386719-44.375 19.128906-38.09375 6.722657-78.46875-7.851562-103.074219-41.046874-34.671875-46.761719-24.859375-112.78125 21.902343-147.449219 24.1875-17.933594 53.527344-23.964844 81.023438-19.128907 25.652344 4.503907 49.695312 18.460938 66.425781 41.046876 34.671875 46.761718 24.859375 112.777343-21.902343 147.449218zm0 0" fill="#fff5f4"/><path d="m274.398438 234.136719c-38.09375 6.722656-78.46875-7.855469-103.074219-41.046875-34.671875-46.761719-24.859375-112.78125 21.902343-147.449219 24.1875-17.9375 53.527344-23.96875 81.023438-19.128906-15.589844 2.742187-30.792969 9.054687-44.375 19.128906-74.6875 55.371094-45.683594 172.664063 44.523438 188.496094zm0 0" fill="#ebe0da"/><g fill="#63a6fd"><path d="m256 38.269531c-4.335938 0-7.851562 3.515625-7.851562 7.855469v17.078125c0 4.335937 3.515624 7.851563 7.851562 7.851563s7.851562-3.515626 7.851562-7.851563v-17.078125c0-4.339844-3.515624-7.855469-7.851562-7.855469zm0 0"/><path d="m302.023438 50.601562c-3.757813-2.167968-8.558594-.882812-10.726563 2.875l-8.539063 14.789063c-2.167968 3.757813-.882812 8.558594 2.875 10.730469 3.753907 2.167968 8.558594.882812 10.726563-2.875l8.539063-14.789063c2.167968-3.757812.882812-8.558593-2.875-10.730469zm0 0"/><path d="m314.132812 104.617188c2.789063 0 2.816407-.417969 18.710938-9.59375 3.753906-2.167969 5.039062-6.972657 2.871094-10.726563-2.167969-3.757813-6.96875-5.046875-10.726563-2.875l-14.789062 8.539063c-6.941407 4.007812-4.070313 14.65625 3.933593 14.65625zm0 0"/><path d="m340.195312 122.464844h-17.078124c-4.335938 0-7.851563 3.515625-7.851563 7.855468 0 4.335938 3.515625 7.851563 7.851563 7.851563h17.078124c4.335938 0 7.851563-3.515625 7.851563-7.851563 0-4.339843-3.515625-7.855468-7.851563-7.855468zm0 0"/><path d="m332.84375 165.617188-14.792969-8.539063c-3.753906-2.171875-8.558593-.882813-10.726562 2.875-2.167969 3.753906-.882813 8.558594 2.875 10.726563 16.078125 9.285156 15.957031 9.59375 18.707031 9.59375 8.007812 0 10.878906-10.648438 3.9375-14.65625zm0 0"/><path d="m296.359375 184.519531c-2.167969-3.757812-6.972656-5.042969-10.726563-2.875-3.757812 2.167969-5.042968 6.972657-2.875 10.726563l8.539063 14.792968c2.167969 3.753907 6.972656 5.042969 10.726563 2.871094 3.757812-2.167968 5.042968-6.96875 2.875-10.726562zm0 0"/><path d="m256 189.582031c-4.335938 0-7.851562 3.519531-7.851562 7.855469v17.078125c0 4.335937 3.515624 7.851563 7.851562 7.851563s7.851562-3.515626 7.851562-7.851563v-17.078125c0-4.335938-3.515624-7.855469-7.851562-7.855469zm0 0"/><path d="m226.367188 181.644531c-3.757813-2.167969-8.558594-.882812-10.726563 2.875l-8.539063 14.789063c-3.035156 5.257812.808594 11.78125 6.792969 11.78125 2.714844 0 5.355469-1.410156 6.808594-3.925782l8.539063-14.792968c2.167968-3.753906.882812-8.558594-2.875-10.726563zm0 0"/><path d="m193.949219 157.078125-14.792969 8.539063c-6.9375 4.007812-4.066406 14.65625 3.9375 14.65625 2.789062 0 2.8125-.417969 18.707031-9.59375 3.757813-2.167969 5.042969-6.972657 2.875-10.726563-2.167969-3.757813-6.972656-5.046875-10.726562-2.875zm0 0"/><path d="m196.734375 130.320312c0-4.339843-3.515625-7.855468-7.851563-7.855468h-17.078124c-4.335938 0-7.851563 3.515625-7.851563 7.855468 0 4.335938 3.515625 7.851563 7.851563 7.851563h17.078124c4.335938 0 7.851563-3.515625 7.851563-7.851563zm0 0"/><path d="m201.800781 89.960938-14.789062-8.539063c-3.757813-2.171875-8.558594-.882813-10.726563 2.875-2.167968 3.753906-.882812 8.558594 2.871094 10.726563 16.082031 9.28125 15.957031 9.59375 18.710938 9.59375 8.003906 0 10.878906-10.648438 3.933593-14.65625zm0 0"/><path d="m220.703125 53.476562c-2.167969-3.753906-6.972656-5.042968-10.726563-2.875-3.757812 2.171876-5.042968 6.972657-2.875 10.730469l8.539063 14.789063c1.453125 2.519531 4.09375 3.925781 6.808594 3.925781 5.988281 0 9.828125-6.523437 6.792969-11.78125zm0 0"/></g><path d="m285.011719 117.410156c-1.761719-3.964844-6.402344-5.746094-10.367188-3.984375l-10.792969 4.804688v-30.007813c0-4.339844-3.515624-7.855468-7.851562-7.855468s-7.851562 3.515624-7.851562 7.855468v42.097656c0 5.675782 5.859374 9.480469 11.042968 7.171876l21.839844-9.714844c3.960938-1.765625 5.746094-6.40625 3.980469-10.367188zm0 0" fill="#f64346"/></svg>