<svg height="512pt" viewBox="-1 0 512 512.00019" width="512pt" xmlns="http://www.w3.org/2000/svg"><path d="m510.777344 227.324219v182.222656c0 15.359375-12.445313 27.808594-27.804688 27.808594h-236.609375c-15.359375 0-27.808593-12.449219-27.808593-27.808594v-182.222656c0-15.359375 12.449218-27.804688 27.808593-27.804688h236.609375c15.359375 0 27.804688 12.445313 27.804688 27.804688zm0 0" fill="#fff5f4"/><path d="m332.789062 199.515625v48.667969c0 15.359375-12.457031 27.816406-27.808593 27.816406h-50.027344v133.542969c0 15.359375 12.449219 27.808593 27.808594 27.808593h-36.398438c-15.359375 0-27.808593-12.449218-27.808593-27.808593v-182.222657c0-15.359374 12.449218-27.804687 27.808593-27.804687zm0 0" fill="#ebe0da"/><path d="m36.203125 201.402344v101.679687c0 9.339844 12.15625 12.953125 17.257813 5.125l69.621093-106.804687zm0 0" fill="#ebe0da"/><path d="m387.699219 400.914062 69.621093 106.808594c5.101563 7.824219 17.257813 4.210938 17.257813-5.128906v-101.679688zm0 0" fill="#fff5f4"/><path d="m264.425781.00390625h-236.617187c-15.351563 0-27.808594 12.44921875-27.808594 27.80859375v182.21875c0 15.359375 12.457031 27.820312 27.808594 27.820312h236.617187c15.347657 0 27.804688-12.460937 27.804688-27.820312v-182.21875c.003906-15.359375-12.457031-27.80859375-27.804688-27.80859375zm0 0" fill="#fff5f4"/><path d="m146.117188 199.6875c-44.535157 0-80.765626-36.230469-80.765626-80.765625 0-44.53125 36.230469-80.761719 80.765626-80.761719 44.535156 0 80.765624 36.230469 80.765624 80.761719 0 44.535156-36.230468 80.765625-80.765624 80.765625zm0-127.875c-25.976563 0-47.113282 21.132812-47.113282 47.109375 0 25.980469 21.136719 47.113281 47.113282 47.113281 25.976562 0 47.113281-21.132812 47.113281-47.113281 0-25.976563-21.136719-47.109375-47.113281-47.109375zm0 0" fill="#4395fb"/><path d="m388.460938 318.4375 42.152343-42.152344c6.570313-6.570312 6.570313-17.226562 0-23.796875-6.574219-6.570312-17.226562-6.570312-23.796875 0l-42.152344 42.152344-42.152343-42.152344c-6.570313-6.570312-17.226563-6.570312-23.796875 0-6.570313 6.570313-6.570313 17.226563 0 23.796875l42.152344 42.152344-42.152344 42.152344c-6.570313 6.570312-6.570313 17.226562 0 23.796875 3.285156 3.285156 7.59375 4.925781 11.898437 4.925781 4.304688 0 8.613281-1.640625 11.898438-4.925781l42.152343-42.152344 42.152344 42.152344c3.285156 3.285156 7.589844 4.925781 11.898438 4.925781 4.304687 0 8.609375-1.640625 11.894531-4.925781 6.574219-6.570313 6.574219-17.226563 0-23.796875zm0 0" fill="#f64346"/><path d="m36.398438 210.027344v-182.21875c0-15.359375 12.457031-27.808594 27.804687-27.808594h-36.394531c-15.347656 0-27.808594 12.449219-27.808594 27.808594v182.21875c0 15.359375 12.460938 27.816406 27.808594 27.816406h36.394531c-15.347656 0-27.804687-12.457031-27.804687-27.816406zm0 0" fill="#ebe0da"/></svg>