<svg height="512pt" viewBox="0 0 512.00015 512" width="512pt" xmlns="http://www.w3.org/2000/svg"><path d="m483.53125 20.542969c23.277344 19.046875 24.550781 53.449219 3.828125 74.179687l-35.328125 35.378906-70.710938-70.710937 33.308594-33.371094c18.492188-18.488281 48.652344-22.039062 68.902344-5.476562zm0 0" fill="#ffcebf"/><path d="m452.03125 130.101562-28.261719 28.308594-.050781-.046875c-.148438-.152343-70.488281-70.503906-70.660156-70.671875l28.261718-28.300781zm0 0" fill="#ede9e8"/><path d="m45.339844 396.671875c2.289062-3.792969-16.921875 16.421875 307.71875-308.980469.171875.167969 70.511718 70.519532 70.660156 70.671875l.050781.046875c-324.699219 324.902344-304.699219 305.867188-308.519531 308.171875zm0 0" fill="#ed5575"/><path d="m115.25 466.582031c-1.28125.78125-2.648438 1.410157-4.078125 1.890625l-101.171875 33.449219 33.449219-101.171875c.480469-1.429688 1.109375-2.796875 1.890625-4.078125zm0 0" fill="#ffcebf"/><path d="m324.71875 172.5c-3.898438 3.902344-3.898438 10.230469 0 14.140625 3.910156 3.910156 10.242188 3.910156 14.140625 0 3.910156-3.910156 3.910156-10.238281 0-14.140625-3.898437-3.910156-10.230469-3.910156-14.140625 0zm0 0"/><path d="m489.859375 12.800781c-23.488281-19.210937-59.640625-16.511719-82.308594 6.15625-12.246093 12.269531-354.070312 354.613281-366.34375 366.90625-3.171875 3.171875-5.71875 7.175781-7.25 11.75l-33.449219 101.167969c-1.1875 3.589844-.25 7.539062 2.421876 10.210938 2.667968 2.667968 6.613281 3.609374 10.210937 2.421874l101.210937-33.464843c4.324219-1.449219 8.394532-3.921875 11.714844-7.242188l368.367188-368.917969c24.972656-24.984374 23.167968-66.289062-4.574219-88.988281zm-66.09375 131.460938-56.570313-56.574219 14.128907-14.152344 56.570312 56.574219zm-374.429687 270.546875c6.902343 6.902344 31.496093 31.5 47.773437 47.777344l-71.375 23.601562zm66.3125 38.027344-21.226563-21.21875 216.167969-216.703126c3.898437-3.910156 3.894531-10.242187-.019532-14.144531-3.910156-3.898437-10.238281-3.890625-14.140624.019531l-216.148438 216.679688-21.199219-21.199219 293.984375-294.429687 21.15625 21.160156-21.214844 21.210938c-3.902343 3.902343-3.902343 10.234374 0 14.140624 3.90625 3.90625 10.238282 3.90625 14.144532 0l21.210937-21.210937 21.269531 21.273437zm364.636718-365.179688-28.257812 28.300781-56.574219-56.574219 26.246094-26.289062c15.417969-15.417969 39.800781-17.648438 55.496093-4.8125 18.996094 15.542969 19.363282 43.089844 3.089844 59.375zm0 0"/><path d="m130 491.921875c-5.523438 0-10 4.476563-10 10s4.476562 10 10 10h63c5.523438 0 10-4.476563 10-10s-4.476562-10-10-10zm0 0"/><path d="m233 491.921875c-5.523438 0-10 4.476563-10 10s4.476562 10 10 10h63c5.523438 0 10-4.476563 10-10s-4.476562-10-10-10zm0 0"/><path d="m336 491.921875c-5.523438 0-10 4.476563-10 10s4.476562 10 10 10h63c5.523438 0 10-4.476563 10-10s-4.476562-10-10-10zm0 0"/><path d="m502 491.921875h-63c-5.523438 0-10 4.476563-10 10s4.476562 10 10 10h63c5.523438 0 10-4.476563 10-10s-4.476562-10-10-10zm0 0"/></svg>