<svg height="512pt" viewBox="-81 0 512 512" width="512pt" xmlns="http://www.w3.org/2000/svg"><path d="m257.496094.00390625c-6.441406 0-225.746094 0-243.507813 0-7.726562 0-13.988281 6.26171875-13.988281 13.99999975v484c0 7.734375 6.261719 13.996094 13.988281 13.996094h322.976563c7.726562 0 13.988281-6.261719 13.988281-13.996094v-404.539062zm0 0" fill="#fff5f4"/><path d="m257.523438 0v76.753906c0 9.230469 7.480468 16.714844 16.710937 16.714844h76.722656zm0 0" fill="#ebe0da"/><path d="m50.386719 511.996094h-36.398438c-7.726562 0-13.98437475-6.257813-13.98437475-13.996094v-484c0-7.738281 6.25781275-13.99609375 13.98437475-13.99609375h36.398438c-7.726563 0-13.988281 6.25781275-13.988281 13.99609375v484c0 7.738281 6.261718 13.996094 13.988281 13.996094zm0 0" fill="#ebe0da"/><path d="m256.589844 289.800781h-84.21875c-7.914063 0-15.359375-3.085937-20.957032-8.683593-5.597656-5.597657-8.683593-13.042969-8.679687-20.960938l.007813-33.195312c0-4.308594-3.492188-7.800782-7.800782-7.800782s-7.796875 3.488282-7.800781 7.796875l-.003906 33.195313c-.003907 12.085937 4.699219 23.449218 13.246093 31.996094 8.542969 8.542968 19.90625 13.25 31.988282 13.25h84.21875c15.390625 0 29.636718 11.976562 29.636718 30.679687 0 16.34375-13.292968 29.636719-29.636718 29.636719h-167.425782c-24.945312 0-45.238281 20.292968-45.238281 45.238281 0 24.941406 20.292969 45.234375 45.238281 45.234375h129.988282c4.308594 0 7.800781-3.492188 7.800781-7.796875 0-4.308594-3.492187-7.800781-7.800781-7.800781h-129.988282c-16.34375 0-29.640624-13.296875-29.640624-29.636719 0-16.34375 13.296874-29.640625 29.640624-29.640625h167.425782c23.742187 0 45.238281-18.71875 45.238281-46.273438 0-24.945312-20.292969-45.238281-45.238281-45.238281zm0 0" fill="#4395fb"/><path d="m64.496094 320.789062 18.289062 19.394532c1.535156 1.628906 3.601563 2.449218 5.675782 2.449218 1.917968 0 3.84375-.707031 5.351562-2.125 3.132812-2.957031 3.277344-7.894531.320312-11.027343l-18.914062-20.058594 18.914062-20.058594c2.957032-3.132812 2.8125-8.070312-.320312-11.023437-3.132812-2.957032-8.070312-2.8125-11.027344.320312l-18.289062 19.394532-18.289063-19.394532c-2.953125-3.132812-7.890625-3.277344-11.023437-.320312-3.136719 2.953125-3.277344 7.890625-.324219 11.023437l18.917969 20.058594-18.917969 20.058594c-2.957031 3.132812-2.8125 8.070312.324219 11.027343 1.507812 1.417969 3.429687 2.125 5.347656 2.125 2.074219 0 4.140625-.824218 5.675781-2.449218zm0 0" fill="#f64346"/><g fill="#c8bebc"><path d="m249.609375 232.257812h68.632813c4.308593 0 7.800781-3.492187 7.800781-7.800781 0-4.304687-3.492188-7.796875-7.800781-7.796875h-68.632813c-4.308594 0-7.800781 3.492188-7.800781 7.796875 0 4.308594 3.492187 7.800781 7.800781 7.800781zm0 0"/><path d="m196.800781 266.230469h72.792969c4.308594 0 7.800781-3.492188 7.800781-7.800781 0-4.308594-3.492187-7.800782-7.800781-7.800782h-72.792969c-4.308593 0-7.800781 3.492188-7.800781 7.800782 0 4.308593 3.492188 7.800781 7.800781 7.800781zm0 0"/><path d="m318.242188 250.628906h-17.453126c-4.304687 0-7.796874 3.492188-7.796874 7.800782 0 4.308593 3.492187 7.800781 7.796874 7.800781h17.453126c4.308593 0 7.800781-3.492188 7.800781-7.800781 0-4.308594-3.492188-7.800782-7.800781-7.800782zm0 0"/></g><path d="m247.085938 448.386719c0 16.265625-13.1875 29.453125-29.453126 29.453125-16.265624 0-29.453124-13.1875-29.453124-29.453125s13.1875-29.453125 29.453124-29.453125c16.265626 0 29.453126 13.1875 29.453126 29.453125zm0 0" fill="#6fd191"/><path d="m201.410156 56.269531c-39.988281-36.710937-102.164062-34.050781-138.875 5.9375-36.710937 39.988281-34.054687 102.164063 5.9375 138.875 39.988282 36.710938 102.164063 34.050781 138.875-5.9375 36.707032-39.988281 34.050782-102.164062-5.9375-138.875zm0 0" fill="#fed22b"/><path d="m204.15625 141.820312c-3.285156 17.367188-12.90625 32.757813-27.078125 43.34375-7.375 5.5-15.484375 9.347657-23.875 11.582032-27.03125 7.21875-56.988281-2.152344-74.730469-25.914063-11.761718-15.773437-16.410156-35.90625-12.75-55.261719 3.285156-17.367187 12.90625-32.757812 27.078125-43.34375 15.089844-11.25 33.652344-15.960937 52.269531-13.246093 2.722657.394531 5.394532.945312 8.015626 1.632812 15.308593 4.042969 28.714843 13.070313 38.320312 25.945313 11.761719 15.773437 16.421875 35.90625 12.75 55.261718zm0 0" fill="#ffe5a0"/><path d="m159.636719 147.511719c0-18.046875-12.535157-22.863281-22.605469-26.734375-8.75-3.363282-14.113281-5.773438-14.113281-12.664063 0-8.304687 7.40625-10.046875 13.621093-10.046875 6.03125 0 9.324219 1.691406 11.722657 2.929688 1.417969.730468 2.539062 1.308594 3.789062 1.308594 3.714844 0 5.578125-4.292969 5.578125-6.691407 0-5.378906-8.203125-7.667969-14.886718-8.507812v-7.824219c0-4.308594-3.492188-7.800781-7.800782-7.800781s-7.796875 3.492187-7.796875 7.800781v8.507812c-10.613281 2.675782-16.722656 10.179688-16.722656 21.214844 0 15.265625 10.972656 19.601563 20.652344 23.425782 8.621093 3.40625 16.070312 6.351562 16.070312 15.976562 0 10.683594-8.746093 12.277344-13.957031 12.277344-8.117188 0-11.78125-3.597656-14.460938-6.226563-1.535156-1.507812-2.863281-2.8125-4.625-2.8125-3.0625 0-5.6875 3.679688-5.6875 6.695313 0 4.914062 7.125 11.703125 18.730469 13.628906v6.101562c0 4.308594 3.488281 7.800782 7.796875 7.800782s7.800782-3.492188 7.800782-7.800782v-6.722656c10.71875-2.933594 16.894531-11.375 16.894531-23.835937zm0 0" fill="#e38803"/><path d="m153.203125 196.746094c-27.027344 7.214844-56.988281-2.152344-74.726563-25.914063-11.761718-15.777343-16.410156-35.910156-12.75-55.261719 3.285157-17.367187 12.90625-32.757812 27.078126-43.34375 15.089843-11.253906 33.652343-15.964843 52.265624-13.25 2.726563.394532 5.398438.945313 8.019532 1.632813-8.515625 2.277344-16.609375 6.1875-23.886719 11.617187-14.175781 10.585938-23.792969 25.976563-27.078125 43.34375-3.664062 19.351563.984375 39.484376 12.746094 55.261719 9.871094 13.207031 23.515625 21.972657 38.332031 25.914063zm0 0" fill="#ffdd81"/></svg>