<svg height="512pt" viewBox="0 0 512 512" width="512pt" xmlns="http://www.w3.org/2000/svg"><path d="m378 316h84v166h-84zm0 0" fill="#5c9cee"/><path d="m234 216h84v266h-84zm0 0" fill="#90e36a"/><path d="m174 116v366h-84v-366zm0 0" fill="#ed5575"/><path d="m142 376c0 5.523438-4.476562 10-10 10s-10-4.476562-10-10 4.476562-10 10-10 10 4.476562 10 10zm0 0"/><path d="m502 472h-30v-156c0-5.523438-4.476562-10-10-10h-84c-5.523438 0-10 4.476562-10 10v156h-40v-256c0-5.523438-4.476562-10-10-10h-84c-5.523438 0-10 4.476562-10 10v256h-40v-356c0-5.523438-4.476562-10-10-10h-84c-5.523438 0-10 4.476562-10 10v356h-40v-462c0-5.523438-4.476562-10-10-10s-10 4.476562-10 10v76h-10c-5.523438 0-10 4.476562-10 10s4.476562 10 10 10h10v60h-10c-5.523438 0-10 4.476562-10 10s4.476562 10 10 10h10v60h-10c-5.523438 0-10 4.476562-10 10s4.476562 10 10 10h10v60h-10c-5.523438 0-10 4.476562-10 10s4.476562 10 10 10h10v60h-10c-5.523438 0-10 4.476562-10 10s4.476562 10 10 10h10v56c0 5.523438 4.476562 10 10 10h50v10c0 5.523438 4.476562 10 10 10s10-4.476562 10-10v-10h64v10c0 5.523438 4.476562 10 10 10s10-4.476562 10-10v-10h62v10c0 5.523438 4.476562 10 10 10s10-4.476562 10-10v-10h62v10c0 5.523438 4.476562 10 10 10s10-4.476562 10-10v-10h62v10c0 5.523438 4.476562 10 10 10s10-4.476562 10-10v-10h72c5.523438 0 10-4.476562 10-10s-4.476562-10-10-10zm-114-146h64v146h-64zm-144-100h64v246h-64zm-80-100v346h-64v-346zm0 0"/><path d="m132 346c5.523438 0 10-4.476562 10-10v-120c0-5.523438-4.476562-10-10-10s-10 4.476562-10 10v120c0 5.523438 4.476562 10 10 10zm0 0"/></svg>