<svg height="512pt" viewBox="-1 0 512 512.00056" width="512pt" xmlns="http://www.w3.org/2000/svg"><path d="m396.761719 140.804688v229.371093c0 5.308594-.773438 10.429688-2.199219 15.261719-6.578125 22.179688-27.117188 38.371094-51.433594 38.371094h-289.492187c-29.625 0-53.63281275-24.019532-53.63281275-53.632813v-229.371093c0-9.851563 7.98437475-17.835938 17.83203175-17.835938h361.09375c9.851562 0 17.832031 7.984375 17.832031 17.835938zm0 0" fill="#ca7400"/><path d="m394.558594 385.433594c-6.578125 22.179687-27.113282 38.371094-51.433594 38.371094h-289.492188c-29.625 0-53.632812-24.015626-53.632812-53.632813v-229.371094c0-9.851562 7.980469-17.832031 17.832031-17.832031h18.308594v211.042969c0 29.613281 24.007813 53.632812 53.632813 53.632812h289.492187c5.316406 0 10.449219-.773437 15.292969-2.210937zm0 0" fill="#b96a00"/><path d="m286.554688 153.027344c-7.746094 0-14.027344-6.277344-14.027344-14.023438v-48.09375c0-3.757812-3.058594-6.8125-6.8125-6.8125h-134.660156c-3.753907 0-6.8125 3.054688-6.8125 6.8125v48.09375c0 7.746094-6.28125 14.027344-14.027344 14.027344s-14.027344-6.28125-14.027344-14.027344v-48.09375c0-19.222656 15.640625-34.867187 34.867188-34.867187h134.660156c19.226562 0 34.867187 15.640625 34.867187 34.867187v48.09375c0 7.746094-6.28125 14.023438-14.027343 14.023438zm0 0" fill="#ca7400"/><path d="m396.761719 140.804688v51.855468c0 14.25-3.945313 27.582032-10.800781 38.960938-13.226563 21.921875-37.265626 36.585937-64.742188 36.585937h-245.667969c-41.730469 0-75.54687475-33.820312-75.54687475-75.546875v-51.855468c0-9.851563 7.98437475-17.835938 17.83203175-17.835938h361.09375c9.851562 0 17.832031 7.984375 17.832031 17.835938zm0 0" fill="#b96a00"/><path d="m303.054688 405.359375-30.128907 5.3125c-.359375 5.425781-1.304687 10.695313-2.765625 15.742187l26.488282 15.289063c2.574218 1.488281 3.457031 4.777344 1.96875 7.351563l-12.425782 21.527343c-1.488281 2.574219-4.777344 3.457031-7.351562 1.96875l-26.503906-15.296875c-3.695313 3.839844-7.789063 7.300782-12.234376 10.273438l10.464844 28.753906c1.015625 2.792969-.425781 5.871094-3.21875 6.898438l-2.398437.875c-7.285157 2.644531-2.785157 1.007812-20.957031 7.621093-2.792969 1.015625-5.882813-.421875-6.898438-3.210937l-7.785156-21.414063-1.917969-5.257812-.761719-2.085938c-.453125.042969-.910156.097657-1.363281.125-4.792969.445313-9.683594.402344-14.613281-.125l-10.464844 28.757813c-1.015625 2.789062-4.105469 4.226562-6.898438 3.210937l-23.355468-8.5c-2.789063-1.023437-4.234375-4.101562-3.21875-6.894531l10.464844-28.753906c-4.445313-2.976563-8.539063-6.433594-12.234376-10.273438l-26.503906 15.296875c-2.574218 1.488281-5.863281.601563-7.351562-1.96875l-12.425782-21.527343c-1.488281-2.574219-.605468-5.863282 1.96875-7.351563l26.488282-15.289063c-1.460938-5.050781-2.398438-10.316406-2.765625-15.742187l-30.128907-5.3125c-2.933593-.515625-4.882812-3.308594-4.367187-6.238281l4.3125-24.476563c.515625-2.921875 3.308594-4.882812 6.238281-4.367187l30.113282 5.3125c2.179687-4.917969 4.867187-9.546875 8.007812-13.835938l-19.671875-23.433594c-1.910156-2.285156-1.609375-5.671874.664063-7.585937l19.042968-15.980469c2.273438-1.90625 5.667969-1.609375 7.578125.664063l19.660157 23.4375c4.742187-2.335938 9.777343-4.183594 15.027343-5.46875v-30.585938c0-2.972656 2.40625-5.382812 5.382813-5.382812h24.851562c2.972656 0 5.378906 2.40625 5.378906 5.382812v30.585938c5.253907 1.285156 10.285157 3.132812 15.027344 5.46875l19.664063-23.4375c1.90625-2.273438 5.300781-2.570313 7.578125-.664063l19.039062 15.980469c2.277344 1.914063 2.574219 5.300781.664063 7.585937l-19.671875 23.433594c3.144531 4.289063 5.828125 8.917969 8.007812 13.835938l30.121094-5.3125c2.921875-.515625 5.714844 1.445312 6.230469 4.367187l4.3125 24.476563c.519531 2.933594-1.429688 5.722656-4.363281 6.238281zm0 0" fill="#1980f9"/><path d="m185.929688 455.414062c-9.574219-16.355468-15.0625-35.390624-15.0625-55.699218 0-15.585938 3.230468-30.417969 9.058593-43.859375 7.902344-18.273438 20.609375-33.988281 36.523438-45.558594v-7.5c0-2.972656-2.402344-5.378906-5.378907-5.378906h-24.851562c-2.976562 0-5.382812 2.402343-5.382812 5.378906v30.585937c-5.25 1.285157-10.285157 3.132813-15.027344 5.46875l-19.660156-23.433593c-1.910157-2.277344-5.304688-2.574219-7.578126-.667969l-19.042968 15.980469c-2.273438 1.917969-2.570313 5.304687-.664063 7.585937l19.671875 23.4375c-3.140625 4.289063-5.828125 8.917969-8.007812 13.832032l-30.109375-5.308594c-2.933594-.519532-5.726563 1.441406-6.242188 4.367187l-4.3125 24.472657c-.515625 2.933593 1.433594 5.722656 4.367188 6.242187l30.128906 5.308594c.367187 5.425781 1.304687 10.695312 2.765625 15.746093l-26.488281 15.285157c-2.574219 1.488281-3.457031 4.777343-1.96875 7.351562l12.425781 21.527344c1.488281 2.570313 4.777344 3.457031 7.351562 1.96875l26.503907-15.296875c3.695312 3.84375 7.789062 7.300781 12.234375 10.273438l-10.464844 28.757812c-1.015625 2.789062.429688 5.871094 3.21875 6.894531l23.355469 8.496094c2.792969 1.015625 5.882812-.417969 6.898437-3.210937l10.464844-28.753907c4.925781.523438 9.816406.566407 14.613281.121094-7.535156-7.160156-14.0625-15.375-19.339843-24.414063zm0 0" fill="#285fb3"/><path d="m207.394531 481.785156 1.917969 5.261719 7.785156 21.414063c1.015625 2.789062 4.105469 4.226562 6.898438 3.210937 18.164062-6.609375 13.667968-4.972656 20.957031-7.621094-14.027344-4.886719-26.761719-12.523437-37.558594-22.265625zm0 0" fill="#285fb3"/><path d="m250.910156 404.714844c0 34.378906-32.492187 58.898437-64.984375 50.699218h-.007812c-.472657-.113281-.945313-.242187-1.417969-.375-22-6.160156-38.125-26.355468-38.125-50.324218 0-22.824219 14.4375-41.402344 33.550781-48.855469 9.84375-3.84375 20.929688-4.734375 31.921875-1.734375 22.46875 5.84375 39.0625 26.277344 39.0625 50.589844zm0 0" fill="#63a6fd"/><path d="m225.0625 404.710938c0 7.050781-2.75 13.683593-7.734375 18.675781-1.988281 1.976562-4.226563 3.601562-6.644531 4.835937-.730469.386719-1.855469.902344-2.5625 1.148438-9.144532 3.515625-20.328125 1.84375-28.152344-5.988282-4.996094-4.988281-7.742188-11.621093-7.742188-18.671874 0-7.0625 2.746094-13.695313 7.742188-18.683594 4.988281-4.988282 11.621094-7.738282 18.675781-7.738282 4.144531 0 8.179688 1.007813 11.175781 2.46875 2.734376 1.328126 5.117188 2.890626 7.507813 5.269532 4.988281 4.988281 7.734375 11.621094 7.734375 18.683594zm0 0" fill="#1980f9"/><path d="m208.121094 429.371094c-9.144532 3.515625-20.328125 1.84375-28.152344-5.988282-4.996094-4.988281-7.742188-11.621093-7.742188-18.671874 0-7.0625 2.746094-13.695313 7.742188-18.683594 4.988281-4.988282 11.621094-7.738282 18.675781-7.738282 4.144531 0 8.179688 1.007813 11.175781 2.46875-17.660156 10.972657-18.292968 36.667969-1.699218 48.613282zm0 0" fill="#285fb3"/><path d="m185.925781 455.410156v.011719h-.011719c-.472656-.113281-.9375-.25-1.414062-.382813-22.003906-6.15625-38.121094-26.351562-38.121094-50.328124 0-22.824219 14.433594-41.398438 33.546875-48.855469-5.832031 13.433593-9.054687 28.273437-9.054687 43.855469 0 20.3125 5.484375 39.34375 15.054687 55.699218zm0 0" fill="#4395fb"/><path d="m385.957031 231.617188c-13.226562 21.921874-37.265625 36.585937-64.742187 36.585937h-245.667969c-41.730469 0-75.546875-33.816406-75.546875-75.546875v-51.855469c0-9.851562 7.980469-17.832031 17.832031-17.832031h18.308594v38.710938c0 41.726562 33.820313 75.546874 75.546875 75.546874h245.667969c10.121093 0 19.785156-1.996093 28.601562-5.609374zm0 0" fill="#a86000"/><path d="m105.910156 239.242188v57.402343c0 4.863281-3.945312 8.796875-8.808594 8.796875h-23.265624c-4.863282 0-8.808594-3.933594-8.808594-8.796875v-57.402343c0-4.863282 3.945312-8.796876 8.808594-8.796876h23.265624c4.863282 0 8.808594 3.933594 8.808594 8.796876zm0 0" fill="#d8cecc"/><path d="m331.738281 239.242188v57.402343c0 4.863281-3.945312 8.796875-8.796875 8.796875h-23.273437c-4.863281 0-8.800781-3.933594-8.800781-8.796875v-57.402343c0-4.863282 3.9375-8.796876 8.800781-8.796876h23.273437c4.851563 0 8.796875 3.933594 8.796875 8.796876zm0 0" fill="#d8cecc"/><path d="m105.910156 239.242188v28.964843h-30.359375c-3.574219 0-7.082031-.25-10.523437-.734375v-28.230468c0-4.863282 3.945312-8.796876 8.808594-8.796876h23.265624c4.863282 0 8.808594 3.933594 8.808594 8.796876zm0 0" fill="#ebe0da"/><path d="m331.738281 239.242188v28.230468c-3.4375.484375-6.949219.734375-10.519531.734375h-30.351562v-28.964843c0-4.863282 3.9375-8.796876 8.800781-8.796876h23.273437c4.851563 0 8.796875 3.933594 8.796875 8.796876zm0 0" fill="#ebe0da"/><path d="m509.5625 165.6875-10.519531 28.757812c-1.269531 3.441407-5.070313 5.214844-8.507813 3.945313l-35.378906-12.96875c-3.664062 5.453125-7.910156 10.511719-12.671875 15.054687l18.765625 32.703126c1.816406 3.179687.722656 7.21875-2.449219 9.054687l-9.273437 5.320313-17.265625 9.933593c-3.167969 1.816407-7.214844.730469-9.042969-2.449219l-13.960938-24.347656-4.800781-8.34375c-1.765625.496094-3.5625.949219-5.382812 1.363282-1.394531.308593-2.796875.589843-4.222657.835937-3.261718.578125-6.535156.960937-9.777343 1.167969l-6.628907 37.121094c-.640624 3.605468-4.078124 6-7.683593 5.359374l-30.121094-5.378906c-3.605469-.652344-6.011719-4.089844-5.359375-7.695312l6.617188-37.121094c-6.019532-2.671875-11.71875-6-17.003907-9.882812l-28.925781 24.164062c-2.808594 2.355469-6.980469 1.972656-9.332031-.835938l-19.609375-23.503906c-2.355469-2.816406-1.972656-6.988281.835937-9.34375l28.902344-24.152344c-2.839844-5.824218-5.089844-12.019531-6.679687-18.535156l-37.671876-.082031c-3.664062-.011719-6.617187-2.984375-6.609374-6.652344l.0625-30.625c.011718-3.65625 2.984374-6.628906 6.652343-6.621093l37.648438.085937c1.597656-6.425781 3.882812-12.621094 6.78125-18.484375l-28.808594-24.296875c-2.789063-2.367187-3.148437-6.546875-.785156-9.355469l19.722656-23.421875c2.355469-2.796875 6.539063-3.148437 9.324219-.792969l28.800781 24.296876c5.265625-3.84375 10.976563-7.144532 17.070313-9.808594l-6.457032-37.132813c-.628906-3.617187 1.789063-7.042969 5.390625-7.671875l30.152344-5.246094c3.605469-.632812 7.03125 1.773438 7.664063 5.390626l2.703124 15.589843 3.75 21.539063c6.640626.457031 13.132813 1.632812 19.382813 3.472656l18.90625-32.609375c1.828125-3.160156 5.886719-4.246094 9.046875-2.40625l26.472656 15.375c3.160156 1.847656 4.234375 5.894531 2.40625 9.066406l-18.914062 32.609375c4.71875 4.542969 8.949218 9.59375 12.636718 15.105469l35.410157-12.8125c3.4375-1.242187 7.238281.546875 8.476562 3.984375l10.40625 28.800781c1.242188 3.457031-.535156 7.257813-3.984375 8.496094l-35.417968 12.816406c.703124 6.671875.671874 13.257813-.042969 19.703125l35.367187 12.957032c3.429688 1.269531 5.195313 5.070312 3.933594 8.507812zm0 0" fill="#1980f9"/><path d="m399.070312 223.710938c-1.394531.308593-2.796874.589843-4.222656.835937-3.261718.578125-6.535156.960937-9.777344 1.167969l-6.628906 37.121094c-.640625 3.605468-4.082031 6-7.683594 5.359374l-30.121093-5.378906c-3.605469-.652344-6.011719-4.089844-5.359375-7.695312l6.617187-37.121094c-6.019531-2.671875-11.71875-6-17.003906-9.882812l-28.925781 24.164062c-2.808594 2.355469-6.980469 1.972656-9.332032-.835938l-19.609374-23.503906c-2.355469-2.816406-1.972657-6.988281.835937-9.34375l28.902344-24.152344c-2.839844-5.824218-5.089844-12.019531-6.683594-18.535156l-37.667969-.082031c-3.664062-.011719-6.617187-2.984375-6.609375-6.652344l.0625-30.625c.011719-3.65625 2.984375-6.628906 6.652344-6.621093l37.648437.085937c1.597657-6.425781 3.882813-12.621094 6.78125-18.484375l-28.808593-24.296875c-2.789063-2.367187-3.148438-6.546875-.785157-9.355469l19.722657-23.421875c2.355469-2.796875 6.539062-3.148437 9.324219-.792969l28.800781 24.296876c5.265625-3.84375 10.976562-7.144532 17.070312-9.808594l-6.457031-37.132813c-.628906-3.617187 1.789062-7.042969 5.390625-7.671875l30.152344-5.246094c3.605469-.632812 7.03125 1.773438 7.664062 5.390626l2.703125 15.589843c-14.332031 15.3125-25.058594 33.820313-31.164062 54.066407h-.007813c-5.960937 19.753906-7.527343 41.171874-3.761719 62.886718 3.863282 22.210938 12.878907 42.222656 25.601563 59.035156h.007813c7.652343 10.117188 16.644531 19.070313 26.671874 26.640626zm0 0" fill="#285fb3"/><path d="m449.527344 247.554688-17.265625 9.933593c-3.171875 1.816407-7.21875.730469-9.046875-2.449219l-13.960938-24.347656c12.347656 7.691406 25.929688 13.421875 40.273438 16.863282zm0 0" fill="#285fb3"/><path d="m442.335938 121.9375c5.132812 29.515625-10.683594 57.816406-36.707032 69.664062-.113281.050782-.234375.105469-.347656.144532-4.785156 2.160156-9.910156 3.753906-15.3125 4.695312-5.945312 1.035156-11.839844 1.21875-17.5625.628906-27.988281-2.832031-51.8125-23.945312-56.871094-53.046874-5.019531-28.863282 9.996094-56.589844 35.027344-68.875 5.347656-2.640626 11.167969-4.5625 17.335938-5.636719 5.40625-.941407 10.765624-1.171875 16-.761719.121093 0 .253906.011719.375.023438 28.492187 2.351562 52.929687 23.652343 58.0625 53.164062zm0 0" fill="#63a6fd"/><path d="m410.980469 127.402344c1.488281 8.5625-.445313 17.195312-5.441407 24.304687-1.992187 2.820313-4.367187 5.269531-7.035156 7.277344-.714844.554687-1.445312 1.054687-2.195312 1.53125-3.554688 2.25-7.542969 3.789063-11.800782 4.53125-8.554687 1.488281-17.179687-.445313-24.28125-5.445313-7.117187-5-11.847656-12.472656-13.335937-21.035156-1.492187-8.574218.441406-17.207031 5.449219-24.320312 4.996094-7.109375 12.460937-11.847656 21.019531-13.335938 4.253906-.742187 8.527344-.632812 12.632813.273438.867187.199218 1.726562.421875 2.582031.699218 3.191406.988282 6.253906 2.488282 9.078125 4.46875 7.105468 5.003907 11.835937 12.476563 13.328125 21.050782zm0 0" fill="#1980f9"/><path d="m398.503906 158.988281c-.710937.546875-1.445312 1.050781-2.199218 1.527344-3.550782 2.25-7.539063 3.789063-11.792969 4.53125-8.558594 1.488281-17.179688-.441406-24.285157-5.449219-7.117187-5-11.84375-12.476562-13.332031-21.035156-1.496093-8.570312.433594-17.203125 5.441407-24.316406 5-7.105469 12.464843-11.84375 21.023437-13.332032 4.253906-.742187 8.53125-.640624 12.628906.269532.867188.195312 1.726563.421875 2.582031.699218-2.675781 2.003907-5.058593 4.460938-7.042968 7.28125-5.007813 7.105469-6.9375 15.746094-5.449219 24.316407 1.496094 8.5625 6.226563 16.039062 13.339844 21.035156 2.820312 1.984375 5.886719 3.480469 9.085937 4.472656zm0 0" fill="#285fb3"/><path d="m372.390625 197.070312c-27.984375-2.839843-51.796875-23.957031-56.855469-53.046874-5.019531-28.859376 9.996094-56.574219 35.015625-68.863282-5.957031 19.753906-7.527343 41.160156-3.757812 62.875 3.859375 22.210938 12.875 42.222656 25.597656 59.035156zm0 0" fill="#4395fb"/></svg>