<svg height="511pt" viewBox="-3 1 511 511.99999" width="511pt" xmlns="http://www.w3.org/2000/svg"><path d="m335.667969 481.394531c0 8.4375-3.417969 16.089844-8.957031 21.617188-5.527344 5.539062-13.179688 8.957031-21.617188 8.957031h-274.015625c-16.890625 0-30.578125-13.6875-30.578125-30.574219 0-57.984375 35.472656-108.339843 86.820312-129.359375.921876-.371094 1.84375-.742187 2.773438-1.085937.011719 0 .023438-.011719.023438-.011719.09375-.03125.1875-.070312.277343-.113281 15.472657-5.902344 32.265625-9.140625 49.816407-9.140625h55.746093c17.457031 0 34.171875 3.199218 49.566407 9.039062.019531.007813.042968.019532.0625.019532 1.097656.425781 2.183593.847656 3.261718 1.292968 13.636719 5.582032 26.1875 13.253906 37.265625 22.625 30.304688 25.628906 49.554688 63.929688 49.554688 106.734375zm0 0" fill="#fff5f4"/><path d="m187.167969 341.683594c-20.148438 0-39.386719 3.683594-56.949219 10.351562-14.683594 5.582032-28.195312 13.253906-40.125 22.636719-3.21875 2.515625-6.3125 5.164063-9.296875 7.929687-27.222656 25.285157-44.058594 60.210938-44.058594 98.792969 0 16.886719 14.746094 30.574219 32.929688 30.574219h-38.589844c-16.890625 0-30.578125-13.6875-30.578125-30.574219 0-57.984375 35.472656-108.339843 86.820312-129.359375.921876-.371094 1.84375-.742187 2.773438-1.085937.011719 0 .023438-.011719.023438-.011719.09375-.03125.1875-.070312.277343-.113281 15.472657-5.902344 32.265625-9.140625 49.816407-9.140625zm0 0" fill="#ebe0da"/><path d="m175.851562 409.742188v102.230468h-15.53125v-102.230468c0-4.285157 3.480469-7.765626 7.765626-7.765626 4.285156 0 7.765624 3.480469 7.765624 7.765626zm0 0" fill="#c8bebc"/><path d="m289.480469 476.425781h-57.195313c-4.289062 0-7.765625 3.476563-7.765625 7.765625 0 4.289063 3.476563 7.765625 7.765625 7.765625h57.195313c4.289062 0 7.765625-3.476562 7.765625-7.765625 0-4.289062-3.476563-7.765625-7.765625-7.765625zm0 0" fill="#c8bebc"/><path d="m205.882812 444.628906c0 5.289063-4.289062 9.578125-9.578124 9.578125-5.289063 0-9.578126-4.289062-9.578126-9.578125 0-5.289062 4.289063-9.578125 9.578126-9.578125 5.289062 0 9.578124 4.289063 9.578124 9.578125zm0 0" fill="#c8bebc"/><path d="m205.882812 484.191406c0 5.289063-4.289062 9.578125-9.578124 9.578125-5.289063 0-9.578126-4.289062-9.578126-9.578125 0-5.289062 4.289063-9.578125 9.578126-9.578125 5.289062 0 9.578124 4.289063 9.578124 9.578125zm0 0" fill="#c8bebc"/><path d="m336.261719 404.597656v16.855469h-17.695313c-2.070312 0-4.101562-.144531-6.089844-.421875v-16.433594c0-2.828125 2.300782-5.125 5.125-5.125h13.535157c2.824219 0 5.125 2.296875 5.125 5.125zm0 0" fill="#ebe0da"/><path d="m272.664062 400.527344c-.0625 5.25-6.625 7.632812-10.4375 4.121094l-25.417968-18.347657c-2.257813-1.179687-4.917969-1.261719-7.25-.214843l-55.828125 23.742187c-3.78125 2.878906-9.03125 2.847656-12.777344-.085937l-54.339844-23.65625c-2.332031-1.046876-4.992187-.964844-7.257812.214843l-25.410157 18.347657c-3.820312 3.511718-10.375 1.128906-10.4375-4.121094-.308593-26.941406 12.136719-41.613282 26.589844-49.574219.011719 0 .019532-.011719.019532-.011719.09375-.03125.1875-.070312.28125-.113281 15.46875-5.902344 32.261718-9.144531 49.8125-9.144531h55.75c17.457031 0 34.167968 3.203125 49.566406 9.042968.019531.007813.039062.019532.0625.019532.121094.0625.246094.101562.371094.15625.011718 0 .011718 0 .011718.007812 14.503906 7.941406 27.003906 22.613282 26.691406 49.617188zm0 0" fill="#c8bebc"/><path d="m133.226562 298.015625v75.550781l29.683594 33.402344c1.949219 3.449219 6.886719 3.5 8.925782.125.011718-.011719.019531-.03125.03125-.042969l31.074218-33.484375v-75.550781zm0 0" fill="#f2d1a5"/><path d="m108.847656 211.113281c0 21.757813-17.640625 39.398438-39.402344 39.398438-21.757812 0-39.398437-17.640625-39.398437-39.398438 0-21.761719 17.640625-39.398437 39.398437-39.398437 21.761719 0 39.402344 17.636718 39.402344 39.398437zm0 0" fill="#f2d1a5"/><path d="m306.128906 211.117188c0 21.761718-17.640625 39.402343-39.398437 39.402343-21.761719 0-39.398438-17.640625-39.398438-39.402343 0-21.757813 17.636719-39.398438 39.398438-39.398438 21.757812 0 39.398437 17.640625 39.398437 39.398438zm0 0" fill="#f2d1a5"/><path d="m272.59375 146.859375v92.328125c0 46.492188-53.097656 85.746094-86.386719 98.253906-7.21875 2.722656-13.511719 4.183594-18.121093 4.183594-12.941407-.011719-39.066407-11.472656-61.960938-30.007812-22.890625-18.546876-42.542969-44.140626-42.542969-72.429688v-92.328125c0-18.679687 15.136719-33.816406 33.816407-33.816406h141.375c18.679687 0 33.820312 15.136719 33.820312 33.816406zm0 0" fill="#ffe4c2"/><path d="m186.203125 337.4375c-7.214844 2.722656-13.511719 4.183594-18.117187 4.183594-12.945313-.011719-39.070313-11.472656-61.960938-30.007813-22.894531-18.542969-42.546875-44.140625-42.546875-72.429687v-92.328125c0-18.679688 15.136719-33.816407 33.816406-33.816407h36.242188c-18.679688 0-33.820313 15.136719-33.820313 33.816407v92.328125c0 28.289062 19.65625 53.886718 42.546875 72.429687 14.734375 11.929688 30.804688 20.925781 43.839844 25.824219zm0 0" fill="#f2d1a5"/><path d="m20.984375 189.863281h25.1875c21.414063 0 38.9375-17.523437 38.9375-38.9375v-12.507812c0-19.007813-15.550781-34.558594-34.558594-34.558594h-1.425781c-19.085938 0-34.554688 15.472656-34.554688 34.558594v45.03125c0 3.539062 2.871094 6.414062 6.414063 6.414062zm0 0" fill="#ca7400"/><path d="m315.195312 189.863281h-25.1875c-21.417968 0-38.9375-17.523437-38.9375-38.9375v-12.507812c0-19.007813 15.546876-34.558594 34.554688-34.558594h1.425781c19.085938 0 34.558594 15.472656 34.558594 34.558594v45.03125c-.003906 3.539062-2.875 6.414062-6.414063 6.414062zm0 0" fill="#ca7400"/><path d="m282.605469 12.140625v62.25c0 8.261719-1.480469 16.152344-4.164063 23.347656-8.40625 22.613281-28.671875 38.550781-52.328125 38.550781h-122.699219c-27.523437 0-49.847656-24.449218-49.847656-54.609374 0-15.078126 5.582032-28.734376 14.601563-38.613282 6.886719-7.535156 15.769531-12.878906 25.699219-14.992187 3.085937-.664063 6.285156-1.003907 9.546874-1.003907 0 0 113.253907 7.929688 162.511719-25.296874 7.289063-4.917969 16.679688.984374 16.679688 10.367187zm0 0" fill="#ec8500"/><path d="m278.441406 97.734375c-8.410156 22.613281-28.671875 38.550781-52.332031 38.550781h-122.699219c-27.519531 0-49.84375-24.449218-49.84375-54.609375 0-15.074219 5.582032-28.734375 14.597656-38.609375 6.886719-7.539062 15.769532-12.882812 25.699219-14.996094-1.625 5.386719-2.503906 11.140626-2.503906 17.128907 0 30.160156 22.324219 54.605469 49.84375 54.605469h122.699219c5.023437 0 9.898437-.722657 14.539062-2.070313zm0 0" fill="#db7d00"/><g fill="#ca7400"><path d="m188.929688 247.585938c-4.285157 0-7.765626 3.476562-7.765626 7.765624 0 7.210938-5.863281 13.078126-13.074218 13.078126-7.210938 0-13.078125-5.867188-13.078125-13.078126 0-4.289062-3.476563-7.765624-7.765625-7.765624-4.289063 0-7.765625 3.476562-7.765625 7.765624 0 15.773438 12.835937 28.609376 28.609375 28.609376 15.773437 0 28.605468-12.835938 28.605468-28.609376 0-4.289062-3.476562-7.765624-7.765624-7.765624zm0 0"/><path d="m234.027344 212.117188c0 6.839843-5.546875 12.382812-12.382813 12.382812-6.839843 0-12.382812-5.542969-12.382812-12.382812 0-6.835938 5.542969-12.378907 12.382812-12.378907 6.835938 0 12.382813 5.542969 12.382813 12.378907zm0 0"/><path d="m126.914062 212.117188c0 6.839843-5.542968 12.382812-12.382812 12.382812-6.835938 0-12.378906-5.542969-12.378906-12.382812 0-6.835938 5.542968-12.378907 12.378906-12.378907 6.839844 0 12.382812 5.542969 12.382812 12.378907zm0 0"/><path d="m203.375 176.351562c-4.199219.878907-6.894531 4.992188-6.019531 9.1875.875 4.199219 4.988281 6.894532 9.1875 6.019532 6.011719-1.253906 25.34375-3.460938 35.011719 2.617187 3.632812 2.285157 8.425781 1.1875 10.707031-2.441406 8.234375-13.097656-21.988281-20.984375-48.886719-15.382813zm0 0"/><path d="m132.800781 176.351562c-3-.625-29.777343-5.804687-46.445312 4.675782-3.628907 2.28125-4.722657 7.074218-2.4375 10.707031 2.28125 3.628906 7.074219 4.726563 10.707031 2.441406 9.65625-6.074219 28.550781-3.945312 35.015625-2.617187 4.191406.867187 8.304687-1.824219 9.179687-6.019532.875-4.195312-1.820312-8.308593-6.019531-9.1875zm0 0"/><path d="m505.476562 347.320312v133.472657c0 3.085937-.453124 6.066406-1.28125 8.878906-3.828124 12.90625-15.777343 22.328125-29.929687 22.328125h-168.453125c-17.238281 0-31.207031-13.976562-31.207031-31.207031v-133.472657c0-5.730468 4.644531-10.378906 10.375-10.378906h210.117187c5.734375 0 10.378906 4.648438 10.378906 10.378906zm0 0"/><path d="m505.476562 347.320312v133.472657c0 3.085937-.453124 6.066406-1.28125 8.878906-2.816406.835937-5.804687 1.285156-8.898437 1.285156h-168.453125c-17.238281 0-31.210938-13.976562-31.210938-31.207031v-122.808594h199.464844c5.734375 0 10.378906 4.648438 10.378906 10.378906zm0 0"/></g><path d="m504.195312 489.675781c-3.820312 12.902344-15.78125 22.324219-29.925781 22.324219h-168.453125c-17.238281 0-31.207031-13.976562-31.207031-31.207031v-133.46875c0-5.734375 4.636719-10.382813 10.375-10.382813h10.65625v122.8125c0 17.226563 13.964844 31.207032 31.207031 31.207032h168.453125c3.09375 0 6.078125-.457032 8.894531-1.285157zm0 0" fill="#b96a00"/><path d="m433.988281 369.472656c-4.289062 0-7.765625-3.476562-7.765625-7.765625v-43.40625c0-6.902343-5.617187-12.519531-12.519531-12.519531h-47.28125c-6.902344 0-12.515625 5.617188-12.515625 12.519531v43.40625c0 4.289063-3.480469 7.765625-7.769531 7.765625-4.285157 0-7.765625-3.476562-7.765625-7.765625v-43.40625c0-15.464843 12.585937-28.050781 28.050781-28.050781h47.28125c15.464844 0 28.050781 12.585938 28.050781 28.050781v43.40625c0 4.289063-3.480468 7.765625-7.765625 7.765625zm0 0" fill="#db7d00"/><path d="m505.476562 347.320312v30.175782c0 8.292968-2.296874 16.046875-6.285156 22.671875-7.699218 12.753906-21.6875 21.285156-37.675781 21.285156h-142.953125c-24.277344 0-43.957031-19.675781-43.957031-43.957031v-30.175782c0-5.730468 4.644531-10.378906 10.375-10.378906h210.121093c5.730469 0 10.375 4.648438 10.375 10.378906zm0 0" fill="#b96a00"/><path d="m467.644531 404.597656v16.433594c-1.996093.277344-4.046875.421875-6.128906.421875h-17.652344v-16.855469c0-2.828125 2.296875-5.125 5.125-5.125h13.53125c2.839844 0 5.125 2.296875 5.125 5.125zm0 0" fill="#ebe0da"/><path d="m499.195312 400.164062c-7.707031 12.753907-21.695312 21.289063-37.679687 21.289063h-142.953125c-24.28125 0-43.953125-19.675781-43.953125-43.957031v-30.171875c0-5.734375 4.636719-10.382813 10.375-10.382813h10.65625v22.53125c0 24.277344 19.671875 43.953125 43.953125 43.953125h142.949219c5.894531 0 11.515625-1.160156 16.652343-3.261719zm0 0" fill="#a86000"/><path d="m331.136719 443.113281h-13.535157c-2.832031 0-5.125-2.292969-5.125-5.125v-33.390625c0-2.832031 2.292969-5.125 5.125-5.125h13.535157c2.828125 0 5.121093 2.292969 5.121093 5.125v33.390625c0 2.832031-2.292968 5.125-5.121093 5.125zm0 0" fill="#c8bebc"/><path d="m462.523438 443.113281h-13.535157c-2.828125 0-5.121093-2.292969-5.121093-5.125v-33.390625c0-2.832031 2.292968-5.125 5.121093-5.125h13.535157c2.832031 0 5.125 2.292969 5.125 5.125v33.390625c0 2.832031-2.292969 5.125-5.125 5.125zm0 0" fill="#c8bebc"/><path d="m336.261719 404.597656v16.855469h-17.695313c-2.070312 0-4.101562-.144531-6.089844-.421875v-16.433594c0-2.828125 2.300782-5.125 5.125-5.125h13.535157c2.824219 0 5.125 2.296875 5.125 5.125zm0 0" fill="#ebe0da"/><path d="m467.644531 404.597656v16.433594c-1.996093.277344-4.046875.421875-6.128906.421875h-17.652344v-16.855469c0-2.828125 2.296875-5.125 5.125-5.125h13.53125c2.839844 0 5.125 2.296875 5.125 5.125zm0 0" fill="#ebe0da"/></svg>