<svg height="512pt" viewBox="-3 0 512 512" width="512pt" xmlns="http://www.w3.org/2000/svg"><path d="m325.546875 10.382812v491.234376c0 5.730468-4.652344 10.382812-10.386719 10.382812h-304.777344c-5.730468 0-10.382812-4.652344-10.382812-10.382812v-491.234376c0-5.730468 4.652344-10.382812 10.382812-10.382812h304.777344c5.734375 0 10.386719 4.652344 10.386719 10.382812zm0 0" fill="#fff5f4"/><path d="m46.734375 512h-36.34375c-5.734375 0-10.38671875-4.652344-10.38671875-10.382812v-491.234376c0-5.730468 4.65234375-10.382812 10.38671875-10.382812h36.34375c-5.730469 0-10.382813 4.652344-10.382813 10.382812v491.234376c0 5.730468 4.652344 10.382812 10.382813 10.382812zm0 0" fill="#ebe0da"/><path d="m103.410156 114.425781h118.730469v101.765625h-118.730469zm0 0" fill="#63a6fd"/><path d="m103.410156 295.804688h118.726563v95.453124h-118.726563zm0 0" fill="#63a6fd"/><path d="m103.410156 210.914062h118.730469v90.171876h-118.730469zm0 0" fill="#4395fb"/><path d="m103.410156 30.570312h118.730469v90.171876h-118.730469zm0 0" fill="#4395fb"/><path d="m207.859375 114.425781h90.171875v105.226563h-90.171875zm0 0" fill="#4395fb"/><path d="m298.035156 291.648438v93.214843c0 3.53125-2.863281 6.394531-6.394531 6.394531h-83.785156v-99.609374zm0 0" fill="#4395fb"/><path d="m63.859375 114.425781 16.53125 52.613281-16.53125 52.609376h-36.34375v-105.222657zm0 0" fill="#1980f9"/><path d="m80.386719 345.660156-13.957031 45.597656h-32.515626c-3.53125 0-6.394531-2.863281-6.394531-6.394531v-93.203125h36.34375zm0 0" fill="#1980f9"/><path d="m63.859375 114.425781h53.824219v105.226563h-53.824219zm0 0" fill="#4395fb"/><path d="m63.863281 291.660156h53.824219v99.597656h-53.824219zm0 0" fill="#4395fb"/><path d="m63.859375 30.570312 16.53125 45.085938-16.53125 45.085938h-36.34375v-83.773438c0-3.53125 2.867187-6.398438 6.40625-6.398438zm0 0" fill="#4395fb"/><path d="m63.859375 210.910156 16.53125 47.167969-16.53125 43.011719h-36.34375v-90.179688zm0 0" fill="#4395fb"/><path d="m63.859375 30.570312h53.824219v90.171876h-53.824219zm0 0" fill="#63a6fd"/><path d="m63.859375 210.910156h53.824219v90.179688h-53.824219zm0 0" fill="#63a6fd"/><path d="m298.03125 120.742188h-90.171875v-90.171876h83.769531c3.539063 0 6.40625 2.867188 6.40625 6.402344v83.769532zm0 0" fill="#63a6fd"/><path d="m207.859375 210.914062h90.171875v90.171876h-90.171875zm0 0" fill="#63a6fd"/><path d="m27.515625 440.671875h199.46875c4.300781 0 7.789063-3.488281 7.789063-7.789063 0-4.300781-3.488282-7.785156-7.789063-7.785156h-199.46875c-4.300781 0-7.789063 3.484375-7.789063 7.785156 0 4.300782 3.488282 7.789063 7.789063 7.789063zm0 0" fill="#c8bebc"/><path d="m183.285156 461.789062h-155.769531c-4.300781 0-7.789063 3.484376-7.789063 7.785157 0 4.304687 3.488282 7.789062 7.789063 7.789062h155.769531c4.300782 0 7.785156-3.484375 7.785156-7.789062 0-4.300781-3.484374-7.785157-7.785156-7.785157zm0 0" fill="#c8bebc"/><path d="m244.292969 461.789062h-29.855469c-4.300781 0-7.789062 3.484376-7.789062 7.785157 0 4.304687 3.488281 7.789062 7.789062 7.789062h29.855469c4.300781 0 7.789062-3.484375 7.789062-7.789062 0-4.300781-3.488281-7.785157-7.789062-7.785157zm0 0" fill="#c8bebc"/><path d="m283.753906 63.019531c0-4.300781-3.488281-7.789062-7.789062-7.789062h-46.039063c-4.300781 0-7.785156 3.488281-7.785156 7.789062s3.484375 7.789063 7.785156 7.789063h46.039063c4.300781 0 7.789062-3.488282 7.789062-7.789063zm0 0" fill="#285fb3"/><path d="m275.964844 80.5h-23.019532c-4.300781 0-7.785156 3.488281-7.785156 7.789062 0 4.300782 3.484375 7.789063 7.785156 7.789063h23.019532c4.300781 0 7.789062-3.488281 7.789062-7.789063 0-4.300781-3.488281-7.789062-7.789062-7.789062zm0 0" fill="#285fb3"/><path d="m95.621094 145.40625h-46.039063c-4.300781 0-7.789062 3.484375-7.789062 7.785156 0 4.304688 3.488281 7.789063 7.789062 7.789063h46.039063c4.300781 0 7.789062-3.484375 7.789062-7.789063 0-4.300781-3.488281-7.785156-7.789062-7.785156zm0 0" fill="#285fb3"/><path d="m72.601562 170.675781h-23.019531c-4.300781 0-7.789062 3.484375-7.789062 7.785157 0 4.304687 3.488281 7.789062 7.789062 7.789062h23.019531c4.300782 0 7.789063-3.484375 7.789063-7.789062 0-4.300782-3.488281-7.785157-7.789063-7.785157zm0 0" fill="#285fb3"/><path d="m139.753906 96.078125h46.039063c4.300781 0 7.789062-3.488281 7.789062-7.789063 0-4.300781-3.488281-7.789062-7.789062-7.789062h-46.039063c-4.300781 0-7.785156 3.488281-7.785156 7.789062 0 4.300782 3.484375 7.789063 7.785156 7.789063zm0 0" fill="#285fb3"/><path d="m139.753906 70.808594h23.019532c4.300781 0 7.789062-3.488282 7.789062-7.789063s-3.488281-7.789062-7.789062-7.789062h-23.019532c-4.300781 0-7.785156 3.488281-7.785156 7.789062s3.484375 7.789063 7.785156 7.789063zm0 0" fill="#285fb3"/><path d="m184.0625 158.039062h-42.578125c-4.300781 0-7.789063 3.488282-7.789063 7.789063s3.488282 7.789063 7.789063 7.789063h42.578125c4.300781 0 7.789062-3.488282 7.789062-7.789063s-3.488281-7.789063-7.789062-7.789063zm0 0" fill="#285fb3"/><path d="m213.367188 205.40625c-3.039063-3.042969-7.972657-3.042969-11.011719 0l-39.582031 39.578125-39.578126-39.578125c-3.042968-3.042969-7.972656-3.042969-11.015624 0-3.039063 3.042969-3.039063 7.972656 0 11.015625l39.582031 39.578125-39.582031 39.578125c-3.039063 3.042969-3.039063 7.972656 0 11.011719 1.523437 1.523437 3.515624 2.28125 5.507812 2.28125s3.988281-.757813 5.507812-2.28125l39.578126-39.578125 39.582031 39.578125c1.519531 1.523437 3.511719 2.28125 5.507812 2.28125 1.992188 0 3.984375-.757813 5.503907-2.28125 3.042968-3.039063 3.042968-7.972656 0-11.011719l-39.578126-39.578125 39.578126-39.578125c3.042968-3.042969 3.042968-7.972656 0-11.015625zm0 0" fill="#f64346"/><path d="m388.113281 263.789062h-21.351562v-51.730468h21.351562zm0 0" fill="#d8cecc"/><path d="m459.007812 281.359375c-55.371093-45.046875-136.78125-36.679687-181.832031 18.691406-45.046875 55.371094-36.679687 136.777344 18.691407 181.828125 55.371093 45.050782 136.78125 36.683594 181.828124-18.6875 45.050782-55.371094 36.683594-136.78125-18.6875-181.832031zm0 0" fill="#c8bebc"/><path d="m439.691406 465.589844c-13.476562 9.992187-28.566406 16.253906-44.03125 18.972656-37.765625 6.667969-77.808594-7.796875-102.203125-40.695312-34.382812-46.386719-24.652343-111.851563 21.722657-146.234376 23.988281-17.789062 53.097656-23.769531 80.359374-18.972656 25.441407 4.464844 49.285157 18.308594 65.878907 40.707032 34.382812 46.375 24.652343 111.851562-21.726563 146.222656zm0 0" fill="#fff5f4"/><path d="m403.054688 193.945312h-51.238282c-9.050781 0-16.460937 7.40625-16.460937 16.460938s7.410156 16.464844 16.460937 16.464844h51.238282c9.054687 0 16.460937-7.410156 16.460937-16.464844 0-9.050781-7.40625-16.460938-16.460937-16.460938zm0 0" fill="#c8bebc"/><path d="m395.664062 484.5625c-37.765624 6.667969-77.808593-7.796875-102.203124-40.695312-34.382813-46.386719-24.652344-111.851563 21.726562-146.234376 23.988281-17.789062 53.09375-23.769531 80.355469-18.972656-15.464844 2.71875-30.542969 8.980469-44.011719 18.972656-74.144531 54.964844-45.234375 171.238282 44.132812 186.929688zm0 0" fill="#ebe0da"/><g fill="#fdc202"><path d="m377.4375 322.835938c4.300781 0 7.789062-3.484376 7.789062-7.789063v-16.9375c0-4.300781-3.488281-7.789063-7.789062-7.789063s-7.789062 3.488282-7.789062 7.789063v16.9375c0 4.304687 3.488281 7.789063 7.789062 7.789063zm0 0"/><path d="m423.082031 302.554688c-3.726562-2.152344-8.488281-.875-10.640625 2.851562l-8.464844 14.667969c-2.152343 3.722656-.875 8.488281 2.847657 10.636719 3.726562 2.152343 8.488281.875 10.640625-2.851563l8.46875-14.667969c2.152344-3.722656.875-8.488281-2.851563-10.636718zm0 0"/><path d="m438.976562 355.074219 14.667969-8.46875c3.726563-2.148438 5.003907-6.914063 2.851563-10.636719-2.152344-3.726562-6.914063-5-10.636719-2.851562l-14.667969 8.46875c-3.726562 2.152343-5.003906 6.914062-2.851562 10.640624 2.148437 3.726563 6.914062 5 10.636718 2.847657zm0 0"/><path d="m460.9375 373.824219h-16.9375c-4.300781 0-7.785156 3.488281-7.785156 7.789062s3.484375 7.789063 7.785156 7.789063h16.9375c4.304688 0 7.789062-3.488282 7.789062-7.789063s-3.484374-7.789062-7.789062-7.789062zm0 0"/><path d="m453.644531 416.621094-14.667969-8.46875c-3.726562-2.152344-8.488281-.875-10.636718 2.847656-2.152344 3.726562-.875 8.492188 2.851562 10.640625 15.945313 9.207031 15.824219 9.515625 18.554688 9.515625 7.9375 0 10.785156-10.558594 3.898437-14.535156zm0 0"/><path d="m417.464844 435.367188c-2.152344-3.726563-6.914063-5.003907-10.636719-2.851563-3.726563 2.152344-5.003906 6.914063-2.851563 10.640625l8.46875 14.667969c2.148438 3.726562 6.914063 5 10.636719 2.851562 3.726563-2.152343 5.003907-6.914062 2.851563-10.640625zm0 0"/><path d="m377.4375 440.390625c-4.300781 0-7.789062 3.488281-7.789062 7.789063v16.9375c0 4.300781 3.488281 7.789062 7.789062 7.789062s7.789062-3.488281 7.789062-7.789062v-16.9375c0-4.300782-3.488281-7.789063-7.789062-7.789063zm0 0"/><path d="m348.046875 432.515625c-3.722656-2.152344-8.488281-.875-10.636719 2.851563l-8.46875 14.667968c-3.011718 5.214844.800782 11.683594 6.738282 11.683594 2.691406 0 5.308593-1.394531 6.75-3.894531l8.46875-14.667969c2.152343-3.726562.875-8.488281-2.851563-10.640625zm0 0"/><path d="m315.894531 408.152344-14.667969 8.46875c-3.722656 2.148437-5 6.914062-2.847656 10.636718 2.148438 3.726563 6.914063 5.003907 10.636719 2.851563l14.667969-8.46875c3.726562-2.148437 5.003906-6.914063 2.851562-10.640625-2.152344-3.722656-6.914062-5-10.640625-2.847656zm0 0"/><path d="m318.660156 381.613281c0-4.300781-3.488281-7.789062-7.789062-7.789062h-16.9375c-4.300782 0-7.789063 3.488281-7.789063 7.789062s3.488281 7.789063 7.789063 7.789063h16.9375c4.300781 0 7.789062-3.488282 7.789062-7.789063zm0 0"/><path d="m323.683594 341.585938-14.667969-8.46875c-3.722656-2.152344-8.488281-.875-10.636719 2.851562-2.152344 3.722656-.875 8.488281 2.847656 10.636719 15.949219 9.207031 15.828126 9.515625 18.554688 9.515625 2.695312 0 5.3125-1.394532 6.753906-3.894532 2.152344-3.726562.875-8.488281-2.851562-10.640624zm0 0"/><path d="m342.429688 305.40625c-2.148438-3.726562-6.914063-5.003906-10.636719-2.851562-3.726563 2.148437-5.003907 6.914062-2.851563 10.636718l8.46875 14.667969c1.441406 2.5 4.058594 3.898437 6.75 3.898437 5.941406 0 9.75-6.472656 6.738282-11.683593zm0 0"/><path d="m402.527344 344.128906c-3.621094-2.320312-8.441406-1.265625-10.757813 2.355469l-18.859375 29.132813c-2.320312 3.621093-1.265625 8.4375 2.355469 10.757812 1.300781.832031 2.757813 1.230469 4.195313 1.230469 2.566406 0 5.078124-1.265625 6.566406-3.585938l18.855468-29.128906c2.320313-3.625 1.265626-8.441406-2.355468-10.761719zm0 0"/></g><path d="m377.519531 396.660156c7.007813 0 13.640625-5.085937 14.792969-12.835937 1.953125-13.125-13.027344-22.300781-23.832031-14.292969-11.445313 8.488281-5.726563 27.128906 9.039062 27.128906zm0 0" fill="#f64346"/></svg>