<svg height="512pt" viewBox="0 0 512 512" width="512pt" xmlns="http://www.w3.org/2000/svg"><path d="m482 236h-77.328125v40h77.328125c11.050781 0 20-8.949219 20-20s-8.949219-20-20-20zm0 0" fill="#c6715a"/><path d="m431.710938 80.289062c-7.8125-7.808593-20.480469-7.808593-28.289063 0l-56.480469 56.492188 28.277344 28.277344 56.492188-56.480469c7.808593-7.808594 7.808593-20.476563 0-28.289063zm0 0" fill="#c6715a"/><path d="m431.710938 403.421875-56.492188-56.480469-28.277344 28.277344 56.480469 56.492188c7.808594 7.808593 20.476563 7.808593 28.289063 0 7.808593-7.8125 7.808593-20.480469 0-28.289063zm0 0" fill="#c6715a"/><path d="m256 106c-82.796875 0-150 67.347656-150 150 0 82.796875 67.347656 150 150 150 82.796875 0 150-67.347656 150-150 0-82.722656-67.285156-150-150-150zm0 260c-60.636719 0-110-49.359375-110-110 0-62.730469 51.066406-110 110-110 60.636719 0 110 49.359375 110 110 0 60.636719-49.359375 110-110 110zm0 0" fill="#656d88"/><g fill="#c6715a"><path d="m296 256c0 22.0625-17.9375 40-40 40s-40-17.9375-40-40c0-22.058594 17.941406-40 40-40 22.0625 0 40 17.9375 40 40zm0 0"/><path d="m236 404.671875v77.328125c0 11.050781 8.949219 20 20 20s20-8.949219 20-20v-77.328125zm0 0"/><path d="m256 10c-11.050781 0-20 8.949219-20 20v77.328125h40v-77.328125c0-11.050781-8.949219-20-20-20zm0 0"/><path d="m136.78125 346.941406-56.492188 56.480469c-7.808593 7.808594-7.808593 20.476563 0 28.289063 7.8125 7.808593 20.480469 7.808593 28.289063 0l56.480469-56.492188zm0 0"/><path d="m108.578125 80.289062c-7.808594-7.808593-20.476563-7.808593-28.289063 0-7.808593 7.8125-7.808593 20.480469 0 28.289063l56.492188 56.480469 28.277344-28.277344zm0 0"/><path d="m30 236c-11.050781 0-20 8.949219-20 20s8.949219 20 20 20h77.328125v-40zm0 0"/></g><path d="m176 186c5.519531 0 10-4.480469 10-10 0-5.453125-4.414062-10-10-10-5.519531 0-10 4.480469-10 10 0 5.585938 4.546875 10 10 10zm0 0"/><path d="m30 286h68.84375c4.078125 21.386719 12.558594 41.804688 24.859375 59.871094l-50.484375 50.476562c-11.722656 11.722656-11.726562 30.707032 0 42.433594 11.722656 11.722656 30.707031 11.726562 42.433594 0l50.476562-50.484375c18.066406 12.304687 38.484375 20.78125 59.871094 24.859375v68.84375c0 16.542969 13.457031 30 30 30s30-13.457031 30-30v-68.84375c21.386719-4.082031 41.804688-12.558594 59.871094-24.859375l50.476562 50.484375c11.722656 11.722656 30.707032 11.726562 42.433594 0 11.722656-11.722656 11.726562-30.707031 0-42.433594l-50.484375-50.476562c12.304687-18.066406 20.78125-38.484375 24.859375-59.871094h68.84375c16.542969 0 30-13.457031 30-30s-13.457031-30-30-30h-68.84375c-4.078125-21.386719-12.558594-41.804688-24.859375-59.871094l50.484375-50.476562c11.722656-11.722656 11.726562-30.707032 0-42.433594-11.722656-11.722656-30.707031-11.726562-42.433594 0l-50.476562 50.484375c-18.066406-12.304687-38.484375-20.78125-59.871094-24.859375v-68.84375c0-16.542969-13.457031-30-30-30s-30 13.457031-30 30v68.84375c-21.386719 4.078125-41.804688 12.558594-59.871094 24.859375l-50.476562-50.484375c-11.722656-11.722656-30.707032-11.726562-42.433594 0-11.722656 11.722656-11.726562 30.707031 0 42.433594l50.484375 50.476562c-12.304687 18.066406-20.78125 38.484375-24.859375 59.871094h-68.84375c-16.542969 0-30 13.457031-30 30s13.457031 30 30 30zm114.722656-114.863281c7.597656-9.933594 16.480469-18.820313 26.414063-26.414063 19.320312-14.777344 42.210937-24.277344 66.199219-27.484375 6.117187-.820312 12.398437-1.238281 18.664062-1.238281 76.933594 0 140 62.542969 140 140 0 78.589844-64.59375 140.660156-141 140.019531-77.042969-.644531-139-63.390625-139-140.019531 0-6.265625.417969-12.546875 1.242188-18.675781 3.203124-23.980469 12.703124-46.867188 27.480468-66.1875zm-43.214844 253.503906c-3.90625 3.90625-10.238281 3.90625-14.144531 0-3.910156-3.90625-3.910156-10.242187-.003906-14.148437l48.707031-48.699219c4.417969 5 9.140625 9.722656 14.140625 14.140625zm154.492188 67.359375c-5.515625 0-10-4.484375-10-10v-66.320312c3.324219.207031 6.664062.320312 10 .320312s6.675781-.113281 10-.320312v66.320312c0 5.515625-4.484375 10-10 10zm168.640625-67.359375c-3.90625 3.90625-10.242187 3.90625-14.148437 0l-48.699219-48.707031c5-4.417969 9.722656-9.140625 14.140625-14.140625l48.707031 48.699219c3.90625 3.90625 3.90625 10.238281 0 14.148437zm67.359375-168.640625c0 5.515625-4.484375 10-10 10h-66.320312c.207031-3.324219.320312-6.664062.320312-10s-.113281-6.675781-.320312-10h66.320312c5.515625 0 10 4.484375 10 10zm-81.507812-168.640625c3.90625-3.90625 10.238281-3.90625 14.144531 0 3.910156 3.90625 3.910156 10.242187.003906 14.148437l-48.707031 48.699219c-4.417969-5-9.140625-9.722656-14.140625-14.140625zm-154.492188-67.359375c5.515625 0 10 4.484375 10 10v66.324219c-6.648438-.410157-13.355469-.410157-20 0v-66.324219c0-5.515625 4.484375-10 10-10zm-168.640625 67.359375c3.90625-3.90625 10.242187-3.90625 14.148437 0l48.699219 48.707031c-5 4.417969-9.722656 9.140625-14.140625 14.140625l-48.707031-48.699219c-3.90625-3.90625-3.90625-10.238281 0-14.148437zm-57.359375 158.628906h66.320312c-.207031 3.328125-.320312 6.664063-.320312 10 0 3.335938.113281 6.6875.320312 10.011719h-66.320312c-5.515625 0-10-4.484375-10-10s4.484375-10.011719 10-10.011719zm0 0"/><path d="m256 376c66.15625 0 120-53.816406 120-120 0-66.070312-53.746094-120-120-120-17.058594 0-34.214844 3.714844-49.613281 10.742188-5.023438 2.292968-7.238281 8.226562-4.945313 13.25 2.292969 5.023437 8.226563 7.238281 13.25 4.945312 9.804688-4.472656 20.472656-7.328125 31.308594-8.421875v50.492187c-6.371094 1.296876-12.304688 3.820313-17.550781 7.296876l-17.105469-17.105469c-3.90625-3.902344-10.238281-3.902344-14.144531 0-3.90625 3.90625-3.90625 10.238281 0 14.144531l17.105469 17.105469c-3.476563 5.246093-6 11.179687-7.296876 17.554687h-50.496093c1.097656-10.839844 3.953125-21.507812 8.425781-31.308594 2.292969-5.023437.078125-10.957031-4.945312-13.25-5.023438-2.296874-10.957032-.082031-13.25 4.945313-7.027344 15.394531-10.742188 32.550781-10.742188 49.609375 0 66.070312 53.746094 120 120 120zm0-150c16.539062 0 30 13.441406 30 30 0 16.539062-13.441406 30-30 30-16.539062 0-30-13.441406-30-30 0-16.542969 13.457031-30 30-30zm99.5 20h-50.5c-1.269531-6.28125-3.738281-12.230469-7.289062-17.570312l35.683593-35.683594c12.132813 14.820312 20.101563 33.171875 22.105469 53.253906zm-22.105469 73.253906-35.683593-35.6875c3.550781-5.339844 6.019531-11.296875 7.289062-17.578125h50.503906c-2.007812 20.085938-9.976562 38.445313-22.109375 53.265625zm-104.960937-21.542968c5.339844 3.550781 11.285156 6.019531 17.566406 7.289062v50.503906c-20.082031-2.003906-38.433594-9.976562-53.253906-22.109375zm37.566406 7.289062c6.28125-1.269531 12.230469-3.738281 17.570312-7.289062l35.683594 35.683593c-14.820312 12.132813-33.171875 20.105469-53.253906 22.109375zm17.566406-90.710938c-5.339844-3.550781-11.285156-6.019531-17.566406-7.289062v-50.503906c20.082031 2.003906 38.433594 9.976562 53.253906 22.109375zm-69.277344 69.28125-35.683593 35.683594c-12.132813-14.820312-20.105469-33.171875-22.109375-53.253906h50.503906c1.269531 6.28125 3.738281 12.230469 7.289062 17.570312zm0 0"/></svg>