<svg height="512pt" viewBox="0 -41 512 512" width="512pt" xmlns="http://www.w3.org/2000/svg"><path d="m184.195312 49.046875v212.316406c0 4.066407-3.296874 7.351563-7.351562 7.351563h-169.492188c-4.066406 0-7.351562-3.285156-7.351562-7.351563v-254.011719c0-4.054687 3.285156-7.351562 7.351562-7.351562h127.796876zm0 0" fill="#fff5f4"/><path d="m512 49.046875v212.316406c0 4.066407-3.285156 7.351563-7.351562 7.351563h-169.492188c-4.054688 0-7.351562-3.285156-7.351562-7.351563v-254.011719c0-4.054687 3.296874-7.351562 7.351562-7.351562h127.796875zm0 0" fill="#fff5f4"/><path d="m184.195312 49.046875v.011719h-40.273437c-4.84375 0-8.773437-3.917969-8.773437-8.765625v-40.292969zm0 0" fill="#ebe0da"/><path d="m512 49.046875h-40.273438c-4.84375 0-8.773437-3.929687-8.773437-8.773437v-40.273438zm0 0" fill="#ebe0da"/><path d="m43.734375 268.714844h-36.382813c-4.066406 0-7.351562-3.285156-7.351562-7.351563v-254.011719c0-4.054687 3.285156-7.351562 7.351562-7.351562h36.382813c-4.0625 0-7.347656 3.296875-7.347656 7.351562v254.011719c0 4.066407 3.285156 7.351563 7.347656 7.351563zm0 0" fill="#ebe0da"/><path d="m381.882812 213.167969v55.546875h-46.726562c-4.054688 0-7.351562-3.285156-7.351562-7.351563v-254.011719c0-4.054687 3.296874-7.351562 7.351562-7.351562h36.382812c-4.054687 0-7.347656 3.296875-7.347656 7.351562v185.117188l15.570313 15.574219c1.363281 1.363281 2.121093 3.203125 2.121093 5.125zm0 0" fill="#ebe0da"/><path d="m348.097656 210.164062v212.316407c0 4.066406-3.285156 7.351562-7.351562 7.351562h-169.492188c-4.066406 0-7.351562-3.285156-7.351562-7.351562v-254.015625c0-4.054688 3.285156-7.347656 7.351562-7.347656h127.796875zm0 0" fill="#fff5f4"/><path d="m348.097656 210.164062h-40.273437c-4.84375 0-8.773438-3.917968-8.773438-8.761718v-40.285156zm0 0" fill="#ebe0da"/><path d="m207.636719 429.832031h-36.382813c-4.066406 0-7.351562-3.285156-7.351562-7.351562v-254.015625c0-4.054688 3.285156-7.347656 7.351562-7.347656h36.382813c-4.0625 0-7.347657 3.292968-7.347657 7.347656v254.015625c0 4.066406 3.285157 7.351562 7.347657 7.351562zm0 0" fill="#ebe0da"/><g fill="#4395fb"><path d="m364.964844 56.855469h66.453125c4.308593 0 7.796875-3.492188 7.796875-7.796875 0-4.304688-3.488282-7.796875-7.796875-7.796875h-66.453125c-4.308594 0-7.800782 3.492187-7.800782 7.796875 0 4.304687 3.492188 7.796875 7.800782 7.796875zm0 0"/><path d="m364.964844 112.738281h109.878906c4.304688 0 7.796875-3.488281 7.796875-7.796875 0-4.304687-3.492187-7.796875-7.796875-7.796875h-109.878906c-4.308594 0-7.800782 3.492188-7.800782 7.796875 0 4.308594 3.492188 7.796875 7.800782 7.796875zm0 0"/><path d="m364.964844 148.722656h16.316406c4.304688 0 7.796875-3.492187 7.796875-7.796875 0-4.304687-3.492187-7.796875-7.796875-7.796875h-16.316406c-4.308594 0-7.800782 3.492188-7.800782 7.796875 0 4.304688 3.492188 7.796875 7.800782 7.796875zm0 0"/><path d="m474.84375 133.128906h-62.375c-4.308594 0-7.796875 3.492188-7.796875 7.796875 0 4.304688 3.488281 7.796875 7.796875 7.796875h62.375c4.308594 0 7.796875-3.492187 7.796875-7.796875 0-4.304687-3.492187-7.796875-7.796875-7.796875zm0 0"/><path d="m474.84375 169.109375h-109.878906c-4.308594 0-7.800782 3.492187-7.800782 7.796875 0 4.308594 3.492188 7.796875 7.800782 7.796875h109.878906c4.304688 0 7.796875-3.488281 7.796875-7.796875 0-4.304688-3.492187-7.796875-7.796875-7.796875zm0 0"/><path d="m149.203125 89.550781-19.691406 18.050781-18.644531-17.019531c-1.578126-1.445312-3.679688-2.175781-5.816407-2.019531-2.132812.152344-4.109375 1.175781-5.46875 2.832031l-22.941406 27.96875-16.847656-40.566406c-.882813-2.128906-2.660157-3.757813-4.859375-4.449219-2.195313-.691406-4.585938-.375-6.527344.859375l-22.871094 14.554688c-3.632812 2.3125-4.703125 7.132812-2.394531 10.765625 2.3125 3.628906 7.132813 4.703125 10.765625 2.390625l15.042969-9.574219 18.273437 44.007812c1.050782 2.527344 3.351563 4.320313 6.0625 4.722657.378906.054687.761719.082031 1.140625.082031 2.3125 0 4.535157-1.03125 6.027344-2.851562l25.972656-31.664063 17.839844 16.289063c2.980469 2.722656 7.546875 2.71875 10.523437-.011719l24.953126-22.871094c3.171874-2.910156 3.386718-7.839844.476562-11.015625s-7.839844-3.386719-11.015625-.480469zm0 0"/><path d="m29.722656 177.601562h51.976563c4.308593 0 7.796875-3.492187 7.796875-7.796874 0-4.304688-3.488282-7.796876-7.796875-7.796876h-51.976563c-4.308594 0-7.796875 3.492188-7.796875 7.796876 0 4.304687 3.488281 7.796874 7.796875 7.796874zm0 0"/><path d="m134.46875 162.007812h-21.582031c-4.304688 0-7.796875 3.492188-7.796875 7.796876 0 4.304687 3.492187 7.796874 7.796875 7.796874h21.582031c4.304688 0 7.796875-3.492187 7.796875-7.796874 0-4.304688-3.492187-7.796876-7.796875-7.796876zm0 0"/><path d="m134.46875 193.886719h-104.746094c-4.308594 0-7.796875 3.492187-7.796875 7.796875 0 4.308594 3.488281 7.796875 7.796875 7.796875h104.746094c4.304688 0 7.796875-3.488281 7.796875-7.796875 0-4.304688-3.492187-7.796875-7.796875-7.796875zm0 0"/><path d="m192.625 345.261719h126.75c4.304688 0 7.796875-3.492188 7.796875-7.796875 0-4.304688-3.492187-7.796875-7.796875-7.796875h-12.609375v-94.144531c0-4.304688-3.488281-7.796876-7.796875-7.796876-4.304688 0-7.796875 3.492188-7.796875 7.796876v94.144531h-13.050781v-56.898438c0-4.304687-3.492188-7.796875-7.796875-7.796875-4.308594 0-7.796875 3.492188-7.796875 7.796875v56.898438h-13.054688v-73.578125c0-4.304688-3.488281-7.796875-7.796875-7.796875-4.304687 0-7.796875 3.492187-7.796875 7.796875v73.578125h-13.050781v-35.699219c0-4.308594-3.492187-7.796875-7.796875-7.796875-4.308594 0-7.796875 3.488281-7.796875 7.796875v35.699219h-12.609375c-4.304688 0-7.796875 3.492187-7.796875 7.796875 0 4.304687 3.492187 7.796875 7.796875 7.796875zm0 0"/><path d="m321.214844 362.996094h-130.429688c-4.304687 0-7.796875 3.488281-7.796875 7.796875 0 4.304687 3.492188 7.796875 7.796875 7.796875h130.429688c4.304687 0 7.796875-3.492188 7.796875-7.796875 0-4.308594-3.492188-7.796875-7.796875-7.796875zm0 0"/><path d="m321.214844 391.0625h-26.46875c-4.308594 0-7.796875 3.492188-7.796875 7.796875 0 4.308594 3.488281 7.796875 7.796875 7.796875h26.46875c4.308594 0 7.796875-3.488281 7.796875-7.796875 0-4.304687-3.492188-7.796875-7.796875-7.796875zm0 0"/><path d="m263.558594 391.0625h-72.773438c-4.304687 0-7.796875 3.492188-7.796875 7.796875 0 4.308594 3.492188 7.796875 7.796875 7.796875h72.773438c4.304687 0 7.796875-3.488281 7.796875-7.796875 0-4.304687-3.492188-7.796875-7.796875-7.796875zm0 0"/></g></svg>