<svg height="512pt" viewBox="0 0 512 512" width="512pt" xmlns="http://www.w3.org/2000/svg"><path d="m256 10c132.550781 0 246 113.449219 246 246s-113.449219 246-246 246-246-113.449219-246-246 113.449219-246 246-246zm0 0" fill="#ed5575"/><path d="m436 256c0 98.867188-80.320312 180-180 180-98.867188 0-180-80.320312-180-180 0-98.867188 80.320312-180 180-180 98.867188 0 180 80.320312 180 180zm0 0" fill="#ede9e8"/><path d="m276 256c0 11.046875-8.953125 20-20 20s-20-8.953125-20-20 8.953125-20 20-20 20 8.953125 20 20zm0 0" fill="#ed5575"/><path d="m266 356c0 5.523438-4.476562 10-10 10s-10-4.476562-10-10 4.476562-10 10-10 10 4.476562 10 10zm0 0"/><path d="m256 0c-137.914062 0-256 117.703125-256 256 0 137.902344 117.691406 256 256 256 137.914062 0 256-117.703125 256-256 0-137.902344-117.691406-256-256-256zm0 492c-127.925781 0-236-108.074219-236-236s108.074219-236 236-236 236 108.074219 236 236-108.074219 236-236 236zm0 0"/><path d="m256 66c-104.410156 0-190 84.898438-190 190 0 104.761719 85.253906 190 190 190 104.550781 0 190-85.035156 190-190 0-104.738281-85.253906-190-190-190zm93.480469 331.90625-4.820313-8.34375c-2.761718-4.785156-8.875-6.425781-13.660156-3.664062-4.78125 2.761718-6.421875 8.878906-3.660156 13.660156l4.832031 8.375c-20.578125 10.34375-43.125 16.394531-66.171875 17.757812v-29.691406c0-5.523438-4.476562-10-10-10s-10 4.476562-10 10v29.691406c-23.046875-1.363281-45.59375-7.414062-66.171875-17.757812l4.832031-8.375c2.761719-4.78125 1.121094-10.898438-3.660156-13.660156-4.785156-2.761719-10.898438-1.121094-13.660156 3.664062l-4.820313 8.34375c-19.222656-12.703125-35.722656-29.203125-48.425781-48.425781l8.347656-4.820313c4.78125-2.761718 6.421875-8.875 3.660156-13.660156-2.761718-4.78125-8.875-6.425781-13.660156-3.660156l-8.375 4.832031c-10.34375-20.578125-16.394531-43.125-17.757812-66.171875h29.691406c5.523438 0 10-4.476562 10-10s-4.476562-10-10-10h-29.691406c1.363281-23.046875 7.414062-45.59375 17.757812-66.171875l8.375 4.832031c4.75 2.742188 10.878906 1.152344 13.660156-3.664062 2.761719-4.78125 1.121094-10.898438-3.664062-13.65625l-8.34375-4.820313c12.703125-19.222656 29.203125-35.722656 48.425781-48.429687l4.820313 8.347656c2.773437 4.804688 8.898437 6.410156 13.65625 3.660156 4.785156-2.757812 6.425781-8.875 3.664062-13.660156l-4.835937-8.371094c20.582031-10.34375 43.128906-16.394531 66.175781-17.757812v29.691406c0 5.523438 4.476562 10 10 10s10-4.476562 10-10v-29.691406c23.046875 1.363281 45.59375 7.414062 66.171875 17.757812l-4.832031 8.375c-2.761719 4.78125-1.121094 10.898438 3.660156 13.660156 4.761719 2.746094 10.886719 1.140626 13.660156-3.664062l4.820313-8.34375c19.222656 12.703125 35.722656 29.203125 48.425781 48.425781l-8.347656 4.820313c-4.78125 2.761718-6.421875 8.875-3.660156 13.660156 2.75 4.765625 8.863281 6.429688 13.660156 3.660156l8.375-4.832031c10.34375 20.578125 16.394531 43.125 17.753906 66.171875h-29.6875c-5.523438 0-10 4.476562-10 10s4.476562 9.988281 10 9.988281h29.691406c-1.363281 23.046875-7.414062 45.605469-17.757812 66.183594l-8.375-4.832031c-4.78125-2.761719-10.898438-1.121094-13.660156 3.664062-2.761719 4.78125-1.121094 10.898438 3.664062 13.65625l8.34375 4.820313c-12.703125 19.21875-29.203125 35.722656-48.425781 48.425781zm0 0"/><path d="m336 246h-50c-.570312 0-1.125.058594-1.667969.148438-3.011719-8.628907-9.851562-15.46875-18.480469-18.480469.089844-.542969.148438-1.097657.148438-1.667969v-70c0-5.523438-4.476562-10-10-10s-10 4.476562-10 10v70c0 .570312.058594 1.125.148438 1.667969-11.714844 4.085937-20.148438 15.238281-20.148438 28.332031 0 16.542969 13.457031 30 30 30 13.09375 0 24.246094-8.433594 28.332031-20.148438.542969.089844 1.097657.148438 1.667969.148438h50c5.523438 0 10-4.476562 10-10s-4.476562-10-10-10zm-80 20c-5.515625 0-10-4.484375-10-10s4.484375-10 10-10 10 4.484375 10 10-4.484375 10-10 10zm0 0"/></svg>