<svg height="512pt" viewBox="-1 0 512 512.0002" width="512pt" xmlns="http://www.w3.org/2000/svg"><path d="m224.59375 83.019531c-1.808594 0-192.929688 0-194.730469 0-16.496093 0-29.863281 13.371094-29.863281 29.863281v294.933594c0 16.492188 13.367188 29.859375 29.863281 29.859375h6.378907v64.957031c0 9.300782 12.101562 12.898438 17.179687 5.105469l45.671875-70.0625h125.5c16.492188 0 29.859375-13.367187 29.859375-29.859375v-294.933594c0-16.492187-13.367187-29.863281-29.859375-29.863281zm0 0" fill="#63a6fd"/><path d="m482.785156 190.71875c-13.003906 0-287.578125 0-298.171875 0-14.578125 0-26.394531 11.816406-26.394531 26.382812v125.601563c0 14.582031 11.816406 26.394531 26.394531 26.394531h27.347657 198.320312l45.671875 70.066406c5.078125 7.792969 17.179687 4.195313 17.179687-5.105468v-64.960938h9.652344c14.578125 0 26.394532-11.8125 26.394532-26.394531v-125.601563c0-14.566406-11.816407-26.382812-26.394532-26.382812zm0 0" fill="#7af4a9"/><path d="m66.105469 83.027344c-16.496094 0-29.863281 13.367187-29.863281 29.859375v324.796875h-6.378907c-16.496093 0-29.863281-13.371094-29.863281-29.863282v-294.933593c0-16.492188 13.367188-29.859375 29.863281-29.859375zm0 0" fill="#4395fb"/><path d="m220.855469 369.101562h-36.242188c-14.578125 0-26.394531-11.8125-26.394531-26.390624v-125.601563c0-14.570313 11.816406-26.386719 26.394531-26.386719h36.242188c-14.582031 0-26.394531 11.816406-26.394531 26.386719v125.601563c0 14.578124 11.8125 26.390624 26.394531 26.390624zm0 0" fill="#6fd191"/><path d="m436.796875 1.128906-69.585937 36.785156c-108.207032-75.234374-283.171876-16.257812-283.171876 100.617188 0 74.109375 76.292969 134.1875 170.414063 134.1875 93.992187 0 170.417969-59.972656 170.417969-134.1875 0-19.339844-5.199219-37.71875-14.550782-54.328125l39.019532-70.269531c4.515625-8.128906-4.320313-17.148438-12.542969-12.804688zm0 0" fill="#f64346"/><path d="m272.574219 271.964844c-5.953125.5-12 .757812-18.121094.757812-94.121094 0-170.414063-60.078125-170.414063-134.1875 0-74.105468 76.292969-134.183594 170.414063-134.183594 6.121094 0 12.167969.257813 18.121094.753907-85.601563 7.113281-152.292969 64.136719-152.292969 133.429687 0 69.292969 66.691406 126.316406 152.292969 133.429688zm0 0" fill="#cb353c"/><path d="m164.371094 118.324219h180.167968c4.289063 0 7.765626-3.476563 7.765626-7.765625 0-4.289063-3.476563-7.765625-7.765626-7.765625h-180.167968c-4.292969 0-7.769532 3.476562-7.769532 7.765625 0 4.289062 3.480469 7.765625 7.769532 7.765625zm0 0" fill="#b22929"/><path d="m352.304688 166.511719c0-4.289063-3.476563-7.765625-7.765626-7.765625h-180.167968c-4.292969 0-7.769532 3.476562-7.769532 7.765625 0 4.289062 3.476563 7.765625 7.769532 7.765625h180.167968c4.289063 0 7.765626-3.476563 7.765626-7.765625zm0 0" fill="#b22929"/><g fill="#285fb3"><path d="m45.394531 186.710938h16.464844c4.289063 0 7.765625-3.476563 7.765625-7.765626 0-4.289062-3.476562-7.765624-7.765625-7.765624h-16.464844c-4.289062 0-7.765625 3.476562-7.765625 7.765624 0 4.289063 3.476563 7.765626 7.765625 7.765626zm0 0"/><path d="m45.394531 240.980469h38.640625c4.289063 0 7.765625-3.476563 7.765625-7.765625 0-4.289063-3.476562-7.769532-7.765625-7.769532h-38.640625c-4.289062 0-7.765625 3.480469-7.765625 7.769532 0 4.289062 3.476563 7.765625 7.765625 7.765625zm0 0"/><path d="m122.550781 279.714844h-77.15625c-4.289062 0-7.765625 3.476562-7.765625 7.765625 0 4.289062 3.476563 7.765625 7.765625 7.765625h77.15625c4.292969 0 7.765625-3.476563 7.765625-7.765625 0-4.289063-3.476562-7.765625-7.765625-7.765625zm0 0"/><path d="m122.550781 333.984375h-77.15625c-4.289062 0-7.765625 3.476563-7.765625 7.765625s3.476563 7.765625 7.765625 7.765625h77.15625c4.292969 0 7.765625-3.476563 7.765625-7.765625s-3.476562-7.765625-7.765625-7.765625zm0 0"/></g><path d="m386.628906 261.378906h71.867188c4.289062 0 7.765625-3.476562 7.765625-7.765625 0-4.289062-3.476563-7.765625-7.765625-7.765625h-71.867188c-4.292968 0-7.765625 3.476563-7.765625 7.765625 0 4.289063 3.472657 7.765625 7.765625 7.765625zm0 0" fill="#7af4ab"/><path d="m458.496094 298.4375h-261.359375c-4.289063 0-7.765625 3.476562-7.765625 7.765625s3.476562 7.765625 7.765625 7.765625h261.359375c4.289062 0 7.765625-3.476562 7.765625-7.765625s-3.476563-7.765625-7.765625-7.765625zm0 0" fill="#7af4ab"/></svg>