<svg height="511pt" viewBox="0 -2 511.99986 511" width="511pt" xmlns="http://www.w3.org/2000/svg"><path d="m371.066406 487.300781c0 5.8125-2.355468 11.074219-6.164062 14.882813s-9.074219 6.164062-14.882813 6.164062h-188.589843c-11.621094 0-21.035157-9.425781-21.035157-21.046875 0-26.546875 10.753907-50.585937 28.15625-67.988281 1.898438-1.898438 3.882813-3.726562 5.945313-5.460938 5.359375-4.53125 11.222656-8.496093 17.484375-11.777343 2.65625-1.394531 5.378906-2.652344 8.167969-3.796875 11.21875-4.59375 23.511718-7.132813 36.394531-7.132813h38.363281c12.894531 0 25.1875 2.539063 36.40625 7.132813 4.664062 1.910156 9.132812 4.167968 13.386719 6.738281 4.324219 2.632813 8.421875 5.585937 12.261719 8.824219 20.859374 17.640625 34.105468 44.003906 34.105468 73.460937zm0 0" fill="#fff5f4"/><path d="m236.542969 391.144531h24.949219c-12.894532 0-25.1875 2.539063-36.40625 7.132813-9.382813 3.839844-18.023438 9.113281-25.648438 15.574218-2.054688 1.734376-4.035156 3.550782-5.945312 5.460938-17.402344 17.402344-28.160157 41.441406-28.160157 67.988281 0 11.625 9.425781 21.046875 21.046875 21.046875h-24.945312c-11.625 0-21.039063-9.421875-21.039063-21.046875 0-26.546875 10.757813-50.585937 28.160157-67.988281 1.898437-1.898438 3.878906-3.726562 5.945312-5.460938 5.355469-4.53125 11.21875-8.492187 17.484375-11.777343 2.652344-1.390625 5.378906-2.652344 8.164063-3.796875 11.21875-4.59375 23.511718-7.132813 36.394531-7.132813zm0 0" fill="#ebe0da"/><path d="m201.890625 282.542969c0 9.628906-7.800781 17.472656-17.472656 17.472656h-156.613281c-9.652344 0-17.476563-7.824219-17.476563-17.472656 0-44.097657 35.734375-79.851563 79.851563-79.851563h31.863281c43.886719 0 79.847656 35.527344 79.847656 79.851563zm0 0" fill="#fff5f4"/><path d="m33.855469 282.542969c0 9.648437 7.824219 17.472656 17.484375 17.472656h-23.535156c-9.648438 0-17.472657-7.824219-17.472657-17.472656 0-44.097657 35.734375-79.851563 79.847657-79.851563h23.535156c-44.117188 0-79.859375 35.753906-79.859375 79.851563zm0 0" fill="#ebe0da"/><path d="m165.878906 236.320312c-.042968 3.003907-3.789062 4.367188-5.964844 2.363282l-14.535156-10.484375c-1.289062-.683594-2.808594-.722657-4.136718-.125l-27.394532 11.640625-4.511718 1.921875c-2.167969 1.652343-5.171876 1.628906-7.308594-.042969l-3.664063-1.597656-27.394531-11.921875c-1.332031-.597657-2.847656-.558594-4.148438.125l-14.523437 10.484375c-2.175781 2.003906-5.921875.640625-5.964844-2.363282-.175781-15.390624 6.9375-23.78125 15.203125-28.332031h.011719c4.777344-1.835937 9.773437-3.230469 14.945313-4.117187 3.167968-.558594 6.398437-.921875 9.691406-1.074219v18.113281l12.179687 13.71875 4.78125 5.375c1.113281 1.972656 3.941407 2.003906 5.109375.074219 0-.011719.007813-.019531.007813-.019531l5.585937-6.019532 12.179688-13.128906v-18.113281c2.746094.121094 5.449218.402344 8.113281.804687 5.707031.867188 11.230469 2.34375 16.472656 4.355469l.011719.011719c8.285156 4.539062 15.429688 12.921875 15.253906 28.351562zm0 0" fill="#c8bebc"/><path d="m113.847656 234.039062v65.976563h-15.484375v-65.386719l4.78125 5.375c1.113281 1.972656 3.941407 2.003906 5.109375.074219 0-.011719.007813-.019531.007813-.019531zm0 0" fill="#c8bebc"/><path d="m86.183594 180.976562v39.933594c14.308594 16.113282 10.8125 12.179688 16.960937 19.09375 1.113281 1.972656 3.941407 2.003906 5.109375.074219 0-.011719 17.765625-19.160156 17.773438-19.167969v-39.933594c-3.054688-.167968-37.007813-.15625-39.84375 0zm0 0" fill="#f2bb88"/><path d="m512 290.292969c0 9.632812-7.804688 17.476562-17.476562 17.476562h-156.609376c-9.652343 0-17.476562-7.824219-17.476562-17.476562 0-44.09375 35.734375-79.847657 79.851562-79.847657h31.863282c43.886718 0 79.847656 35.527344 79.847656 79.847657zm0 0" fill="#fff5f4"/><path d="m343.960938 290.292969c0 9.652343 7.824218 17.476562 17.484374 17.476562h-23.53125c-9.652343 0-17.476562-7.824219-17.476562-17.476562 0-44.09375 35.734375-79.847657 79.851562-79.847657h23.53125c-44.113281 0-79.859374 35.753907-79.859374 79.847657zm0 0" fill="#ebe0da"/><path d="m475.988281 244.074219c-.042969 3.003906-3.789062 4.367187-5.96875 2.363281l-14.53125-10.488281c-1.289062-.679688-2.808593-.722657-4.140625-.121094l-27.390625 11.640625-4.511719 1.921875c-2.167968 1.648437-5.171874 1.628906-7.308593-.042969l-3.664063-1.597656-27.394531-11.921875c-1.332031-.601563-2.847656-.558594-4.148437.121094l-14.523438 10.488281c-2.175781 2.003906-5.925781.640625-5.964844-2.363281-.175781-15.390625 6.9375-23.78125 15.203125-28.332031h.011719c4.777344-1.839844 9.773438-3.234376 14.945312-4.121094 3.167969-.554688 6.398438-.917969 9.691407-1.074219v18.117187l12.179687 13.714844 4.777344 5.378906c1.117188 1.972657 3.945312 2.003907 5.109375.074219 0-.011719.011719-.023437.011719-.023437l5.585937-6.015625 12.179688-13.128907v-18.117187c2.742187.125 5.449219.402344 8.109375.808594 5.710937.863281 11.230468 2.339843 16.476562 4.355469l.007813.007812c8.289062 4.542969 15.433593 12.921875 15.257812 28.355469zm0 0" fill="#c8bebc"/><path d="m423.957031 241.792969v65.976562h-15.484375v-65.390625l4.777344 5.378906c1.117188 1.972657 3.945312 2.003907 5.109375.070313 0-.007813.011719-.019531.011719-.019531zm0 0" fill="#c8bebc"/><path d="m396.292969 188.726562v39.9375c14.308593 16.113282 10.8125 12.179688 16.957031 19.09375 1.117188 1.972657 3.945312 2.003907 5.109375.074219 0-.015625 17.765625-19.160156 17.777344-19.167969v-39.9375c-3.058594-.164062-37.011719-.152343-39.84375 0zm0 0" fill="#e3a76f"/><path d="m327.703125 431.648438c-.042969 3.609374-4.5625 5.25-7.183594 2.835937l-17.496093-12.632813c-1.546876-.804687-3.386719-.867187-4.984376-.144531l-38.429687 16.339844c-2.601563 1.980469-6.210937 1.960937-8.792969-.050781l-37.394531-16.289063c-1.601563-.722656-3.4375-.660156-4.996094.144531l-17.484375 12.632813c-2.632812 2.414063-7.144531.773437-7.183594-2.835937-.136718-11.292969 3.28125-21.832032 8.222657-29.574219 2.65625-1.394531 5.378906-2.652344 8.167969-3.796875 11.21875-4.59375 23.511718-7.132813 36.394531-7.132813h38.363281c12.894531 0 25.1875 2.539063 36.40625 7.132813 4.664062 1.910156 9.132812 4.167968 13.386719 6.738281 2.136719 8.113281 3.109375 17.683594 3.003906 26.632813zm0 0" fill="#c8bebc"/><path d="m231.734375 361.09375v51.996094l20.433594 22.988281c1.339843 2.375 4.738281 2.410156 6.140625.085937.007812-.007812.015625-.019531.023437-.027343l21.382813-23.046875v-51.996094zm0 0" fill="#f2d1a5"/><path d="m214.957031 301.28125c0 14.976562-12.140625 27.117188-27.117187 27.117188-14.972656 0-27.113282-12.140626-27.113282-27.117188s12.140626-27.117188 27.113282-27.117188c14.976562 0 27.117187 12.140626 27.117187 27.117188zm0 0" fill="#f2d1a5"/><path d="m350.734375 301.285156c0 14.976563-12.140625 27.117188-27.117187 27.117188-14.972657 0-27.113282-12.140625-27.113282-27.117188 0-14.972656 12.140625-27.113281 27.113282-27.113281 14.976562 0 27.117187 12.140625 27.117187 27.113281zm0 0" fill="#f2d1a5"/><path d="m327.65625 257.058594v63.546875c0 31.996093-36.542969 59.011719-59.457031 67.621093-4.964844 1.875-9.300781 2.878907-12.46875 2.878907-8.910157-.007813-26.886719-7.898438-42.644531-20.652344-15.757813-12.761719-29.28125-30.378906-29.28125-49.847656v-63.546875c0-12.855469 10.417968-23.273438 23.273437-23.273438h97.304687c12.851563 0 23.273438 10.417969 23.273438 23.273438zm0 0" fill="#ffe4c2"/><path d="m383.539062 135.917969c0 12.4375-10.082031 22.519531-22.519531 22.519531-12.433593 0-22.515625-10.082031-22.515625-22.519531 0-12.433594 10.082032-22.515625 22.515625-22.515625 12.4375 0 22.519531 10.082031 22.519531 22.515625zm0 0" fill="#e3a76f"/><path d="m496.292969 135.921875c0 12.4375-10.082031 22.519531-22.519531 22.519531-12.433594 0-22.515626-10.082031-22.515626-22.519531s10.082032-22.515625 22.515626-22.515625c12.4375 0 22.519531 10.078125 22.519531 22.515625zm0 0" fill="#f2bb88"/><path d="m456.617188 27.925781h-80.804688c-10.675781 0-19.328125 8.652344-19.328125 19.328125v104.707032c0 32.335937 44.933594 58.546874 59.730469 58.546874s59.730468-26.210937 59.730468-58.546874v-104.707032c0-10.675781-8.652343-19.328125-19.328124-19.328125zm0 0" fill="#f2bb88"/><path d="m427.980469 207.574219c-4.714844 1.902343-8.835938 2.933593-11.765625 2.933593-14.800782 0-59.734375-26.207031-59.734375-58.546874v-104.710938c0-10.675781 8.660156-19.324219 19.335937-19.324219h23.53125c-10.671875 0-19.332031 8.648438-19.332031 19.324219v104.710938c0 25.929687 28.890625 47.914062 47.964844 55.613281zm0 0" fill="#e3a76f"/><g fill="#ca7400"><path d="m428.128906 146.878906c-4.277344 0-7.742187 3.464844-7.742187 7.738282 0 2.300781-1.871094 4.171874-4.171875 4.171874-2.300782 0-4.171875-1.871093-4.171875-4.171874 0-4.273438-3.464844-7.738282-7.738281-7.738282-4.277344 0-7.742188 3.464844-7.742188 7.738282 0 10.839843 8.816406 19.65625 19.652344 19.65625 10.835937 0 19.652344-8.816407 19.652344-19.65625 0-4.273438-3.464844-7.738282-7.738282-7.738282zm0 0"/><path d="m453.902344 128.285156c0 3.910156-3.167969 7.078125-7.078125 7.078125-3.910157 0-7.078125-3.167969-7.078125-7.078125s3.167968-7.078125 7.078125-7.078125c3.910156 0 7.078125 3.167969 7.078125 7.078125zm0 0"/><path d="m392.683594 128.285156c0 3.910156-3.167969 7.078125-7.078125 7.078125-3.90625 0-7.074219-3.167969-7.074219-7.078125s3.167969-7.078125 7.074219-7.078125c3.910156 0 7.078125 3.167969 7.078125 7.078125zm0 0"/><path d="m464.6875 107.71875c-10.621094-6.679688-27.128906-3.492188-28.976562-3.109375-4.1875.875-6.871094 4.972656-6 9.160156.871093 4.183594 4.976562 6.871094 9.15625 6 3.742187-.78125 13.355468-1.597656 17.578124 1.058594 1.28125.804687 2.707032 1.1875 4.113282 1.1875 2.574218 0 5.089844-1.285156 6.558594-3.621094 2.277343-3.621093 1.1875-8.402343-2.429688-10.675781zm0 0"/><path d="m402.71875 113.769531c.875-4.1875-1.8125-8.289062-6-9.160156-1.84375-.386719-18.355469-3.570313-28.976562 3.109375-3.617188 2.273438-4.707032 7.050781-2.433594 10.671875 1.472656 2.339844 3.988281 3.621094 6.5625 3.621094 1.40625 0 2.832031-.382813 4.113281-1.1875 4.214844-2.648438 13.667969-1.855469 17.589844-1.054688 4.183593.867188 8.273437-1.820312 9.144531-6zm0 0"/></g><path d="m504.363281 84.96875c8.324219-12.796875 2.578125-30.191406-11.886719-35.441406 4.460938-15.699219-7.746093-31.472656-24.671874-30.382813-5.382813-14.914062-23.429688-20.429687-36.191407-11.445312-8.8125-7.359375-21.695312-7.441407-30.605469 0-12.761718-8.984375-30.8125-3.46875-36.191406 11.445312-16.902344-1.089843-29.140625 14.660157-24.671875 30.382813-14.464843 5.25-20.210937 22.644531-11.886719 35.441406-3.527343 4.164062-5.660156 9.546875-5.660156 15.429688 0 13.191406 10.6875 23.878906 23.878906 23.878906 3.582032 0 6.972657-.785156 10.019532-2.195313v-32.015625c15.300781 6.15625 31.828125-6.402344 29.703125-22.996094 5.988281-1.855468 10.859375-6.230468 13.394531-11.882812 7.257812 15.402344 25.53125 21.910156 40.785156 14.875 3.46875 10.085938 13.035156 17.335938 24.296875 17.335938 4.074219 0 7.925781-.949219 11.347657-2.636719.175781 3.136719.0625 1.875.097656 37.320312 3.046875 1.410157 6.4375 2.195313 10.019531 2.195313 20.445313.003906 31.222656-23.949219 18.222656-39.308594zm0 0" fill="#a86000"/><path d="m465.507812 14.453125c-4.828124-.089844-9.753906 1.292969-14.066406 4.328125-8.816406-7.359375-21.699218-7.445312-30.605468 0-12.769532-8.980469-30.808594-3.46875-36.199219 11.445312-16.894531-1.082031-29.136719 14.667969-24.667969 30.386719-14.472656 5.242188-20.210938 22.636719-11.890625 35.433594-3.519531 4.171875-5.65625 9.550781-5.65625 15.433594 0 4.707031 1.363281 9.09375 3.714844 12.789062-13.035157-.175781-23.542969-10.796875-23.542969-23.875 0-5.882812 2.136719-11.261719 5.667969-15.421875-8.332031-12.796875-2.582031-30.191406 11.878906-35.445312-4.457031-15.71875 7.773437-31.46875 24.679687-30.386719 5.378907-14.914063 23.429688-20.425781 36.1875-11.4375 8.90625-7.441406 21.789063-7.367187 30.605469 0 11.3125-7.976563 26.792969-4.539063 33.894531 6.75zm0 0" fill="#7c3f2c"/><path d="m64.519531 180.949219c-30.4375 34.496093-56.605469 6.089843-64.128906-3.773438-.945313-1.238281-.066406-3.011719 1.488281-3.027343 38.929688-.324219 42.148438-21.324219 42.148438-21.324219l6.042968-21.050781 22.457032 40.683593zm0 0" fill="#f0a70a"/><path d="m73.429688 128.167969c0 12.433593-10.082032 22.515625-22.519532 22.515625-12.433594 0-22.515625-10.082032-22.515625-22.515625 0-12.4375 10.082031-22.519531 22.515625-22.519531 12.4375 0 22.519532 10.082031 22.519532 22.519531zm0 0" fill="#f2bb88"/><path d="m186.183594 128.171875c0 12.433594-10.082032 22.515625-22.515625 22.515625-12.4375 0-22.519531-10.082031-22.519531-22.515625 0-12.4375 10.082031-22.519531 22.519531-22.519531 12.433593 0 22.515625 10.082031 22.515625 22.519531zm0 0" fill="#f2bb88"/><path d="m146.507812 20.171875h-80.804687c-10.671875 0-19.324219 8.652344-19.324219 19.328125v104.710938c0 32.332031 44.929688 58.542968 59.726563 58.546874h.003906c14.796875-.003906 59.726563-26.214843 59.726563-58.546874v-104.710938c0-10.675781-8.652344-19.328125-19.328126-19.328125zm0 0" fill="#f2d1a5"/><path d="m117.871094 199.824219c-4.714844 1.898437-8.835938 2.929687-11.765625 2.929687-14.800781 0-59.730469-26.207031-59.730469-58.542968v-104.714844c0-10.671875 8.660156-19.324219 19.332031-19.324219h23.53125c-10.671875 0-19.332031 8.652344-19.332031 19.324219v104.714844c0 25.925781 28.890625 47.914062 47.964844 55.613281zm0 0" fill="#f2bb88"/><path d="m181.886719 44.097656v36.417969c0 3.136719-2.804688 5.675781-6.265625 5.675781h-139.03125c-3.460938 0-6.265625-2.539062-6.265625-5.675781v-36.417969c0-.433594.007812-.867187.019531-1.308594.753906-23.660156 22.605469-42.289062 48.707031-42.289062h54.109375c26.113282 0 47.953125 18.628906 48.707032 42.289062.011718.441407.019531.875.019531 1.308594zm0 0" fill="#fdc202"/><path d="m54.167969 44.097656v36.417969c0 3.136719 2.804687 5.675781 6.261719 5.675781h-23.839844c-3.460938 0-6.265625-2.539062-6.265625-5.675781v-36.417969c0-.433594.007812-.867187.019531-1.308594.753906-23.660156 22.605469-42.289062 48.707031-42.289062h23.84375c-26.101562 0-47.953125 18.628906-48.707031 42.289062-.011719.441407-.019531.875-.019531 1.308594zm0 0" fill="#f0a70a"/><path d="m65.550781 57.363281v28.828125h-15.480469v-28.828125c0-4.285156 3.464844-7.742187 7.738282-7.742187 4.273437 0 7.742187 3.457031 7.742187 7.742187zm0 0" fill="#e38803"/><path d="m97.746094 57.363281v28.828125h-15.484375v-28.828125c0-4.285156 3.46875-7.742187 7.742187-7.742187 4.285156 0 7.742188 3.457031 7.742188 7.742187zm0 0" fill="#e38803"/><path d="m129.949219 57.363281v28.828125h-15.480469v-28.828125c0-4.285156 3.464844-7.742187 7.738281-7.742187 4.273438 0 7.742188 3.457031 7.742188 7.742187zm0 0" fill="#e38803"/><path d="m162.144531 57.363281v28.828125h-15.484375v-28.828125c0-4.285156 3.46875-7.742187 7.742188-7.742187 4.273437 0 7.742187 3.457031 7.742187 7.742187zm0 0" fill="#e38803"/><path d="m118.019531 139.125c-4.277343 0-7.742187 3.464844-7.742187 7.742188 0 2.300781-1.871094 4.171874-4.167969 4.171874-2.300781 0-4.171875-1.871093-4.171875-4.171874 0-4.277344-3.464844-7.742188-7.742188-7.742188-4.277343 0-7.742187 3.464844-7.742187 7.742188 0 10.835937 8.816406 19.652343 19.65625 19.652343 10.835937 0 19.652344-8.816406 19.652344-19.652343 0-4.277344-3.464844-7.742188-7.742188-7.742188zm0 0" fill="#ca7400"/><path d="m143.792969 120.53125c0 3.910156-3.167969 7.078125-7.078125 7.078125-3.90625 0-7.074219-3.167969-7.074219-7.078125 0-3.90625 3.167969-7.074219 7.074219-7.074219 3.910156 0 7.078125 3.167969 7.078125 7.074219zm0 0" fill="#ca7400"/><path d="m82.574219 120.53125c0 3.910156-3.167969 7.078125-7.074219 7.078125-3.910156 0-7.078125-3.167969-7.078125-7.078125 0-3.90625 3.167969-7.074219 7.078125-7.074219 3.90625 0 7.074219 3.167969 7.074219 7.074219zm0 0" fill="#ca7400"/><path d="m154.578125 99.964844c-10.621094-6.675782-27.128906-3.492188-28.976563-3.105469-4.1875.871094-6.871093 4.972656-6 9.15625.871094 4.1875 4.976563 6.871094 9.15625 6 3.742188-.78125 13.355469-1.59375 17.578126 1.058594 1.28125.804687 2.707031 1.1875 4.113281 1.1875 2.574219 0 5.089843-1.28125 6.5625-3.621094 2.277343-3.621094 1.183593-8.398437-2.433594-10.675781zm0 0" fill="#ca7400"/><path d="m92.609375 106.015625c.875-4.183594-1.8125-8.285156-5.996094-9.15625-1.847656-.386719-18.359375-3.570313-28.976562 3.105469-3.621094 2.277344-4.710938 7.054687-2.433594 10.675781 1.46875 2.339844 3.984375 3.621094 6.558594 3.621094 1.410156 0 2.832031-.382813 4.113281-1.1875 4.214844-2.648438 13.667969-1.855469 17.589844-1.058594 4.1875.867187 8.277344-1.820313 9.144531-6zm0 0" fill="#ca7400"/><path d="m268.199219 388.222656c-4.964844 1.878906-9.300781 2.882813-12.46875 2.882813-8.90625-.011719-26.886719-7.898438-42.648438-20.65625-15.75-12.757813-29.28125-30.375-29.28125-49.84375v-63.550781c0-12.851563 10.421875-23.265626 23.273438-23.265626h24.949219c-12.863282 0-23.277344 10.414063-23.277344 23.265626v63.550781c0 19.46875 13.523437 37.085937 29.285156 49.84375 10.132812 8.21875 21.199219 14.410156 30.167969 17.773437zm0 0" fill="#f2d1a5"/><path d="m154.484375 286.65625h17.335937c14.742188 0 26.800782-12.058594 26.800782-26.796875v-8.609375c0-13.082031-10.703125-23.785156-23.785156-23.785156h-.980469c-13.136719 0-23.785157 10.648437-23.785157 23.785156v30.992188c0 2.4375 1.976563 4.414062 4.414063 4.414062zm0 0" fill="#ca7400"/><path d="m356.972656 286.65625h-17.335937c-14.738281 0-26.796875-12.058594-26.796875-26.796875v-8.609375c0-13.082031 10.703125-23.785156 23.78125-23.785156h.984375c13.132812 0 23.78125 10.648437 23.78125 23.785156v30.992188c0 2.4375-1.972657 4.414062-4.414063 4.414062zm0 0" fill="#ca7400"/><path d="m295.660156 249.785156h-84.441406c-18.945312 0-34.304688-16.828125-34.304688-37.585937 0-20.753907 15.359376-37.582031 34.304688-37.582031 0 0 77.945312 5.457031 111.84375-17.414063 5.019531-3.382813 11.484375.679687 11.484375 7.136719v42.84375c0 23.527344-17.410156 42.601562-38.886719 42.601562zm0 0" fill="#ec8500"/><path d="m329.964844 227.25c-6.546875 13.40625-19.449219 22.53125-34.300782 22.53125h-84.441406c-18.953125 0-34.308594-16.824219-34.308594-37.582031 0-10.375 3.839844-19.777344 10.050782-26.578125 5.554687-6.082032 13.007812-10.085938 21.292968-10.859375-1.9375 4.695312-3.011718 9.917969-3.011718 15.410156 0 20.757813 15.367187 37.582031 34.308594 37.582031h84.441406c2.027344 0 4.015625-.164062 5.96875-.503906zm0 0" fill="#db7d00"/><path d="m263.402344 430.675781v77.671875h-16.589844v-78.300781l5.359375 6.027344c1.332031 2.375 4.734375 2.417969 6.140625.09375 0-.007813.007812-.019531.019531-.03125zm0 0" fill="#c8bebc"/><path d="m270.082031 324.207031c-4.277343 0-7.742187 3.464844-7.742187 7.738281 0 3.644532-2.960938 6.605469-6.601563 6.605469s-6.601562-2.960937-6.601562-6.605469c0-4.273437-3.46875-7.738281-7.742188-7.738281-14.59375 0-7.691406 29.828125 14.34375 29.828125 12.179688 0 22.085938-9.910156 22.085938-22.089844 0-4.273437-3.46875-7.738281-7.742188-7.738281zm0 0" fill="#ca7400"/><path d="m301.117188 308.183594c0 4.707031-3.816407 8.519531-8.523438 8.519531-4.703125 0-8.519531-3.8125-8.519531-8.519531 0-4.707032 3.816406-8.523438 8.519531-8.523438 4.707031 0 8.523438 3.816406 8.523438 8.523438zm0 0" fill="#ca7400"/><path d="m227.398438 308.183594c0 4.707031-3.8125 8.519531-8.519532 8.519531-4.707031 0-8.523437-3.8125-8.523437-8.519531 0-4.707032 3.816406-8.523438 8.523437-8.523438 4.707032 0 8.519532 3.816406 8.519532 8.523438zm0 0" fill="#ca7400"/><path d="m313.265625 284.753906c-12.269531-7.710937-31.574219-3.984375-33.730469-3.53125-4.1875.871094-6.871094 4.972656-6 9.15625.871094 4.1875 4.972656 6.875 9.15625 6 4.894532-1.019531 16.789063-2 22.332032 1.484375 3.617187 2.273438 8.394531 1.1875 10.671874-2.433593 2.277344-3.621094 1.1875-8.398438-2.429687-10.675782zm0 0" fill="#ca7400"/><path d="m237.9375 290.378906c.875-4.183594-1.8125-8.285156-6-9.15625-2.15625-.449218-21.460938-4.179687-33.730469 3.53125-6.558593 4.125-3.605469 14.296875 4.128907 14.296875 1.40625 0 2.832031-.382812 4.113281-1.1875 5.292969-3.328125 16.507812-2.675781 22.339843-1.484375 4.175782.867188 8.277344-1.816406 9.148438-6zm0 0" fill="#ca7400"/><path d="m281.746094 462.214844c0 3.640625-2.949219 6.59375-6.589844 6.59375s-6.589844-2.953125-6.589844-6.59375 2.949219-6.589844 6.589844-6.589844 6.589844 2.949219 6.589844 6.589844zm0 0" fill="#c8bebc"/><path d="m281.746094 489.445312c0 3.640626-2.949219 6.589844-6.589844 6.589844s-6.589844-2.949218-6.589844-6.589844c0-3.640624 2.949219-6.589843 6.589844-6.589843s6.589844 2.949219 6.589844 6.589843zm0 0" fill="#c8bebc"/><path d="m292.179688 489.445312c0 4.273438 3.464843 7.742188 7.742187 7.742188h39.363281c4.273438 0 7.738282-3.46875 7.738282-7.742188 0-4.273437-3.464844-7.742187-7.738282-7.742187h-3.828125v-8.785156c0-4.277344-3.464843-7.742188-7.742187-7.742188s-7.742188 3.464844-7.742188 7.742188v8.785156h-20.054687c-4.273438 0-7.738281 3.46875-7.738281 7.742187zm0 0" fill="#c8bebc"/></svg>