<svg height="512pt" viewBox="-66 0 512 512" width="512pt" xmlns="http://www.w3.org/2000/svg"><path d="m350 70h-320c-11.050781 0-20 8.949219-20 20v392c0 11.050781 8.949219 20 20 20h320c11.050781 0 20-8.949219 20-20v-392c0-11.050781-8.949219-20-20-20zm0 0" fill="#656d88"/><path d="m50 110h280v352h-280zm0 0" fill="#ede9e8"/><g fill="#ed5575"><path d="m290 130h-200v-60h65.558594c-3.4375-5.910156-5.558594-12.679688-5.558594-20 0-22.058594 17.941406-40 40-40s40 17.941406 40 40c0 7.320312-2.121094 14.089844-5.558594 20h65.558594zm0 0"/><path d="m290 376c0 11.046875-8.953125 20-20 20s-20-8.953125-20-20 8.953125-20 20-20 20 8.953125 20 20zm0 0"/><path d="m130 216c0 11.046875-8.953125 20-20 20s-20-8.953125-20-20 8.953125-20 20-20 20 8.953125 20 20zm0 0"/></g><path d="m300 316c0 5.523438-4.476562 10-10 10s-10-4.476562-10-10 4.476562-10 10-10 10 4.476562 10 10zm0 0"/><path d="m200 50c0 5.523438-4.476562 10-10 10s-10-4.476562-10-10 4.476562-10 10-10 10 4.476562 10 10zm0 0"/><path d="m30 60c-16.542969 0-30 13.457031-30 30v392c0 16.542969 13.457031 30 30 30h320c16.542969 0 30-13.457031 30-30v-392c0-16.542969-13.457031-30-30-30-22.035156 0-88.351562 0-111.046875 0 .695313-3.277344 1.046875-6.617188 1.046875-10 0-27.570312-22.429688-50-50-50s-50 22.429688-50 50c0 3.382812.351562 6.722656 1.046875 10-22.695313 0-89.011719 0-111.046875 0zm260 80c5.523438 0 10-4.476562 10-10v-10h20v332h-260v-332h20v10c0 5.523438 4.476562 10 10 10zm70-50v392c0 5.515625-4.484375 10-10 10h-320c-5.515625 0-10-4.484375-10-10v-392c0-5.515625 4.484375-10 10-10h50v20h-30c-5.523438 0-10 4.476562-10 10v352c0 5.523438 4.476562 10 10 10h280c5.523438 0 10-4.476562 10-10v-352c0-5.523438-4.476562-10-10-10h-30v-20h50c5.515625 0 10 4.484375 10 10zm-204.441406-10c7.699218 0 12.523437-8.367188 8.644531-15.03125-2.789063-4.789062-4.203125-9.828125-4.203125-14.96875 0-16.542969 13.457031-30 30-30s30 13.457031 30 30c0 5.140625-1.414062 10.179688-4.203125 14.96875-3.871094 6.652344.933594 15.03125 8.644531 15.03125h55.558594v40h-180v-40zm0 0"/><path d="m170 306h10v10c0 5.523438 4.476562 10 10 10s10-4.476562 10-10v-10h10c5.523438 0 10-4.476562 10-10s-4.476562-10-10-10h-10v-10c0-5.523438-4.476562-10-10-10s-10 4.476562-10 10v10h-10c-5.523438 0-10 4.476562-10 10s4.476562 10 10 10zm0 0"/><path d="m140 356c0-5.523438-4.476562-10-10-10s-10 4.476562-10 10v10h-10c-5.523438 0-10 4.476562-10 10s4.476562 10 10 10h10v10c0 5.523438 4.476562 10 10 10s10-4.476562 10-10v-10h10c5.523438 0 10-4.476562 10-10s-4.476562-10-10-10h-10zm0 0"/><path d="m270 346c-16.542969 0-30 13.457031-30 30s13.457031 30 30 30 30-13.457031 30-30-13.457031-30-30-30zm0 40c-5.515625 0-10-4.484375-10-10s4.484375-10 10-10 10 4.484375 10 10-4.484375 10-10 10zm0 0"/><path d="m80 216c0 16.542969 13.457031 30 30 30s30-13.457031 30-30-13.457031-30-30-30-30 13.457031-30 30zm30-10c5.515625 0 10 4.484375 10 10s-4.484375 10-10 10-10-4.484375-10-10 4.484375-10 10-10zm0 0"/><path d="m182.835938 202.96875c.03125.03125.058593.070312.09375.101562l20 20c3.90625 3.90625 10.234374 3.90625 14.140624 0 3.90625-3.902343 3.90625-10.234374 0-14.140624l-2.785156-2.785157c36.609375 2.222657 65.714844 32.699219 65.714844 69.855469 0 5.523438 4.476562 10 10 10s10-4.476562 10-10c0-48.269531-38.199219-87.78125-85.953125-89.90625l3.023437-3.023438c3.90625-3.90625 3.90625-10.234374 0-14.140624s-10.234374-3.90625-14.140624 0l-20 20c-.035157.03125-.0625.070312-.097657.101562-3.839843 3.953125-3.703125 10.121094.003907 13.9375zm0 0"/></svg>