<svg height="512pt" viewBox="-48 0 512 512" width="512pt" xmlns="http://www.w3.org/2000/svg"><path d="m416 0v512h-336c-44.160156 0-80-35.839844-80-80v-352c0-44.160156 35.839844-80 80-80zm0 0" fill="#8382ff"/><g fill="#fff"><path d="m156.527344 433.089844c9.296875 8 19.632812 14.574218 30.738281 19.597656l13.167969-29.152344c-8.320313-3.757812-16.066406-8.703125-23.027344-14.6875zm0 0"/><path d="m147.96875 363.441406-30.671875 9.117188c3.488281 11.714844 8.625 22.867187 15.296875 33.105468l26.832031-17.441406c-5.011719-7.664062-8.851562-16-11.457031-24.78125zm0 0"/><path d="m240 208c-37.054688 0-71.96875 16.367188-96 43.441406v-43.441406h-32v96h96v-32h-39.488281c18.015625-19.96875 43.96875-32 71.488281-32 52.945312 0 96 43.054688 96 96s-43.054688 96-96 96c-4.480469 0-8.960938-.320312-13.3125-.910156l-4.382812 31.679687c5.792968.832031 11.757812 1.230469 17.695312 1.230469 70.574219 0 128-57.425781 128-128s-57.425781-128-128-128zm0 0"/></g><path d="m416 0v160h-336c-44.160156 0-80-35.839844-80-80s35.839844-80 80-80zm0 0" fill="#e4edfb"/><path d="m80 64h336v32h-336zm0 0" fill="#d7e1f2"/></svg>