<svg height="512pt" viewBox="-48 0 512 512" width="512pt" xmlns="http://www.w3.org/2000/svg"><path d="m416 0v512h-336c-44.160156 0-80-35.839844-80-80v-352c0-44.160156 35.839844-80 80-80zm0 0" fill="#8382ff"/><path d="m0 80v352c0 44.113281 35.886719 80 80 80h16v-352h-16c-44.160156 0-80-35.839844-80-80zm0 0" fill="#6464f9"/><path d="m416 0v160h-336c-44.160156 0-80-35.839844-80-80s35.839844-80 80-80zm0 0" fill="#e4edfb"/><path d="m80 64h336v32h-336zm0 0" fill="#d7e1f2"/><path d="m384 317.886719-64-42.65625-64 42.65625v-157.886719h128zm0 0" fill="#ffd337"/><g fill="#fff"><path d="m128 192h32v32h-32zm0 0"/><path d="m128 256h32v32h-32zm0 0"/></g></svg>