<svg height="512pt" viewBox="-1 0 512 512" width="512pt" xmlns="http://www.w3.org/2000/svg"><path d="m211.523438 164.0625v101.550781c0 9.332031 12.140624 12.9375 17.234374 5.121094l69.535157-106.671875zm0 0" fill="#ebe0da"/><path d="m320.351562 0c-46.664062 0-126.15625 0-130.886718 0-6.273438 0-11.414063 5.140625-11.414063 11.414062v178.664063c0 6.273437 5.140625 11.414063 11.414063 11.414063h130.886718c6.273438 0 11.417969-5.140626 11.417969-11.414063v-178.664063c0-6.273437-5.144531-11.414062-11.417969-11.414062zm0 0" fill="#fff5f4"/><path d="m225.816406 201.492188h-36.351562c-6.273438 0-11.414063-5.140626-11.414063-11.414063v-178.664063c0-6.273437 5.140625-11.414062 11.414063-11.414062h36.351562c-6.273437 0-11.414062 5.140625-11.414062 11.414062v178.664063c0 6.273437 5.140625 11.414063 11.414062 11.414063zm0 0" fill="#ebe0da"/><path d="m319.128906 494.601562c0 4.800782 1.941406 9.152344 5.097656 12.296876 3.148438 3.160156 7.5 5.101562 12.296876 5.101562h155.898437c9.605469 0 17.398437-7.789062 17.398437-17.398438 0-33.042968-20.21875-61.640624-49.398437-73.59375-8.953125-3.667968-18.726563-5.734374-28.96875-5.878906 27.785156-7.480468 48.226563-32.832031 48.226563-62.972656 0-36.007812-29.1875-65.207031-65.207032-65.207031-36.007812 0-65.203125 29.199219-65.203125 65.207031 0 30.140625 20.4375 55.492188 48.222657 62.972656-10.242188.144532-20.015626 2.210938-28.96875 5.878906-7.007813 2.863282-13.511719 6.707032-19.339844 11.351563-17.484375 13.472656-30.054688 36.421875-30.054688 62.242187zm0 0" fill="#4395fb"/><path d="m319.128906 494.601562c0 4.800782 1.941406 9.152344 5.097656 12.296876 3.148438 3.160156 7.5 5.101562 12.296876 5.101562h25.332031c9.609375 0 17.398437-7.789062 17.398437-17.398438 0-25.28125-11.902344-47.949218-30.070312-62.242187-17.484375 13.472656-30.054688 36.421875-30.054688 62.242187zm0 0" fill="#1980f9"/><path d="m190.691406 494.601562c0 4.800782-1.941406 9.152344-5.101562 12.296876-3.144532 3.160156-7.496094 5.101562-12.296875 5.101562h-155.894531c-9.609376 0-17.398438-7.789062-17.398438-17.398438 0-33.042968 20.21875-61.640624 49.398438-73.59375 8.953124-3.667968 18.726562-5.734374 28.964843-5.878906-27.78125-7.480468-48.222656-32.832031-48.222656-62.972656 0-36.007812 29.1875-65.207031 65.203125-65.207031 36.011719 0 65.207031 29.199219 65.207031 65.207031 0 30.140625-20.441406 55.492188-48.222656 62.972656 10.238281.144532 20.011719 2.210938 28.964844 5.878906 7.011719 2.863282 13.515625 6.707032 19.339843 11.351563 17.488282 13.472656 30.058594 36.421875 30.058594 62.242187zm0 0" fill="#4395fb"/><path d="m190.691406 494.601562c0 4.800782-1.941406 9.152344-5.101562 12.296876-3.144532 3.160156-7.496094 5.101562-12.296875 5.101562h-25.332031c-9.605469 0-17.394532-7.789062-17.394532-17.398438 0-25.28125 11.902344-47.949218 30.066406-62.242187 17.488282 13.472656 30.058594 36.421875 30.058594 62.242187zm0 0" fill="#1980f9"/><path d="m350.253906 494.601562c0 4.800782-1.941406 9.152344-5.097656 12.296876-3.136719 3.160156-7.5 5.101562-12.296875 5.101562h-155.898437c-9.609376 0-17.398438-7.789062-17.398438-17.398438 0-43.441406 34.863281-78.855468 78.367188-79.472656-27.785157-7.480468-48.226563-32.832031-48.226563-62.972656 0-36.007812 29.195313-65.207031 65.207031-65.207031 6.304688 0 12.410156.894531 18.175782 2.566406 27.160156 7.875 47.027343 32.933594 47.027343 62.640625 0 29.703125-19.859375 54.765625-47.027343 62.640625-.394532.113281-.800782.226563-1.195313.332031.40625.007813.800781.007813 1.195313.03125 42.949218 1.226563 77.167968 36.414063 77.167968 79.441406zm0 0" fill="#63a6fd"/><path d="m425.488281 200.84375 39.585938-39.585938c3.042969-3.042968 3.042969-7.972656 0-11.015624-3.039063-3.042969-7.972657-3.042969-11.015625 0l-39.585938 39.585937-39.585937-39.585937c-3.042969-3.042969-7.972657-3.042969-11.015625 0-3.042969 3.042968-3.042969 7.976562 0 11.015624l39.585937 39.585938-39.585937 39.585938c-4.921875 4.921874-1.367188 13.300781 5.507812 13.300781 4.445313 0 2.019532 1.207031 45.09375-41.867188 43.082032 43.082031 40.648438 41.867188 45.09375 41.867188 6.878906 0 10.433594-8.378907 5.507813-13.300781zm0 0" fill="#f64346"/><path d="m134.929688 150.242188-84.589844 84.589843-30.632813-31.636719c-2.992187-3.089843-7.925781-3.167968-11.015625-.175781-3.089844 2.992188-3.171875 7.921875-.179687 11.011719l32.230469 33.28125c5.097656 5.269531 13.65625 5.496094 18.996093.15625l86.210938-86.210938c3.039062-3.042968 3.039062-7.972656 0-11.015624-3.042969-3.039063-7.976563-3.039063-11.019531 0zm0 0" fill="#1980f9"/><g fill="#c8bebc"><path d="m211.523438 57.992188h86.769531c4.304687 0 7.792969-3.488282 7.792969-7.792969 0-4.300781-3.488282-7.789063-7.792969-7.789063h-86.769531c-4.300782 0-7.789063 3.488282-7.789063 7.789063 0 4.304687 3.488281 7.792969 7.789063 7.792969zm0 0"/><path d="m298.292969 92.957031h-86.769531c-4.300782 0-7.789063 3.488281-7.789063 7.789063 0 4.300781 3.488281 7.789062 7.789063 7.789062h86.769531c4.304687 0 7.792969-3.488281 7.792969-7.789062 0-4.300782-3.488282-7.789063-7.792969-7.789063zm0 0"/><path d="m243.484375 143.503906h-31.960937c-4.300782 0-7.789063 3.488282-7.789063 7.789063s3.488281 7.789062 7.789063 7.789062h31.960937c4.300781 0 7.789063-3.488281 7.789063-7.789062s-3.488282-7.789063-7.789063-7.789063zm0 0"/></g><path d="m226.054688 352.15625c0-29.707031 19.871093-54.765625 47.03125-62.640625-5.765626-1.671875-11.871094-2.566406-18.175782-2.566406-36.011718 0-65.207031 29.199219-65.207031 65.207031 0 30.140625 20.441406 55.492188 48.226563 62.972656-43.5.613282-78.367188 36.027344-78.367188 79.472656 0 9.609376 7.789062 17.398438 17.398438 17.398438h36.351562c-9.605469 0-17.398438-7.789062-17.398438-17.398438 0-33.046874 20.222657-61.640624 49.398438-73.59375 8.601562-3.523437 17.96875-5.570312 27.773438-5.847656-.394532-.023437-.789063-.023437-1.195313-.03125.394531-.105468.800781-.21875 1.195313-.332031-27.171876-7.875-47.03125-32.9375-47.03125-62.640625zm0 0" fill="#4395fb"/></svg>