<svg height="496pt" viewBox="-1 0 496 496.64" width="496pt" xmlns="http://www.w3.org/2000/svg"><path d="m86.878906 0h320v272h-320zm0 0" fill="#ffd337"/><path d="m438.878906 256v188.160156l-192 52.480469-192-52.480469v-188.160156zm0 0" fill="#bcaaa4"/><path d="m406.878906 162.558594v109.441406h-320v-109.441406l160 43.679687zm0 0" fill="#fcc000"/><path d="m438.878906 256v109.28125l-159.039062 52.957031-32.960938-60.957031-32.957031 60.957031-159.042969-52.957031v-109.28125zm0 0" fill="#a1887f"/><path d="m246.878906 256v240.640625l-192-52.480469v-188.160156zm0 0" fill="#a1887f"/><path d="m150.878906 80h192v32h-192zm0 0" fill="#fff"/><path d="m342.878906 176h-32v-32h32zm-64 0h-32v-32h32zm-64 0h-64v-32h64zm0 0" fill="#fff"/><path d="m295.183594 379.441406-48.304688-89.699218-48.285156 89.699218-198.273438-66.097656 62.128907-124.238281 184.429687 50.320312 184.449219-50.320312 62.113281 124.238281zm0 0" fill="#bcaaa4"/><g fill="#fff"><path d="m70.878906 256h32v32h-32zm0 0"/><path d="m134.878906 256h32v32h-32zm0 0"/></g></svg>