<svg height="512pt" viewBox="0 0 512 512" width="512pt" xmlns="http://www.w3.org/2000/svg"><path d="m248.273438 242.238281v101.578125c0 9.332032 12.144531 12.941406 17.238281 5.125l69.554687-106.703125zm0 0" fill="#fdc202"/><path d="m482.785156.00390625c-8.683594 0-236.054687 0-249.941406 0-16.019531 0-29.128906 13.11328175-29.128906 29.13281275v211.035156c0 16.019531 13.109375 29.121094 29.128906 29.121094h249.941406c16.03125 0 29.132813-13.101563 29.132813-29.121094v-211.035156c0-16.019531-13.101563-29.13281275-29.132813-29.13281275zm0 0" fill="#fed22b"/><path d="m201.699219 493.601562c0 10.128907-8.21875 18.398438-18.398438 18.398438h-164.902343c-10.160157 0-18.398438-8.238281-18.398438-18.398438 0-32.785156 19.054688-61.304687 45.554688-74.832031.425781-.214843.851562-.425781 1.277343-.632812 2.308594-1.132813 4.675781-2.140625 7.085938-3.042969h.011719c7.875-3.160156 18.042968-5.351562 28.546874-5.546875.53125-.011719 1.070313-.03125 1.601563-.03125h33.542969c.261718 0 .519531 0 .769531.019531 16.914063.15625 29.347656 5.546875 29.347656 5.546875 2.460938.945313 4.871094 1.996094 7.21875 3.160157 27.523438 13.628906 46.742188 42.167968 46.742188 75.359374zm0 0" fill="#fff5f4"/><path d="m82.476562 409.546875c-8.664062 3.457031-16.683593 7.9375-23.875 13.253906-2.199218 1.632813-4.339843 3.355469-6.398437 5.152344-16 13.996094-26.78125 32.519531-29.628906 53.183594-.507813 3.613281-.757813 7.269531-.757813 11 0 .15625 0 .3125.011719.457031.277344 10.761719 10.324219 19.40625 22.699219 19.40625h-26.128906c-10.160157 0-18.398438-8.238281-18.398438-18.398438 0-32.785156 19.054688-61.304687 45.554688-74.832031.425781-.214843.851562-.425781 1.277343-.632812 2.308594-1.132813 4.675781-2.140625 7.085938-3.042969h.011719c7.875-3.160156 18.042968-5.351562 28.546874-5.546875zm0 0" fill="#ebe0da"/><path d="m163.789062 444.925781c-.042968 3.15625-3.988281 4.589844-6.285156 2.480469l-15.292968-11.042969c-1.359376-.707031-2.960938-.757812-4.363282-.125l-29.171875 12.40625v63.351563h-15.582031v-63.03125l-29.234375-12.726563c-1.402344-.632812-3.003906-.582031-4.363281.125l-15.292969 11.042969c-2.304687 2.109375-6.242187.675781-6.285156-2.480469-.132813-11.511719 3.617187-20.714843 8.914062-26.792969 2.308594-1.132812 4.675781-2.140624 7.085938-3.035156.011719 0 .011719-.007812.011719-.007812 8.269531-3.316406 19.082031-5.570313 30.148437-5.570313h33.542969c17.296875 0 30.117187 5.558594 30.117187 5.558594 2.460938.945313 4.871094 1.996094 7.21875 3.15625 5.257813 6.078125 8.96875 15.230469 8.832031 26.691406zm0 0" fill="#c8bebc"/><path d="m173.964844 481.25h-40.058594c-4.300781 0-7.789062 3.488281-7.789062 7.792969 0 4.300781 3.488281 7.789062 7.789062 7.789062h40.058594c4.304687 0 7.792968-3.488281 7.792968-7.789062 0-4.304688-3.488281-7.792969-7.792968-7.792969zm0 0" fill="#c8bebc"/><path d="m67.871094 481.25h-40.058594c-4.304688 0-7.792969 3.488281-7.792969 7.792969 0 4.300781 3.488281 7.789062 7.792969 7.789062h40.058594c4.300781 0 7.789062-3.488281 7.789062-7.789062 0-4.304688-3.488281-7.792969-7.789062-7.792969zm0 0" fill="#c8bebc"/><path d="m79.871094 383.238281v45.464844l17.867187 20.101563c1.171875 2.074218 4.144531 2.105468 5.371094.074218.003906-.007812.011719-.019531.019531-.027344l18.695313-20.148437v-45.464844zm0 0" fill="#f2d1a5"/><path d="m66.46875 330.988281c0 13.097657-10.617188 23.71875-23.71875 23.71875-13.097656 0-23.714844-10.621093-23.714844-23.71875 0-13.097656 10.617188-23.71875 23.714844-23.71875 13.101562 0 23.71875 10.621094 23.71875 23.71875zm0 0" fill="#f2d1a5"/><path d="m185.234375 330.992188c0 13.097656-10.621094 23.71875-23.71875 23.71875-13.101563 0-23.71875-10.621094-23.71875-23.71875 0-13.101563 10.617187-23.71875 23.71875-23.71875 13.097656 0 23.71875 10.617187 23.71875 23.71875zm0 0" fill="#f2d1a5"/><path d="m163.800781 237.597656v110.285156c0 17.039063-11.832031 32.457032-25.609375 43.613282-6.273437 5.078125-12.964844 9.277344-19.117187 12.351562-7.351563 3.65625-13.949219 5.703125-18.1875 5.703125-15.585938 0-62.914063-27.601562-62.914063-61.667969v-110.285156c0-11.242187 9.121094-20.363281 20.359375-20.363281h85.117188c11.238281 0 20.351562 9.121094 20.351562 20.363281zm0 0" fill="#ffe4c2"/><path d="m269.203125 269.296875h-36.359375c-16.019531 0-29.128906-13.097656-29.128906-29.117187v-211.039063c0-16.019531 13.109375-29.140625 29.128906-29.140625h36.359375c-16.019531 0-29.128906 13.121094-29.128906 29.140625v211.039063c0 16.019531 13.109375 29.117187 29.128906 29.117187zm0 0" fill="#fdc202"/><path d="m397.238281 120.40625-67.058593 39.566406 32.609374 32.609375 39.566407-67.058593c1.960937-3.324219-1.792969-7.078126-5.117188-5.117188zm0 0" fill="#f64346"/><path d="m376.828125 177.171875c0 17.699219-14.347656 32.042969-32.042969 32.042969-17.695312 0-32.042968-14.34375-32.042968-32.042969 0-17.695313 14.347656-32.039063 32.042968-32.039063 17.695313 0 32.042969 14.34375 32.042969 32.039063zm0 0" fill="#4395fb"/><g fill="#f64346"><path d="m357.820312 52.300781c-4.304687 0-7.792968 3.488281-7.792968 7.789063v25.085937c0 4.304688 3.488281 7.792969 7.792968 7.792969 4.300782 0 7.789063-3.488281 7.789063-7.792969v-25.085937c0-4.300782-3.488281-7.789063-7.789063-7.789063zm0 0"/><path d="m304.28125 65.363281c-2.152344-3.726562-6.917969-5.003906-10.644531-2.851562-3.726563 2.152343-5.003907 6.917969-2.851563 10.644531l12.542969 21.726562c1.441406 2.5 4.0625 3.894532 6.753906 3.894532 1.324219 0 2.664063-.335938 3.890625-1.042969 3.726563-2.152344 5.003906-6.917969 2.851563-10.644531zm0 0"/><path d="m275.527344 113.140625-21.722656-12.542969c-3.730469-2.152344-8.492188-.875-10.644532 2.851563-2.152344 3.726562-.875 8.492187 2.851563 10.644531l21.722656 12.542969c1.230469.707031 2.570313 1.042969 3.890625 1.042969 2.691406 0 5.3125-1.398438 6.753906-3.898438 2.152344-3.722656.875-8.488281-2.851562-10.640625zm0 0"/><path d="m252.789062 156.347656h-25.085937c-4.300781 0-7.789063 3.488282-7.789063 7.789063 0 4.304687 3.488282 7.792969 7.789063 7.792969h25.085937c4.304688 0 7.792969-3.488282 7.792969-7.792969 0-4.300781-3.488281-7.789063-7.792969-7.789063zm0 0"/><path d="m422 62.511719c-3.726562-2.152344-8.492188-.875-10.640625 2.851562l-12.546875 21.726563c-2.148438 3.726562-.871094 8.492187 2.855469 10.644531 1.226562.707031 2.566406 1.042969 3.886719 1.042969 2.691406 0 5.3125-1.394532 6.753906-3.894532l12.542968-21.726562c2.152344-3.726562.878907-8.492188-2.851562-10.644531zm0 0"/><path d="m472.480469 103.449219c-2.152344-3.726563-6.917969-5.003907-10.644531-2.851563l-21.726563 12.542969c-3.726563 2.152344-5 6.917969-2.851563 10.640625 1.445313 2.5 4.0625 3.898438 6.757813 3.898438 1.320313 0 2.660156-.335938 3.886719-1.042969l21.726562-12.542969c3.726563-2.152344 5-6.917969 2.851563-10.644531zm0 0"/><path d="m487.933594 156.347656h-25.085938c-4.300781 0-7.789062 3.488282-7.789062 7.789063 0 4.304687 3.488281 7.792969 7.789062 7.792969h25.085938c4.304687 0 7.792968-3.488282 7.792968-7.792969 0-4.300781-3.488281-7.789063-7.792968-7.789063zm0 0"/></g><path d="m119.074219 403.851562c-7.351563 3.648438-13.949219 5.703126-18.1875 5.703126-15.585938 0-62.914063-27.601563-62.914063-61.667969v-110.285157c0-11.25 9.121094-20.363281 20.359375-20.363281h36.363281c-11.242187 0-20.363281 9.113281-20.363281 20.363281v110.285157c0 24.800781 25.078125 46.167969 44.742188 55.964843zm0 0" fill="#f2d1a5"/><path d="m113.4375 342.894531c-4.304688 0-7.792969 3.488281-7.792969 7.789063 0 2.621094-2.132812 4.757812-4.757812 4.757812-2.621094 0-4.753907-2.136718-4.753907-4.757812 0-4.300782-3.488281-7.789063-7.792968-7.789063-4.300782 0-7.789063 3.488281-7.789063 7.789063 0 11.214844 9.121094 20.339844 20.335938 20.339844 11.214843 0 20.339843-9.125 20.339843-20.339844 0-4.300782-3.488281-7.789063-7.789062-7.789063zm0 0" fill="#ca7400"/><path d="m140.582031 322.949219c0 4.113281-3.335937 7.453125-7.453125 7.453125-4.117187 0-7.453125-3.339844-7.453125-7.453125 0-4.117188 3.335938-7.457031 7.453125-7.457031 4.117188 0 7.453125 3.339843 7.453125 7.457031zm0 0" fill="#ca7400"/><path d="m76.101562 322.949219c0 4.113281-3.335937 7.453125-7.453124 7.453125-4.117188 0-7.453126-3.339844-7.453126-7.453125 0-4.117188 3.335938-7.457031 7.453126-7.457031 4.117187 0 7.453124 3.339843 7.453124 7.457031zm0 0" fill="#ca7400"/><path d="m151.75 301.589844c-11.070312-6.957032-28.324219-3.628906-30.253906-3.226563-4.214844.878907-6.917969 5.007813-6.039063 9.21875.878907 4.214844 5.007813 6.914063 9.21875 6.039063 4.148438-.867188 14.195313-1.71875 18.78125 1.164062 1.289063.808594 2.722657 1.195313 4.136719 1.195313 2.589844 0 5.125-1.292969 6.605469-3.644531 2.289062-3.644532 1.195312-8.453126-2.449219-10.746094zm0 0" fill="#ca7400"/><path d="m86.320312 307.582031c.875-4.210937-1.828124-8.339843-6.039062-9.21875-1.929688-.398437-19.1875-3.730469-30.253906 3.226563-3.644532 2.292968-4.742188 7.101562-2.449219 10.746094 1.480469 2.351562 4.011719 3.644531 6.601563 3.644531 1.417968 0 2.851562-.386719 4.140624-1.199219 4.53125-2.847656 14.621094-2.007812 18.792969-1.160156 4.210938.871094 8.328125-1.832032 9.207031-6.039063zm0 0" fill="#ca7400"/><path d="m169.8125 283.976562h-22.910156c-11.726563 0-21.226563-9.503906-21.226563-21.230468v-25.492188c0-11.726562 9.5-21.230468 21.226563-21.230468h5.621094c11.726562 0 21.230468 9.503906 21.230468 21.230468v42.78125c0 2.175782-1.765625 3.941406-3.941406 3.941406zm0 0" fill="#b96a00"/><path d="m161.515625 209.183594v8.757812c0 8.613282-2.960937 17.308594-8.40625 25.523438-16.902344 25.609375-57.78125 46.648437-107.90625 46.191406h-11.441406c-6.417969 0-11.632813-5.09375-11.632813-11.355469v-38.335937c0-14.691406 9.152344-27.3125 22.210938-32.734375 4.402344-1.828125 9.246094-2.835938 14.324218-2.835938h97.945313c2.710937 0 4.90625 2.140625 4.90625 4.789063zm0 0" fill="#db7d00"/><path d="m153.109375 243.472656c-16.902344 25.597656-57.78125 46.632813-107.90625 46.175782h-11.441406c-6.417969 0-11.632813-5.078126-11.632813-11.355469v-38.324219c0-14.6875 9.152344-27.320312 22.210938-32.734375-1.476563 3.855469-2.277344 8.011719-2.277344 12.363281v38.335938c0 6.261718 5.214844 11.355468 11.636719 11.355468h11.429687c35.851563.332032 66.976563-10.347656 87.980469-25.816406zm0 0" fill="#ca7400"/></svg>