<svg height="512pt" viewBox="0 -66 512 512" width="512pt" xmlns="http://www.w3.org/2000/svg"><path d="m356 130h116c16.558594 0 30 13.441406 30 30 0 16.570312-13.429688 30-30 30 16.570312 0 30 13.429688 30 30 0 16.558594-13.441406 30-30 30h-20c16.570312 0 30 13.429688 30 30 0 16.558594-13.441406 30-30 30h-30c16.558594 0 30 13.441406 30 30 0 16.570312-13.429688 30-30 30h-106c-47.140625 0-92.859375-20-140-20h-40v-180h52.300781c5.113281 0 10.097657-.96875 14.847657-2.859375 58.832031-36.199219 98.5-56.691406 108.273437-125.070313l4.578125-32.070312c48.550781 0 70.230469 29.300781 40 120zm0 0" fill="#ffcebf"/><path d="m136 170v180h-126v-180zm0 0" fill="#5c9cee"/><path d="m106 310c0 5.523438-4.476562 10-10 10s-10-4.476562-10-10 4.476562-10 10-10 10 4.476562 10 10zm0 0"/><path d="m10 360h166c22.503906 0 44.554688 4.75 67.894531 9.777344 23.335938 5.023437 47.46875 10.222656 72.105469 10.222656h106c22.054688 0 40-17.945312 40-40 0-7.238281-1.917969-14.179688-5.503906-20.257812 19.773437-2.203126 35.503906-18.960938 35.503906-39.742188 0-8.222656-2.496094-15.875-6.769531-22.238281 15.449219-5.402344 26.769531-20.164063 26.769531-37.761719 0-11.9375-5.265625-22.664062-13.585938-30 8.320313-7.335938 13.585938-18.0625 13.585938-30 0-22.101562-17.898438-40-40-40h-102.367188c13.757813-46.371094 13.566407-78.554688-.546874-98.136719-10.457032-14.507812-28.316407-21.863281-53.085938-21.863281-4.976562 0-9.195312 3.660156-9.898438 8.585938l-4.582031 32.070312c-8.546875 59.824219-40.609375 79.429688-93.726562 111.910156-2.976563 1.820313-6.007813 3.675782-9.09375 5.570313-3.285157 1.210937-6.753907 1.863281-10.398438 1.863281h-178.300781c-5.523438 0-10 4.476562-10 10v180c0 5.523438 4.476562 10 10 10zm208.226562-190.371094c54.113282-33.089844 93.214844-56.996094 103.09375-126.144531l3.300782-23.113281c13.484375 1.242187 22.765625 5.589844 28.242187 13.1875 10.664063 14.792968 9.257813 43.863281-4.140625 86.441406h-12.722656c-5.523438 0-10 4.476562-10 10s4.476562 10 10 10h136c11.046875 0 20 8.953125 20 20 0 11.027344-8.972656 20-20 20h-76c-5.523438 0-10 4.476562-10 10s4.476562 10 10 10h76c11.027344 0 20 8.972656 20 20 0 11.046875-8.953125 20-20 20-11.027344 0-44.816406 0-56 0-5.523438 0-10 4.476562-10 10s4.476562 10 10 10h36c11.027344 0 20 8.972656 20 20 0 11.046875-8.953125 20-20 20-11.027344 0-44.816406 0-56 0-5.523438 0-10 4.476562-10 10s4.476562 10 10 10h26c11.046875 0 20 8.953125 20 20 0 11.027344-8.972656 20-20 20h-106c-22.503906 0-44.554688-4.75-67.894531-9.777344-23.335938-5.023437-47.46875-10.222656-72.105469-10.222656h-30v-160h42.300781c15.746094 0 22.710938-5.957031 29.925781-10.371094zm-198.226562 10.371094h106v160h-106zm0 0"/><path d="m96 200c-5.523438 0-10 4.476562-10 10v60c0 5.523438 4.476562 10 10 10s10-4.476562 10-10v-60c0-5.523438-4.476562-10-10-10zm0 0"/></svg>