<svg height="512pt" viewBox="0 0 511 512" width="512pt" xmlns="http://www.w3.org/2000/svg"><path d="m231.195312 1.960938c-8.632812 0-202.183593 0-212.792968 0-9.890625 0-17.902344 8.011718-17.902344 17.902343v474.234375c0 9.890625 8.011719 17.902344 17.902344 17.902344h212.792968c9.882813 0 17.890626-8.011719 17.890626-17.902344v-474.234375c0-9.890625-8.007813-17.902343-17.890626-17.902343zm0 0" fill="#fff5f4"/><path d="m54.773438 511.996094h-36.367188c-9.890625 0-17.902344-8.011719-17.902344-17.902344v-474.234375c0-9.890625 8.011719-17.902344 17.902344-17.902344h36.367188c-9.890626 0-17.902344 8.011719-17.902344 17.902344v474.234375c0 9.890625 8.011718 17.902344 17.902344 17.902344zm0 0" fill="#ebe0da"/><path d="m477.554688 196.652344c-4.761719 0-219.175782.007812-221.449219.007812-18.859375 0-34.15625 15.285156-34.15625 34.144532v246.984374c0 18.859376 15.296875 34.144532 34.15625 34.144532 1.042969 0 216.699219.003906 221.449219.003906 18.863281 0 34.152343-15.289062 34.152343-34.152344v-246.980468c0-18.859376-15.289062-34.152344-34.152343-34.152344zm0 0" fill="#63a6fd"/><path d="m250.996094 379.289062v-60.589843c0-3.078125 2.496094-5.574219 5.574218-5.574219h87.527344c3.082032 0 5.578125 2.496094 5.578125 5.574219v60.589843c0 3.078126-2.496093 5.574219-5.578125 5.574219h-87.527344c-3.078124 0-5.574218-2.496093-5.574218-5.574219zm0 0" fill="#1980f9"/><path d="m384.976562 379.289062v-60.589843c0-3.078125 2.496094-5.574219 5.574219-5.574219h87.527344c3.082031 0 5.578125 2.496094 5.578125 5.574219v60.589843c0 3.078126-2.496094 5.574219-5.578125 5.574219h-87.527344c-3.078125 0-5.574219-2.496093-5.574219-5.574219zm0 0" fill="#1980f9"/><path d="m250.996094 477.96875v-60.589844c0-3.078125 2.496094-5.574218 5.574218-5.574218h87.527344c3.082032 0 5.578125 2.496093 5.578125 5.574218v60.589844c0 3.078125-2.496093 5.574219-5.578125 5.574219h-87.527344c-3.078124 0-5.574218-2.496094-5.574218-5.574219zm0 0" fill="#1980f9"/><path d="m384.976562 477.96875v-60.589844c0-3.078125 2.496094-5.574218 5.574219-5.574218h87.527344c3.082031 0 5.578125 2.496093 5.578125 5.574218v60.589844c0 3.078125-2.496094 5.574219-5.578125 5.574219h-87.527344c-3.078125 0-5.574219-2.496094-5.574219-5.574219zm0 0" fill="#1980f9"/><g fill="#285fb3"><path d="m417.527344 356.789062h33.574218c4.304688 0 7.792969-3.492187 7.792969-7.792968 0-4.304688-3.488281-7.792969-7.792969-7.792969h-33.574218c-4.304688 0-7.792969 3.488281-7.792969 7.792969 0 4.300781 3.492187 7.792968 7.792969 7.792968zm0 0"/><path d="m317.855469 341.203125h-8.992188v-8.996094c0-4.304687-3.488281-7.792969-7.792969-7.792969-4.308593 0-7.796874 3.488282-7.796874 7.792969v8.996094h-8.992188c-4.304688 0-7.792969 3.488281-7.792969 7.792969 0 4.300781 3.488281 7.792968 7.792969 7.792968h8.992188v8.992188c0 4.304688 3.488281 7.792969 7.796874 7.792969 4.304688 0 7.792969-3.488281 7.792969-7.792969v-8.992188h8.992188c4.304687 0 7.792969-3.492187 7.792969-7.792968 0-4.304688-3.488282-7.792969-7.792969-7.792969zm0 0"/><path d="m451.101562 439.878906h-33.574218c-4.304688 0-7.792969 3.492188-7.792969 7.792969 0 4.304687 3.488281 7.792969 7.792969 7.792969h33.574218c4.304688 0 7.792969-3.488282 7.792969-7.792969 0-4.300781-3.488281-7.792969-7.792969-7.792969zm0 0"/><path d="m318.449219 430.292969c-3.042969-3.046875-7.976563-3.046875-11.023438 0l-6.355469 6.359375-6.359374-6.359375c-3.046876-3.046875-7.980469-3.046875-11.023438 0-3.042969 3.042969-3.042969 7.976562 0 11.019531l6.359375 6.359375-6.359375 6.359375c-4.925781 4.925781-1.367188 13.304688 5.511719 13.304688 4.0625 0 5.34375-2.117188 11.871093-8.640626l6.359376 6.355469c3.042968 3.046875 7.976562 3.046875 11.019531 0 3.042969-3.042969 3.042969-7.976562 0-11.019531l-6.359375-6.359375 6.359375-6.359375c3.042969-3.042969 3.042969-7.976562 0-11.019531zm0 0"/><path d="m442.628906 429.8125c0 4.589844-3.722656 8.3125-8.3125 8.3125s-8.3125-3.722656-8.3125-8.3125 3.722656-8.3125 8.3125-8.3125 8.3125 3.722656 8.3125 8.3125zm0 0"/><path d="m442.628906 465.53125c0 4.59375-3.722656 8.3125-8.3125 8.3125s-8.3125-3.71875-8.3125-8.3125c0-4.589844 3.722656-8.3125 8.3125-8.3125s8.3125 3.722656 8.3125 8.3125zm0 0"/></g><path d="m117.789062 165.40625v13.695312c0 4.304688 3.492188 7.792969 7.792969 7.792969 4.304688 0 7.792969-3.488281 7.792969-7.792969v-14.257812c14.691406-3.148438 23.191406-14.011719 23.191406-30.394531 0-22.644531-15.777344-28.710938-28.457031-33.578125-10.171875-3.910156-18.207031-6.996094-18.207031-16.492188 0-10.902344 9.640625-13.191406 17.730468-13.191406 7.769532 0 12.003907 2.179688 15.09375 3.773438 1.753907.902343 3.136719 1.617187 4.621094 1.617187 4.375 0 6.664063-5.261719 6.664063-8.085937 0-6.570313-11.042969-9.734376-20.636719-10.636719v-15.914063c0-4.304687-3.488281-7.792968-7.792969-7.792968-4.300781 0-7.792969 3.488281-7.792969 7.792968v16.625.011719c-10.113281 2.09375-22.917968 8.40625-22.917968 26.9375 0 19.109375 13.796875 24.5625 25.976562 29.375 11.101563 4.386719 20.6875 8.175781 20.6875 20.695313 0 13.945312-11.375 16.027343-18.15625 16.027343-10.488281 0-15.21875-4.644531-18.671875-8.035156-1.96875-1.929687-3.519531-3.453125-5.582031-3.453125-3.667969 0-6.808594 4.445312-6.808594 8.082031 0 6.214844 9.945313 15.246094 25.472656 17.199219zm0 0" fill="#c8bebc"/><path d="m52.578125 265.875h144.429687c4.304688 0 7.792969-3.488281 7.792969-7.792969 0-4.304687-3.488281-7.792969-7.792969-7.792969h-144.429687c-4.304687 0-7.792969 3.488282-7.792969 7.792969 0 4.304688 3.488282 7.792969 7.792969 7.792969zm0 0" fill="#c8bebc"/><path d="m197.007812 303.363281h-144.429687c-4.304687 0-7.792969 3.488281-7.792969 7.792969s3.488282 7.792969 7.792969 7.792969h144.429687c4.304688 0 7.792969-3.488281 7.792969-7.792969s-3.488281-7.792969-7.792969-7.792969zm0 0" fill="#c8bebc"/><path d="m197.007812 356.4375h-144.429687c-4.304687 0-7.792969 3.492188-7.792969 7.792969 0 4.304687 3.488282 7.796875 7.792969 7.796875h144.429687c4.304688 0 7.792969-3.492188 7.792969-7.796875 0-4.300781-3.488281-7.792969-7.792969-7.792969zm0 0" fill="#c8bebc"/><path d="m117.136719 432.113281h-64.558594c-4.304687 0-7.792969 3.488281-7.792969 7.792969s3.488282 7.792969 7.792969 7.792969h64.558594c4.300781 0 7.792969-3.488281 7.792969-7.792969s-3.488282-7.792969-7.792969-7.792969zm0 0" fill="#c8bebc"/><path d="m285.136719 511.933594h-29.03125c-18.859375 0-34.15625-15.285156-34.15625-34.144532v-246.988281c0-18.859375 15.296875-34.144531 34.15625-34.144531h29.03125c-18.871094 0-34.15625 15.285156-34.15625 34.144531v246.988281c0 18.859376 15.285156 34.144532 34.15625 34.144532zm0 0" fill="#4395fb"/><path d="m255.1875 283.269531c-3.363281 0-6.097656-2.734375-6.097656-6.097656v-46.304687c0-3.363282 2.734375-6.097657 6.097656-6.097657h222.371094c3.359375 0 6.097656 2.734375 6.097656 6.097657v46.304687c0 3.363281-2.738281 6.097656-6.097656 6.097656zm0 0" fill="#fff5f4"/><path d="m291.558594 283.265625h-36.367188c-3.367187 0-6.101562-2.734375-6.101562-6.089844v-46.3125c0-3.355469 2.734375-6.097656 6.101562-6.097656h36.367188c-3.367188 0-6.101563 2.742187-6.101563 6.097656v46.3125c0 3.355469 2.734375 6.089844 6.101563 6.089844zm0 0" fill="#ebe0da"/><path d="m429.03125 128.167969-35.773438 6.308593c-.425781 6.441407-1.550781 12.699219-3.285156 18.691407l31.453125 18.15625c3.054688 1.765625 4.105469 5.671875 2.339844 8.726562l-14.757813 25.5625c-1.765624 3.054688-5.671874 4.101563-8.726562 2.335938l-31.472656-18.164063c-4.386719 4.5625-9.25 8.667969-14.527344 12.199219l12.425781 34.144531c1.207031 3.316406-.507812 6.972656-3.820312 8.1875l-2.847657 1.039063-6.839843 2.484375-18.046875 6.566406c-3.316406 1.207031-6.984375-.5-8.1875-3.8125l-9.25-25.425781-2.273438-6.246094-.90625-2.472656c-6.335937.609375-11.980468.746093-18.972656 0l-12.425781 34.144531c-1.207031 3.3125-4.875 5.019531-8.1875 3.8125l-27.734375-10.089844c-3.3125-1.214844-5.027344-4.871094-3.824219-8.1875l12.429687-34.144531c-5.28125-3.53125-10.144531-7.636719-14.527343-12.199219l-31.472657 18.164063c-3.054687 1.765625-6.964843.71875-8.730468-2.335938l-14.753906-25.5625c-1.765626-3.054687-.71875-6.960937 2.339843-8.726562l31.449219-18.15625c-1.734375-5.992188-2.84375-12.25-3.28125-18.691407l-35.777344-6.308593c-3.480468-.613281-5.796875-3.925781-5.183594-7.40625l5.121094-29.0625c.613282-3.472657 3.929688-5.800781 7.410156-5.1875l35.753907 6.308593c2.589843-5.839843 5.777343-11.335937 9.507812-16.425781l-23.359375-27.828125c-2.265625-2.710937-1.910156-6.734375.792969-9.007812l22.609375-18.972656c2.699219-2.265626 6.730469-1.914063 8.996094.789062l23.347656 27.824219c5.632812-2.773438 11.609375-4.964844 17.84375-6.492188v-36.316406c0-3.53125 2.855469-6.390625 6.390625-6.390625h29.507813c3.53125 0 6.390624 2.859375 6.390624 6.390625v36.316406c6.234376 1.527344 12.210938 3.71875 17.839844 6.492188l23.347656-27.824219c2.265626-2.703125 6.296876-3.054688 9-.789062l22.609376 18.972656c2.703124 2.273437 3.054687 6.296875.789062 9.007812l-23.355469 27.828125c3.730469 5.089844 6.917969 10.585938 9.503907 16.425781l35.765624-6.308593c3.472657-.613281 6.785157 1.714843 7.398438 5.1875l5.125 29.0625c.613281 3.480469-1.707031 6.792969-5.1875 7.40625zm0 0" fill="#1980f9"/><path d="m312.898438 216.585938c-5.691407.488281-10.949219.542968-17.339844-.132813l-12.425782 34.144531c-1.207031 3.3125-4.875 5.015625-8.191406 3.8125l-27.730468-10.089844c-3.316407-1.214843-5.03125-4.875-3.824219-8.1875l12.425781-34.144531c-5.277344-3.53125-10.140625-7.636719-14.523438-12.199219l-31.476562 18.164063c-3.054688 1.765625-6.960938.714844-8.726562-2.339844l-14.753907-25.558593c-1.765625-3.054688-.71875-6.960938 2.335938-8.730469l31.453125-18.152344c-1.734375-5.996094-2.847656-12.25-3.28125-18.691406l-35.777344-6.308594c-3.480469-.613281-5.796875-3.925781-5.183594-7.40625l5.121094-29.0625c.613281-3.472656 3.929688-5.800781 7.410156-5.1875l35.753906 6.308594c2.585938-5.839844 5.777344-11.335938 9.507813-16.429688l-23.359375-27.824219c-2.265625-2.714843-1.910156-6.734374.789062-9.007812l22.609376-18.976562c2.703124-2.265626 6.734374-1.910157 9 .789062l23.347656 27.828125c5.632812-2.773437 11.605468-4.964844 17.839844-6.492187v-36.316407c0-3.535156 2.859374-6.39062475 6.390624-6.39062475h29.511719c3.53125 0 6.390625 2.85546875 6.390625 6.39062475v8.902344c-18.902344 13.738281-33.988281 32.398437-43.371094 54.09375-6.921874 15.960937-10.753906 33.574219-10.753906 52.082031 0 24.113282 6.511719 46.714844 17.878906 66.136719 6.265626 10.730469 14.007813 20.476563 22.953126 28.976563zm0 0" fill="#285fb3"/><path d="m367.117188 127.398438c0 34.277343-27.785157 62.074218-62.066407 62.074218-5.203125 0-10.253906-.644531-15.085937-1.851562-26.984375-6.742188-46.988282-31.148438-46.988282-60.222656 0-26.433594 16.53125-49.015626 39.828126-57.960938 6.910156-2.648438 14.414062-4.105469 22.246093-4.105469 34.28125 0 62.066407 27.785157 62.066407 62.066407zm0 0" fill="#fed22b"/><path d="m289.964844 187.621094c-26.984375-6.742188-46.988282-31.148438-46.988282-60.222656 0-26.433594 16.53125-49.015626 39.828126-57.960938-6.910157 15.949219-10.734376 33.542969-10.734376 52.027344 0 24.117187 6.515626 46.714844 17.882813 66.136718 0 .011719.011719.011719.011719.019532zm0 0" fill="#fdc202"/><path d="m308.285156 119.109375c-6.890625-2.648437-9.496094-3.980469-9.496094-7.484375 0-1.550781 0-5.179688 8.058594-5.179688 4.152344 0 6.34375 1.128907 8.105469 2.035157 1.3125.675781 2.667969 1.375 4.378906 1.375 4.757813 0 7.386719-4.898438 7.386719-8.289063 0-5.882812-6.832031-8.578125-13.375-9.582031v-7.226563c0-4.304687-3.488281-7.792968-7.792969-7.792968-4.304687 0-7.792969 3.488281-7.792969 7.792968v7.9375c-9.316406 2.675782-14.824218 9.691407-14.824218 19.648438 0 14.257812 10.664062 18.46875 18.453125 21.546875 7.882812 3.117187 11.09375 4.90625 11.09375 10.15625 0 1.90625 0 6.976563-8.328125 6.976563-5.34375 0-7.605469-2.21875-9.601563-4.175782-1.476562-1.453125-3.152343-3.097656-5.753906-3.097656-4.28125 0-7.480469 4.378906-7.480469 8.289062 0 5.542969 6.695313 11.621094 16.441406 13.621094v5.941406c0 4.300782 3.488282 7.792969 7.792969 7.792969 4.304688 0 7.792969-3.492187 7.792969-7.792969v-6.523437c9.417969-2.898437 14.992188-10.675781 14.992188-21.75 0-16.515625-11.589844-20.96875-20.050782-24.21875zm0 0" fill="#f0a70a"/></svg>