<svg height="512pt" viewBox="0 -48 512 512" width="512pt" xmlns="http://www.w3.org/2000/svg"><path d="m480 416h-448c-17.679688 0-32-14.320312-32-32v-320h512v320c0 17.679688-14.320312 32-32 32zm0 0" fill="#b0b4b9"/><path d="m160 0v96h192v-96zm160 64h-128v-32h128zm0 0" fill="#b0b4b9"/><path d="m352 32v64h-192v-64h32v32h128v-32zm0 0" fill="#9da3aa"/><path d="m128 288c-26.511719 0-48-21.488281-48-48v-64h96v64c0 26.511719-21.488281 48-48 48zm0 0" fill="#ffd337"/><path d="m384 288c-26.511719 0-48-21.488281-48-48v-64h96v64c0 26.511719-21.488281 48-48 48zm0 0" fill="#ffd337"/><path d="m512 64h-512v112c0 17.679688 14.320312 32 32 32h448c17.679688 0 32-14.320312 32-32zm0 0" fill="#5f90ff"/><path d="m224 128h64v32h-64zm0 0" fill="#ffd337"/><path d="m32 96h32v32h-32zm0 0" fill="#fff"/><path d="m96 96h32v32h-32zm0 0" fill="#fff"/><path d="m480 384h-448c-17.679688 0-32-14.320312-32-32v32c0 17.679688 14.320312 32 32 32h448c17.679688 0 32-14.320312 32-32v-32c0 17.679688-14.320312 32-32 32zm0 0" fill="#9da3aa"/></svg>