<svg height="512pt" viewBox="0 -66 512 512" width="512pt" xmlns="http://www.w3.org/2000/svg"><path d="m356 250c30.230469 90.699219 8.550781 120-40 120l-4.578125-32.070312c-9.773437-68.378907-49.441406-88.871094-108.273437-125.070313-4.75-1.890625-9.734376-2.859375-14.847657-2.859375h-52.300781v-180h40c47.140625 0 92.859375-20 140-20h106c16.570312 0 30 13.429688 30 30 0 16.558594-13.441406 30-30 30h30c16.558594 0 30 13.441406 30 30 0 16.570312-13.429688 30-30 30h20c16.558594 0 30 13.441406 30 30 0 16.570312-13.429688 30-30 30 16.570312 0 30 13.429688 30 30 0 16.558594-13.441406 30-30 30zm0 0" fill="#ffcebf"/><path d="m136 30v180h-126v-180zm0 0" fill="#ed5575"/><path d="m106 70c0 5.523438-4.476562 10-10 10s-10-4.476562-10-10 4.476562-10 10-10 10 4.476562 10 10zm0 0"/><path d="m512 160c0-17.566406-11.292969-32.351562-26.769531-37.761719 4.273437-6.363281 6.769531-14.015625 6.769531-22.238281 0-20.785156-15.734375-37.539062-35.503906-39.742188 3.585937-6.078124 5.503906-13.019531 5.503906-20.257812 0-22.054688-17.945312-40-40-40h-106c-24.636719 0-48.769531 5.199219-72.105469 10.222656-23.339843 5.027344-45.390625 9.777344-67.894531 9.777344h-166c-5.523438 0-10 4.476562-10 10v180c0 5.523438 4.476562 10 10 10h178.300781c3.472657 0 6.953125.59375 10.398438 1.863281 3.085937 1.894531 6.117187 3.75 9.09375 5.570313 53.117187 32.476562 85.179687 52.082031 93.726562 111.910156l4.582031 32.070312c.703126 4.925782 4.921876 8.585938 9.898438 8.585938 24.769531 0 42.628906-7.355469 53.089844-21.863281 14.109375-19.582031 14.300781-51.765625.542968-98.136719h102.367188c22.097656 0 40-17.898438 40-40 0-11.9375-5.265625-22.664062-13.585938-30 8.320313-7.335938 13.585938-18.0625 13.585938-30zm-492-120h106v160h-106zm376 140c-5.523438 0-10 4.476562-10 10s4.476562 10 10 10h76c11.027344 0 20 8.972656 20 20 0 11.046875-8.953125 20-20 20-17.316406 0-121.363281 0-136 0-5.523438 0-10 4.476562-10 10s4.476562 10 10 10h12.722656c13.398438 42.578125 14.800782 71.648438 4.140625 86.441406-5.480469 7.597656-14.761719 11.945313-28.242187 13.1875l-3.300782-23.113281c-9.878906-69.148437-48.980468-93.054687-103.09375-126.144531-3.214843-1.96875-6.496093-3.972656-9.835937-6.027344-2.695313-1.660156-11.203125-4.34375-20.089844-4.34375h-42.300781v-160h30c24.636719 0 48.769531-5.199219 72.105469-10.222656 23.339843-5.027344 45.390625-9.777344 67.894531-9.777344h106c11.027344 0 20 8.972656 20 20 0 11.046875-8.953125 20-20 20h-26c-5.523438 0-10 4.476562-10 10s4.476562 10 10 10h56c11.046875 0 20 8.953125 20 20 0 11.027344-8.972656 20-20 20-10.933594 0-25.363281 0-36 0-5.523438 0-10 4.476562-10 10s4.476562 10 10 10h56c11.046875 0 20 8.953125 20 20 0 11.027344-8.972656 20-20 20zm0 0"/><path d="m96 100c-5.523438 0-10 4.476562-10 10v60c0 5.523438 4.476562 10 10 10s10-4.476562 10-10v-60c0-5.523438-4.476562-10-10-10zm0 0"/></svg>