<svg height="512pt" viewBox="0 0 511 512" width="512pt" xmlns="http://www.w3.org/2000/svg"><path d="m316.246094 423.898438-52.042969-30.046876v-60.09375c0-4.289062-3.476563-7.765624-7.765625-7.765624s-7.765625 3.476562-7.765625 7.765624v60.09375l-52.042969 30.046876c-6.875 3.96875-4 14.492187 3.890625 14.492187 2.914063 0-.597656 1.542969 55.917969-31.085937 56.535156 32.640624 53.011719 31.085937 55.921875 31.085937 7.890625 0 10.769531-10.519531 3.886719-14.492187zm0 0" fill="#4395fb"/><path d="m356.917969 288.246094c0 5.054687-2.050781 9.652344-5.375 12.964844-3.3125 3.324218-7.898438 5.375-12.960938 5.375h-164.359375c-10.125 0-18.335937-8.210938-18.335937-18.339844 0-23.140625 9.378906-44.089844 24.539062-59.257813 1.65625-1.65625 3.386719-3.25 5.1875-4.753906 6.636719-5.632813 14.164063-10.226563 22.34375-13.582031.613281-.25 1.222657-.5 1.84375-.726563.023438 0 .042969-.011719.054688-.019531 9.265625-3.519531 19.320312-5.457031 29.828125-5.457031h33.4375c10.488281 0 20.542968 1.925781 29.796875 5.445312.0625.03125.136719.0625.199219.082031.578124.207032 1.160156.4375 1.726562.675782 8.183594 3.355468 15.710938 7.949218 22.347656 13.574218 18.179688 15.367188 29.726563 38.339844 29.726563 64.019532zm0 0" fill="#fff5f4"/><path d="m263.933594 204.445312c-11.554688 0-22.59375 2.207032-32.667969 6.214844-8.429687 3.34375-16.183594 7.941406-23.03125 13.574219-1.839844 1.5-3.621094 3.09375-5.332031 4.75-13.3125 12.921875-22.28125 30.027344-24.652344 49.113281-.414062 3.324219-.621094 6.707032-.621094 10.148438 0 .144531 0 .289062.011719.421875.214844 9.929687 8.582031 17.914062 18.875 17.914062h-22.292969c-10.128906 0-18.339844-8.210937-18.339844-18.335937 0-23.144532 9.382813-44.089844 24.542969-59.261719 1.65625-1.65625 3.382813-3.25 5.1875-4.75 6.636719-5.632813 14.164063-10.230469 22.34375-13.585937.609375-.25 1.222657-.496094 1.84375-.726563.019531 0 .039063-.007813.050781-.019531 9.265626-3.519532 19.320313-5.457032 29.832032-5.457032zm0 0" fill="#ebe0da"/><path d="m319.132812 239.738281c-.039062 3.144531-3.972656 4.574219-6.261718 2.472657l-15.242188-11.007813c-1.355468-.703125-2.953125-.753906-4.347656-.121094l-29.078125 12.363281v63.140626h-15.53125v-62.820313l-29.136719-12.683594c-1.398437-.632812-2.992187-.582031-4.347656.121094l-15.242188 11.007813c-2.300781 2.101562-6.222656.671874-6.265624-2.472657-.1875-16.15625 7.28125-24.957031 15.945312-29.730469.011719 0 .011719-.007812.011719-.007812.050781-.023438.113281-.042969.164062-.074219.023438 0 .042969-.011719.054688-.019531 9.265625-3.519531 19.320312-5.457031 29.828125-5.457031h33.4375c10.488281 0 20.542968 1.925781 29.796875 5.445312.0625.03125.136719.0625.199219.082031 8.695312 4.765626 16.203124 13.566407 16.015624 29.761719zm0 0" fill="#c8bebc"/><path d="m329.273438 275.941406h-39.925782c-4.289062 0-7.765625 3.476563-7.765625 7.765625 0 4.289063 3.476563 7.765625 7.765625 7.765625h39.925782c4.289062 0 7.765624-3.476562 7.765624-7.765625 0-4.289062-3.476562-7.765625-7.765624-7.765625zm0 0" fill="#c8bebc"/><path d="m223.527344 275.941406h-39.925782c-4.289062 0-7.765624 3.476563-7.765624 7.765625 0 4.289063 3.476562 7.765625 7.765624 7.765625h39.925782c4.289062 0 7.765625-3.476562 7.765625-7.765625 0-4.289062-3.472657-7.765625-7.765625-7.765625zm0 0" fill="#c8bebc"/><path d="m235.492188 178.253906v45.3125l17.804687 20.035156c1.167969 2.066407 4.132813 2.097657 5.355469.074219.003906-.003906.011718-.019531.015625-.023437l18.640625-20.085938v-45.3125zm0 0" fill="#f2d1a5"/><path d="m222.136719 126.175781c0 13.058594-10.585938 23.640625-23.640625 23.640625-13.058594 0-23.640625-10.582031-23.640625-23.640625 0-13.054687 10.582031-23.640625 23.640625-23.640625 13.054687 0 23.640625 10.585938 23.640625 23.640625zm0 0" fill="#f2d1a5"/><path d="m340.507812 126.179688c0 13.054687-10.585937 23.640624-23.640624 23.640624-13.058594 0-23.640626-10.585937-23.640626-23.640624 0-13.054688 10.582032-23.640626 23.640626-23.640626 13.054687 0 23.640624 10.585938 23.640624 23.640626zm0 0" fill="#f2d1a5"/><path d="m319.140625 33.09375v109.921875c0 16.980469-11.792969 32.347656-25.523437 43.46875-6.253907 5.0625-12.921876 9.246094-19.050782 12.3125-7.332031 3.644531-13.90625 5.683594-18.132812 5.683594-15.53125 0-62.703125-27.511719-62.703125-61.464844v-109.921875c0-11.203125 9.089843-20.296875 20.292969-20.296875h84.835937c11.203125 0 20.28125 9.09375 20.28125 20.296875zm0 0" fill="#f2d1a5"/><path d="m319.140625 33.09375v109.921875c0 16.980469-11.792969 32.347656-25.523437 43.46875-6.253907 5.0625-12.921876 9.246094-19.050782 12.3125-19.601562-9.765625-44.597656-31.066406-44.597656-55.78125v-109.921875c0-11.203125 9.089844-20.296875 20.296875-20.296875h48.59375c11.203125 0 20.28125 9.09375 20.28125 20.296875zm0 0" fill="#ffe4c2"/><path d="m274.566406 198.792969c-7.332031 3.644531-13.90625 5.683593-18.128906 5.683593-15.53125 0-62.707031-27.511718-62.707031-61.464843v-109.921875c0-11.203125 9.089843-20.292969 20.292969-20.292969h36.242187c-11.203125 0-20.296875 9.089844-20.296875 20.292969v109.921875c0 24.71875 24.996094 46.015625 44.597656 55.78125zm0 0" fill="#f2d1a5"/><g fill="#ca7400"><path d="m268.945312 138.042969c-4.289062 0-7.765624 3.476562-7.765624 7.765625 0 2.613281-2.128907 4.738281-4.742188 4.738281s-4.738281-2.125-4.738281-4.738281c0-4.289063-3.476563-7.765625-7.765625-7.765625-4.289063 0-7.765625 3.476562-7.765625 7.765625 0 11.175781 9.09375 20.269531 20.269531 20.269531 11.179688 0 20.273438-9.09375 20.273438-20.269531 0-4.289063-3.476563-7.765625-7.765626-7.765625zm0 0"/><path d="m296 118.160156c0 4.105469-3.324219 7.429688-7.425781 7.429688-4.105469 0-7.429688-3.324219-7.429688-7.429688 0-4.101562 3.324219-7.425781 7.429688-7.425781 4.101562 0 7.425781 3.324219 7.425781 7.425781zm0 0"/><path d="m231.734375 118.160156c0 4.105469-3.328125 7.429688-7.429687 7.429688-4.101563 0-7.429688-3.324219-7.429688-7.429688 0-4.101562 3.328125-7.425781 7.429688-7.425781 4.101562 0 7.429687 3.324219 7.429687 7.425781zm0 0"/><path d="m307.132812 96.875c-11.03125-6.933594-28.230468-3.617188-30.15625-3.214844-4.199218.875-6.890624 4.988282-6.015624 9.1875.875 4.199219 4.992187 6.890625 9.1875 6.019532 4.132812-.863282 14.148437-1.714844 18.71875 1.160156 1.285156.804687 2.710937 1.191406 4.125 1.191406 2.582031 0 5.105468-1.289062 6.582031-3.632812 2.28125-3.632813 1.1875-8.425782-2.441407-10.710938zm0 0"/><path d="m241.917969 102.847656c.875-4.199218-1.820313-8.3125-6.019531-9.1875-1.921876-.398437-19.121094-3.71875-30.15625 3.214844-3.628907 2.285156-4.722657 7.078125-2.4375 10.707031 1.472656 2.347657 4 3.636719 6.578124 3.636719 1.414063 0 2.84375-.386719 4.128907-1.195312 4.515625-2.839844 14.570312-2.003907 18.730469-1.15625 4.195312.867187 8.300781-1.824219 9.175781-6.019532zm0 0"/></g><path d="m325.136719 79.316406h-22.835938c-11.683593 0-21.15625-9.46875-21.15625-21.15625v-25.410156c0-11.683594 9.472657-21.15625 21.15625-21.15625h5.605469c11.683594 0 21.15625 9.472656 21.15625 21.15625v42.640625c0 2.167969-1.757812 3.925781-3.925781 3.925781zm0 0" fill="#b96a00"/><path d="m316.863281 4.773438v8.730468c0 8.582032-2.949219 17.25-8.375 25.4375-16.847656 25.527344-57.59375 46.492188-107.554687 46.039063h-11.398438c-6.398437 0-11.597656-5.074219-11.597656-11.320313v-38.207031c0-14.640625 9.121094-27.222656 22.136719-32.625 4.390625-1.824219 9.21875-2.828125 14.28125-2.828125h97.621093c2.703126 0 4.886719 2.132812 4.886719 4.773438zm0 0" fill="#db7d00"/><path d="m308.488281 38.941406c-16.847656 25.523438-57.589843 46.488282-107.550781 46.035156h-11.402344c-6.398437 0-11.597656-5.074218-11.597656-11.316406v-38.210937c0-14.640625 9.125-27.21875 22.140625-32.625-1.472656 3.839843-2.269531 7.992187-2.269531 12.332031v38.195312c0 6.257813 5.199218 11.320313 11.597656 11.320313h11.390625c35.734375.332031 66.753906-10.304687 87.691406-25.730469zm0 0" fill="#ca7400"/><path d="m374.585938 392.558594c-30.535157 34.605468-56.785157 6.105468-64.335938-3.789063-.945312-1.242187-.066406-3.019531 1.496094-3.035156 39.054687-.324219 42.28125-21.394531 42.28125-21.394531l6.058594-21.113282 22.53125 40.808594zm0 0" fill="#f0a70a"/><path d="m383.523438 339.605469c0 12.476562-10.113282 22.589843-22.589844 22.589843-12.476563 0-22.589844-10.113281-22.589844-22.589843 0-12.476563 10.113281-22.589844 22.589844-22.589844 12.476562 0 22.589844 10.113281 22.589844 22.589844zm0 0" fill="#f2bb88"/><path d="m496.636719 339.609375c0 12.476563-10.113281 22.589844-22.589844 22.589844s-22.589844-10.113281-22.589844-22.589844 10.113281-22.589844 22.589844-22.589844 22.589844 10.113281 22.589844 22.589844zm0 0" fill="#f2bb88"/><path d="m456.835938 231.269531h-81.0625c-10.707032 0-19.386719 8.679688-19.386719 19.390625v105.039063c0 32.4375 45.074219 58.730469 59.917969 58.734375 14.84375-.003906 59.917968-26.296875 59.917968-58.734375v-105.039063c0-10.710937-8.679687-19.390625-19.386718-19.390625zm0 0" fill="#f2d1a5"/><path d="m512.390625 494.46875c0 9.660156-7.828125 17.53125-17.527344 17.53125h-157.109375c-9.679687 0-17.53125-7.847656-17.53125-17.53125 0-44.234375 35.847656-80.101562 80.101563-80.101562h31.964843c44.027344 0 80.101563 35.640624 80.101563 80.101562zm0 0" fill="#fff5f4"/><path d="m343.820312 494.46875c0 9.683594 7.851563 17.53125 17.542969 17.53125h-23.609375c-9.679687 0-17.53125-7.847656-17.53125-17.53125 0-44.234375 35.847656-80.101562 80.101563-80.101562h23.609375c-44.253906 0-80.113282 35.867187-80.113282 80.101562zm0 0" fill="#ebe0da"/><path d="m476.265625 448.101562c-.042969 3.015626-3.800781 4.382813-5.984375 2.371094l-14.578125-10.519531c-1.296875-.683594-2.816406-.722656-4.152344-.125l-27.480469 11.679687-4.527343 1.925782c-2.171875 1.660156-5.1875 1.636718-7.328125-.039063l-3.679688-1.605469-27.480468-11.960937c-1.335938-.597656-2.855469-.558594-4.160157.125l-14.570312 10.519531c-2.183594 2.011719-5.941407.644532-5.984375-2.371094-.175782-15.4375 6.957031-23.855468 15.253906-28.421874h.007812c4.796876-1.84375 9.808594-3.242188 14.996094-4.132813 3.175782-.558594 6.417969-.921875 9.722656-1.074219v18.171875l12.214844 13.761719 4.796875 5.394531c1.117188 1.976563 3.953125 2.007813 5.125.070313 0-.011719.011719-.019532.011719-.019532l5.601562-6.039062 12.214844-13.167969v-18.171875c2.757813.121094 5.46875.402344 8.140625.804688 5.726563.871094 11.265625 2.351562 16.527344 4.371094l.007813.011718c8.316406 4.554688 15.480468 12.960938 15.304687 28.441406zm0 0" fill="#c8bebc"/><path d="m424.070312 445.8125v66.1875h-15.535156v-65.59375l4.796875 5.394531c1.117188 1.976563 3.953125 2.007813 5.125.070313 0-.011719.011719-.019532.011719-.019532zm0 0" fill="#c8bebc"/><path d="m396.320312 392.582031v40.0625c14.351563 16.164063 10.84375 12.214844 17.011719 19.15625 1.117188 1.976563 3.953125 2.007813 5.125.070313 0-.011719 17.820313-19.21875 17.828125-19.226563v-40.0625c-3.0625-.167969-37.125-.15625-39.964844 0zm0 0" fill="#f2d1a5"/><path d="m428.105469 411.488281c-4.730469 1.90625-8.863281 2.941407-11.800781 2.941407-14.851563 0-59.921876-26.289063-59.921876-58.730469v-105.046875c0-10.707032 8.6875-19.382813 19.394532-19.382813h23.605468c-10.707031 0-19.394531 8.675781-19.394531 19.382813v105.046875c0 26.011719 28.984375 48.066406 48.117188 55.789062zm0 0" fill="#f2bb88"/><path d="m492.324219 255.273438v36.527343c0 3.148438-2.816407 5.695313-6.285157 5.695313h-139.472656c-3.46875 0-6.285156-2.546875-6.285156-5.695313v-36.527343c0-.4375.007812-.871094.019531-1.316407.757813-23.734375 22.675781-42.421875 48.863281-42.421875h54.277344c26.199219 0 48.105469 18.6875 48.863282 42.421875.011718.445313.019531.878907.019531 1.316407zm0 0" fill="#fdc202"/><path d="m364.199219 255.273438v36.527343c0 3.148438 2.816406 5.695313 6.285156 5.695313h-23.917969c-3.46875 0-6.285156-2.546875-6.285156-5.695313v-36.527343c0-.4375.007812-.871094.019531-1.316407.757813-23.734375 22.675781-42.421875 48.863281-42.421875h23.917969c-26.1875 0-48.105469 18.6875-48.863281 42.421875-.007812.445313-.019531.878907-.019531 1.316407zm0 0" fill="#f0a70a"/><path d="m375.621094 268.578125v28.917969h-15.53125v-28.917969c0-4.296875 3.476562-7.765625 7.765625-7.765625 4.285156 0 7.765625 3.46875 7.765625 7.765625zm0 0" fill="#e38803"/><path d="m407.914062 268.578125v28.917969h-15.53125v-28.917969c0-4.296875 3.480469-7.765625 7.765626-7.765625 4.296874 0 7.765624 3.46875 7.765624 7.765625zm0 0" fill="#e38803"/><path d="m440.222656 268.578125v28.917969h-15.53125v-28.917969c0-4.296875 3.476563-7.765625 7.765625-7.765625 4.285157 0 7.765625 3.46875 7.765625 7.765625zm0 0" fill="#e38803"/><path d="m472.515625 268.578125v28.917969h-15.53125v-28.917969c0-4.296875 3.480469-7.765625 7.765625-7.765625 4.289062 0 7.765625 3.46875 7.765625 7.765625zm0 0" fill="#e38803"/><path d="m428.253906 350.601562c-4.289062 0-7.765625 3.476563-7.765625 7.765626 0 2.304687-1.878906 4.183593-4.183593 4.183593-2.308594 0-4.183594-1.878906-4.183594-4.183593 0-4.289063-3.476563-7.765626-7.765625-7.765626-4.292969 0-7.765625 3.476563-7.765625 7.765626 0 10.871093 8.84375 19.714843 19.714844 19.714843 10.871093 0 19.714843-8.84375 19.714843-19.714843 0-4.289063-3.476562-7.765626-7.765625-7.765626zm0 0" fill="#ca7400"/><path d="m454.109375 331.949219c0 3.917969-3.179687 7.097656-7.097656 7.097656-3.921875 0-7.101563-3.179687-7.101563-7.097656 0-3.921875 3.179688-7.101563 7.101563-7.101563 3.917969 0 7.097656 3.179688 7.097656 7.101563zm0 0" fill="#ca7400"/><path d="m392.695312 331.949219c0 3.917969-3.175781 7.097656-7.097656 7.097656s-7.097656-3.179687-7.097656-7.097656c0-3.921875 3.175781-7.101563 7.097656-7.101563s7.097656 3.179688 7.097656 7.101563zm0 0" fill="#ca7400"/><path d="m464.929688 311.316406c-10.652344-6.699218-27.214844-3.503906-29.070313-3.117187-4.199219.875-6.890625 4.988281-6.015625 9.1875s4.992188 6.890625 9.183594 6.015625c3.753906-.78125 13.398437-1.597656 17.636718 1.0625 1.28125.808594 2.710938 1.191406 4.125 1.191406 2.578126 0 5.105469-1.285156 6.578126-3.632812 2.285156-3.632813 1.191406-8.425782-2.4375-10.707032zm0 0" fill="#ca7400"/><path d="m402.765625 317.386719c.875-4.199219-1.816406-8.3125-6.019531-9.1875-1.851563-.390625-18.414063-3.582031-29.066406 3.117187-3.632813 2.28125-4.726563 7.074219-2.441407 10.707032 1.476563 2.347656 4 3.632812 6.582031 3.632812 1.410157 0 2.839844-.386719 4.125-1.191406 4.226563-2.65625 13.710938-1.863282 17.644532-1.058594 4.199218.867188 8.300781-1.828125 9.175781-6.019531zm0 0" fill="#ca7400"/><path d="m485.894531 482.363281h-38.15625c-4.289062 0-7.765625 3.476563-7.765625 7.765625 0 4.289063 3.476563 7.765625 7.765625 7.765625h38.15625c4.289063 0 7.765625-3.476562 7.765625-7.765625 0-4.289062-3.476562-7.765625-7.765625-7.765625zm0 0" fill="#c8bebc"/><path d="m384.84375 482.363281h-38.152344c-4.289062 0-7.765625 3.476563-7.765625 7.765625 0 4.289063 3.476563 7.765625 7.765625 7.765625h38.152344c4.292969 0 7.765625-3.476562 7.765625-7.765625 0-4.289062-3.472656-7.765625-7.765625-7.765625zm0 0" fill="#c8bebc"/><path d="m63.800781 339.257812c0 12.472657-10.113281 22.589844-22.589843 22.589844-12.476563 0-22.589844-10.117187-22.589844-22.589844 0-12.476562 10.113281-22.589843 22.589844-22.589843 12.476562 0 22.589843 10.113281 22.589843 22.589843zm0 0" fill="#e3a76f"/><path d="m176.910156 339.257812c0 12.476563-10.113281 22.589844-22.585937 22.589844-12.476563 0-22.589844-10.113281-22.589844-22.589844 0-12.472656 10.113281-22.585937 22.589844-22.585937 12.472656 0 22.585937 10.113281 22.585937 22.585937zm0 0" fill="#f2bb88"/><path d="m137.109375 230.921875h-81.058594c-10.707031 0-19.390625 8.679687-19.390625 19.386719v105.042968c0 32.433594 45.078125 58.730469 59.917969 58.730469h.003906c14.84375 0 59.917969-26.296875 59.917969-58.730469v-105.042968c0-10.707032-8.679688-19.386719-19.390625-19.386719zm0 0" fill="#f2bb88"/><path d="m192.667969 494.121094c0 9.660156-7.828125 17.527344-17.53125 17.527344h-157.105469c-9.683594 0-17.53125-7.847657-17.53125-17.527344 0-44.234375 35.847656-80.101563 80.101562-80.101563h31.964844c44.027344 0 80.101563 35.636719 80.101563 80.101563zm0 0" fill="#fff5f4"/><path d="m24.097656 494.121094c0 9.679687 7.847656 17.527344 17.539063 17.527344h-23.605469c-9.683594 0-17.53125-7.847657-17.53125-17.527344 0-44.234375 35.847656-80.101563 80.101562-80.101563h23.609376c-44.253907 0-80.113282 35.867188-80.113282 80.101563zm0 0" fill="#ebe0da"/><path d="m156.542969 447.753906c-.042969 3.011719-3.800781 4.378906-5.984375 2.371094l-14.582032-10.519531c-1.292968-.683594-2.816406-.726563-4.152343-.125l-27.480469 11.679687-4.523438 1.925782c-2.175781 1.65625-5.1875 1.636718-7.332031-.042969l-3.675781-1.605469-27.480469-11.957031c-1.335937-.601563-2.855469-.558594-4.160156.125l-14.570313 10.519531c-2.183593 2.007812-5.945312.640625-5.984374-2.371094-.175782-15.441406 6.957031-23.859375 15.25-28.425781h.011718c4.792969-1.839844 9.804688-3.238281 14.992188-4.128906 3.179687-.558594 6.421875-.921875 9.722656-1.078125v18.171875l12.21875 13.761719 4.792969 5.394531c1.121093 1.976562 3.957031 2.007812 5.128906.074219 0-.011719.007813-.023438.007813-.023438l5.601562-6.035156 12.21875-13.171875v-18.171875c2.753906.125 5.46875.402344 8.140625.808594 5.726563.867187 11.265625 2.351562 16.523437 4.367187l.011719.011719c8.3125 4.554687 15.480469 12.964844 15.304688 28.445312zm0 0" fill="#c8bebc"/><path d="m104.34375 445.464844v66.183594h-15.53125v-65.59375l4.792969 5.394531c1.121093 1.976562 3.957031 2.007812 5.128906.074219 0-.011719.007813-.023438.007813-.023438zm0 0" fill="#c8bebc"/><path d="m76.59375 392.230469v40.0625c14.355469 16.164062 10.847656 12.21875 17.011719 19.15625 1.121093 1.976562 3.957031 2.007812 5.128906.074219 0-.015626 17.820313-19.21875 17.828125-19.230469v-40.0625c-3.066406-.167969-37.125-.152344-39.96875 0zm0 0" fill="#f2bb88"/><path d="m108.382812 411.140625c-4.730468 1.902344-8.863281 2.9375-11.804687 2.9375-14.847656 0-59.921875-26.289063-59.921875-58.730469v-105.042968c0-10.707032 8.6875-19.382813 19.394531-19.382813h23.609375c-10.707031 0-19.394531 8.675781-19.394531 19.382813v105.042968c0 26.011719 28.984375 48.066406 48.117187 55.792969zm0 0" fill="#e3a76f"/><path d="m108.53125 350.25c-4.289062 0-7.765625 3.476562-7.765625 7.765625 0 2.308594-1.878906 4.183594-4.1875 4.183594-2.304687 0-4.183594-1.875-4.183594-4.183594 0-4.289063-3.476562-7.765625-7.765625-7.765625-4.289062 0-7.765625 3.476562-7.765625 7.765625 0 10.871094 8.84375 19.714844 19.714844 19.714844 10.875 0 19.71875-8.84375 19.71875-19.714844 0-4.289063-3.476563-7.765625-7.765625-7.765625zm0 0" fill="#ca7400"/><path d="m134.386719 331.597656c0 3.921875-3.179688 7.097656-7.097657 7.097656-3.921874 0-7.101562-3.175781-7.101562-7.097656s3.179688-7.097656 7.101562-7.097656c3.917969 0 7.097657 3.175781 7.097657 7.097656zm0 0" fill="#ca7400"/><path d="m72.972656 331.597656c0 3.921875-3.179687 7.097656-7.097656 7.097656-3.921875 0-7.101562-3.175781-7.101562-7.097656s3.179687-7.097656 7.101562-7.097656c3.917969 0 7.097656 3.175781 7.097656 7.097656zm0 0" fill="#ca7400"/><path d="m145.203125 310.964844c-10.652344-6.699219-27.214844-3.503906-29.066406-3.117188-4.199219.875-6.894531 4.988282-6.019531 9.1875.875 4.199219 4.996093 6.890625 9.1875 6.019532 3.75-.785157 13.398437-1.601563 17.632812 1.0625 1.285156.804687 2.714844 1.191406 4.125 1.191406 2.582031 0 5.109375-1.289063 6.582031-3.636719 2.285157-3.628906 1.191407-8.421875-2.441406-10.707031zm0 0" fill="#ca7400"/><path d="m83.042969 317.035156c.875-4.199218-1.820313-8.3125-6.019531-9.1875-1.851563-.386718-18.414063-3.582031-29.066407 3.117188-3.632812 2.285156-4.726562 7.078125-2.441406 10.707031 1.472656 2.347656 4 3.632813 6.578125 3.632813 1.414062 0 2.84375-.382813 4.125-1.191407 4.230469-2.65625 13.714844-1.859375 17.648438-1.058593 4.199218.871093 8.300781-1.824219 9.175781-6.019532zm0 0" fill="#ca7400"/><path d="m185.011719 288.144531c8.347656-12.839843 2.585937-30.289062-11.925781-35.554687 4.472656-15.75-7.773438-31.570313-24.753907-30.476563-5.394531-14.964843-23.503906-20.496093-36.304687-11.480469-8.839844-7.386718-21.761719-7.46875-30.703125 0-12.800781-9.015624-30.90625-3.484374-36.304688 11.480469-16.957031-1.09375-29.230469 14.707031-24.75 30.476563-14.511719 5.265625-20.2773435 22.714844-11.925781 35.554687-3.535156 4.179688-5.675781 9.574219-5.675781 15.476563 0 13.234375 10.722656 23.957031 23.957031 23.957031 3.589844 0 6.992188-.789063 10.050781-2.199219v-32.121094c15.347657 6.175782 31.925781-6.421874 29.796875-23.066406 6.003906-1.863281 10.894532-6.253906 13.433594-11.925781 7.285156 15.457031 25.613281 21.980469 40.914062 14.925781 3.484376 10.117188 13.078126 17.390625 24.378907 17.390625 4.085937 0 7.949219-.953125 11.378906-2.644531.179687 3.144531.066406 1.878906.101563 37.441406 3.054687 1.410156 6.457031 2.199219 10.046874 2.199219 20.511719 0 31.320313-24.027344 18.285157-39.433594zm0 0" fill="#a86000"/><path d="m146.03125 217.40625c-4.847656-.09375-9.785156 1.292969-14.113281 4.339844-8.84375-7.382813-21.765625-7.464844-30.703125 0-12.804688-9.007813-30.90625-3.480469-36.3125 11.480468-16.949219-1.085937-29.230469 14.714844-24.746094 30.484376-14.515625 5.261718-20.273438 22.707031-11.929688 35.546874-3.527343 4.183594-5.671874 9.578126-5.671874 15.480469 0 4.722657 1.367187 9.121094 3.726562 12.828125-13.078125-.175781-23.617188-10.828125-23.617188-23.949218 0-5.902344 2.140626-11.296876 5.683594-15.46875-8.3554685-12.839844-2.589844-30.289063 11.917969-35.558594-4.472656-15.769532 7.796875-31.570313 24.757813-30.484375 5.394531-14.960938 23.503906-20.488281 36.300781-11.472657 8.9375-7.464843 21.859375-7.390624 30.703125 0 11.347656-8 26.878906-4.554687 34.003906 6.773438zm0 0" fill="#7c3f2c"/><path d="m166.183594 482.363281h-38.152344c-4.289062 0-7.765625 3.476563-7.765625 7.765625 0 4.289063 3.476563 7.765625 7.765625 7.765625h38.152344c4.292968 0 7.765625-3.476562 7.765625-7.765625 0-4.289062-3.472657-7.765625-7.765625-7.765625zm0 0" fill="#c8bebc"/><path d="m65.136719 482.363281h-38.152344c-4.289063 0-7.765625 3.476563-7.765625 7.765625 0 4.289063 3.476562 7.765625 7.765625 7.765625h38.152344c4.289062 0 7.765625-3.476562 7.765625-7.765625 0-4.289062-3.476563-7.765625-7.765625-7.765625zm0 0" fill="#c8bebc"/></svg>