<svg height="512pt" viewBox="0 0 512 512" width="512pt" xmlns="http://www.w3.org/2000/svg"><path d="m502 476v26h-160v-26c0-44.179688 35.820312-80 80-80s80 35.820312 80 80zm0 0" fill="#5c9cee"/><path d="m472 326c0 27.613281-22.386719 50-50 50s-50-22.386719-50-50 22.386719-50 50-50 50 22.386719 50 50zm0 0" fill="#5c9cee"/><path d="m256 130c-44.183594 0-80 35.828125-80 80v46h160v-46c0-44.28125-35.90625-80-80-80zm0 0" fill="#656d88"/><path d="m306 60c0 27.613281-22.386719 50-50 50s-50-22.386719-50-50 22.386719-50 50-50 50 22.386719 50 50zm0 0" fill="#656d88"/><path d="m170 476v26h-160v-26c0-44.179688 35.820312-80 80-80s80 35.820312 80 80zm0 0" fill="#5c9cee"/><path d="m140 326c0 27.613281-22.386719 50-50 50s-50-22.386719-50-50 22.386719-50 50-50 50 22.386719 50 50zm0 0" fill="#5c9cee"/><path d="m266 210c0 5.523438-4.476562 10-10 10s-10-4.476562-10-10 4.476562-10 10-10 10 4.476562 10 10zm0 0"/><path d="m0 476v26c0 5.523438 4.476562 10 10 10h160c5.523438 0 10-4.476562 10-10v-26c0-49.539062-40.082031-90-90-90-49.625 0-90 40.375-90 90zm90-70c38.523438 0 70 31.167969 70 70v16h-140v-16c0-38.597656 31.402344-70 70-70zm0 0"/><path d="m422 386c-49.625 0-90 40.375-90 90v26c0 5.523438 4.476562 10 10 10h160c5.523438 0 10-4.476562 10-10v-26c0-49.539062-40.082031-90-90-90zm70 106h-140v-16c0-38.597656 31.402344-70 70-70 38.523438 0 70 31.167969 70 70zm0 0"/><path d="m482 326c0-29.675781-21.660156-54.375-50-59.152344v-56.847656c0-16.542969-13.457031-30-30-30h-61.136719c-12.238281-34.59375-45.203125-60-84.863281-60-38.445312 0-72.296875 24.304688-84.875 60h-61.125c-16.542969 0-30 13.457031-30 30v56.847656c-28.339844 4.777344-50 29.476563-50 59.152344 0 33.085938 26.914062 60 60 60s60-26.914062 60-60c0-29.675781-21.660156-54.375-50-59.152344v-56.847656c0-5.515625 4.484375-10.011719 10-10.011719h56.5625c-.367188 3.316407-.5625 6.667969-.5625 10.011719v46c0 5.523438 4.476562 10 10 10h160c5.523438 0 10-4.476562 10-10v-46c0-3.34375-.195312-6.683594-.5625-10h56.5625c5.515625 0 10 4.484375 10 10v56.847656c-28.339844 4.777344-50 29.476563-50 59.152344 0 33.085938 26.914062 60 60 60s60-26.914062 60-60zm-352 0c0 22.054688-17.945312 40-40 40s-40-17.945312-40-40 17.945312-40 40-40 40 17.945312 40 40zm196-80h-140v-36c0-5.917969.742188-11.8125 2.203125-17.507812 7.113281-27.632813 30.15625-47.796876 57.796875-51.765626v29.273438c0 5.523438 4.476562 10 10 10s10-4.476562 10-10v-29.285156c28.363281 4.035156 50.898438 24.984375 57.796875 51.777344 1.460937 5.703124 2.203125 11.59375 2.203125 17.507812zm96 120c-22.054688 0-40-17.945312-40-40s17.945312-40 40-40 40 17.945312 40 40-17.945312 40-40 40zm0 0"/><path d="m316 60c0-33.085938-26.914062-60-60-60s-60 26.914062-60 60 26.914062 60 60 60 60-26.914062 60-60zm-60 40c-22.054688 0-40-17.945312-40-40s17.945312-40 40-40 40 17.945312 40 40-17.945312 40-40 40zm0 0"/></svg>