<svg height="511pt" viewBox="0 -1 511.99978 511" width="511pt" xmlns="http://www.w3.org/2000/svg"><path d="m201.929688 490.714844c0 5.078125-2.058594 9.695312-5.386719 13.023437-3.339844 3.339844-7.949219 5.398438-13.035157 5.398438h-165.085937c-10.183594 0-18.421875-8.25-18.421875-18.421875 0-33.925782 20.03125-63.09375 48.855469-76.417969 10.742187-4.980469 22.703125-7.757813 35.3125-7.757813h34.042969c11.105468.0625 21.714843 2.265626 31.410156 6.242188.957031.382812 1.894531.789062 2.828125 1.214844.875.394531 1.75.8125 2.601562 1.238281 27.855469 13.75 46.878907 42.5 46.878907 75.480469zm0 0" fill="#fff5f4"/><path d="m118.210938 406.539062c-10.039063.011719-22.707032.300782-38.703126 6.242188-33.492187 12.429688-57.675781 42.382812-57.675781 77.933594 0 10.109375 9.027344 18.421875 20.304688 18.421875h-23.714844c-10.183594 0-18.421875-8.25-18.421875-18.421875 0-33.925782 20.03125-63.09375 48.855469-76.417969 10.742187-4.980469 22.703125-7.757813 35.3125-7.757813zm0 0" fill="#ebe0da"/><path d="m163.976562 441.050781c-.042968 3.203125-3.996093 4.660157-6.292968 2.527344l-15.3125-11.210937c-1.363282-.71875-2.964844-.773438-4.367188-.125l-29.207031 12.582031v64.3125h-15.601563v-63.976563l-29.269531-12.917968c-1.402343-.648438-3.003906-.59375-4.367187.125l-15.3125 11.210937c-2.308594 2.132813-6.25.675781-6.292969-2.527344-.144531-13.09375 4.578125-21.449219 10.902344-26.753906 10.742187-4.980469 22.703125-7.757813 35.3125-7.757813h33.59375c11.277343 0 22.042969 2.214844 31.859375 6.242188.957031.382812 1.894531.789062 2.828125 1.214844.875.394531 1.75.8125 2.601562 1.238281 5.261719 5.792969 9.050781 14.363281 8.925781 25.816406zm0 0" fill="#c8bebc"/><path d="m174.160156 477.929688h-40.105468c-4.308594 0-7.800782 3.539062-7.800782 7.90625 0 4.371093 3.492188 7.910156 7.800782 7.910156h40.105468c4.308594 0 7.800782-3.539063 7.800782-7.910156 0-4.367188-3.492188-7.90625-7.800782-7.90625zm0 0" fill="#c8bebc"/><path d="m67.9375 477.929688h-40.105469c-4.308593 0-7.800781 3.539062-7.800781 7.90625 0 4.371093 3.492188 7.910156 7.800781 7.910156h40.105469c4.308594 0 7.800781-3.539063 7.800781-7.910156 0-4.367188-3.492187-7.90625-7.800781-7.90625zm0 0" fill="#c8bebc"/><path d="m79.957031 380.226562v45.515626l17.882813 20.128906c1.175781 2.074218 4.148437 2.105468 5.378906.074218.007812-.007812.011719-.019531.019531-.027343l18.71875-20.175781v-45.515626zm0 0" fill="#f2d1a5"/><path d="m66.539062 327.910156c0 13.117188-10.632812 23.75-23.75 23.75-13.113281 0-23.746093-10.632812-23.746093-23.75 0-13.113281 10.632812-23.746094 23.746093-23.746094 13.117188 0 23.75 10.632813 23.75 23.746094zm0 0" fill="#f2d1a5"/><path d="m185.441406 327.917969c0 13.113281-10.628906 23.746093-23.746094 23.746093-13.113281 0-23.746093-10.632812-23.746093-23.746093 0-13.117188 10.632812-23.75 23.746093-23.75 13.117188 0 23.746094 10.632812 23.746094 23.75zm0 0" fill="#f2d1a5"/><path d="m163.984375 234.410156v110.417969c0 17.058594-11.847656 32.492187-25.640625 43.664063-6.28125 5.085937-12.980469 9.289062-19.136719 12.367187-7.363281 3.660156-13.96875 5.710937-18.214843 5.710937-15.601563 0-62.988282-27.636718-62.988282-61.742187v-110.417969c0-11.257812 9.132813-20.386718 20.386719-20.386718h85.21875c11.253906 0 20.375 9.128906 20.375 20.386718zm0 0" fill="#ffe4c2"/><path d="m227.984375 264.289062v123.179688c0 11.316406 14.726563 15.691406 20.90625 6.210938l60.742187-93.1875zm0 0" fill="#cb353c"/><path d="m480.871094 221.335938c19.6875 28.5625 1.414062 67.605468-32.535156 71.476562-4.203126 26.035156-32.628907 40.574219-56.210938 28.707031-10.285156 9.933594-25.503906 15.394531-41.230469 16.445313-5.199219.34375-10.453125.207031-15.601562-.417969-15.007813-1.789063-29.113281-7.675781-38.390625-17.585937-.074219.039062-.144532.09375-.21875.125-23.515625 14.183593-54.375.152343-58.796875-27.261719-34.335938-3.890625-52.089844-43.136719-32.535157-71.488281-47.242187-29.03125-39.109374-100.195313 13.519532-117.703126-15.464844-34.125 14.730468-71.964843 51.902344-63.550781.0625-.070312.136718-.132812.199218-.207031 14.726563-23.664062 38.960938-36.664062 64.125-38.992188.0625-.011718.132813-.011718.195313-.023437h.03125c5.179687-.46875 10.390625-.476563 15.570312-.039063 6.042969.507813 12.046875 1.632813 17.871094 3.367188 18.742187 5.585938 35.757813 17.527344 47.097656 35.8125 37.058594-8.039062 66.867188 29.675781 51.472657 63.632812 52.621093 17.507813 60.796874 88.660157 13.535156 117.703126zm0 0" fill="#f64346"/><path d="m416.007812 232.746094c0 4.304687-3.496093 7.800781-7.800781 7.800781h-32.773437c-13.511719 0-24.507813 10.992187-24.507813 24.503906 0 .230469-.007812.449219-.03125.667969v72.246094c-5.199219.34375-10.453125.207031-15.601562-.417969v-115.847656c0-13.511719-10.992188-24.503907-24.503907-24.503907h-32.765624c-4.304688 0-7.800782-3.496093-7.800782-7.800781 0-4.308593 3.496094-7.800781 7.800782-7.800781h32.765624c9.226563 0 17.722657 3.140625 24.503907 8.390625v-66.316406c-22.664063-1.894531-40.53125-20.9375-40.53125-44.082031 0-4.316407 3.492187-7.800782 7.800781-7.800782 4.316406 0 7.800781 3.484375 7.800781 7.800782 0 14.53125 10.890625 26.566406 24.929688 28.398437v-107.125h.03125c5.179687-.46875 10.390625-.476563 15.570312-.039063v148.570313c14.0625-1.820313 24.953125-13.867187 24.953125-28.40625 0-4.304687 3.496094-7.800781 7.800782-7.800781 4.316406 0 7.800781 3.496094 7.800781 7.800781 0 23.152344-17.890625 42.199219-40.554688 44.089844v68.285156c6.792969-5.261719 15.300781-8.414063 24.539063-8.414063h32.773437c4.304688 0 7.800781 3.492188 7.800781 7.800782zm0 0" fill="#b22929"/><path d="m335.324219.859375c-.007813.011719-.019531.023437-.03125.023437-13.136719 9.878907-23.964844 22.851563-31.464844 37.878907-35.996094 11.898437-57.109375 42.15625-41.28125 71.125-60.222656 16.609375-69.53125 84.132812-15.464844 111.675781-21.875 26.296875-2.953125 62.460938 34.605469 67.535156 3.085938 11.089844 8.195312 21.511719 14.996094 30.988282-23.515625 14.183593-54.375.152343-58.796875-27.261719-34.335938-3.890625-52.089844-43.136719-32.535157-71.488281-47.242187-29.03125-39.109374-100.195313 13.519532-117.703126-15.464844-34.125 14.730468-71.964843 51.902344-63.550781.0625-.070312.136718-.132812.199218-.207031 14.726563-23.664062 38.960938-36.664062 64.125-38.992188.0625-.011718.132813-.011718.195313-.023437zm0 0" fill="#cb353c"/><path d="m119.207031 400.859375c-7.363281 3.660156-13.96875 5.710937-18.210937 5.710937-15.601563 0-62.988282-27.636718-62.988282-61.742187v-110.417969c0-11.253906 9.128907-20.386718 20.382813-20.386718h36.40625c-11.253906 0-20.386719 9.132812-20.386719 20.386718v110.417969c0 24.828125 25.109375 46.222656 44.796875 56.03125zm0 0" fill="#f2d1a5"/><path d="m170.003906 280.84375h-22.9375c-11.738281 0-21.253906-9.515625-21.253906-21.253906v-25.527344c0-11.734375 9.515625-21.25 21.253906-21.25h5.628906c11.738282 0 21.253907 9.515625 21.253907 21.25v42.835938c0 2.179687-1.765625 3.945312-3.945313 3.945312zm0 0" fill="#b96a00"/><path d="m161.695312 205.960938v8.769531c0 8.621093-2.964843 17.328125-8.414062 25.554687-16.921875 25.640625-57.851562 46.703125-108.039062 46.242188h-11.449219c-6.429688 0-11.652344-5.09375-11.652344-11.367188v-38.378906c0-14.707031 9.164063-27.347656 22.238281-32.777344 4.410156-1.828125 9.257813-2.839844 14.34375-2.839844h98.0625c2.714844 0 4.910156 2.144532 4.910156 4.796876zm0 0" fill="#db7d00"/><g fill="#ca7400"><path d="m153.28125 240.285156c-16.921875 25.640625-57.851562 46.703125-108.035156 46.246094h-11.453125c-6.425781 0-11.648438-5.097656-11.648438-11.371094v-38.378906c0-14.707031 9.164063-27.34375 22.238281-32.773438-1.476562 3.859376-2.277343 8.027344-2.277343 12.386719v38.371094c0 6.28125 5.21875 11.367187 11.648437 11.367187h11.441406c35.894532.332032 67.054688-10.347656 88.085938-25.847656zm0 0"/><path d="m113.558594 339.832031c-4.308594 0-7.800782 3.492188-7.800782 7.800781 0 2.625-2.136718 4.761719-4.761718 4.761719s-4.761719-2.136719-4.761719-4.761719c0-4.308593-3.492187-7.800781-7.800781-7.800781s-7.800782 3.492188-7.800782 7.800781c0 11.226563 9.136719 20.363282 20.363282 20.363282 11.226562 0 20.363281-9.136719 20.363281-20.363282 0-4.308593-3.492187-7.800781-7.800781-7.800781zm0 0"/><path d="m140.738281 319.863281c0 4.121094-3.339843 7.460938-7.464843 7.460938-4.121094 0-7.460938-3.339844-7.460938-7.460938 0-4.125 3.339844-7.464843 7.460938-7.464843 4.125 0 7.464843 3.339843 7.464843 7.464843zm0 0"/><path d="m76.179688 319.863281c0 4.121094-3.339844 7.460938-7.460938 7.460938s-7.464844-3.339844-7.464844-7.460938c0-4.125 3.34375-7.464843 7.464844-7.464843s7.460938 3.339843 7.460938 7.464843zm0 0"/><path d="m151.917969 298.480469c-11.082031-6.964844-28.359375-3.632813-30.289063-3.230469-4.21875.878906-6.925781 5.011719-6.046875 9.230469.878907 4.214843 5.015625 6.917969 9.230469 6.042969 4.152344-.867188 14.214844-1.71875 18.800781 1.164062 1.292969.8125 2.726563 1.199219 4.144531 1.199219 2.59375 0 5.132813-1.292969 6.613282-3.648438 2.292968-3.648437 1.195312-8.464843-2.453125-10.757812zm0 0"/><path d="m86.410156 304.476562c.878906-4.214843-1.828125-8.347656-6.046875-9.226562-1.933593-.402344-19.210937-3.738281-30.289062 3.230469-3.648438 2.292969-4.746094 7.109375-2.453125 10.753906 1.480468 2.359375 4.019531 3.652344 6.609375 3.652344 1.421875 0 2.855469-.386719 4.144531-1.199219 4.539062-2.851562 14.640625-2.015625 18.820312-1.160156 4.214844.867187 8.335938-1.835938 9.214844-6.050782zm0 0"/></g></svg>