<svg height="509pt" viewBox="-78 0 509 509.47473" width="509pt" xmlns="http://www.w3.org/2000/svg"><path d="m352.238281 125.476562v64h-304v-157.441406c0-23.488281 24.464844-38.976562 45.695313-28.914062zm0 0" fill="#bcaaa4"/><path d="m284.71875 93.476562h-236.480469v96h304v-64zm0 0" fill="#a1887f"/><path d="m352.238281 509.476562h-320c-17.679687 0-32-14.320312-32-32v-320c0-17.683593 14.320313-32 32-32h320zm0 0" fill="#ff668b"/><path d="m256.238281 349.476562h-160c-17.679687 0-32-14.320312-32-32v-96c0-17.683593 14.320313-32 32-32h160c17.679688 0 32 14.316407 32 32v96c0 17.679688-14.320312 32-32 32zm0 0" fill="#e4edfb"/><path d="m128.238281 253.476562h96v32h-96zm0 0" fill="#5f90ff"/></svg>