<svg height="512pt" viewBox="0 0 512 512.00393" width="512pt" xmlns="http://www.w3.org/2000/svg"><path d="m290.976562 512.003906h-258.972656c-17.683594 0-31.99999975-14.320312-31.99999975-32v-375.265625c0-17.679687 14.31640575-32 31.99999975-32h253.023438l183.488281-70.574219c20.957031-8.0625 43.488281 7.40625 43.488281 29.871094v372.976563c0 13.25-8.160156 25.121093-20.515625 29.871093zm0 0" fill="#8bc34a"/><g fill="#fff"><path d="m64.003906 192.003906h64v32h-64zm0 0"/><path d="m64.003906 256.003906h176v32h-176zm0 0"/><path d="m64.003906 320.003906h176v32h-176zm0 0"/><path d="m208.003906 416.003906h-32v-32h32zm-64 0h-80v-32h80zm0 0"/></g><path d="m288.003906 71.605469v440.398437h2.972656l200.511719-77.121094c12.355469-4.75 20.515625-16.640624 20.515625-29.871093v-372.976563c0-22.464844-22.53125-37.933594-43.488281-29.871094zm0 0" fill="#74b521"/><path d="m32.003906 104.738281h32v32h-32zm0 0" fill="#fff"/><path d="m96.003906 104.738281h32v32h-32zm0 0" fill="#fff"/></svg>