<svg height="512pt" viewBox="0 0 512.0015 512" width="512pt" xmlns="http://www.w3.org/2000/svg"><path d="m496.160156 354.6875c7.808594 7.808594 7.808594 20.46875 0 28.289062l-41.128906 41.128907c10.78125 3.609375 21.359375 9.796875 26.988281 15.425781 11.722657 11.722656 11.722657 30.710938 0 42.429688-11.707031 11.71875-30.707031 11.71875-42.425781 0-5.628906-5.628907-11.820312-16.21875-15.429688-26.988282l-41.128906 41.128906c-7.808594 7.808594-20.480468 7.808594-28.289062 0l-44.128906-44.128906c-3.609376 10.769532-9.796876 21.359375-15.4375 26.988282-11.710938 11.71875-30.710938 11.71875-42.417969 0-11.722657-11.71875-11.722657-30.707032 0-42.429688 5.628906-5.628906 16.207031-11.816406 26.988281-15.425781l-44.988281-44.929688c-7.808594-7.808593-7.808594-20.480469 0-28.289062l41.128906-41.128907c-10.78125-3.609374-21.359375-9.800781-26.988281-15.429687-11.722656-11.71875-11.722656-30.71875 0-42.425781 11.707031-11.722656 30.707031-11.722656 42.425781 0 5.628906 5.628906 11.820313 16.207031 15.429687 26.988281l41.128907-41.128906c7.808593-7.808594 20.480469-7.808594 28.289062 0l44.988281 44.929687c-10.78125 3.609375-21.359374 9.796875-26.988281 15.425782-11.71875 11.722656-11.71875 30.710937 0 42.429687 11.707031 11.710937 30.707031 11.710937 42.417969 0 5.640625-5.628906 11.828125-16.21875 15.4375-26.988281zm0 0" fill="#5c9cee"/><path d="m277.179688 135.765625c7.808593 7.808594 7.808593 20.480469 0 28.289063l-41.128907 41.128906c-3.609375-10.78125-9.800781-21.359375-15.4375-26.988282-11.710937-11.722656-30.710937-11.722656-42.417969 0-11.722656 11.707032-11.722656 30.707032 0 42.417969 5.628907 5.636719 16.207032 11.828125 26.988282 15.4375l-41.128906 41.128907c-7.808594 7.808593-20.480469 7.808593-28.289063 0l-44.929687-44.929688c-3.609376 10.78125-9.796876 21.359375-15.429688 26.992188-11.71875 11.71875-30.707031 11.71875-42.425781 0-11.71875-11.710938-11.71875-30.710938 0-42.421876 5.628906-5.628906 16.21875-11.828124 26.988281-15.4375l-44.128906-44.128906c-7.808594-7.808594-7.808594-20.46875 0-28.289062l41.128906-41.128906c-10.769531-3.609376-21.359375-9.796876-26.988281-15.429688-11.71875-11.71875-11.71875-30.707031 0-42.425781s30.707031-11.71875 42.425781 0c5.632812 5.628906 11.820312 16.21875 15.429688 26.988281l41.128906-41.128906c7.820312-7.808594 20.480468-7.808594 28.289062 0l44.128906 44.128906c3.609376-10.769531 9.808594-21.359375 15.4375-26.988281 11.710938-11.71875 30.710938-11.71875 42.421876 0 11.71875 11.71875 11.71875 30.707031 0 42.425781-5.632813 5.632812-16.210938 11.820312-26.992188 15.429688zm0 0" fill="#ed5575"/><path d="m330.539062 415.324219c-3.910156 3.910156-3.910156 10.238281 0 14.140625 3.898438 3.910156 10.238282 3.910156 14.136719 0 3.910157-3.902344 3.910157-10.230469 0-14.140625-3.898437-3.898438-10.238281-3.898438-14.136719 0zm0 0"/><path d="m110.757812 195.601562c-3.902343 3.910157-3.902343 10.242188 0 14.152344 3.910157 3.898438 10.238282 3.898438 14.136719 0 3.910157-3.910156 3.910157-10.242187 0-14.152344-3.898437-3.898437-10.226562-3.898437-14.136719 0zm0 0"/><path d="m459.101562 303.488281c-5.238281-5.242187-14.191406-3.148437-16.550781 3.894531-3.492187 10.417969-9.199219 19.269532-13.03125 23.09375-7.804687 7.808594-20.464843 7.8125-28.273437 0-7.800782-7.796874-7.800782-20.484374 0-28.285156 3.824218-3.828125 12.683594-9.53125 23.09375-13.019531 7.035156-2.355469 9.140625-11.3125 3.890625-16.558594l-44.984375-44.921875c-11.699219-11.695312-30.734375-11.695312-42.429688 0l-30.734375 30.734375c-3.507812-6.625-7.625-12.535156-11.683593-16.597656-15.625-15.625-40.9375-15.644531-56.566407-.003906-15.640625 15.628906-15.640625 40.9375-.003906 56.574219 4.0625 4.058593 9.972656 8.175781 16.597656 11.683593l-30.734375 30.734375c-11.722656 11.722656-11.730468 30.699219.003906 42.4375l34.582032 34.53125c-6.621094 3.507813-12.53125 7.621094-16.585938 11.679688-15.632812 15.625-15.640625 40.929687-.003906 56.566406 15.648438 15.65625 40.960938 15.617188 56.558594.007812 4.0625-4.054687 8.179687-9.972656 11.695312-16.601562l33.734375 33.734375c11.722657 11.722656 30.707031 11.726563 42.429688 0l30.738281-30.734375c3.507812 6.625 7.621094 12.539062 11.679688 16.597656 15.628906 15.628906 40.9375 15.640625 56.570312 0 15.597656-15.597656 15.597656-40.976562 0-56.570312-4.058594-4.058594-9.972656-8.171875-16.597656-11.683594l30.742187-30.738281c11.6875-11.703125 11.683594-30.734375-.007812-42.425781zm29.988282 72.417969-41.128906 41.125c-2.449219 2.449219-3.457032 5.992188-2.664063 9.363281.792969 3.371094 3.277344 6.089844 6.558594 7.191407 10.410156 3.484374 19.269531 9.191406 23.09375 13.019531 7.800781 7.796875 7.800781 20.488281 0 28.289062-7.8125 7.816407-20.464844 7.816407-28.285157-.003906-3.824218-3.824219-9.527343-12.679687-13.019531-23.097656-1.101562-3.28125-3.820312-5.761719-7.191406-6.554688-3.367187-.792969-6.914063.214844-9.359375 2.664063l-41.128906 41.125c-3.910156 3.910156-10.238282 3.910156-14.148438 0l-44.128906-44.125c-5.273438-5.273438-14.203125-3.113282-16.550781 3.890625-3.492188 10.421875-9.199219 19.273437-13.03125 23.101562-7.808594 7.816407-20.457031 7.820313-28.273438-.003906-7.820312-7.820313-7.824219-20.464844 0-28.285156 3.824219-3.828125 12.683594-9.535157 23.089844-13.019531 7.035156-2.359376 9.144531-11.3125 3.890625-16.558594l-44.980469-44.921875c-3.90625-3.910157-3.910156-10.238281 0-14.148438l41.128907-41.128906c5.238281-5.242187 3.144531-14.195313-3.898438-16.550781-10.40625-3.488282-19.265625-9.191406-23.09375-13.019532-7.800781-7.800781-7.839844-20.453124.003906-28.289062 7.8125-7.820312 20.460938-7.820312 28.285156 0 3.828126 3.828125 9.53125 12.6875 13.019532 23.09375 2.351562 7.03125 11.300781 9.148438 16.550781 3.898438l41.128906-41.128907c3.898438-3.902343 10.246094-3.902343 14.152344.003907l34.582031 34.535156c-6.621094 3.507812-12.53125 7.617187-16.585937 11.675781-15.597657 15.597656-15.597657 40.976563 0 56.570313 15.59375 15.59375 40.964843 15.59375 56.550781.003906 4.0625-4.054688 8.183594-9.96875 11.699219-16.601563l33.734375 33.734375c3.898437 3.902344 3.894531 10.25 0 14.152344zm0 0"/><path d="m213.546875 185.269531c3.828125 3.820313 9.535156 12.675781 13.023437 23.089844 2.351563 7.027344 11.300782 9.144531 16.550782 3.894531l41.128906-41.128906c11.722656-11.722656 11.726562-30.703125 0-42.429688l-34.535156-34.535156c6.625-3.507812 12.539062-7.621094 16.597656-11.679687 15.628906-15.628907 15.640625-40.929688 0-56.570313-15.621094-15.632812-40.933594-15.640625-56.5625 0-4.0625 4.0625-8.175781 9.976563-11.6875 16.597656l-33.738281-33.738281c-11.6875-11.691406-30.722657-11.691406-42.429688 0l-30.734375 30.734375c-3.511718-6.625-7.625-12.539062-11.679687-16.597656-15.597657-15.59375-40.976563-15.59375-56.570313 0-15.636718 15.636719-15.640625 40.933594 0 56.574219 4.054688 4.054687 9.96875 8.167969 16.597656 11.679687l-30.742187 30.738282c-11.6875 11.703124-11.6875 30.734374.003906 42.429687l33.738281 33.734375c-6.625 3.511719-12.535156 7.625-16.597656 11.6875-15.632812 15.621094-15.644531 40.933594 0 56.5625 15.632813 15.632812 40.929688 15.636719 56.566406 0 4.0625-4.0625 8.175782-9.972656 11.683594-16.597656l34.535156 34.535156c5.847657 5.847656 13.53125 8.773438 21.214844 8.773438s15.367188-2.925782 21.214844-8.773438l41.128906-41.128906c2.449219-2.449219 3.457032-5.988282 2.664063-9.359375-.792969-3.371094-3.277344-6.09375-6.5625-7.191407-10.410157-3.488281-19.265625-9.195312-23.09375-13.03125-7.714844-7.710937-7.914063-20.367187.003906-28.277343 7.808594-7.8125 20.453125-7.824219 28.28125.007812zm-42.429687 42.40625c4.125 4.132813 9.976562 8.226563 16.582031 11.71875l-30.714844 30.714844c-3.902344 3.898437-10.246094 3.898437-14.148437 0l-44.925782-44.929687c-5.277344-5.277344-14.210937-3.101563-16.554687 3.898437-3.484375 10.40625-9.191407 19.265625-13.019531 23.089844-7.816407 7.820312-20.460938 7.828125-28.289063 0-7.8125-7.808594-7.820313-20.457031.003906-28.273438 3.832031-3.832031 12.691407-9.542969 23.09375-13.027343 7.015625-2.351563 9.15625-11.292969 3.894531-16.554688l-44.128906-44.128906c-3.898437-3.898438-3.894531-10.246094 0-14.144532l41.128906-41.128906c5.242188-5.238281 3.148438-14.191406-3.894531-16.550781-10.414062-3.492187-19.269531-9.195313-23.09375-13.023437-7.820312-7.816407-7.820312-20.464844 0-28.285157 7.796875-7.800781 20.488281-7.800781 28.285157 0 3.824218 3.824219 9.527343 12.683594 13.019531 23.097657 2.355469 7.027343 11.300781 9.144531 16.550781 3.894531l41.125-41.125c3.90625-3.902344 10.253906-3.902344 14.152344-.003907l44.128906 44.128907c5.242188 5.238281 14.191406 3.144531 16.550781-3.894531 3.484375-10.40625 9.199219-19.265626 13.03125-23.101563 7.808594-7.8125 20.457031-7.816406 28.273438.003906 7.820312 7.820313 7.820312 20.464844 0 28.285157-3.828125 3.828124-12.6875 9.535156-23.09375 13.019531-7.019531 2.351562-9.152344 11.296875-3.894531 16.554687l44.929687 44.929688c3.90625 3.90625 3.90625 10.238281 0 14.144531l-30.738281 30.734375c-3.511719-6.625-7.625-12.539062-11.6875-16.59375-15.617188-15.628906-40.929688-15.644531-56.558594-.003906-15.65625 15.644531-15.621094 40.957031-.007812 56.554687zm0 0"/><path d="m65.328125 136.042969c-3.90625-3.90625-10.238281-3.902344-14.140625 0-3.90625 3.90625-3.902344 10.238281 0 14.144531l31.289062 31.277344c3.90625 3.90625 10.238282 3.90625 14.140626 0 3.90625-3.90625 3.90625-10.238282 0-14.144532zm0 0"/><path d="m284.242188 354.957031c-3.910157-3.898437-10.242188-3.890625-14.140626.015625-3.902343 3.910156-3.894531 10.242188.015626 14.144532l32.148437 32.078124c3.898437 3.886719 10.226563 3.90625 14.140625-.015624 3.902344-3.910157 3.894531-10.242188-.015625-14.144532zm0 0"/></svg>