<svg height="512pt" viewBox="-1 0 512 512.00021" width="512pt" xmlns="http://www.w3.org/2000/svg"><path d="m351.933594 122.542969-7.78125 21.269531c-.941406 2.542969-3.75 3.859375-6.292969 2.917969l-26.164063-9.589844c-2.710937 4.03125-5.851562 7.773437-9.371093 11.132813l13.875 24.1875c1.34375 2.351562.535156 5.339843-1.808594 6.699218l-6.859375 3.933594-12.769531 7.34375c-2.34375 1.34375-5.339844.542969-6.6875-1.808594l-10.328125-18.007812-3.550782-6.167969c-1.304687.363281-2.632812.699219-3.976562 1.007813-1.03125.226562-2.070312.433593-3.125.617187-2.414062.429687-4.835938.710937-7.230469.863281l-4.902343 27.457032c-.476563 2.664062-3.019532 4.4375-5.683594 3.960937l-22.277344-3.976563c-2.664062-.484374-4.445312-3.027343-3.964844-5.691406l4.898438-27.457031c-4.453125-1.976563-8.667969-4.433594-12.578125-7.304687l-21.394531 17.867187c-2.074219 1.742187-5.160157 1.460937-6.902344-.617187l-14.5-17.382813c-1.742188-2.085937-1.460938-5.167969.617187-6.910156l21.375-17.863281c-2.097656-4.308594-3.765625-8.890626-4.941406-13.707032l-27.859375-.0625c-2.710938-.007812-4.894531-2.207031-4.886719-4.917968l.042969-22.652344c.007812-2.703125 2.207031-4.902344 4.921875-4.894532l27.84375.058594c1.183594-4.75 2.871094-9.332031 5.015625-13.667968l-21.304688-17.96875c-2.0625-1.75-2.332031-4.84375-.582031-6.921876l14.585938-17.320312c1.742187-2.070312 4.835937-2.328125 6.898437-.585938l21.296875 17.96875c3.894531-2.839843 8.121094-5.285156 12.625-7.253906l-4.773437-27.464844c-.464844-2.671874 1.320312-5.207031 3.988281-5.671874l22.300781-3.8789068c2.664063-.4687502 5.199219 1.3124998 5.664063 3.9843748l2 11.53125 2.773437 15.933594c4.910156.335938 9.714844 1.207031 14.335938 2.5625l13.984375-24.117188c1.351562-2.335937 4.351562-3.136718 6.6875-1.777343l19.582031 11.371093c2.335938 1.367188 3.132812 4.359376 1.78125 6.703126l-13.992188 24.121093c3.488282 3.359375 6.621094 7.09375 9.347657 11.171875l26.1875-9.476562c2.542969-.917969 5.351562.402344 6.269531 2.945312l7.699219 21.300782c.914062 2.558593-.398438 5.367187-2.949219 6.285156l-26.195312 9.476562c.519531 4.933594.496093 9.804688-.03125 14.570313l26.15625 9.585937c2.535156.9375 3.84375 3.746094 2.910156 6.289063zm0 0" fill="#1980f9"/><path d="m250.488281 145.757812c-4.710937-6.21875-8.730469-13.023437-11.929687-20.335937-3.191406-7.304687-5.578125-15.113281-7.003906-23.332031-2.789063-16.0625-1.632813-31.894532 2.777343-46.511719h.011719c4.511719-14.976563 12.445312-28.660156 23.042969-39.980469l-2.003907-11.539062c-.464843-2.664063-2.996093-4.449219-5.660156-3.9843752l-22.300781 3.8828122c-2.664063.464844-4.449219 3.003907-3.984375 5.671875l4.769531 27.460938c-4.5 1.972656-8.726562 4.421875-12.621093 7.261718l-21.304688-17.972656c-2.058594-1.746094-5.15625-1.484375-6.890625.589844l-14.59375 17.320312c-1.746094 2.078126-1.476563 5.164063.589844 6.921876l21.304687 17.96875c-2.148437 4.339843-3.839844 8.914062-5.019531 13.667968l-27.84375-.0625c-2.71875-.011718-4.917969 2.1875-4.917969 4.894532l-.050781 22.652343c0 2.714844 2.179687 4.914063 4.886719 4.914063l27.863281.0625c1.179687 4.824218 2.84375 9.410156 4.9375 13.714844l-21.367187 17.859374c-2.078126 1.746094-2.367188 4.824219-.621094 6.910157l14.5 17.382812c1.738281 2.074219 4.824218 2.363281 6.902344.621094l21.390624-17.871094c3.914063 2.871094 8.125 5.332031 12.578126 7.304688l-4.894532 27.460937c-.476562 2.664063 1.300782 5.207032 3.964844 5.683594l22.277344 3.984375c2.667968.476563 5.207031-1.300781 5.683594-3.964844l4.90625-27.453125c2.394531-.15625 4.8125-.433594 7.226562-.867187 1.054688-.1875 2.089844-.394531 3.121094-.621094-7.414063-5.597656-14.066406-12.21875-19.726563-19.695313zm0 0" fill="#285fb3"/><path d="m277.746094 170.617188 10.328125 18.011718c1.351562 2.347656 4.347656 3.152344 6.691406 1.808594l12.765625-7.34375c-10.605469-2.550781-20.644531-6.785156-29.785156-12.476562zm0 0" fill="#285fb3"/><path d="m302.210938 90.1875c3.796874 21.828125-7.898438 42.757812-27.144532 51.519531-.085937.039063-.175781.078125-.257812.109375-3.539063 1.597656-7.332032 2.773438-11.324219 3.46875-4.398437.765625-8.757813.902344-12.992187.46875-20.695313-2.09375-38.316407-17.710937-42.058594-39.230468-3.714844-21.347657 7.394531-41.855469 25.90625-50.9375 3.953125-1.953126 8.261718-3.375 12.820312-4.171876 3.996094-.695312 7.960938-.867187 11.832032-.5625.089843.003907.1875.007813.28125.015626 21.070312 1.738281 39.144531 17.492187 42.9375 39.320312zm0 0" fill="#63a6fd"/><path d="m279.023438 94.226562c1.097656 6.332032-.328126 12.71875-4.027344 17.976563-1.472656 2.085937-3.226563 3.898437-5.203125 5.382813-.527344.410156-1.070313.777343-1.621094 1.132812-2.628906 1.664062-5.578125 2.800781-8.726563 3.351562-6.328124 1.101563-12.707031-.328124-17.960937-4.027343-5.261719-3.699219-8.761719-9.226563-9.863281-15.558594-1.101563-6.339844.328125-12.726563 4.03125-17.988281 3.695312-5.257813 9.21875-8.761719 15.546875-9.863282 3.148437-.546874 6.308593-.464843 9.34375.203126.640625.148437 1.277343.3125 1.910156.515624 2.359375.730469 4.621094 1.84375 6.714844 3.308594 5.25 3.699219 8.75 9.226563 9.855469 15.566406zm0 0" fill="#1980f9"/><path d="m228.515625 492.078125c0 10.898437-8.828125 19.777344-19.777344 19.777344h-177.265625c-10.921875 0-19.777344-8.855469-19.777344-19.777344 0-49.910156 40.445313-90.382813 90.378907-90.382813h36.0625c49.675781 0 90.378906 40.214844 90.378906 90.382813zm0 0" fill="#fff5f4"/><path d="m38.316406 492.078125c0 10.921875 8.859375 19.777344 19.792969 19.777344h-26.636719c-10.925781 0-19.78125-8.855469-19.78125-19.777344 0-49.910156 40.449219-90.382813 90.378906-90.382813h26.640626c-49.933594 0-90.394532 40.472657-90.394532 90.382813zm0 0" fill="#ebe0da"/><path d="m187.757812 439.757812c-.046874 3.402344-4.289062 4.945313-6.753906 2.675782l-16.449218-11.867188c-1.460938-.773437-3.179688-.820312-4.683594-.140625l-31.007813 13.175781-5.105469 2.175782c-2.453124 1.867187-5.855468 1.84375-8.273437-.046875l-4.148437-1.8125-31.003907-13.492188c-1.507812-.679687-3.226562-.632812-4.699219.140625l-16.4375 11.867188c-2.464843 2.265625-6.707031.726562-6.75-2.675782-.199218-17.417968 7.847657-26.914062 17.207032-32.066406h.011718c5.410157-2.082031 11.0625-3.65625 16.917969-4.664062 3.585938-.628906 7.242188-1.039063 10.96875-1.214844v20.503906l13.785157 15.527344 5.410156 6.085938c1.261718 2.234374 4.464844 2.269531 5.785156.082031 0-.011719.007812-.023438.007812-.023438l6.324219-6.8125 13.785157-14.859375v-20.503906c3.109374.140625 6.167968.457031 9.183593.910156 6.460938.980469 12.710938 2.652344 18.644531 4.929688l.011719.011718c9.382813 5.144532 17.464844 14.628907 17.269531 32.09375zm0 0" fill="#c8bebc"/><path d="m128.863281 437.175781v74.679688h-17.527343v-74.011719l5.410156 6.085938c1.261718 2.230468 4.464844 2.265624 5.785156.082031 0-.011719.007812-.023438.007812-.023438zm0 0" fill="#c8bebc"/><path d="m97.550781 377.117188v45.199218c16.195313 18.242188 12.238281 13.785156 19.195313 21.613282 1.261718 2.230468 4.464844 2.265624 5.785156.082031 0-.011719 20.105469-21.6875 20.117188-21.695313v-45.199218c-3.460938-.191407-41.890626-.175782-45.097657 0zm0 0" fill="#f2bb88"/><path d="m510.0625 490.9375c0 5.816406-2.351562 11.085938-6.164062 14.894531-3.8125 3.8125-9.078126 6.167969-14.894532 6.167969h-188.710937c-11.628907 0-21.050781-9.429688-21.050781-21.0625 0-26.5625 10.761718-50.617188 28.175781-68.03125 1.902343-1.902344 3.882812-3.730469 5.949219-5.464844 5.363281-4.535156 11.226562-8.5 17.496093-11.785156 2.65625-1.394531 5.382813-2.652344 8.171875-3.800781 11.226563-4.59375 23.527344-7.136719 36.417969-7.136719h38.390625c12.898438 0 25.203125 2.542969 36.429688 7.136719 4.667968 1.910156 9.140624 4.171875 13.394531 6.746093 4.328125 2.632813 8.429687 5.585938 12.269531 8.828126 20.875 17.652343 34.125 44.03125 34.125 73.507812zm0 0" fill="#fff5f4"/><path d="m375.453125 394.71875h24.964844c-12.902344 0-25.203125 2.542969-36.429688 7.136719-9.386719 3.84375-18.03125 9.121093-25.664062 15.585937-2.058594 1.738282-4.039063 3.554688-5.949219 5.464844-17.414062 17.414062-28.175781 41.46875-28.175781 68.035156 0 11.628906 9.429687 21.058594 21.058593 21.058594h-24.964843c-11.628907 0-21.050781-9.429688-21.050781-21.058594 0-26.566406 10.765624-50.621094 28.179687-68.035156 1.898437-1.898438 3.882813-3.726562 5.949219-5.464844 5.359375-4.53125 11.226562-8.5 17.496094-11.785156 2.652343-1.390625 5.378906-2.652344 8.167968-3.800781 11.226563-4.59375 23.527344-7.136719 36.417969-7.136719zm0 0" fill="#ebe0da"/><path d="m403.097656 441.59375v70.40625h-16.886718v-70.40625c0-2.949219 3.785156-5.347656 8.445312-5.347656s8.441406 2.398437 8.441406 5.347656zm0 0" fill="#c8bebc"/><path d="m478.253906 487.519531h-39.390625c-2.953125 0-5.347656 2.394531-5.347656 5.347657 0 2.953124 2.394531 5.347656 5.347656 5.347656h39.390625c2.953125 0 5.347656-2.394532 5.347656-5.347656 0-2.953126-2.394531-5.347657-5.347656-5.347657zm0 0" fill="#c8bebc"/><path d="m420.679688 465.617188c0 3.644531-2.953126 6.597656-6.59375 6.597656-3.644532 0-6.597657-2.953125-6.597657-6.597656 0-3.640626 2.953125-6.59375 6.597657-6.59375 3.640624 0 6.59375 2.953124 6.59375 6.59375zm0 0" fill="#c8bebc"/><path d="m420.679688 492.867188c0 3.640624-2.953126 6.59375-6.59375 6.59375-3.644532 0-6.597657-2.953126-6.597657-6.59375 0-3.644532 2.953125-6.597657 6.597657-6.597657 3.640624 0 6.59375 2.953125 6.59375 6.597657zm0 0" fill="#c8bebc"/><path d="m466.675781 435.25c-.042969 3.613281-4.566406 5.253906-7.191406 2.839844l-17.503906-12.644532c-1.550781-.804687-3.390625-.867187-4.992188-.144531l-38.453125 16.351563c-2.601562 1.984375-6.214844 1.960937-8.796875-.050782l-37.421875-16.300781c-1.601562-.722656-3.4375-.660156-5 .144531l-17.496094 12.644532c-2.632812 2.414062-7.144531.773437-7.1875-2.839844-.132812-11.300781 3.285157-21.847656 8.230469-29.59375 2.65625-1.394531 5.382813-2.652344 8.171875-3.800781 11.226563-4.59375 23.527344-7.136719 36.417969-7.136719h38.390625c12.898438 0 25.203125 2.542969 36.429688 7.136719 4.667968 1.910156 9.140624 4.171875 13.394531 6.746093 2.136719 8.117188 3.109375 17.691407 3.007812 26.648438zm0 0" fill="#c8bebc"/><path d="m370.644531 364.648438v52.03125l20.445313 23.003906c1.339844 2.375 4.738281 2.410156 6.144531.085937.007813-.007812.015625-.019531.023437-.027343l21.398438-23.0625v-52.03125zm0 0" fill="#f2d1a5"/><path d="m353.855469 304.796875c0 14.988281-12.148438 27.136719-27.136719 27.136719-14.984375 0-27.132812-12.148438-27.132812-27.136719 0-14.984375 12.148437-27.132813 27.132812-27.132813 14.988281 0 27.136719 12.148438 27.136719 27.132813zm0 0" fill="#f2d1a5"/><path d="m489.722656 304.804688c0 14.984374-12.148437 27.132812-27.136718 27.132812-14.984376 0-27.132813-12.148438-27.132813-27.132812 0-14.988282 12.148437-27.136719 27.132813-27.136719 14.988281 0 27.136718 12.148437 27.136718 27.136719zm0 0" fill="#f2d1a5"/><path d="m466.625 260.546875v63.585937c0 32.019532-36.566406 59.050782-59.492188 67.667969-4.972656 1.875-9.308593 2.878907-12.480468 2.878907-8.914063-.007813-26.90625-7.902344-42.671875-20.664063-15.765625-12.773437-29.300781-30.398437-29.300781-49.882813v-63.585937c0-12.863281 10.425781-23.289063 23.289062-23.289063h97.367188c12.863281 0 23.289062 10.425782 23.289062 23.289063zm0 0" fill="#ffe4c2"/><path d="m407.132812 391.796875c-4.96875 1.878906-9.308593 2.882813-12.476562 2.882813-8.914062-.011719-26.90625-7.902344-42.679688-20.667969-15.761718-12.765625-29.300781-30.398438-29.300781-49.875v-63.59375c0-12.859375 10.429688-23.28125 23.289063-23.28125h24.964844c-12.867188 0-23.289063 10.421875-23.289063 23.28125v63.59375c0 19.476562 13.527344 37.109375 29.300781 49.875 10.140625 8.222656 21.214844 14.417969 30.191406 17.785156zm0 0" fill="#f2d1a5"/><path d="m293.34375 290.164062h17.347656c14.746094 0 26.816406-12.066406 26.816406-26.816406v-8.613281c0-13.089844-10.710937-23.800781-23.800781-23.800781h-.980469c-13.144531 0-23.800781 10.65625-23.800781 23.800781v31.011719c0 2.441406 1.976563 4.417968 4.417969 4.417968zm0 0" fill="#ca7400"/><path d="m495.964844 290.164062h-17.347656c-14.75 0-26.816407-12.066406-26.816407-26.816406v-8.613281c0-13.089844 10.710938-23.800781 23.800781-23.800781h.980469c13.144531 0 23.800781 10.65625 23.800781 23.800781v31.011719c0 2.441406-1.980468 4.417968-4.417968 4.417968zm0 0" fill="#ca7400"/><path d="m434.609375 253.265625h-84.496094c-18.957031 0-34.328125-16.835937-34.328125-37.605469 0-20.773437 15.371094-37.609375 34.328125-37.609375 0 0 77.996094 5.460938 111.917969-17.425781 5.019531-3.386719 11.488281.679688 11.488281 7.140625v42.875c.003907 23.542969-17.417969 42.625-38.910156 42.625zm0 0" fill="#ec8500"/><path d="m468.9375 230.714844c-6.550781 13.417968-19.460938 22.546875-34.324219 22.546875h-84.496093c-18.964844 0-34.332032-16.835938-34.332032-37.605469 0-10.378906 3.84375-19.789062 10.058594-26.59375 5.558594-6.085938 13.015625-10.09375 21.308594-10.867188-1.941406 4.699219-3.015625 9.925782-3.015625 15.421876 0 20.769531 15.378906 37.605468 34.332031 37.605468h84.496094c2.027344 0 4.019531-.164062 5.972656-.507812zm0 0" fill="#db7d00"/><path d="m250.488281 145.757812c-20.6875-2.097656-38.320312-17.714843-42.058593-39.238281-3.707032-21.347656 7.394531-41.851562 25.902343-50.941406-4.410156 14.617187-5.566406 30.449219-2.777343 46.511719 1.425781 8.21875 3.8125 16.027344 7.003906 23.332031 3.199218 7.3125 7.21875 14.117187 11.929687 20.335937zm0 0" fill="#4395fb"/><path d="m250.488281 145.757812c-20.6875-2.097656-38.320312-17.714843-42.058593-39.238281-3.707032-21.347656 7.394531-41.851562 25.902343-50.941406-4.410156 14.617187-5.566406 30.449219-2.777343 46.511719 1.425781 8.21875 3.8125 16.027344 7.003906 23.332031 3.199218 7.3125 7.21875 14.117187 11.929687 20.335937zm0 0" fill="#4395fb"/><path d="m269.792969 117.589844c-.527344.402344-1.066407.777344-1.625 1.128906-2.621094 1.660156-5.574219 2.796875-8.726563 3.355469-6.320312 1.09375-12.703125-.332031-17.960937-4.027344-5.257813-3.699219-8.757813-9.234375-9.863281-15.566406-1.09375-6.339844.332031-12.722657 4.039062-17.980469 3.695312-5.257812 9.210938-8.761719 15.542969-9.863281 3.152343-.550781 6.3125-.464844 9.335937.195312.640625.152344 1.28125.320313 1.914063.527344-1.984375 1.476563-3.742188 3.292969-5.207031 5.378906-3.707032 5.257813-5.132813 11.640625-4.027344 17.984375 1.09375 6.328125 4.59375 11.855469 9.863281 15.554688 2.074219 1.464844 4.347656 2.582031 6.714844 3.3125zm0 0" fill="#285fb3"/><path d="m73.027344 377.089844c-34.449219 39.042968-64.066406 6.890625-72.585938-4.277344-1.070312-1.398438-.078125-3.410156 1.6875-3.425781 44.0625-.367188 47.703125-24.136719 47.703125-24.136719l6.839844-23.824219 25.417969 46.046875zm0 0" fill="#f0a70a"/><path d="m83.113281 317.34375c0 14.074219-11.410156 25.484375-25.488281 25.484375-14.074219 0-25.484375-11.410156-25.484375-25.484375 0-14.078125 11.410156-25.488281 25.484375-25.488281 14.078125 0 25.488281 11.410156 25.488281 25.488281zm0 0" fill="#f2bb88"/><path d="m210.738281 317.347656c0 14.074219-11.410156 25.484375-25.484375 25.484375-14.078125 0-25.488281-11.410156-25.488281-25.484375 0-14.078125 11.410156-25.488281 25.488281-25.488281 14.074219 0 25.484375 11.410156 25.484375 25.488281zm0 0" fill="#f2bb88"/><path d="m165.832031 195.105469h-91.460937c-12.082032 0-21.875 9.792969-21.875 21.875v118.519531c0 36.601562 50.855468 66.269531 67.605468 66.269531s67.605469-29.667969 67.605469-66.269531v-118.519531c0-12.082031-9.792969-21.875-21.875-21.875zm0 0" fill="#f2d1a5"/><path d="m133.417969 398.449219c-5.339844 2.148437-10 3.316406-13.320313 3.316406-16.753906 0-67.609375-29.664063-67.609375-66.265625v-118.523438c0-12.078124 9.804688-21.871093 21.882813-21.871093h26.636718c-12.078124 0-21.878906 9.792969-21.878906 21.871093v118.523438c0 29.347656 32.699219 54.234375 54.289063 62.949219zm0 0" fill="#f2bb88"/><path d="m205.875 222.1875v41.21875c0 3.550781-3.175781 6.425781-7.089844 6.425781h-157.371094c-3.914062 0-7.089843-2.875-7.089843-6.425781v-41.21875c0-.492188.011719-.980469.023437-1.484375.851563-26.777344 25.585938-47.863281 55.132813-47.863281h61.242187c29.558594 0 54.277344 21.085937 55.132813 47.863281.007812.503906.019531.992187.019531 1.484375zm0 0" fill="#fdc202"/><path d="m61.3125 222.1875v41.21875c0 3.550781 3.175781 6.425781 7.089844 6.425781h-26.988282c-3.914062 0-7.09375-2.875-7.09375-6.425781v-41.21875c0-.492188.011719-.980469.027344-1.484375.851563-26.777344 25.585938-47.863281 55.128906-47.863281h26.988282c-29.546875 0-54.277344 21.085937-55.132813 47.863281-.011719.503906-.019531.992187-.019531 1.484375zm0 0" fill="#f0a70a"/><path d="m74.199219 237.199219v32.632812h-17.527344v-32.632812c0-4.847657 3.925781-8.761719 8.761719-8.761719 4.839844 0 8.765625 3.914062 8.765625 8.761719zm0 0" fill="#e38803"/><path d="m110.636719 237.199219v32.632812h-17.523438v-32.632812c0-4.847657 3.925781-8.761719 8.761719-8.761719 4.847656 0 8.761719 3.914062 8.761719 8.761719zm0 0" fill="#e38803"/><path d="m147.085938 237.199219v32.632812h-17.523438v-32.632812c0-4.847657 3.925781-8.761719 8.761719-8.761719 4.839843 0 8.761719 3.914062 8.761719 8.761719zm0 0" fill="#e38803"/><path d="m183.527344 237.199219v32.632812h-17.523438v-32.632812c0-4.847657 3.921875-8.761719 8.761719-8.761719 4.835937 0 8.761719 3.914062 8.761719 8.761719zm0 0" fill="#e38803"/><g fill="#ca7400"><path d="m133.585938 329.746094c-4.839844 0-8.765626 3.921875-8.765626 8.761718 0 2.605469-2.117187 4.722657-4.71875 4.722657-2.605468 0-4.722656-2.117188-4.722656-4.722657 0-4.835937-3.921875-8.761718-8.761718-8.761718-4.839844 0-8.761719 3.921875-8.761719 8.761718 0 12.269532 9.976562 22.246094 22.242187 22.246094 12.269532 0 22.246094-9.976562 22.246094-22.246094.003906-4.839843-3.917969-8.761718-8.757812-8.761718zm0 0"/><path d="m162.757812 308.703125c0 4.421875-3.585937 8.007813-8.011718 8.007813-4.421875 0-8.007813-3.585938-8.007813-8.007813 0-4.425781 3.585938-8.011719 8.007813-8.011719 4.425781 0 8.011718 3.585938 8.011718 8.011719zm0 0"/><path d="m93.464844 308.703125c0 4.421875-3.585938 8.007813-8.011719 8.007813-4.421875 0-8.007813-3.585938-8.007813-8.007813 0-4.425781 3.585938-8.011719 8.007813-8.011719 4.425781 0 8.011719 3.585938 8.011719 8.011719zm0 0"/><path d="m174.964844 285.421875c-12.019532-7.558594-30.707032-3.953125-32.796875-3.519531-4.742188.988281-7.777344 5.628906-6.792969 10.367187.988281 4.738281 5.636719 7.777344 10.367188 6.792969 4.230468-.882812 15.117187-1.808594 19.898437 1.195312 1.445313.910157 3.058594 1.347657 4.652344 1.347657 2.914062 0 5.761719-1.453125 7.425781-4.101563 2.574219-4.097656 1.34375-9.507812-2.753906-12.082031zm0 0"/><path d="m104.824219 292.269531c.988281-4.738281-2.050781-9.378906-6.789063-10.367187-2.089844-.4375-20.777344-4.039063-32.796875 3.519531-4.097656 2.574219-5.332031 7.984375-2.757812 12.082031 1.664062 2.648438 4.515625 4.097656 7.425781 4.097656 1.59375 0 3.207031-.433593 4.65625-1.34375 4.769531-2.996093 15.46875-2.101562 19.910156-1.195312 4.738282.980469 9.367188-2.058594 10.351563-6.792969zm0 0"/><path d="m416.625 335.394531c0-4.28125-3.46875-7.746093-7.746094-7.746093s-7.746094 3.464843-7.746094 7.746093c0 3.644531-2.964843 6.609375-6.609374 6.609375-3.640626 0-6.605469-2.964844-6.605469-6.609375 0-4.28125-3.46875-7.746093-7.746094-7.746093s-7.746094 3.464843-7.746094 7.746093c0 12.1875 9.914063 22.101563 22.097657 22.101563 12.1875 0 22.101562-9.917969 22.101562-22.101563zm0 0"/><path d="m439.9375 311.613281c0 4.710938-3.820312 8.527344-8.527344 8.527344-4.710937 0-8.527344-3.816406-8.527344-8.527344 0-4.707031 3.816407-8.527343 8.527344-8.527343 4.707032 0 8.527344 3.820312 8.527344 8.527343zm0 0"/><path d="m366.167969 311.613281c0 4.710938-3.816407 8.527344-8.527344 8.527344-4.707031 0-8.527344-3.816406-8.527344-8.527344 0-4.707031 3.820313-8.527343 8.527344-8.527343 4.710937 0 8.527344 3.820312 8.527344 8.527343zm0 0"/><path d="m421.5 299.800781c4.894531-1.019531 16.796875-2 22.34375 1.488281 3.625 2.277344 8.40625 1.183594 10.679688-2.4375 2.277343-3.621093 1.1875-8.402343-2.433594-10.679687-12.277344-7.71875-31.589844-3.984375-33.753906-3.535156-4.1875.871093-6.875 4.972656-6 9.164062.871093 4.1875 4.980468 6.886719 9.164062 6zm0 0"/><path d="m376.714844 293.800781c.871094-4.191406-1.816406-8.292969-6.003906-9.164062-2.160157-.453125-21.476563-4.183594-33.753907 3.535156-3.621093 2.277344-4.710937 7.058594-2.433593 10.679687 2.277343 3.621094 7.058593 4.714844 10.683593 2.4375 5.292969-3.332031 16.523438-2.679687 22.355469-1.484374 4.1875.863281 8.28125-1.820313 9.152344-6.003907zm0 0"/></g></svg>