<svg height="511pt" viewBox="0 -16 511.99954 511" width="511pt" xmlns="http://www.w3.org/2000/svg"><path d="m209.996094 10.5c-110.457032 0-199.996094 89.539062-199.996094 199.996094 0 110.441406 89.519531 199.992187 199.996094 199.992187 96.964844 0 177.503906-68.90625 195.992187-159.996093v-79.996094c-18.527343-91.289063-99.234375-159.996094-195.992187-159.996094zm0 0" fill="#ed5575"/><path d="m471.988281 210.496094 30 39.996094h-102l-29.996093-39.996094 29.996093-40h102zm0 0" fill="#f2df33"/><path d="m209.996094 70.496094c-77.699219 0-139.996094 63.296875-139.996094 140 0 77.195312 62.796875 139.996094 139.996094 139.996094 73.082031 0 136.847656-57.160157 139.90625-134.886719 2.921875-78.855469-60.476563-145.109375-139.90625-145.109375zm0 0" fill="#ede9e8"/><path d="m289.992188 210.496094c0 44.105468-35.886719 79.996094-79.996094 79.996094s-80-35.890626-80-79.996094c0-44.109375 35.890625-80 80-80s79.996094 35.890625 79.996094 80zm0 0" fill="#ed5575"/><path d="m209.996094 190.496094c11.027344 0 20 8.96875 20 20 0 11.027344-8.972656 19.996094-20 19.996094-11.03125 0-20-8.96875-20-19.996094 0-11.03125 8.96875-20 20-20zm0 0" fill="#ede9e8"/><path d="m109.996094 120.496094c5.519531 0 10-4.480469 10-10 0-5.476563-4.445313-10-10-10-5.519532 0-10 4.480468-10 10 0 5.554687 4.511718 10 10 10zm0 0"/><path d="m501.988281 200.496094h-10l18-24c4.933594-6.578125.230469-16-8-16h-88c-22.664062-92.574219-106.039062-159.996094-203.992187-159.996094-115.792969 0-209.996094 94.203125-209.996094 209.996094 0 85.496094 51.09375 159.25 124.714844 191.949218l-21.660156 58.042969h-33.054688c-5.523438 0-10 4.476563-10 10 0 5.519531 4.476562 10 10 10h279.992188c5.519531 0 10-4.480469 10-10 0-5.523437-4.480469-10-10-10h-33.058594l-21.667969-58.0625c59.328125-26.425781 103.261719-78.824219 118.710937-141.933593h88.011719c8.21875 0 12.9375-9.410157 8-16l-18-23.996094h10c5.519531 0 10-4.480469 10-10 0-5.523438-4.480469-10-10-10zm-377.585937 259.992187 18.953125-50.792969c21.40625 7.164063 43.773437 10.792969 66.640625 10.792969 22.84375 0 45.210937-3.628906 66.636718-10.792969l18.953126 50.792969zm85.59375-60c-103.226563 0-189.996094-82.609375-189.996094-189.992187 0-104.765625 85.230469-189.996094 189.996094-189.996094 86.601562 0 162.359375 59.171875 183.894531 142.089844-2.09375 1.613281-.484375.25-28.898437 37.90625h-5.34375c-5.164063-78.0625-70.308594-139.996094-149.652344-139.996094-24.011719 0-48.902344 5.792969-71.964844 18.40625-4.84375 2.65625-6.617188 8.734375-3.964844 13.578125 2.65625 4.84375 8.730469 6.617187 13.578125 3.960937 20.015625-10.992187 41.65625-15.949218 62.351563-15.949218 68.316406 0 124.492187 52.972656 129.617187 120h-40.179687c-4.988282-44.9375-43.195313-80-89.4375-80-49.625 0-90 40.375-90 90s40.375 89.996094 90 89.996094c46.246094 0 84.449218-35.070313 89.4375-80.007813h40.179687c-5.125 67.027344-61.300781 120.007813-129.617187 120.007813-71.679688 0-129.996094-58.316407-129.996094-129.996094 0-21.820313 5.511719-43.378906 15.941406-62.339844 2.660156-4.839844.894532-10.921875-3.945312-13.582031-4.839844-2.660157-10.917969-.898438-13.582032 3.941406-12.046874 21.910156-18.414062 46.796875-18.414062 71.980469 0 82.707031 67.285156 149.996094 149.996094 149.996094 79.574218 0 144.550781-61.703126 149.660156-139.996094h5.335938c28.402343 37.636718 26.796874 36.28125 28.894531 37.902344-21.867188 84.570312-97.976563 142.089843-183.890625 142.089843zm28.277344-199.992187c-4.128907-11.640625-15.242188-20-28.277344-20-16.542969 0-30 13.457031-30 30 0 16.539062 13.457031 29.996094 30 29.996094 13.035156 0 24.148437-8.371094 28.277344-20.007813h40.992187c-4.867187 33.875-34.070313 60.007813-69.269531 60.007813-38.597656 0-70-31.402344-70-69.996094 0-38.597656 31.402344-70 70-70 35.199218 0 64.402344 26.125 69.269531 60zm-18.277344 10c0 5.511718-4.488282 10-10 10-5.515625 0-10-4.488282-10-10 0-5.515625 4.484375-10 10-10 5.511718 0 10 4.484375 10 10zm261.992187 29.996094h-75.960937c-.039063 0-.082032 0-.121094 0h-.917969l-22.496093-29.996094 22.496093-30h77l-15 20h-37c-5.519531 0-10 4.476562-10 10 0 5.519531 4.480469 10 10 10h37zm0 0"/></svg>