<svg height="511pt" viewBox="0 0 511.9997 511" width="511pt" xmlns="http://www.w3.org/2000/svg"><path d="m334.585938 480.023438c0 8.421874-3.410157 16.0625-8.941407 21.582031-5.519531 5.53125-13.15625 8.941406-21.582031 8.941406h-273.539062c-16.859376 0-30.523438-13.664063-30.523438-30.523437 0-60.800782 39.363281-111.855469 89.441406-130.21875.007813 0 .019532-.007813.019532-.007813 16.261718-6.253906 33.160156-9.242187 50.007812-9.242187h55.648438c17.417968 0 34.089843 3.183593 49.460937 9.011718 1.117187.4375 2.234375.871094 3.339844 1.324219 13.613281 5.570313 26.140625 13.230469 37.199219 22.585937 30.253906 25.582032 49.46875 63.816407 49.46875 106.546876zm0 0" fill="#fff5f4"/><path d="m182.570312 340.550781c-19.617187 0-38.335937 3.6875-55.421874 10.335938-53.542969 20.890625-90.972657 70.980469-90.972657 129.140625 0 16.859375 14.347657 30.523437 32.042969 30.523437h-37.695312c-16.859376 0-30.523438-13.664062-30.523438-30.523437 0-60.808594 39.359375-111.859375 89.441406-130.226563.007813 0 .019532-.011719.019532-.011719 16.257812-6.242187 33.160156-9.238281 50.007812-9.238281zm0 0" fill="#ebe0da"/><path d="m412.121094 263.207031c4.28125 0 7.75-3.46875 7.75-7.75 0-4.285156-3.46875-7.753906-7.75-7.753906h-52.199219v-124.375c0-13.71875 11.164063-24.882813 24.886719-24.882813h27.3125c4.28125 0 7.75-3.472656 7.75-7.753906s-3.46875-7.753906-7.75-7.753906h-27.3125c-22.273438 0-40.390625 18.121094-40.390625 40.390625v124.375h-29.460938c-4.28125 0-7.75 3.46875-7.75 7.753906 0 4.28125 3.46875 7.75 7.75 7.75h29.460938v124.375c0 22.273438 18.117187 40.390625 40.390625 40.390625h27.3125c4.28125 0 7.75-3.46875 7.75-7.75 0-4.285156-3.46875-7.753906-7.75-7.753906h-27.3125c-13.722656 0-24.886719-11.164062-24.886719-24.886719v-124.375zm0 0" fill="#c8bebc"/><path d="m473.519531 309.039062c-18.570312 6.289063-40.074219 2.640626-55.847656-11.503906-10.472656-9.394531-17.035156-22.285156-18.472656-36.300781-4.261719-41.386719 35.992187-72.324219 74.359375-59.371094 7.195312 2.4375 13.894531 6.335938 19.671875 11.511719 10.46875 9.398438 17.03125 22.285156 18.46875 36.304688 2.75 26.738281-13.703125 51.121093-38.179688 59.359374zm0 0" fill="#63a6fd"/><path d="m473.519531 144.269531c-18.675781 6.371094-40.183593 2.539063-55.847656-11.507812-10.472656-9.394531-17.035156-22.285157-18.472656-36.289063-4.253907-41.335937 36.011719-72.386718 74.359375-59.371094 7.195312 2.4375 13.894531 6.335938 19.671875 11.515626 10.46875 9.394531 17.03125 22.285156 18.46875 36.289062 2.75 26.75-13.703125 51.125-38.179688 59.363281zm0 0" fill="#63a6fd"/><path d="m473.519531 473.800781c-18.851562 6.382813-40.253906 2.480469-55.847656-11.503906-10.472656-9.394531-17.035156-22.285156-18.472656-36.292969-4.25-41.28125 35.902343-72.363281 74.359375-59.378906 7.195312 2.449219 13.894531 6.335938 19.671875 11.523438 10.46875 9.394531 17.03125 22.285156 18.46875 36.289062 2.75 26.753906-13.703125 51.125-38.179688 59.363281zm0 0" fill="#63a6fd"/><path d="m453.847656 297.53125c5.777344 5.175781 12.476563 9.074219 19.671875 11.503906-18.566406 6.292969-40.074219 2.644532-55.847656-11.503906-10.472656-9.398438-17.035156-22.285156-18.472656-36.300781-4.257813-41.386719 35.992187-72.316407 74.359375-59.375-24.476563 8.261719-40.929688 32.632812-38.183594 59.375 1.4375 14.015625 8.003906 26.902343 18.472656 36.300781zm0 0" fill="#4395fb"/><path d="m453.847656 132.757812c5.777344 5.179688 12.476563 9.074219 19.671875 11.503907-18.667969 6.378906-40.1875 2.542969-55.847656-11.503907-10.472656-9.394531-17.035156-22.285156-18.472656-36.289062-4.257813-41.335938 36.011719-72.375 74.359375-59.375-24.476563 8.25-40.929688 32.625-38.183594 59.375 1.4375 14.003906 8.003906 26.894531 18.472656 36.289062zm0 0" fill="#4395fb"/><path d="m453.847656 462.292969c5.777344 5.175781 12.476563 9.082031 19.671875 11.503906-18.855469 6.386719-40.25 2.480469-55.847656-11.503906-10.472656-9.398438-17.035156-22.285157-18.472656-36.292969-4.246094-41.273438 35.898437-72.355469 74.359375-59.382812-24.476563 8.257812-40.929688 32.632812-38.183594 59.382812 1.4375 14.007812 8.003906 26.894531 18.472656 36.292969zm0 0" fill="#4395fb"/><path d="m271.691406 399.296875c-.0625 5.238281-6.617187 7.617187-10.417968 4.113281l-25.378907-18.316406c-2.253906-1.179688-4.910156-1.261719-7.234375-.214844l-55.734375 23.699219c-3.773437 2.875-9.011719 2.84375-12.753906-.082031l-54.246094-23.617188c-2.324219-1.046875-4.980469-.964844-7.246093.214844l-25.363282 18.316406c-3.816406 3.503906-10.359375 1.125-10.417968-4.113281-.3125-26.894531 12.113281-41.542969 26.542968-49.492187.007813 0 .019532-.007813.019532-.007813 16.261718-6.253906 33.160156-9.242187 50.007812-9.242187h55.648438c17.417968 0 34.089843 3.183593 49.460937 9.011718.15625.074219.300781.125.453125.1875.011719 0 .011719 0 .011719.011719 14.480469 7.925781 26.957031 22.574219 26.648437 49.53125zm0 0" fill="#63a6fd"/><path d="m175.046875 408.496094v102.050781h-15.503906v-102.050781c0-4.28125 3.472656-7.753906 7.75-7.753906 4.28125 0 7.753906 3.472656 7.753906 7.753906zm0 0" fill="#63a6fd"/><path d="m132.492188 296.960938v75.417968l29.636718 33.347656c1.941406 3.441407 6.871094 3.492188 8.910156.121094.007813-.007812.019532-.027344.03125-.039062l31.015626-33.429688v-75.417968zm0 0" fill="#f2d1a5"/><path d="m110.386719 210.425781c0 21.722657-17.609375 39.332031-39.332031 39.332031-21.722657 0-39.332032-17.609374-39.332032-39.332031 0-21.722656 17.609375-39.332031 39.332032-39.332031 21.722656 0 39.332031 17.609375 39.332031 39.332031zm0 0" fill="#f2d1a5"/><path d="m307.324219 210.433594c0 21.722656-17.609375 39.328125-39.328125 39.328125-21.722656 0-39.332032-17.605469-39.332032-39.328125s17.609376-39.332032 39.332032-39.332032c21.71875 0 39.328125 17.609376 39.328125 39.332032zm0 0" fill="#f2d1a5"/><path d="m271.785156 55.5625v182.890625c0 28.226563-19.621094 53.800781-42.472656 72.300781-14.710938 11.910156-30.75 20.902344-43.765625 25.789063-7.203125 2.710937-13.476563 4.167969-18.089844 4.167969-25.839843-.011719-104.324219-45.789063-104.324219-102.257813v-182.890625c0-18.648438 15.113282-33.757812 33.761719-33.757812h141.128907c18.648437 0 33.761718 15.109374 33.761718 33.757812zm0 0" fill="#ffe4c2"/><path d="m479.882812 235.503906-35.621093 35.625-13.25-13.25c-3.027344-3.027344-7.933594-3.027344-10.960938 0-3.027343 3.03125-3.027343 7.9375 0 10.964844l16.6875 16.6875c2.011719 2.007812 4.683594 3.113281 7.523438 3.113281 2.839843 0 5.511719-1.105469 7.53125-3.117187l39.054687-39.058594c3.027344-3.027344 3.027344-7.9375 0-10.964844s-7.933594-3.027344-10.964844 0zm0 0" fill="#285fb3"/><path d="m436.730469 120.761719c2.011719 2.007812 4.6875 3.117187 7.53125 3.117187 2.839843 0 5.511719-1.105468 7.527343-3.117187l39.058594-39.058594c3.027344-3.027344 3.027344-7.9375 0-10.964844-3.027344-3.023437-7.9375-3.023437-10.964844 0l-35.621093 35.625-13.25-13.246093c-3.027344-3.027344-7.933594-3.027344-10.960938 0-3.027343 3.027343-3.027343 7.9375 0 10.960937zm0 0" fill="#285fb3"/><path d="m288.640625 464.765625h-66.429687c-4.28125 0-7.75 3.472656-7.75 7.753906s3.46875 7.75 7.75 7.75h66.429687c4.28125 0 7.75-3.46875 7.75-7.75s-3.46875-7.753906-7.75-7.753906zm0 0" fill="#63a6fd"/><path d="m112.707031 464.765625h-66.429687c-4.28125 0-7.75 3.472656-7.75 7.753906s3.46875 7.75 7.75 7.75h66.429687c4.28125 0 7.75-3.46875 7.75-7.75s-3.46875-7.753906-7.75-7.753906zm0 0" fill="#63a6fd"/><path d="m185.546875 336.550781c-7.203125 2.707031-13.476563 4.152344-18.089844 4.152344-25.839843-.007813-104.324219-45.789063-104.324219-102.253906v-182.894531c0-18.632813 15.113282-33.746094 33.761719-33.746094h36.175781c-18.648437 0-33.757812 15.113281-33.757812 33.746094v182.894531c0 46.410156 53.003906 85.59375 86.234375 98.101562zm0 0" fill="#f2d1a5"/><path d="m281.753906 132.464844h-37.992187c-19.441407 0-35.199219-15.757813-35.199219-35.199219v-42.277344c0-19.4375 15.757812-35.199219 35.199219-35.199219h9.324219c19.441406 0 35.199218 15.761719 35.199218 35.199219v70.945313c0 3.609375-2.921875 6.53125-6.53125 6.53125zm0 0" fill="#b96a00"/><path d="m267.988281 8.4375v14.523438c0 4.21875-.421875 8.445312-1.257812 12.660156-10.804688 54.515625-89.691407 107.199218-191.617188 106.257812h-18.957031c-10.65625 0-19.296875-8.433594-19.296875-18.832031v-63.558594c0-20.621093 10.875-38.78125 27.339844-49.3125 9.539062-6.121093 20.972656-9.675781 33.242187-9.675781h162.425782c4.484374 0 8.121093 3.554688 8.121093 7.9375zm0 0" fill="#db7d00"/><g fill="#ca7400"><path d="m266.730469 35.628906c-10.804688 54.503906-89.691407 107.1875-191.617188 106.246094h-18.957031c-10.65625 0-19.296875-8.433594-19.296875-18.832031v-63.558594c0-20.621094 10.875-38.773437 27.339844-49.304687-.019531.558593-.03125 1.125-.03125 1.695312v63.570312c0 10.398438 8.640625 18.839844 19.296875 18.839844h18.957031c71.042969.652344 130.898437-24.742187 164.308594-58.65625zm0 0"/><path d="m188.265625 235.335938c-4.28125 0-7.75 3.46875-7.75 7.753906 0 7.195312-5.859375 13.054687-13.054687 13.054687-7.199219 0-13.054688-5.859375-13.054688-13.054687 0-4.285156-3.472656-7.753906-7.753906-7.753906s-7.75 3.46875-7.75 7.753906c0 15.746094 12.808594 28.558594 28.558594 28.558594 15.746093 0 28.558593-12.8125 28.558593-28.558594 0-4.285156-3.472656-7.753906-7.753906-7.753906zm0 0"/><path d="m233.28125 197.089844c0 6.828125-5.535156 12.363281-12.359375 12.363281-6.828125 0-12.359375-5.535156-12.359375-12.363281 0-6.824219 5.53125-12.359375 12.359375-12.359375 6.824219 0 12.359375 5.535156 12.359375 12.359375zm0 0"/><path d="m126.355469 197.089844c0 6.828125-5.53125 12.363281-12.359375 12.363281-6.824219 0-12.359375-5.535156-12.359375-12.363281 0-6.824219 5.535156-12.359375 12.359375-12.359375 6.828125 0 12.359375 5.535156 12.359375 12.359375zm0 0"/><path d="m249.050781 166.054688c-16.640625-10.460938-43.371093-5.289063-46.367187-4.667969-4.191406.875-6.878906 4.980469-6.007813 9.171875.875 4.191406 4.980469 6.886718 9.171875 6.007812 6-1.25 25.296875-3.457031 34.949219 2.613282 1.28125.804687 2.710937 1.191406 4.121094 1.191406 2.574219 0 5.097656-1.285156 6.566406-3.628906 2.28125-3.625 1.1875-8.410157-2.433594-10.6875zm0 0"/><path d="m132.234375 161.390625c-2.992187-.625-29.726563-5.796875-46.367187 4.664063-3.621094 2.28125-4.714844 7.066406-2.433594 10.691406 1.472656 2.34375 3.992187 3.625 6.570312 3.625 1.410156 0 2.835938-.382813 4.117188-1.1875 9.636718-6.058594 28.488281-3.941406 34.949218-2.617188 4.195313.882813 8.296876-1.8125 9.171876-6.007812.871093-4.191406-1.816407-8.296875-6.007813-9.167969zm0 0"/></g></svg>