<svg height="512pt" viewBox="0 0 512 512" width="512pt" xmlns="http://www.w3.org/2000/svg"><path d="m16 128h480v384h-480zm0 0" fill="#ffd337"/><path d="m16 128h480v64h-480zm0 0" fill="#fcc000"/><path d="m512 160h-512v-128c0-17.679688 14.320312-32 32-32h448c17.679688 0 32 14.320312 32 32zm0 0" fill="#5f90ff"/><path d="m336 320h-160c-26.464844 0-48-21.535156-48-48s21.535156-48 48-48h160c26.464844 0 48 21.535156 48 48s-21.535156 48-48 48zm0 0" fill="#fcc000"/><g fill="#fff"><path d="m112 480h-64v-64h32v32h32zm0 0"/><path d="m32 32h32v32h-32zm0 0"/><path d="m96 32h32v32h-32zm0 0"/></g></svg>