<svg height="512pt" viewBox="0 0 512 512" width="512pt" xmlns="http://www.w3.org/2000/svg"><path d="m512 512h-512l.320312-179.136719 66.558594-332.863281h378.242188l66.878906 336zm0 0" fill="#b0b4b9"/><g fill="#9da3aa"><path d="m80 256h352v32h-352zm0 0"/><path d="m96 192h320v32h-320zm0 0"/><path d="m112 128h288v32h-288zm0 0"/><path d="m128 64h256v32h-256zm0 0"/></g><path d="m0 512h512v-176h-511.695312zm0 0" fill="#5f90ff"/><path d="m352 448h-192v-64h32v32h128v-32h32zm0 0" fill="#ffd337"/><path d="m0 512h512v-32h-511.695312zm0 0" fill="#347bf7"/><path d="m32 384h32v32h-32zm0 0" fill="#fff"/><path d="m96 384h32v32h-32zm0 0" fill="#fff"/></svg>