<svg height="512pt" viewBox="0 0 512 512" width="512pt" xmlns="http://www.w3.org/2000/svg"><path d="m482 110h-100v-60c0-22.089844-17.910156-40-40-40h-172c-22.089844 0-40 17.910156-40 40v60h-100c-11.050781 0-20 8.949219-20 20v166c0 14.800781 8.039062 27.730469 20 34.648438v131.351562c0 22.089844 17.910156 40 40 40h372c22.089844 0 40-17.910156 40-40v-131.351562c11.960938-6.917969 20-19.847657 20-34.648438v-166c0-11.050781-8.949219-20-20-20zm-312 0v-60h172v60zm0 0" fill="#656d88"/><path d="m422 296v-40h-40v40h-10v60h10v40c0 11.039062 8.960938 20 20 20 11.050781 0 20-8.949219 20-20v-40h10c0-5.265625 0-44.867188 0-60zm0 0" fill="#f2df33"/><path d="m130 296v-40h-40v40h-10v60h10v40c0 11.039062 8.960938 20 20 20 11.050781 0 20-8.949219 20-20v-40h10c0-5.265625 0-44.867188 0-60zm0 0" fill="#f2df33"/><path d="m160 462c0 5.523438-4.476562 10-10 10s-10-4.476562-10-10 4.476562-10 10-10 10 4.476562 10 10zm0 0"/><path d="m482 100h-90v-50c0-27.570312-22.429688-50-50-50h-172c-27.570312 0-50 22.429688-50 50v50h-90c-16.542969 0-30 13.457031-30 30v166c0 15.777344 7.539062 30.597656 20 39.980469v126.019531c0 27.570312 22.429688 50 50 50h372c27.570312 0 50-22.429688 50-50v-126.019531c12.457031-9.378907 20-24.199219 20-39.980469v-166c0-16.542969-13.457031-30-30-30zm-342-50c0-16.542969 13.457031-30 30-30h172c16.542969 0 30 13.457031 30 30v50h-20v-50c0-5.523438-4.476562-10-10-10h-172c-5.523438 0-10 4.476562-10 10v50h-20zm192 50h-152v-40h152zm110 392h-372c-16.542969 0-30-13.457031-30-30v-117.015625c3.28125.667969 6.628906 1.015625 10 1.015625h20v10c0 5.523438 4.476562 10 10 10v30c0 16.574219 13.425781 30 30 30 16.542969 0 30-13.457031 30-30v-30c5.523438 0 10-4.476562 10-10v-10h212v10c0 5.523438 4.476562 10 10 10v30c0 16.574219 13.425781 30 30 30 16.542969 0 30-13.457031 30-30v-30c5.523438 0 10-4.476562 10-10v-10h20c3.371094 0 6.71875-.347656 10-1.015625v117.015625c0 16.542969-13.457031 30-30 30zm-352-186h40v40h-40zm10 60h20v30c0 5.515625-4.484375 10-10 10-5.519531 0-10-4.480469-10-10zm20-80h-20v-20h20zm262 20h40v40h-40zm10 60h20v30c0 5.515625-4.484375 10-10 10-5.519531 0-10-4.480469-10-10zm20-80h-20v-20h20zm80 10c0 16.285156-13.183594 30-30 30h-20v-30c0-5.523438-4.476562-10-10-10v-30c0-5.523438-4.476562-10-10-10h-40c-5.523438 0-10 4.476562-10 10v30c-5.523438 0-10 4.476562-10 10v30h-212v-30c0-5.523438-4.476562-10-10-10v-30c0-5.523438-4.476562-10-10-10h-40c-5.523438 0-10 4.476562-10 10v30c-5.523438 0-10 4.476562-10 10v30h-20c-16.859375 0-30-13.757812-30-30v-166c0-5.515625 4.484375-10 10-10h452c5.515625 0 10 4.484375 10 10zm0 0"/><path d="m362 452h-172c-5.523438 0-10 4.476562-10 10s4.476562 10 10 10h172c5.523438 0 10-4.476562 10-10s-4.476562-10-10-10zm0 0"/></svg>