<svg height="512pt" viewBox="-50 0 512 512" width="512pt" xmlns="http://www.w3.org/2000/svg"><path d="m257.503906 0c-8.480468 0-235.003906 0-243.511718 0-7.726563 0-13.98828175 6.261719-13.98828175 13.996094v484.007812c0 7.734375 6.26171875 13.996094 13.98828175 13.996094h322.980468c7.726563 0 13.988282-6.261719 13.988282-13.996094v-404.546875zm0 0" fill="#fff5f4"/><path d="m350.960938 93.457031v.011719h-76.746094c-9.234375 0-16.710938-7.488281-16.710938-16.722656v-76.746094zm0 0" fill="#ebe0da"/><path d="m50.382812 512h-36.394531c-7.726562 0-13.988281-6.261719-13.988281-13.996094v-484.007812c0-7.734375 6.261719-13.996094 13.988281-13.996094h36.394531c-7.726562 0-13.984374 6.261719-13.984374 13.996094v484.007812c0 7.734375 6.257812 13.996094 13.984374 13.996094zm0 0" fill="#ebe0da"/><path d="m87.28125 458.3125c-4.308594 0-7.800781-3.488281-7.800781-7.796875v-87.027344c0-4.308593 3.492187-7.800781 7.800781-7.800781s7.796875 3.492188 7.796875 7.800781v87.027344c0 4.308594-3.488281 7.796875-7.796875 7.796875zm0 0" fill="#fdc202"/><path d="m146.082031 458.3125c-4.308593 0-7.800781-3.488281-7.800781-7.796875v-164.777344c0-4.308593 3.492188-7.800781 7.800781-7.800781 4.308594 0 7.800781 3.492188 7.800781 7.800781v164.777344c0 4.308594-3.492187 7.796875-7.800781 7.796875zm0 0" fill="#7af4ab"/><path d="m204.886719 458.3125c-4.308594 0-7.800781-3.488281-7.800781-7.796875v-130.539063c0-4.308593 3.492187-7.800781 7.800781-7.800781 4.308593 0 7.796875 3.492188 7.796875 7.800781v130.539063c0 4.308594-3.492188 7.796875-7.796875 7.796875zm0 0" fill="#f64346"/><path d="m263.6875 458.3125c-4.308594 0-7.800781-3.488281-7.800781-7.796875v-206.996094c0-4.308593 3.492187-7.796875 7.800781-7.796875s7.800781 3.488282 7.800781 7.796875v206.996094c0 4.308594-3.492187 7.796875-7.800781 7.796875zm0 0" fill="#63a6fd"/><path d="m305.570312 460.570312h-260.171874c-4.308594 0-7.800782-3.488281-7.800782-7.796874 0-4.308594 3.492188-7.800782 7.800782-7.800782h260.171874c4.308594 0 7.800782 3.492188 7.800782 7.800782 0 4.308593-3.492188 7.796874-7.800782 7.796874zm0 0" fill="#1980f9"/><g fill="#c8bebc"><path d="m45.398438 58.65625h159.488281c4.308593 0 7.796875-3.492188 7.796875-7.800781 0-4.308594-3.488282-7.800781-7.796875-7.800781h-159.488281c-4.308594 0-7.800782 3.492187-7.800782 7.800781 0 4.308593 3.492188 7.800781 7.800782 7.800781zm0 0"/><path d="m149.390625 95.019531h-103.992187c-4.308594 0-7.800782 3.492188-7.800782 7.800781 0 4.308594 3.492188 7.796876 7.800782 7.796876h103.992187c4.308594 0 7.800781-3.488282 7.800781-7.796876 0-4.308593-3.492187-7.800781-7.800781-7.800781zm0 0"/><path d="m204.886719 95.019531h-24.296875c-4.308594 0-7.800782 3.492188-7.800782 7.800781 0 4.308594 3.492188 7.796876 7.800782 7.796876h24.296875c4.308593 0 7.796875-3.488282 7.796875-7.796876 0-4.308593-3.492188-7.800781-7.796875-7.800781zm0 0"/></g><path d="m411.953125 185.160156c0 2.714844-.402344 5.335938-1.152344 7.800782-1.289062 4.179687-3.589843 7.933593-6.613281 10.949218-4.804688 4.792969-11.429688 7.769532-18.75 7.769532h-249.074219c-.5625 0-1.125-.117188-1.644531-.34375l-6.96875-3.007813-43.4375-18.707031c-3.015625-2.214844-3.015625-6.71875 0-8.921875l43.4375-18.710938 6.96875-3.003906c.519531-.226563 1.082031-.34375 1.644531-.34375h249.074219c11.925781 0 22.015625 7.882813 25.339844 18.71875.769531 2.464844 1.175781 5.085937 1.175781 7.800781zm0 0" fill="#63a6fd"/><path d="m143.347656 158.640625v53.039063h-6.988281c-.558594 0-1.121094-.117188-1.640625-.34375l-6.96875-3.007813v-46.339844l6.96875-3.003906c.519531-.226563 1.082031-.34375 1.640625-.34375zm0 0" fill="#1980f9"/><path d="m411.953125 185.160156c0 2.714844-.402344 5.335938-1.152344 7.800782h-275.25c-4.316406 0-7.800781-3.496094-7.800781-7.800782 0-4.304687 3.484375-7.800781 7.800781-7.800781h275.226563c.769531 2.464844 1.175781 5.085937 1.175781 7.800781zm0 0" fill="#1980f9"/></svg>