<svg height="512pt" viewBox="0 0 512 512" width="512pt" xmlns="http://www.w3.org/2000/svg"><path d="m482 50h-452c-11.050781 0-20 8.949219-20 20v260h492v-260c0-11.050781-8.949219-20-20-20zm0 0" fill="#ede9e8"/><path d="m502 330v46c0 11.050781-8.949219 20-20 20-54.394531 0-413.792969 0-452 0-11.050781 0-20-8.949219-20-20v-46zm0 0" fill="#656d88"/><path d="m376 502h-240c0-22.089844 17.910156-40 40-40h160c22.089844 0 40 17.910156 40 40zm0 0" fill="#656d88"/><path d="m333.480469 330h-154.960938c8.878907-34.5 40.199219-60 77.480469-60s68.601562 25.5 77.480469 60zm0 0" fill="#5c9cee"/><path d="m216 396h80v66h-80zm0 0" fill="#ede9e8"/><path d="m306 200c0 27.613281-22.386719 50-50 50s-50-22.386719-50-50 22.386719-50 50-50 50 22.386719 50 50zm0 0" fill="#5c9cee"/><path d="m256 10c22.089844 0 40 17.910156 40 40s-17.910156 40-40 40-40-17.910156-40-40 17.910156-40 40-40zm0 0" fill="#5c9cee"/><path d="m472 110c0 5.523438-4.476562 10-10 10s-10-4.476562-10-10 4.476562-10 10-10 10 4.476562 10 10zm0 0"/><path d="m266 50c0 5.523438-4.476562 10-10 10s-10-4.476562-10-10 4.476562-10 10-10 10 4.476562 10 10zm0 0"/><path d="m316 200c0-33.085938-26.914062-60-60-60s-60 26.914062-60 60 26.914062 60 60 60 60-26.914062 60-60zm-60 40c-22.054688 0-40-17.945312-40-40s17.945312-40 40-40 40 17.945312 40 40-17.945312 40-40 40zm0 0"/><path d="m482 40h-177.007812c-4.644532-22.796875-24.847657-40-48.992188-40s-44.347656 17.203125-48.992188 40h-177.007812c-16.542969 0-30 13.457031-30 30v306c0 16.542969 13.457031 30 30 30h176v46h-30c-24.144531 0-44.347656 17.203125-48.992188 40h-31.007812c-5.523438 0-10 4.476562-10 10s4.476562 10 10 10h320c5.523438 0 10-4.476562 10-10s-4.476562-10-10-10h-31.007812c-4.644532-22.796875-24.84375-40-48.992188-40h-30v-46h176c16.542969 0 30-13.457031 30-30v-306c0-16.542969-13.457031-30-30-30zm-226-20c16.542969 0 30 13.457031 30 30s-13.457031 30-30 30-30-13.457031-30-30 13.457031-30 30-30zm-226 40h177.007812c4.644532 22.796875 24.84375 40 48.992188 40s44.347656-17.203125 48.992188-40h177.007812c5.515625 0 10 4.484375 10 10v250h-151.121094c-12.578125-35.691406-46.429687-60-84.878906-60s-72.300781 24.308594-84.878906 60h-151.121094v-250c0-5.515625 4.484375-10 10-10zm289.265625 260h-126.53125c11.394531-24.070312 35.820313-40 63.265625-40s51.871094 15.929688 63.265625 40zm45.015625 172h-216.5625c4.128906-11.640625 15.246094-20 28.28125-20h160c13.035156 0 24.152344 8.359375 28.28125 20zm-78.28125-40h-60v-46h60zm196-66h-452c-5.515625 0-10-4.484375-10-10v-36h472v36c0 5.515625-4.484375 10-10 10zm0 0"/><path d="m356 120h66c5.523438 0 10-4.476562 10-10s-4.476562-10-10-10h-66c-5.523438 0-10 4.476562-10 10s4.476562 10 10 10zm0 0"/></svg>