<svg height="512pt" viewBox="0 0 512 512" width="512pt" xmlns="http://www.w3.org/2000/svg"><path d="m512 512h-512l.320312-179.136719 66.558594-332.863281h378.242188l66.878906 336zm0 0" fill="#b0b4b9"/><path d="m0 512h512v-176h-511.695312zm0 0" fill="#5f90ff"/><path d="m352 448h-192v-64h32v32h128v-32h32zm0 0" fill="#ffd337"/><path d="m0 512h512v-32h-511.695312zm0 0" fill="#347bf7"/><path d="m32 384h32v32h-32zm0 0" fill="#fff"/><path d="m96 384h32v32h-32zm0 0" fill="#fff"/><path d="m80 0h352v288h-352zm0 0" fill="#ffd337"/><g fill="#fff"><path d="m144 64h96v32h-96zm0 0"/><path d="m144 128h224v32h-224zm0 0"/><path d="m368 224h-32v-32h32zm-64 0h-32v-32h32zm-64 0h-96v-32h96zm0 0"/></g></svg>