<svg height="512pt" viewBox="-2 0 511 512" width="512pt" xmlns="http://www.w3.org/2000/svg"><path d="m319.09375 148.925781v113.609375c0 48.027344 21.046875 93.644532 57.589844 124.816406 6.640625 5.667969 6.328125 16.003907-.625 21.285157-10.757813 8.175781-28.617188 19.183593-54.277344 27.03125-19.21875 5.875-39.25 8.652343-59.34375 8.652343h-142.898438c-20.097656 0-40.128906-2.777343-59.34375-8.652343-25.660156-7.847657-43.523437-18.855469-54.28125-27.03125-6.949218-5.28125-7.265624-15.617188-.621093-21.285157 36.542969-31.171874 57.589843-76.789062 57.589843-124.816406v-111.53125zm0 0" fill="#e38803"/><path d="m359.335938 481.257812c0 8.476563-3.433594 16.164063-9 21.71875-5.554688 5.5625-13.238282 8.996094-21.714844 8.996094h-275.261719c-16.964844 0-30.714844-13.75-30.714844-30.714844 0-38.757812 15.707031-73.839843 41.105469-99.238281 2.777344-2.777343 5.667969-5.441406 8.675781-7.96875 11.128907-9.421875 23.734375-17.128906 37.433594-22.738281.925781-.375 1.851563-.746094 2.789063-1.089844.007812 0 .019531-.011718.019531-.011718.09375-.03125.1875-.074219.28125-.113282 15.539062-5.929687 32.410156-9.183594 50.039062-9.183594h56c17.578125 0 34.398438 3.222657 49.898438 9.121094.050781.019532.089843.039063.144531.050782.0625.03125.132812.050781.195312.082031.96875.367187 1.9375.75 2.894532 1.144531 13.695312 5.609375 26.304687 13.316406 37.433594 22.726562 30.445312 25.746094 49.78125 64.21875 49.78125 107.21875zm0 0" fill="#fff5f4"/><path d="m209.746094 340.917969c-20.199219 0-39.460938 3.703125-57.050782 10.398437-14.707031 5.609375-28.238281 13.316406-40.191406 22.738282-3.234375 2.527343-6.332031 5.191406-9.320312 7.96875-27.269532 25.398437-44.132813 60.484374-44.132813 99.238281 0 16.964843 14.761719 30.714843 32.984375 30.714843h-38.671875c-16.964843 0-30.714843-13.75-30.714843-30.714843 0-38.753907 15.707031-73.839844 41.105468-99.238281 2.777344-2.777344 5.667969-5.441407 8.675782-7.96875 12.898437-10.921876 27.75-19.257813 40.21875-23.828126.011718 0 .023437-.011718.023437-.011718 15.945313-5.300782 28.625-9.296875 50.320313-9.296875zm0 0" fill="#ebe0da"/><path d="m337.167969 404.109375v16.933594h-17.773438c-2.082031 0-4.121093-.144531-6.117187-.425781v-16.507813c0-2.839844 2.308594-5.148437 5.148437-5.148437h13.59375c2.839844 0 5.148438 2.308593 5.148438 5.148437zm0 0" fill="#ebe0da"/><path d="m337.167969 404.109375v16.933594h-17.773438c-2.082031 0-4.121093-.144531-6.117187-.425781v-16.507813c0-2.839844 2.308594-5.148437 5.148437-5.148437h13.59375c2.839844 0 5.148438 2.308593 5.148438 5.148437zm0 0" fill="#ebe0da"/><path d="m296.042969 400.023438c-.0625 5.273437-6.65625 7.664062-10.484375 4.140624l-25.535156-18.433593c-2.269532-1.183594-4.941407-1.269531-7.28125-.21875l-56.082032 23.851562c-3.796875 2.890625-9.082031 2.859375-12.835937-.082031l-54.585938-23.769531c-2.339843-1.050781-5.015625-.964844-7.292969.21875l-25.523437 18.433593c-3.839844 3.523438-10.421875 1.132813-10.484375-4.140624-.3125-27.066407 12.191406-41.804688 26.710938-49.800782.007812 0 .019531-.011718.019531-.011718.09375-.03125.1875-.074219.28125-.113282 15.539062-5.929687 32.410156-9.183594 50.039062-9.183594h56c17.578125 0 34.398438 3.222657 49.898438 9.121094.050781.019532.089843.039063.144531.050782.0625.03125.125.0625.1875.082031h.007812c14.5625 7.988281 27.128907 22.726562 26.816407 49.855469zm0 0" fill="#7af4ab"/><path d="m198.789062 409.28125v102.691406h-15.601562v-102.691406c0-4.308594 3.492188-7.800781 7.800781-7.800781 4.304688 0 7.800781 3.492187 7.800781 7.800781zm0 0" fill="#7af4ab"/><path d="m155.96875 297.042969v75.894531l29.820312 33.554688c1.957032 3.464843 6.917969 3.515624 8.964844.125.011719-.011719.023438-.03125.03125-.042969l31.214844-33.636719v-75.894531zm0 0" fill="#f2bb88"/><path d="m131.476562 209.746094c0 21.859375-17.71875 39.578125-39.578124 39.578125-21.859376 0-39.578126-17.71875-39.578126-39.578125 0-21.855469 17.71875-39.578125 39.578126-39.578125 21.859374 0 39.578124 17.722656 39.578124 39.578125zm0 0" fill="#f2bb88"/><path d="m329.65625 209.753906c0 21.859375-17.722656 39.578125-39.578125 39.578125-21.859375 0-39.578125-17.71875-39.578125-39.578125s17.71875-39.578125 39.578125-39.578125c21.855469 0 39.578125 17.71875 39.578125 39.578125zm0 0" fill="#f2bb88"/><path d="m190.984375 51.113281h104.984375v186.832031c0 56.832032-78.972656 102.898438-104.980469 102.902344h-.003906c-26.003906-.003906-104.976563-46.074218-104.976563-102.902344v-186.832031zm0 0" fill="#f2d1a5"/><path d="m209.195312 336.652344c-7.25 2.726562-13.5625 4.191406-18.203124 4.191406h-.011719c-13 0-39.242188-11.515625-62.238281-30.132812-23-18.628907-42.738282-44.351563-42.738282-72.765626v-186.828124h36.402344v186.828124c0 28.414063 19.742188 54.136719 42.738281 72.765626 14.800781 11.984374 30.957031 21.03125 44.050781 25.941406zm0 0" fill="#f2bb88"/><path d="m328.320312 151.019531h-38.230468c-19.566406 0-35.421875-15.859375-35.421875-35.421875l2.113281-60.769531c0-19.5625 15.859375-35.421875 35.421875-35.421875h9.382813c19.5625 0 35.421874 15.859375 35.421874 35.421875l-2.117187 89.617187c0 3.628907-2.941406 6.574219-6.570313 6.574219zm0 0" fill="#f0a70a"/><path d="m281.8125 8.164062v14.988282c0 60.558594-85.707031 128.902344-196.207031 127.863281h-30.789063c-4.253906 0-7.707031-3.441406-7.707031-7.6875l.726563-28.507813 1.382812-53.992187c0-33.597656 27.292969-60.828125 60.964844-60.828125h163.445312c4.523438 0 8.183594 3.652344 8.183594 8.164062zm0 0" fill="#f0a70a"/><path d="m255.289062 0c-11.054687 56.894531-92.300781 115.785156-194.917968 114.820312h-12.535156l1.382812-53.992187c0-33.597656 27.292969-60.828125 60.964844-60.828125zm0 0" fill="#fdc202"/><g fill="#e38803"><path d="m211.925781 246.386719c-4.308593 0-7.800781 3.492187-7.800781 7.800781 0 7.242188-5.894531 13.136719-13.136719 13.136719-7.242187 0-13.136719-5.894531-13.136719-13.136719 0-4.308594-3.492187-7.800781-7.800781-7.800781-4.308593 0-7.800781 3.492187-7.800781 7.800781 0 15.84375 12.890625 28.738281 28.738281 28.738281 15.84375 0 28.738281-12.894531 28.738281-28.738281 0-4.308594-3.492187-7.800781-7.800781-7.800781zm0 0"/><path d="m257.222656 210.757812c0 6.871094-5.566406 12.4375-12.4375 12.4375-6.867187 0-12.4375-5.566406-12.4375-12.4375 0-6.867187 5.570313-12.4375 12.4375-12.4375 6.871094 0 12.4375 5.570313 12.4375 12.4375zm0 0"/><path d="m149.625 210.757812c0 6.871094-5.566406 12.4375-12.4375 12.4375-6.867188 0-12.4375-5.566406-12.4375-12.4375 0-6.867187 5.570312-12.4375 12.4375-12.4375 6.871094 0 12.4375 5.570313 12.4375 12.4375zm0 0"/><path d="m273.089844 179.523438c-16.742188-10.523438-43.640625-5.320313-46.65625-4.695313-4.214844.878906-6.921875 5.011719-6.042969 9.230469s5.011719 6.929687 9.226563 6.042968c6.039062-1.257812 25.457031-3.476562 35.167968 2.632813 1.289063.808594 2.726563 1.195313 4.144532 1.195313 2.59375 0 5.132812-1.289063 6.613281-3.648438 2.292969-3.648438 1.195312-8.460938-2.453125-10.757812zm0 0"/><path d="m155.539062 174.828125c-3.011718-.625-29.914062-5.832031-46.65625 4.695313-3.644531 2.296874-4.742187 7.109374-2.449218 10.757812 1.480468 2.359375 4.015625 3.652344 6.609375 3.652344 1.417969 0 2.855469-.386719 4.144531-1.199219 9.699219-6.097656 28.664062-3.964844 35.167969-2.628906 4.222656.886719 8.351562-1.828125 9.230469-6.046875.878906-4.21875-1.828126-8.351563-6.046876-9.230469zm0 0"/></g><path d="m435.339844 368.824219c-4.308594 0-7.800782-3.492188-7.800782-7.800781v-43.601563c0-6.933594-5.644531-12.578125-12.578124-12.578125h-47.492188c-6.933594 0-12.574219 5.644531-12.574219 12.578125v43.601563c0 4.308593-3.496093 7.800781-7.800781 7.800781-4.308594 0-7.800781-3.492188-7.800781-7.800781v-43.601563c0-15.539063 12.640625-28.179687 28.175781-28.179687h47.492188c15.539062 0 28.179687 12.640624 28.179687 28.179687v43.601563c0 4.308593-3.492187 7.800781-7.800781 7.800781zm0 0" fill="#db7d00"/><path d="m507.152344 346.574219v134.074219c0 3.105468-.453125 6.097656-1.285156 8.921874-3.84375 12.964844-15.851563 22.429688-30.0625 22.429688h-169.21875c-17.320313 0-31.351563-14.039062-31.351563-31.351562v-134.074219c0-5.757813 4.664063-10.425781 10.421875-10.425781h211.074219c5.757812 0 10.421875 4.667968 10.421875 10.425781zm0 0" fill="#ca7400"/><path d="m507.152344 346.574219v30.3125c0 8.328125-2.304688 16.121093-6.3125 22.773437-7.734375 12.8125-21.785156 21.382813-37.84375 21.382813h-143.605469c-24.390625 0-44.15625-19.765625-44.15625-44.15625v-30.3125c0-5.757813 4.664063-10.425781 10.421875-10.425781h211.074219c5.757812 0 10.421875 4.667968 10.421875 10.425781zm0 0" fill="#b96a00"/><path d="m505.871094 489.570312c-3.847656 12.960938-15.851563 22.425782-30.070313 22.425782h-169.21875c-17.316406 0-31.347656-14.03125-31.347656-31.347656v-134.074219c0-5.761719 4.667969-10.421875 10.421875-10.421875h10.703125v123.359375c0 17.308593 14.03125 31.351562 31.347656 31.351562h169.21875c3.109375 0 6.117188-.449219 8.945313-1.292969zm0 0" fill="#b96a00"/><path d="m464.007812 442.800781h-13.601562c-2.839844 0-5.144531-2.304687-5.144531-5.148437v-33.542969c0-2.84375 2.304687-5.144531 5.144531-5.144531h13.601562c2.839844 0 5.144532 2.300781 5.144532 5.144531v33.542969c0 2.84375-2.304688 5.148437-5.144532 5.148437zm0 0" fill="#c8bebc"/><path d="m469.152344 404.109375v16.507813c-2.007813.28125-4.066406.425781-6.160156.425781h-17.734376v-16.933594c0-2.839844 2.3125-5.148437 5.148438-5.148437h13.597656c2.847656 0 5.148438 2.308593 5.148438 5.148437zm0 0" fill="#ebe0da"/><path d="m500.835938 399.664062c-7.726563 12.8125-21.78125 21.382813-37.839844 21.382813h-143.597656c-24.394532 0-44.164063-19.773437-44.164063-44.164063v-30.308593c0-5.761719 4.667969-10.421875 10.421875-10.421875h10.703125v22.625c0 24.390625 19.769531 44.160156 44.164063 44.160156h143.597656c5.917968 0 11.566406-1.164062 16.714844-3.273438zm0 0" fill="#a86000"/><path d="m469.152344 404.109375v16.507813c-2.007813.28125-4.066406.425781-6.160156.425781h-17.734376v-16.933594c0-2.839844 2.3125-5.148437 5.148438-5.148437h13.597656c2.847656 0 5.148438 2.308593 5.148438 5.148437zm0 0" fill="#ebe0da"/><path d="m332.023438 442.800781h-13.597657c-2.839843 0-5.144531-2.304687-5.144531-5.148437v-33.542969c0-2.84375 2.304688-5.144531 5.144531-5.144531h13.597657c2.84375 0 5.148437 2.300781 5.148437 5.144531v33.542969c-.003906 2.84375-2.304687 5.148437-5.148437 5.148437zm0 0" fill="#c8bebc"/><path d="m337.167969 404.109375v16.507813c-2.007813.28125-4.066407.425781-6.15625.425781h-17.734375v-16.933594c0-2.839844 2.308594-5.148437 5.148437-5.148437h13.59375c2.851563 0 5.148438 2.308593 5.148438 5.148437zm0 0" fill="#ebe0da"/></svg>