<svg height="512pt" viewBox="0 -26 512.00017 512" width="512pt" xmlns="http://www.w3.org/2000/svg"><path d="m335.949219 367.78125c2.28125-1.160156 4.339843-2.769531 6.039062-4.761719l78.339844-84.398437c21.640625-25.25 60.902344-24.582032 81.671875 1.378906l-128 148.140625c-11.398438 13.839844-28.390625 21.859375-46.320312 21.859375h-251.679688v-140h-.339844c12.339844-17.660156 40.53125-30 73.339844-30s61 12.339844 73.339844 30h4.011718 49.648438c32.390625 0 58.789062 25.660156 59.949219 57.78125zm0 0" fill="#ffcebf"/><path d="m456 120c0 60.75-49.25 110-110 110s-110-49.25-110-110 49.25-110 110-110 110 49.25 110 110zm0 0" fill="#f2df33"/><path d="m76 310v140h-66v-140zm0 0" fill="#ed5575"/><path d="m186 370c0 5.523438-4.476562 10-10 10s-10-4.476562-10-10 4.476562-10 10-10 10 4.476562 10 10zm0 0"/><path d="m346 150c-4.273438 0-8.886719-2.6875-12.984375-7.5625-3.554687-4.230469-9.863281-4.777344-14.089844-1.222656-4.230469 3.554687-4.773437 9.863281-1.21875 14.089844 5.34375 6.359374 11.632813 10.792968 18.292969 13.027343v11.667969c0 5.523438 4.476562 10 10 10s10-4.476562 10-10v-11.71875c11.640625-4.128906 20-15.246094 20-28.28125 0-16.542969-13.457031-30-30-30-5.515625 0-10-4.484375-10-10s4.484375-10 10-10c3.542969 0 7.28125 1.808594 10.816406 5.226562 3.96875 3.839844 10.300782 3.734376 14.140625-.230468 3.839844-3.972656 3.734375-10.300782-.234375-14.140625-5.074218-4.914063-10.152344-7.6875-14.722656-9.207031v-11.648438c0-5.523438-4.476562-10-10-10s-10 4.476562-10 10v11.71875c-11.640625 4.128906-20 15.246094-20 28.28125 0 16.542969 13.457031 30 30 30 5.511719 0 10 4.484375 10 10s-4.484375 10-10 10zm0 0"/><path d="m412.871094 271.957031-70.449219 75.898438c-9.160156-27.578125-35.257813-47.855469-66.421875-47.855469h-48.777344c-15.742187-18.367188-45.695312-30-78.222656-30s-62.46875 11.632812-78.210938 30h-60.789062c-5.523438 0-10 4.476562-10 10v140c0 5.523438 4.476562 10 10 10h317.679688c20.953124 0 40.613281-9.257812 53.960937-25.40625l127.925781-148.054688c3.152344-3.648437 3.253906-9.023437.242188-12.785156-24.652344-30.816406-71.199219-31.628906-96.9375-1.796875zm-392.871094 48.042969h46v120h-46zm346.433594 101.601562c-.050782.058594-.101563.121094-.152344.179688-9.535156 11.578125-23.605469 18.21875-38.601562 18.21875h-241.679688v-127.035156c11.816406-13.851563 36.511719-22.964844 63-22.964844 28.210938 0 54.390625 10.339844 65.144531 25.726562 1.871094 2.679688 4.929688 4.273438 8.195313 4.273438h53.660156c24.25 0 44.390625 17.015625 48.992188 40h-108.992188c-5.523438 0-10 4.476562-10 10s4.476562 10 10 10h110.800781c5.835938 0 8.996094-1.535156 11.222657-2 3.214843-.671875 4.683593-2.515625 5.976562-3.417969 2.003906-1.394531 3.828125-3.03125 5.445312-4.894531l78.214844-84.265625c.089844-.097656.175782-.195313.261719-.292969 15.460937-18.042968 42.59375-20.097656 60.558594-4.777344zm0 0"/><path d="m346 240c66.167969 0 120-53.832031 120-120s-53.832031-120-120-120-120 53.832031-120 120 53.832031 120 120 120zm0-220c55.140625 0 100 44.859375 100 100s-44.859375 100-100 100-100-44.859375-100-100 44.859375-100 100-100zm0 0"/></svg>