<svg height="512pt" viewBox="0 0 512.00408 512" width="512pt" xmlns="http://www.w3.org/2000/svg"><path d="m0 .00390625h512v511.99999975h-512zm0 0" fill="#bcaaa4"/><path d="m0 .00390625v511.99999975h512v-511.99999975zm480 31.99999975v128h-448v-128zm0 160v128h-448v-128zm-448 288v-128h448v128zm0 0" fill="#a1887f"/><path d="m336 288.003906h-160v-64h32v32h96v-32h32zm0 0" fill="#fff"/><path d="m336 128.003906h-160v-64h32v32h96v-32h32zm0 0" fill="#fff"/><path d="m466.769531 512.003906h-197.539062c-15.773438 0-30.160157-8.019531-38.445313-21.441406-8.304687-13.441406-9.023437-29.871094-1.96875-43.984375l98.75-197.519531c7.699219-15.425782 23.203125-25.007813 40.433594-25.007813s32.734375 9.582031 40.433594 25.007813l98.75 197.519531c7.054687 14.113281 6.335937 30.542969-1.96875 43.984375-8.285156 13.421875-22.671875 21.441406-38.445313 21.441406zm0 0" fill="#e76e54"/><path d="m384 448.003906h-32v-32h32zm0-64h-32v-64h32zm0 0" fill="#fff"/></svg>