<svg height="512pt" viewBox="0 0 512 512" width="512pt" xmlns="http://www.w3.org/2000/svg"><path d="m0 0h512v512h-512z" fill="#bcaaa4"/><path d="m0 0v512h512v-512zm480 32v128h-448v-128zm0 160v128h-448v-128zm-448 288v-128h448v128zm0 0" fill="#a1887f"/><path d="m336 128h-160v-64h32v32h96v-32h32zm0 0" fill="#fff"/><path d="m336 288h-160v-64h32v32h96v-32h32zm0 0" fill="#fff"/><path d="m456 512h-192c-39.695312 0-72-32.304688-72-72s32.304688-72 72-72c2.671875 0 5.375.175781 8.128906.527344 18.894532-29.839844 52.144532-48.527344 87.871094-48.527344 48.527344 0 90.304688 34.191406 101.167969 80.238281 28.480469 2.625 50.832031 26.625 50.832031 55.761719 0 30.878906-25.121094 56-56 56zm0 0" fill="#e4edfb"/><path d="m456 480h-192c-34.191406 0-62.753906-24-70.0625-56-1.183594 5.167969-1.9375 10.480469-1.9375 16 0 39.695312 32.304688 72 72 72h192c30.878906 0 56-25.121094 56-56 0-5.617188-1.054688-10.929688-2.59375-16.046875-6.925781 23.070313-28.109375 40.046875-53.40625 40.046875zm0 0" fill="#d7e1f2"/></svg>