<svg height="512pt" viewBox="0 -26 512 512" width="512pt" xmlns="http://www.w3.org/2000/svg"><path d="m502 152.140625v137.859375c0 22.089844-17.910156 40-40 40h-70v120h-60c0-38.484375 0-128.632812 0-160 0-11.050781 8.949219-20 20-20h70v-120c0-24.289062 21.660156-43.53125 46.71875-39.449219 19.660156 3.199219 33.28125 21.660157 33.28125 41.589844zm0 0" fill="#5c9cee"/><path d="m502 50c0 22.089844-17.910156 40-40 40s-40-17.910156-40-40 17.910156-40 40-40 40 17.910156 40 40zm0 0" fill="#5c9cee"/><path d="m372 150v40c0 11.050781-8.949219 20-20 20-38.988281 0-152.878906 0-192 0-11.050781 0-20-8.949219-20-20v-40zm0 0" fill="#656d88"/><path d="m332 450h-152c0-85.863281 0-154 0-240h152zm0 0" fill="#c6715a"/><path d="m180 290v160h-60v-120h-70c-22.089844 0-40-17.910156-40-40v-137.859375c0-19.929687 13.621094-38.390625 33.28125-41.589844 25.058594-4.082031 46.71875 15.160157 46.71875 39.449219v120h70c11.050781 0 20 8.949219 20 20zm0 0" fill="#5c9cee"/><path d="m90 50c0 22.089844-17.910156 40-40 40s-40-17.910156-40-40 17.910156-40 40-40 40 17.910156 40 40zm0 0" fill="#5c9cee"/><path d="m266 350c0 5.523438-4.476562 10-10 10s-10-4.476562-10-10 4.476562-10 10-10 10 4.476562 10 10zm0 0"/><path d="m470.328125 100.679688c-30.644531-4.992188-58.328125 18.394531-58.328125 49.320312v110h-60c-3.507812 0-6.871094.609375-10 1.71875v-41.71875h10c16.542969 0 30-13.457031 30-30v-40c0-5.523438-4.476562-10-10-10h-232c-5.523438 0-10 4.476562-10 10v40c0 16.542969 13.457031 30 30 30h10v41.71875c-3.128906-1.109375-6.492188-1.71875-10-1.71875h-60v-110c0-30.894531-27.621094-54.320312-58.328125-49.320312-23.757813 3.867187-41.671875 25.992187-41.671875 51.460937v137.859375c0 27.570312 22.429688 50 50 50h60v100h-100c-5.523438 0-10 4.476562-10 10s4.476562 10 10 10h492c5.523438 0 10-4.476562 10-10s-4.476562-10-10-10h-100v-100h60c27.570312 0 50-22.429688 50-50v-137.859375c0-25.46875-17.914062-47.59375-41.671875-51.460937zm-320.328125 89.320312v-30h212v30c0 5.515625-4.484375 10-10 10h-192c-5.515625 0-10-4.484375-10-10zm172 30v220h-132v-220zm-202 100h-70c-16.542969 0-30-13.457031-30-30v-137.859375c0-15.773437 10.699219-29.410156 24.886719-31.71875 19.191406-3.125 35.113281 11.644531 35.113281 29.578125v120c0 5.523438 4.476562 10 10 10h70c5.515625 0 10 4.484375 10 10v150h-40v-110c0-5.523438-4.476562-10-10-10zm372-30c0 16.542969-13.457031 30-30 30h-70c-5.523438 0-10 4.476562-10 10v110h-40c0-22.683594 0-127.207031 0-150 0-5.515625 4.484375-10 10-10h70c5.523438 0 10-4.476562 10-10v-120c0-17.960938 15.949219-32.699219 35.113281-29.578125 14.1875 2.308594 24.886719 15.945313 24.886719 31.71875zm0 0"/><path d="m256 320c5.523438 0 10-4.476562 10-10v-40c0-5.523438-4.476562-10-10-10s-10 4.476562-10 10v40c0 5.523438 4.476562 10 10 10zm0 0"/><path d="m50 100c27.570312 0 50-22.429688 50-50s-22.429688-50-50-50-50 22.429688-50 50 22.429688 50 50 50zm0-80c16.542969 0 30 13.457031 30 30s-13.457031 30-30 30-30-13.457031-30-30 13.457031-30 30-30zm0 0"/><path d="m462 0c-27.570312 0-50 22.429688-50 50s22.429688 50 50 50 50-22.429688 50-50-22.429688-50-50-50zm0 80c-16.542969 0-30-13.457031-30-30s13.457031-30 30-30 30 13.457031 30 30-13.457031 30-30 30zm0 0"/></svg>