<svg height="512pt" viewBox="0 -1 512.00076 512" width="512pt" xmlns="http://www.w3.org/2000/svg"><path d="m334.445312 479.320312c0 8.421876-3.410156 16.058594-8.9375 21.574219-5.515624 5.527344-13.152343 8.9375-21.570312 8.9375h-273.425781c-16.851563 0-30.511719-13.660156-30.511719-30.511719 0-57.921874 35.464844-108.132812 86.632812-129.078124.921876-.371094 1.839844-.742188 2.769532-1.082032.011718 0 .019531-.011718.019531-.011718.136719-.050782.28125-.101563.414063-.164063 15.394531-5.859375 32.113281-9.074219 49.574218-9.074219h55.625c17.410156 0 34.078125 3.183594 49.441406 9.011719.152344.0625.308594.125.464844.1875.960938.359375 1.921875.742187 2.871094 1.132813 13.605469 5.570312 26.128906 13.226562 37.183594 22.578124 30.242187 25.570313 49.449218 63.789063 49.449218 106.5zm0 0" fill="#ebe0da"/><path d="m334.445312 479.320312c0 8.421876-3.410156 16.058594-8.9375 21.574219-5.515624 5.527344-13.152343 8.9375-21.570312 8.9375h-235.859375c-17.628906 0-31.917969-13.660156-31.917969-30.511719 0-38.496093 16.328125-73.34375 42.722656-98.578124 2.882813-2.757813 5.890626-5.402344 9.011719-7.914063 11.570313-9.359375 24.671875-17.015625 38.898438-22.585937 17.027343-6.652344 35.675781-10.332032 55.214843-10.332032h13.027344c17.410156 0 34.078125 3.183594 49.441406 9.011719.152344.0625.308594.125.464844.1875.960938.359375 1.921875.742187 2.871094 1.132813 13.605469 5.570312 26.128906 13.226562 37.183594 22.578124 30.242187 25.570313 49.449218 63.789063 49.449218 106.5zm0 0" fill="#fff5f4"/><path d="m271.574219 398.628906c-.058594 5.238282-6.609375 7.613282-10.414063 4.113282l-25.363281-18.308594c-2.253906-1.179688-4.910156-1.261719-7.234375-.21875l-55.707031 23.691406c-3.773438 2.871094-9.011719 2.84375-12.75-.082031l-54.222657-23.609375c-2.324218-1.042969-4.980468-.960938-7.242187.21875l-25.355469 18.308594c-3.8125 3.5-10.351562 1.125-10.414062-4.113282-.3125-26.882812 12.109375-41.523437 26.53125-49.46875.011718 0 .019531-.011718.019531-.011718.136719-.050782.28125-.101563.414063-.164063 15.394531-5.859375 32.113281-9.074219 49.574218-9.074219h55.625c17.410156 0 34.078125 3.183594 49.441406 9.011719.152344.070313.296876.125.453126.1875h.011718c14.472656 7.933594 26.945313 22.574219 26.632813 49.519531zm0 0" fill="#63a6fd"/><path d="m174.972656 407.824219v102.007812h-15.5v-102.007812c0-4.277344 3.472656-7.75 7.75-7.75s7.75 3.472656 7.75 7.75zm0 0" fill="#63a6fd"/><path d="m288.519531 464.070312h-66.402343c-4.277344 0-7.746094 3.46875-7.746094 7.75s3.46875 7.75 7.746094 7.75h66.402343c4.28125 0 7.746094-3.46875 7.746094-7.75s-3.46875-7.75-7.746094-7.75zm0 0" fill="#63a6fd"/><path d="m112.65625 464.070312h-66.398438c-4.277343 0-7.75 3.46875-7.75 7.75s3.472657 7.75 7.75 7.75h66.398438c4.28125 0 7.75-3.46875 7.75-7.75s-3.46875-7.75-7.75-7.75zm0 0" fill="#63a6fd"/><path d="m132.4375 296.335938v75.386718l29.621094 33.332032c1.941406 3.441406 6.871094 3.492187 8.90625.125.011718-.011719.019531-.03125.03125-.042969l31.007812-33.414063v-75.386718zm0 0" fill="#f2d1a5"/><path d="m110.339844 209.835938c0 21.714843-17.601563 39.316406-39.316406 39.316406-21.710938 0-39.3125-17.601563-39.3125-39.316406 0-21.710938 17.601562-39.3125 39.3125-39.3125 21.714843 0 39.316406 17.601562 39.316406 39.3125zm0 0" fill="#f2d1a5"/><path d="m307.195312 209.84375c0 21.710938-17.601562 39.3125-39.3125 39.3125-21.714843 0-39.316406-17.601562-39.316406-39.3125s17.601563-39.3125 39.316406-39.3125c21.710938 0 39.3125 17.601562 39.3125 39.3125zm0 0" fill="#f2d1a5"/><path d="m271.667969 55.039062v182.8125c0 28.21875-19.609375 53.777344-42.453125 72.273438-14.703125 11.902344-30.738282 20.890625-43.746094 25.777344-7.199219 2.707031-13.472656 4.164062-18.082031 4.164062-25.828125-.007812-104.277344-45.769531-104.277344-102.214844v-182.8125c0-18.640624 15.105469-33.746093 33.742187-33.746093h141.074219c18.636719 0 33.742188 15.105469 33.742188 33.746093zm0 0" fill="#f2d1a5"/><path d="m271.667969 55.039062v182.8125c0 28.21875-19.609375 53.777344-42.453125 72.273438-14.703125 11.902344-30.738282 20.890625-43.746094 25.777344-33.214844-12.492188-86.199219-51.667969-86.199219-98.050782v-182.8125c0-18.640624 15.105469-33.746093 33.746094-33.746093h104.910156c18.636719 0 33.742188 15.105469 33.742188 33.746093zm0 0" fill="#ffe4c2"/><g fill="#ca7400"><path d="m188.1875 234.738281c-4.28125 0-7.75 3.46875-7.75 7.746094 0 7.195313-5.855469 13.050781-13.050781 13.050781-7.195313 0-13.046875-5.855468-13.046875-13.050781 0-4.277344-3.46875-7.746094-7.75-7.746094-4.277344 0-7.75 3.46875-7.75 7.746094 0 15.742187 12.808594 28.546875 28.546875 28.546875 15.742187 0 28.546875-12.804688 28.546875-28.546875 0-4.277344-3.46875-7.746094-7.746094-7.746094zm0 0"/><path d="m233.183594 196.507812c0 6.824219-5.53125 12.355469-12.355469 12.355469s-12.355469-5.53125-12.355469-12.355469c0-6.820312 5.53125-12.351562 12.355469-12.351562s12.355469 5.53125 12.355469 12.351562zm0 0"/><path d="m126.304688 196.507812c0 6.824219-5.53125 12.355469-12.355469 12.355469s-12.355469-5.53125-12.355469-12.355469c0-6.820312 5.53125-12.351562 12.355469-12.351562s12.355469 5.53125 12.355469 12.351562zm0 0"/><path d="m248.945312 165.484375c-16.632812-10.453125-43.351562-5.289063-46.34375-4.664063-4.191406.875-6.878906 4.976563-6.007812 9.167969.875 4.191407 4.980469 6.882813 9.167969 6.003907 5.996093-1.25 25.285156-3.453126 34.933593 2.613281 1.28125.804687 2.707032 1.1875 4.117188 1.1875 2.578125 0 5.097656-1.28125 6.566406-3.625 2.28125-3.621094 1.1875-8.40625-2.433594-10.683594zm0 0"/><path d="m132.175781 160.820312c-2.992187-.625-29.714843-5.792968-46.34375 4.664063-3.621093 2.277344-4.714843 7.0625-2.433593 10.683594 1.46875 2.34375 3.988281 3.628906 6.566406 3.628906 1.40625 0 2.835937-.386719 4.117187-1.191406 9.632813-6.054688 28.472657-3.9375 34.933594-2.613281 4.191406.882812 8.292969-1.8125 9.167969-6.003907.871094-4.191406-1.816406-8.292969-6.007813-9.167969zm0 0"/></g><path d="m281.636719 131.910156h-37.976563c-19.433594 0-35.1875-15.753906-35.1875-35.183594v-42.261718c0-19.429688 15.753906-35.183594 35.1875-35.183594h9.320313c19.429687 0 35.183593 15.753906 35.183593 35.183594v70.917968c0 3.605469-2.921874 6.527344-6.527343 6.527344zm0 0" fill="#b96a00"/><path d="m267.878906 7.933594v14.519531c0 4.214844-.425781 8.441406-1.261718 12.65625-10.796876 54.488281-89.652344 107.152344-191.535157 106.210937h-18.949219c-10.652343 0-19.289062-8.429687-19.289062-18.824218v-63.53125c0-20.613282 10.871094-38.765625 27.328125-49.292969 9.535156-6.117187 20.964844-9.671875 33.226563-9.671875h162.359374c4.484376 0 8.121094 3.554688 8.121094 7.933594zm0 0" fill="#ca7400"/><path d="m267.878906 7.933594v14.519531c0 4.214844-.425781 8.441406-1.261718 12.65625-33.394532 33.898437-93.226563 59.285156-164.238282 58.632813h-18.949218c-10.652344 0-19.289063-8.429688-19.289063-18.824219v-63.542969c0-.566406.011719-1.136719.03125-1.703125 9.535156-6.117187 20.964844-9.671875 33.226563-9.671875h162.359374c4.484376 0 8.121094 3.554688 8.121094 7.933594zm0 0" fill="#db7d00"/><path d="m507.230469 348.640625-32.296875 5.691406c-.382813 5.816407-1.394532 11.464844-2.960938 16.875l28.390625 16.386719c2.757813 1.59375 3.707031 5.121094 2.113281 7.878906l-13.320312 23.078125c-1.59375 2.757813-5.121094 3.703125-7.878906 2.109375l-28.414063-16.394531c-3.957031 4.117187-8.347656 7.820313-13.113281 11.011719l11.21875 30.820312c1.089844 2.992188-.460938 6.296875-3.453125 7.394532l-8.742187 3.179687-16.292969 5.925781c-2.992188 1.089844-6.300781-.449218-7.390625-3.441406l-8.347656-22.953125-2.871094-7.871094c-1.59375.167969-3.199219.292969-4.820313.367188-1.238281.066406-2.484375.09375-3.742187.09375-2.890625 0-5.75-.160157-8.5625-.460938l-11.21875 30.824219c-1.089844 2.992188-4.402344 4.53125-7.394532 3.441406l-25.035156-9.105468c-2.992187-1.097657-4.539062-4.398438-3.449218-7.390626l11.21875-30.824218c-4.765626-3.191406-9.15625-6.894532-13.113282-11.011719l-28.414062 16.394531c-2.757813 1.59375-6.285156.648438-7.878906-2.109375l-13.320313-23.074219c-1.59375-2.757812-.644531-6.285156 2.113281-7.878906l28.390625-16.386718c-1.566406-5.414063-2.570312-11.0625-2.964843-16.875l-32.292969-5.695313c-3.144531-.554687-5.234375-3.546875-4.683594-6.6875l4.625-26.238281c.554687-3.132813 3.546875-5.230469 6.6875-4.679688l32.277344 5.695313c2.335937-5.273438 5.21875-10.234375 8.585937-14.828125l-21.089844-25.121094c-2.042968-2.449219-1.722656-6.078125.714844-8.132812l20.410156-17.128907c2.4375-2.042969 6.078126-1.726562 8.125.714844l21.074219 25.117187c5.085938-2.503906 10.480469-4.484374 16.105469-5.859374v-32.785157c0-3.1875 2.582031-5.769531 5.769531-5.769531h26.640625c3.1875 0 5.765625 2.582031 5.765625 5.769531v32.785157c5.628907 1.378906 11.023438 3.355468 16.105469 5.859374l21.078125-25.117187c2.046875-2.441406 5.683594-2.757813 8.125-.714844l20.410156 17.128907c2.4375 2.054687 2.757813 5.683593.710938 8.132812l-21.085938 25.121094c3.367188 4.59375 6.246094 9.554687 8.582031 14.828125l32.289063-5.695313c3.132813-.550781 6.125 1.546875 6.675781 4.679688l4.625 26.238281c.554688 3.140625-1.535156 6.132813-4.679687 6.6875zm0 0" fill="#285fb3"/><path d="m507.230469 348.640625-32.296875 5.691406c-.382813 5.816407-1.394532 11.464844-2.960938 16.875l28.390625 16.386719c2.757813 1.59375 3.707031 5.121094 2.113281 7.878906l-13.320312 23.078125c-1.59375 2.757813-5.121094 3.703125-7.878906 2.109375l-28.414063-16.394531c-3.957031 4.117187-8.347656 7.820313-13.113281 11.011719l11.21875 30.820312c1.089844 2.992188-.460938 6.296875-3.453125 7.394532l-8.742187 3.179687c-11.789063-5.09375-22.585938-12.035156-32.03125-20.46875l-2.871094-7.871094c-1.59375.167969-3.199219.292969-4.820313.367188-7.46875-7.984375-13.84375-16.996094-18.902343-26.808594h-.007813c-8.40625-16.304687-13.152344-34.800781-13.152344-54.414063 0-19.171874 4.542969-37.285156 12.597657-53.324218h.011718c8.253906-16.445313 20.222656-30.703125 34.800782-41.6875v19.023437c5.625 1.378907 11.019531 3.359375 16.105468 5.863281l21.074219-25.121093c2.046875-2.4375 5.6875-2.757813 8.125-.710938l20.410156 17.128907c2.4375 2.054687 2.757813 5.683593.714844 8.132812l-21.089844 25.117188c3.367188 4.597656 6.25 9.558593 8.585938 14.832031l32.285156-5.695313c3.132813-.554687 6.125 1.546875 6.679687 4.679688l4.625 26.238281c.550782 3.140625-1.539062 6.132813-4.683593 6.6875zm0 0" fill="#1980f9"/><path d="m451.335938 347.945312c0 26.058594-17.785157 47.949219-41.875 54.21875-.101563.027344-.214844.054688-.316407.074219-4.429687 1.132813-9.0625 1.734375-13.835937 1.734375-5.253906 0-10.339844-.722656-15.160156-2.082031-23.582032-6.601563-40.867188-28.25-40.867188-53.945313 0-25.484374 17.015625-47 40.316406-53.792968 4.980469-1.460938 10.261719-2.242188 15.710938-2.242188 4.773437 0 9.40625.601563 13.835937 1.734375.101563.019531.214844.046875.316407.078125 24.089843 6.261719 41.875 28.164063 41.875 54.222656zm0 0" fill="#4395fb"/><path d="m451.335938 347.945312c0 26.058594-17.785157 47.949219-41.875 54.21875-.101563.027344-.214844.054688-.316407.074219-4.429687 1.132813-9.0625 1.734375-13.835937 1.734375-5.253906 0-10.339844-.722656-15.160156-2.082031h-.007813c-8.40625-16.300781-13.152344-34.800781-13.152344-54.414063 0-19.171874 4.542969-37.285156 12.597657-53.324218h.011718c4.980469-1.460938 10.261719-2.242188 15.710938-2.242188 4.773437 0 9.410156.601563 13.835937 1.734375.101563.019531.214844.046875.320313.078125 24.085937 6.261719 41.871094 28.164063 41.871094 54.222656zm0 0" fill="#63a6fd"/><path d="m423.625 347.945312c0 7.558594-2.945312 14.671876-8.289062 20.015626-2.132813 2.121093-4.53125 3.867187-7.121094 5.1875-.695313.367187-1.398438.6875-2.113282.984374-3.382812 1.398438-7.03125 2.121094-10.792968 2.121094-7.5625 0-14.671875-2.945312-20.019532-8.292968-5.355468-5.34375-8.300781-12.453126-8.300781-20.015626 0-7.570312 2.945313-14.679687 8.300781-20.027343 5.347657-5.347657 12.457032-8.292969 20.019532-8.292969 3.761718 0 7.410156.734375 10.792968 2.121094.714844.300781 1.417969.621094 2.113282.984375 2.589844 1.324219 4.988281 3.066406 7.121094 5.1875 5.34375 5.347656 8.289062 12.457031 8.289062 20.027343zm0 0" fill="#285fb3"/><path d="m423.625 347.945312c0 7.558594-2.945312 14.671876-8.289062 20.015626-2.132813 2.121093-4.53125 3.867187-7.121094 5.1875-2.597656-1.320313-5.007813-3.066407-7.128906-5.1875-5.355469-5.34375-8.300782-12.453126-8.300782-20.015626 0-7.570312 2.945313-14.679687 8.300782-20.027343 2.121093-2.121094 4.53125-3.863281 7.128906-5.1875 2.589844 1.324219 4.988281 3.066406 7.121094 5.1875 5.34375 5.347656 8.289062 12.457031 8.289062 20.027343zm0 0" fill="#1980f9"/><path d="m505.613281 110.859375-27.964843 4.929687c-.332032 5.039063-1.210938 9.925782-2.566407 14.613282l24.585938 14.191406c2.386719 1.382812 3.207031 4.433594 1.828125 6.824219l-11.535156 19.980469c-1.378907 2.386718-4.433594 3.207031-6.824219 1.828124l-24.601563-14.199218c-3.429687 3.566406-7.230468 6.773437-11.355468 9.535156l9.714843 26.691406c.941407 2.589844-.398437 5.449219-2.988281 6.398438l-7.570312 2.753906-14.109376 5.136719c-2.589843.941406-5.457031-.390625-6.402343-2.984375l-7.226563-19.875-2.488281-6.8125c-1.378906.144531-2.769531.25-4.171875.316406-1.074219.054688-2.152344.082031-3.242188.082031-2.503906 0-4.980468-.140625-7.417968-.398437l-9.714844 26.691406c-.941406 2.589844-3.808594 3.921875-6.398438 2.980469l-21.679687-7.886719c-2.589844-.953125-3.929687-3.8125-2.988281-6.402344l9.714844-26.691406c-4.128907-2.761719-7.929688-5.96875-11.355469-9.535156l-24.605469 14.199218c-2.386719 1.382813-5.441406.558594-6.820312-1.828124l-11.535157-19.980469c-1.378906-2.386719-.558593-5.441407 1.828125-6.824219l24.585938-14.1875c-1.355469-4.6875-2.222656-9.578125-2.566406-14.613281l-27.964844-4.929688c-2.722656-.480469-4.53125-3.074219-4.054688-5.792969l4.007813-22.71875c.476562-2.714843 3.070312-4.53125 5.789062-4.054687l27.949219 4.933594c2.023438-4.566407 4.519531-8.863281 7.433594-12.84375l-18.261719-21.753907c-1.769531-2.117187-1.492187-5.261718.617187-7.042968l17.675782-14.828125c2.113281-1.773438 5.261718-1.496094 7.035156.617187l18.25 21.75c4.402344-2.167968 9.074219-3.882812 13.945312-5.074218v-28.390626c0-2.761718 2.234376-4.996093 4.996094-4.996093h23.070313c2.761719 0 4.996093 2.234375 4.996093 4.996093v28.390626c4.871094 1.191406 9.542969 2.90625 13.945313 5.074218l18.25-21.75c1.769531-2.113281 4.921875-2.390625 7.035156-.617187l17.675781 14.828125c2.109376 1.78125 2.386719 4.925781.617188 7.042968l-18.261719 21.753907c2.917969 3.980469 5.410157 8.277343 7.433594 12.839843l27.957031-4.929687c2.710938-.480469 5.304688 1.339844 5.78125 4.054687l4.003906 22.71875c.480469 2.71875-1.328124 5.3125-4.050781 5.789063zm0 0" fill="#1980f9"/><path d="m395.078125 63.679688c-6.972656 13.886718-10.910156 29.570312-10.910156 46.175781 0 8.492187 1.023437 16.738281 2.964843 24.632812 1.945313 7.890625 4.796876 15.425781 8.433594 22.480469 4.378906 8.503906 9.90625 16.304688 16.375 23.214844-1.074218.0625-2.160156.082031-3.246094.082031-2.5 0-4.980468-.132813-7.417968-.390625l-9.710938 26.6875c-.941406 2.59375-3.8125 3.925781-6.40625 2.976562l-21.675781-7.882812c-2.59375-.953125-3.925781-3.8125-2.984375-6.40625l9.710938-26.6875c-4.125-2.757812-7.925782-5.972656-11.355469-9.539062l-24.601563 14.199218c-2.386718 1.382813-5.445312.566406-6.828125-1.820312l-11.53125-19.980469c-1.382812-2.386719-.558593-5.445313 1.828125-6.832031l24.589844-14.183594c-1.363281-4.691406-2.230469-9.578125-2.570312-14.609375l-27.960938-4.941406c-2.726562-.472657-4.535156-3.066407-4.058594-5.785157l4.007813-22.71875c.476562-2.71875 3.070312-4.535156 5.785156-4.050781l27.949219 4.929688c2.023437-4.566407 4.527344-8.867188 7.4375-12.84375l-18.253906-21.75c-1.777344-2.125-1.5-5.269531.609374-7.046875l17.675782-14.824219c2.109375-1.777344 5.261718-1.5 7.039062.609375l18.246094 21.757812c4.398438-2.167968 9.070312-3.882812 13.945312-5.082031v-28.382812c0-2.769531 2.234376-5 5.003907-5h23.058593c2.769532 0 5 2.230469 5 5v11.914062c-12.625 9.515625-22.988281 21.851563-30.136718 36.097657zm0 0" fill="#285fb3"/><path d="m446.335938 204.402344-14.113282 5.136718c-2.582031.949219-5.457031-.382812-6.394531-2.976562l-7.234375-19.878906c8.183594 7.304687 17.535156 13.316406 27.742188 17.71875zm0 0" fill="#285fb3"/><path d="m457.210938 110.261719c0 22.5625-15.398438 41.519531-36.257813 46.945312-.089844.027344-.1875.050781-.277344.066407-3.835937.984374-7.847656 1.503906-11.980469 1.503906-4.546874 0-8.953124-.625-13.125-1.804688-20.421874-5.71875-35.390624-24.464844-35.390624-46.710937 0-22.070313 14.734374-40.703125 34.910156-46.585938 4.3125-1.265625 8.886718-1.941406 13.605468-1.941406 4.132813 0 8.144532.519531 11.980469 1.503906.089844.015625.1875.039063.277344.066407 20.859375 5.425781 36.257813 24.390624 36.257813 46.957031zm0 0" fill="#63a6fd"/><path d="m433.21875 110.261719c0 6.542969-2.550781 12.703125-7.183594 17.332031-1.84375 1.835938-3.921875 3.347656-6.164062 4.492188-.601563.316406-1.210938.589843-1.828125.851562-2.929688 1.210938-6.089844 1.835938-9.347657 1.835938-6.546874 0-12.703124-2.550782-17.335937-7.179688-4.636719-4.628906-7.1875-10.789062-7.1875-17.332031 0-6.554688 2.550781-12.714844 7.1875-17.34375 4.632813-4.628907 10.789063-7.179688 17.335937-7.179688 3.257813 0 6.417969.632813 9.347657 1.835938.617187.261719 1.226562.535156 1.828125.851562 2.242187 1.148438 4.320312 2.65625 6.164062 4.492188 4.632813 4.628906 7.183594 10.785156 7.183594 17.34375zm0 0" fill="#1980f9"/><path d="m395.566406 156.96875c-20.417968-5.714844-35.386718-24.464844-35.386718-46.710938 0-22.070312 14.730468-40.6875 34.898437-46.578124-6.972656 13.886718-10.910156 29.570312-10.910156 46.175781 0 8.492187 1.023437 16.738281 2.964843 24.632812 1.945313 7.890625 4.796876 15.425781 8.433594 22.480469zm0 0" fill="#4395fb"/><path d="m413.699219 127.59375c1.835937 1.839844 3.925781 3.347656 6.175781 4.496094-.609375.308594-1.21875.589844-1.828125.847656-2.933594 1.207031-6.09375 1.839844-9.351563 1.839844-6.550781 0-12.707031-2.554688-17.335937-7.183594-4.640625-4.628906-7.191406-10.785156-7.191406-17.335938 0-6.550781 2.550781-12.707031 7.191406-17.335937 4.628906-4.628906 10.785156-7.179687 17.335937-7.179687 3.257813 0 6.417969.628906 9.351563 1.828124.609375.265626 1.21875.535157 1.828125.855469-2.25 1.148438-4.339844 2.65625-6.175781 4.496094-4.640625 4.628906-7.191407 10.785156-7.191407 17.335937 0 6.550782 2.550782 12.707032 7.191407 17.335938zm0 0" fill="#285fb3"/></svg>