<svg height="512pt" viewBox="0 0 512 512" width="512pt" xmlns="http://www.w3.org/2000/svg"><path d="m0 0h512v512h-512z" fill="#bcaaa4"/><path d="m0 0v512h512v-512zm480 32v128h-448v-128zm0 160v128h-448v-128zm-448 288v-128h448v128zm0 0" fill="#a1887f"/><g fill="#fff"><path d="m336 128h-160v-64h32v32h96v-32h32zm0 0"/><path d="m336 288h-160v-64h32v32h96v-32h32zm0 0"/><path d="m336 448h-160v-64h32v32h96v-32h32zm0 0"/></g><path d="m512 400c0 61.855469-50.144531 112-112 112s-112-50.144531-112-112 50.144531-112 112-112 112 50.144531 112 112zm0 0" fill="#e76e54"/><path d="m445.246094 377.375-22.621094-22.621094-22.625 22.621094-22.625-22.621094-22.621094 22.621094 22.621094 22.625-22.621094 22.625 22.621094 22.621094 22.625-22.621094 22.625 22.621094 22.621094-22.621094-22.621094-22.625zm0 0" fill="#fff"/></svg>