<svg height="512pt" viewBox="-1 0 512 512" width="512pt" xmlns="http://www.w3.org/2000/svg"><path d="m315.703125 0c-3.320313 0-290.78125 0-298.394531 0-9.566406 0-17.308594 7.742188-17.308594 17.296875v477.40625c0 9.554687 7.742188 17.296875 17.308594 17.296875h298.394531c9.5625 0 17.304687-7.742188 17.304687-17.296875v-477.40625c0-9.554687-7.742187-17.296875-17.304687-17.296875zm0 0" fill="#fff5f4"/><path d="m47.660156 60.0625h237.691406c4.308594 0 7.804688-3.496094 7.804688-7.804688 0-4.3125-3.496094-7.804687-7.804688-7.804687h-237.691406c-4.308594 0-7.804687 3.492187-7.804687 7.804687 0 4.308594 3.496093 7.804688 7.804687 7.804688zm0 0" fill="#63a6fd"/><path d="m149.644531 83.4375c-4.308593 0-7.804687 3.492188-7.804687 7.804688s3.496094 7.804687 7.804687 7.804687h70.765625c4.308594 0 7.804688-3.492187 7.804688-7.804687s-3.496094-7.804688-7.804688-7.804688zm0 0" fill="#63a6fd"/><path d="m47.660156 99.046875h70.765625c4.3125 0 7.804688-3.492187 7.804688-7.804687s-3.492188-7.804688-7.804688-7.804688h-70.765625c-4.308594 0-7.804687 3.492188-7.804687 7.804688s3.496093 7.804687 7.804687 7.804687zm0 0" fill="#63a6fd"/><path d="m229.777344 166.519531h-182.117188c-4.308594 0-7.804687 3.492188-7.804687 7.804688 0 4.308593 3.496093 7.804687 7.804687 7.804687h182.117188c4.308594 0 7.804687-3.496094 7.804687-7.804687 0-4.3125-3.496093-7.804688-7.804687-7.804688zm0 0" fill="#63a6fd"/><path d="m285.347656 166.519531h-24.351562c-4.3125 0-7.804688 3.492188-7.804688 7.804688 0 4.308593 3.492188 7.804687 7.804688 7.804687h24.351562c4.3125 0 7.808594-3.496094 7.808594-7.804687 0-4.3125-3.496094-7.804688-7.808594-7.804688zm0 0" fill="#63a6fd"/><path d="m47.660156 221.113281h67.75c4.308594 0 7.804688-3.492187 7.804688-7.804687s-3.496094-7.804688-7.804688-7.804688h-67.75c-4.308594 0-7.804687 3.492188-7.804687 7.804688s3.496093 7.804687 7.804687 7.804687zm0 0" fill="#63a6fd"/><path d="m217.785156 288.585938h-170.125c-4.308594 0-7.804687 3.492187-7.804687 7.804687 0 4.308594 3.496093 7.804687 7.804687 7.804687h170.125c4.308594 0 7.804688-3.496093 7.804688-7.804687 0-4.3125-3.496094-7.804687-7.804688-7.804687zm0 0" fill="#63a6fd"/><path d="m47.660156 343.179688h62.441406c4.308594 0 7.804688-3.492188 7.804688-7.804688s-3.496094-7.804688-7.804688-7.804688h-62.441406c-4.308594 0-7.804687 3.492188-7.804687 7.804688s3.496093 7.804688 7.804687 7.804688zm0 0" fill="#63a6fd"/><path d="m203.757812 327.570312h-62.4375c-4.308593 0-7.804687 3.492188-7.804687 7.804688s3.496094 7.804688 7.804687 7.804688h62.4375c4.3125 0 7.804688-3.492188 7.804688-7.804688s-3.492188-7.804688-7.804688-7.804688zm0 0" fill="#63a6fd"/><path d="m167.183594 377.496094-83.710938 76.183594-28.238281-41.996094c-2.40625-3.578125-7.257813-4.523438-10.835937-2.121094-3.574219 2.40625-4.523438 7.257812-2.117188 10.832031l28.589844 42.515625c2.804687 4.171875 7.480468 6.660156 12.511718 6.660156 3.753907 0 7.355469-1.394531 10.132813-3.925781l84.175781-76.605469c3.1875-2.902343 3.417969-7.835937.519532-11.023437-2.902344-3.191406-7.839844-3.421875-11.027344-.519531zm0 0" fill="#63a6fd"/><path d="m391.191406 263.804688h-21.394531v-51.839844h21.394531zm0 0" fill="#4395fb"/><path d="m462.238281 281.414062c-55.488281-45.144531-137.070312-36.761718-182.214843 18.730469-45.144532 55.488281-36.757813 137.066407 18.730468 182.210938 55.488282 45.144531 137.066406 36.761719 182.210938-18.726563 45.144531-55.488281 36.761718-137.070312-18.726563-182.214844zm0 0" fill="#63a6fd"/><path d="m442.882812 466.035156c-13.507812 10.011719-28.628906 16.285156-44.125 19.011719-37.847656 6.679687-77.976562-7.816406-102.421874-40.78125-34.457032-46.488281-24.703126-112.089844 21.769531-146.546875 24.039062-17.824219 53.210937-23.820312 80.527343-19.011719 25.496094 4.476563 49.390626 18.347657 66.019532 40.792969 34.453125 46.476562 24.703125 112.089844-21.769532 146.535156zm0 0" fill="#fff5f4"/><path d="m406.167969 193.816406h-51.347657c-9.070312 0-16.496093 7.421875-16.496093 16.496094 0 9.070312 7.425781 16.496094 16.496093 16.496094h51.347657c9.074219 0 16.496093-7.425782 16.496093-16.496094 0-9.074219-7.421874-16.496094-16.496093-16.496094zm0 0" fill="#63a6fd"/><path d="m53.730469 512h-36.425781c-9.5625 0-17.304688-7.742188-17.304688-17.296875v-477.40625c0-9.554687 7.742188-17.296875 17.304688-17.296875h36.425781c-9.566407 0-17.308594 7.742188-17.308594 17.296875v477.40625c0 9.554687 7.742187 17.296875 17.308594 17.296875zm0 0" fill="#ebe0da"/><path d="m398.757812 485.046875c-37.851562 6.679687-77.976562-7.816406-102.421874-40.78125-34.457032-46.488281-24.707032-112.089844 21.769531-146.546875 24.039062-17.824219 53.210937-23.820312 80.527343-19.011719-15.496093 2.726563-30.605468 9-44.105468 19.011719-46.472656 34.457031-56.226563 100.058594-21.769532 146.546875 16.628907 22.425781 40.511719 36.308594 66 40.78125zm0 0" fill="#ebe0da"/><g fill="#285fb3"><path d="m380.496094 322.976562c4.308594 0 7.804687-3.492187 7.804687-7.804687v-16.972656c0-4.308594-3.496093-7.804688-7.804687-7.804688-4.3125 0-7.804688 3.496094-7.804688 7.804688v16.972656c0 4.3125 3.492188 7.804687 7.804688 7.804687zm0 0"/><path d="m426.238281 302.652344c-3.734375-2.15625-8.507812-.875-10.664062 2.855468l-8.484375 14.699219c-3.015625 5.21875.792968 11.710938 6.75 11.710938 2.699218 0 5.320312-1.402344 6.765625-3.90625l8.488281-14.699219c2.15625-3.734375.875-8.507812-2.855469-10.660156zm0 0"/><path d="m442.167969 355.285156 14.699219-8.484375c3.730468-2.15625 5.011718-6.929687 2.855468-10.664062s-6.929687-5.011719-10.664062-2.855469l-14.699219 8.484375c-3.730469 2.15625-5.011719 6.929687-2.855469 10.664063 2.15625 3.734374 6.929688 5.011718 10.664063 2.855468zm0 0"/><path d="m464.171875 374.074219h-16.972656c-4.308594 0-7.804688 3.496093-7.804688 7.804687 0 4.3125 3.496094 7.804688 7.804688 7.804688h16.972656c4.3125 0 7.808594-3.492188 7.808594-7.804688 0-4.308594-3.496094-7.804687-7.808594-7.804687zm0 0"/><path d="m456.867188 416.960938-14.699219-8.488282c-3.734375-2.15625-8.507813-.875-10.664063 2.855469-2.15625 3.734375-.875 8.507813 2.855469 10.664063 15.980469 9.226562 15.859375 9.535156 18.597656 9.535156 7.953125 0 10.808594-10.582032 3.910157-14.566406zm0 0"/><path d="m420.605469 435.746094c-2.15625-3.734375-6.929688-5.011719-10.660157-2.855469-3.734374 2.15625-5.011718 6.929687-2.855468 10.660156l8.484375 14.699219c1.445312 2.503906 4.070312 3.902344 6.765625 3.902344 5.953125 0 9.769531-6.484375 6.753906-11.707032zm0 0"/><path d="m380.496094 440.78125c-4.3125 0-7.804688 3.492188-7.804688 7.804688v16.972656c0 4.3125 3.492188 7.804687 7.804688 7.804687 4.308594 0 7.804687-3.492187 7.804687-7.804687v-16.972656c0-4.3125-3.496093-7.804688-7.804687-7.804688zm0 0"/><path d="m351.042969 432.890625c-3.730469-2.160156-8.503907-.878906-10.660157 2.855469l-8.484374 14.699218c-2.15625 3.730469-.878907 8.503907 2.855468 10.660157 3.730469 2.15625 8.503906.878906 10.660156-2.855469l8.488282-14.699219c2.152344-3.730469.875-8.503906-2.859375-10.660156zm0 0"/><path d="m318.824219 408.472656-14.699219 8.488282c-3.734375 2.152343-5.011719 6.925781-2.859375 10.660156 1.445313 2.503906 4.070313 3.902344 6.769531 3.902344 2.773438 0 2.796875-.414063 18.59375-9.535157 3.730469-2.152343 5.011719-6.925781 2.855469-10.660156-2.152344-3.730469-6.929687-5.011719-10.660156-2.855469zm0 0"/><path d="m321.59375 381.878906c0-4.308594-3.492188-7.804687-7.804688-7.804687h-16.972656c-4.308594 0-7.804687 3.496093-7.804687 7.804687 0 4.3125 3.496093 7.804688 7.804687 7.804688h16.972656c4.3125 0 7.804688-3.492188 7.804688-7.804688zm0 0"/><path d="m326.628906 341.765625-14.699218-8.484375c-3.734376-2.15625-8.507813-.878906-10.664063 2.855469-2.152344 3.734375-.875 8.507812 2.859375 10.664062 15.980469 9.222657 15.855469 9.53125 18.59375 9.53125 2.695312 0 5.320312-1.398437 6.765625-3.902343 2.15625-3.734376.878906-8.507813-2.855469-10.664063zm0 0"/><path d="m345.414062 305.507812c-2.15625-3.734374-6.929687-5.011718-10.660156-2.855468-3.734375 2.15625-5.011718 6.929687-2.855468 10.660156l8.484374 14.699219c2.15625 3.734375 6.929688 5.015625 10.660157 2.859375 3.734375-2.15625 5.011719-6.929688 2.859375-10.664063zm0 0"/><path d="m405.636719 344.316406c-3.628907-2.328125-8.457031-1.269531-10.78125 2.359375l-17.320313 26.128907c-2.324218 3.628906-1.269531 8.457031 2.363282 10.78125 1.300781.835937 2.761718 1.234374 4.203124 1.234374 2.570313 0 5.085938-1.269531 6.578126-3.59375l17.320312-26.128906c2.324219-3.628906 1.265625-8.457031-2.363281-10.78125zm0 0"/></g><path d="m395.402344 384.09375c1.367187-9.203125-5.742188-17.292969-14.992188-17.292969-12.027344 0-19.511718 13.949219-12.023437 24.054688 8.023437 10.824219 25.058593 6.398437 27.015625-6.761719zm0 0" fill="#f64346"/></svg>