<svg height="512pt" viewBox="-96 0 512 512" width="512pt" xmlns="http://www.w3.org/2000/svg"><path d="m310 190-20 80c-12.148438 0-247.007812 0-260 0l-20-80zm0 0" fill="#656d88"/><path d="m60 270h200v232h-200zm0 0" fill="#c6715a"/><path d="m237.480469 190h-154.960938c8.878907-34.5 40.199219-60 77.480469-60s68.601562 25.5 77.480469 60zm0 0" fill="#5c9cee"/><path d="m210 60c0 27.613281-22.386719 50-50 50s-50-22.386719-50-50 22.386719-50 50-50 50 22.386719 50 50zm0 0" fill="#5c9cee"/><path d="m110 230c0 5.523438-4.476562 10-10 10s-10-4.476562-10-10 4.476562-10 10-10 10 4.476562 10 10zm0 0"/><path d="m220 60c0-33.085938-26.917969-60-60-60-33.085938 0-60 26.914062-60 60s26.914062 60 60 60c33.082031 0 60-26.914062 60-60zm-60 40c-22.054688 0-40-17.945312-40-40s17.945312-40 40-40 40 17.945312 40 40-17.945312 40-40 40zm0 0"/><path d="m220 220h-80c-5.523438 0-10 4.476562-10 10s4.476562 10 10 10h80c5.523438 0 10-4.476562 10-10s-4.476562-10-10-10zm0 0"/><path d="m67.070312 117.070312c3.90625-3.90625 3.90625-10.234374 0-14.140624s-10.234374-3.90625-14.140624 0l-20 20c-1.875 1.875-2.929688 4.417968-2.929688 7.070312v50h-20c-3.078125 0-5.988281 1.417969-7.882812 3.847656-1.894532 2.425782-2.566407 5.589844-1.816407 8.578125l20 80c1.109375 4.453125 5.109375 7.574219 9.699219 7.574219h20v212h-30c-5.523438 0-10 4.476562-10 10s4.476562 10 10 10h280c5.523438 0 10-4.476562 10-10s-4.476562-10-10-10h-30v-212h20c4.589844 0 8.589844-3.121094 9.699219-7.574219l20-80c.75-2.988281.078125-6.152343-1.816407-8.578125-1.894531-2.429687-4.804687-3.847656-7.882812-3.847656h-20v-50c0-2.652344-1.054688-5.195312-2.929688-7.070312l-20-20c-3.90625-3.90625-10.234374-3.90625-14.140624 0s-3.90625 10.234374 0 14.140624l17.070312 17.074219v45.855469h-25.125c-12.574219-35.691406-46.425781-60-84.875-60s-72.300781 24.308594-84.878906 60h-25.121094v-45.855469zm182.929688 374.929688h-180v-212h180zm32.191406-232h-244.382812l-15-60h274.382812zm-122.191406-120c27.449219 0 51.871094 15.929688 63.265625 40h-126.53125c11.394531-24.070312 35.816406-40 63.265625-40zm0 0"/></svg>