<svg height="512pt" viewBox="-2 0 512 512" width="512pt" xmlns="http://www.w3.org/2000/svg"><path d="m432.292969 27.113281v137.667969c0 14.972656-12.140625 27.113281-27.113281 27.113281h-290.121094c-14.972656 0-27.113282-12.140625-27.113282-27.113281v-137.667969c0-14.972656 12.140626-27.113281 27.113282-27.113281h290.121094c14.972656 0 27.113281 12.140625 27.113281 27.113281zm0 0" fill="#63a6fd"/><path d="m37.132812 268.628906c-6.722656 0-12.160156 5.449219-12.160156 12.160156v219.046876c0 6.726562 5.4375 12.164062 12.160156 12.164062h320.023438c6.714844 0 12.152344-5.4375 12.152344-12.164062 0-8.128907 0-223.089844 0-231.207032zm0 0" fill="#fff5f4"/><path d="m414.117188 305c-.0625 40.265625-.074219 61.199219-.117188 72.390625-.039062 13.558594-.132812 12.828125-.457031 14.9375h-20.621094c-9.300781 0-17.808594 5.21875-22.027344 13.5l-19.113281 37.570313c-2.390625 4.699218-8.144531 6.566406-12.84375 4.175781-11.386719-5.792969-16.011719-19.738281-10.175781-31.265625l7.160156-14.0625c2.316406-4.542969-.980469-9.917969-6.085937-9.917969l-27.601563.011719-65.292969.007812c-11.816406 0-19.851562-12.660156-13.894531-22.996094v-.011718c2.703125-4.824219 7.851563-7.902344 13.46875-7.914063-.21875 0-28.792969.023438-29.011719 0-7.300781-.207031-14.992187-6.441406-15.441406-15.242187-.011719-.136719-.023438-.28125-.011719-.417969-.269531-8.613281 6.066407-15.230469 15.242188-15.230469h13.738281c-.125 0-.261719 0-.386719-.011718-8.246093-.195313-14.960937-6.898438-15.0625-15.28125v-.378907c.101563-8.445312 6.972657-15.25 15.441407-15.25l48.199218-.03125c-8.5625 0-15.460937-6.945312-15.460937-15.453125v-.207031c.105469-8.445313 6.984375-15.253906 15.449219-15.253906l108.117187-.039063h.28125c5.605469 0 10.929687 1.273438 15.667969 3.539063 12.277344 5.832031 20.785156 18.332031 20.839844 32.832031zm0 0" fill="#f2bb88"/><path d="m9.886719 30.1875c-9.8164065 0-13.613281 12.777344-5.390625 18.136719l112.265625 73.183593v-91.320312zm0 0" fill="#4395fb"/><path d="m432.296875 162.710938v2.066406c0 14.96875-12.144531 27.121094-27.113281 27.121094h-290.121094c-14.972656 0-27.113281-12.152344-27.113281-27.121094v-137.660156c0-14.96875 12.140625-27.11328175 27.113281-27.11328175h14.488281v135.59374975c0 14.980469 12.132813 27.113282 27.113281 27.113282zm0 0" fill="#4395fb"/><path d="m209.613281 32.558594c-20.722656 0-31.515625 11.988281-31.515625 20.210937 0 5.648438 4.625 8.21875 8.5625 8.21875 7.878906 0 5.652344-11.816406 22.4375-11.816406 10.445313 0 17.640625 5.136719 17.640625 14.726563 0 11.648437-10.792969 17.640624-16.785156 23.292968-4.796875 4.28125-10.277344 11.132813-10.277344 27.058594 0 7.367188 2.226563 9.59375 7.878907 9.59375 7.023437 0 8.5625-3.085938 8.5625-6.167969 0-9.929687.171874-15.753906 8.5625-22.605469 5.140624-4.796874 20.210937-15.925781 20.210937-33.566406 0-16.445312-13.527344-28.945312-35.277344-28.945312zm0 0" fill="#274c93"/><path d="m207.726562 136.171875c-6.335937 0-11.472656 5.3125-11.472656 11.648437 0 6.164063 4.964844 11.644532 11.472656 11.644532 6.507813 0 11.648438-5.480469 11.648438-11.644532 0-6.339843-5.308594-11.648437-11.648438-11.648437zm0 0" fill="#274c93"/><path d="m303.085938 136.171875c-6.335938 0-11.472657 5.3125-11.472657 11.648437 0 6.164063 4.964844 11.644532 11.472657 11.644532 6.507812 0 11.644531-5.480469 11.644531-11.644532 0-6.339843-5.308594-11.648437-11.644531-11.648437zm0 0" fill="#274c93"/><path d="m304.96875 32.558594c-20.722656 0-31.511719 11.988281-31.511719 20.210937 0 5.648438 4.625 8.21875 8.5625 8.21875 7.878907 0 5.652344-11.816406 22.4375-11.816406 10.445313 0 17.636719 5.136719 17.636719 14.726563 0 11.648437-10.789062 17.640624-16.78125 23.292968-4.796875 4.28125-10.277344 11.132813-10.277344 27.058594 0 7.367188 2.226563 9.59375 7.878906 9.59375 7.019532 0 8.5625-3.085938 8.5625-6.167969 0-9.929687.171876-15.753906 8.5625-22.605469 5.136719-4.796874 20.210938-15.925781 20.210938-33.566406 0-16.445312-13.53125-28.945312-35.28125-28.945312zm0 0" fill="#274c93"/><path d="m304.613281 291.75c0 4.324219-3.496093 7.832031-7.828125 7.832031h-27.5625c-8.5625 0-15.460937-6.945312-15.460937-15.453125v-.207031h43.023437c4.332032 0 7.828125 3.507813 7.828125 7.828125zm0 0" fill="#e3a76f"/><path d="m298.191406 322.695312c0 4.320313-3.507812 7.828126-7.828125 7.828126h-69.71875c-8.246093-.195313-14.960937-6.898438-15.0625-15.28125v-.378907h84.78125c4.320313 0 7.828125 3.507813 7.828125 7.832031zm0 0" fill="#e3a76f"/><path d="m297.640625 353.597656c0 4.332032-3.507813 7.828125-7.832031 7.828125h-82.304688c-7.300781-.207031-14.992187-6.441406-15.441406-15.242187-.011719-.136719-.023438-.28125-.011719-.417969h97.757813c4.324218 0 7.832031 3.507813 7.832031 7.832031zm0 0" fill="#e3a76f"/><path d="m414 377.390625c-.039062 13.558594-.132812 12.828125-.457031 14.9375h-20.621094c-9.300781 0-17.808594 5.21875-22.027344 13.5l-19.113281 37.570313c-2.390625 4.699218-8.144531 6.566406-12.84375 4.175781-11.386719-5.792969-16.011719-19.738281-10.175781-31.265625l7.160156-14.0625c2.316406-4.542969-.980469-9.917969-6.085937-9.917969l-27.601563.011719-65.292969.007812c-11.816406 0-19.851562-12.660156-13.894531-22.996094 2.765625 4.820313 8.058594 8.058594 13.894531 8.058594l65.292969-.011718 27.601563-.007813zm0 0" fill="#e3a76f"/><path d="m432.84375 266.101562h55.460938c11.414062-.007812 20.808593 7.039063 20.808593 15.652344v115.484375c0 8.617188-9.328125 15.714844-20.746093 15.71875h-55.460938c-11.414062.007813-20.757812-7.042969-20.765625-15.652343l-.035156-115.492188c-.007813-8.609375 9.328125-15.710938 20.738281-15.710938zm0 0" fill="#ebe0da"/><path d="m450.035156 266.101562h38.269532c11.414062-.007812 20.808593 7.039063 20.808593 15.652344v115.484375c0 8.617188-9.328125 15.714844-20.746093 15.71875h-38.332032zm0 0" fill="#c8bebc"/><path d="m478.449219 302.691406c5.921875 0 10.765625-4.84375 10.765625-10.765625s-4.84375-10.769531-10.765625-10.769531-10.765625 4.847656-10.765625 10.769531 4.84375 10.765625 10.765625 10.765625zm0 0" fill="#fff5f4"/><path d="m369.3125 463.304688v36.539062c0 6.722656-5.441406 12.152344-12.152344 12.152344h-320.023437c-6.722657 0-12.160157-5.429688-12.160157-12.152344v-36.539062c0 6.722656 5.4375 12.152343 12.160157 12.152343h320.023437c6.710938 0 12.152344-5.429687 12.152344-12.152343zm0 0" fill="#ebe0da"/><g fill="#63a6fd"><path d="m71.953125 302.792969c-4.328125 0-7.832031 3.507812-7.832031 7.832031v159.378906c0 4.324219 3.503906 7.828125 7.832031 7.828125 4.324219 0 7.828125-3.503906 7.828125-7.828125v-159.378906c0-4.324219-3.503906-7.832031-7.828125-7.832031zm0 0"/><path d="m117.015625 302.792969c-4.324219 0-7.832031 3.507812-7.832031 7.832031v159.378906c0 4.324219 3.507812 7.828125 7.832031 7.828125s7.828125-3.503906 7.828125-7.828125v-159.378906c0-4.324219-3.503906-7.832031-7.828125-7.832031zm0 0"/><path d="m162.078125 302.792969c-4.324219 0-7.828125 3.507812-7.828125 7.832031v104.398438c0 4.324218 3.503906 7.828124 7.828125 7.828124s7.832031-3.503906 7.832031-7.828124v-104.398438c0-4.324219-3.507812-7.832031-7.832031-7.832031zm0 0"/><path d="m162.078125 438.511719c-4.324219 0-7.828125 3.503906-7.828125 7.832031v23.660156c0 4.324219 3.503906 7.828125 7.828125 7.828125s7.832031-3.503906 7.832031-7.828125v-23.660156c0-4.324219-3.507812-7.832031-7.832031-7.832031zm0 0"/></g></svg>