<svg height="512pt" viewBox="0 0 512 512" width="512pt" xmlns="http://www.w3.org/2000/svg"><path d="m0 0h512v512h-512z" fill="#bcaaa4"/><path d="m0 0v512h512v-512zm480 32v128h-448v-128zm0 160v128h-448v-128zm-448 288v-128h448v128zm0 0" fill="#a1887f"/><g fill="#fff"><path d="m336 448h-160v-64h32v32h96v-32h32zm0 0"/><path d="m336 128h-160v-64h32v32h96v-32h32zm0 0"/><path d="m336 288h-160v-64h32v32h96v-32h32zm0 0"/></g><path d="m320 480h192v32h-192zm0 0" fill="#787680"/><path d="m480 384h-128v-64c0-35.296875 28.703125-64 64-64s64 28.703125 64 64zm-96-32h64v-32c0-17.648438-14.351562-32-32-32s-32 14.351562-32 32zm0 0" fill="#ffd337"/><path d="m480 384v-64h-32v32h-64v-32h-32v64zm0 0" fill="#fcc000"/><path d="m320 352h192v160h-192zm0 0" fill="#ffd337"/><path d="m400 416h32v32h-32zm0 0" fill="#fff"/></svg>