<svg height="512pt" viewBox="0 0 512 512.00049" width="512pt" xmlns="http://www.w3.org/2000/svg"><path d="m238.019531 7.464844-54.230469 145.476562h-47.363281l-54.230469-145.476562c-1.34375-3.617188 1.320313-7.46093775 5.175782-7.46093775h145.46875c3.855468 0 6.523437 3.84374975 5.179687 7.46093775zm0 0" fill="#a86000"/><path d="m172.894531 152.9375h-36.464843l-54.230469-145.476562c-1.34375-3.617188 1.320312-7.460938 5.175781-7.460938h36.46875c-3.855469 0-6.523438 3.84375-5.179688 7.460938zm0 0" fill="#7c3f2c"/><path d="m296.632812 366.820312h-273.054687c-18.441406 0-29.609375-20.121093-20.128906-35.933593 15.753906-26.246094 17.117187-56.785157 17.117187-56.785157v-45.707031c0-38.527343 15.617188-73.410156 40.875-98.65625 25.242188-25.253906 60.136719-40.871093 98.664063-40.871093 6.179687 0 12.261719.40625 18.234375 1.1875 68.441406 8.925781 121.296875 67.460937 121.296875 138.339843v45.707031s1.375 30.539063 17.117187 56.785157c9.492188 15.8125-1.679687 35.933593-20.121094 35.933593zm0 0" fill="#ca7400"/><path d="m39.917969 330.882812c-9.480469 15.816407 1.6875 35.933594 20.128906 35.933594h-36.464844c-18.441406 0-29.609375-20.117187-20.128906-35.933594 15.753906-26.246093 17.117187-56.785156 17.117187-56.785156v-45.707031c0-38.527344 15.617188-73.410156 40.875-98.65625 25.242188-25.253906 60.136719-40.871094 98.664063-40.871094 6.179687 0 12.265625.40625 18.234375 1.1875-31.234375 4.074219-59.242188 18.480469-80.433594 39.683594-25.253906 25.246094-40.875 60.128906-40.875 98.65625v45.707031s-1.363281 30.539063-17.117187 56.785156zm0 0" fill="#b96a00"/><path d="m163.996094 215.832031c-13.070313-4.824219-23.394532-8.636719-23.394532-21.714843 0-14.957032 12.617188-18.097657 23.203126-18.097657 10.015624 0 15.878906 3.019531 19.382812 4.820313 2.03125 1.046875 3.632812 1.875 5.269531 1.875 4.949219 0 7.4375-5.671875 7.4375-8.847656 0-7.488282-14.078125-11.929688-27.15625-12.886719l-.183593-.015625v-21.503906c0-4.660157-3.792969-8.449219-8.449219-8.449219-4.660157 0-8.449219 3.792969-8.449219 8.449219v22.574218l-.15625.035156c-17.78125 3.808594-27.183594 15.257813-27.183594 33.101563 0 23.601563 16.859375 29.933594 31.734375 35.519531 14.34375 5.386719 26.726563 10.039063 26.726563 27.519532 0 14.375-8.265625 21.96875-23.902344 21.96875-14.105469 0-19.71875-6.050782-23.816406-10.46875-2.148438-2.316407-3.847656-4.144532-6.292969-4.144532-4.101563 0-7.617187 4.863282-7.617187 8.847656 0 5.09375 7.730468 17.15625 30.507812 20.808594v21.160156c0 4.660157 3.789062 8.449219 8.449219 8.449219 4.65625 0 8.449219-3.789062 8.449219-8.449219v-21.308593l.167968-.027344c19.5625-3.191406 30.339844-16.648437 30.339844-37.890625 0-28.375-19.445312-35.550781-35.066406-41.324219zm0 0" fill="#f0a70a"/><path d="m447.539062 130.179688-30.316406 5.347656c-.359375 5.457031-1.3125 10.757812-2.78125 15.839844l26.652344 15.382812c2.589844 1.496094 3.476562 4.808594 1.980469 7.394531l-12.503907 21.664063c-1.496093 2.585937-4.808593 3.476562-7.398437 1.980468l-26.667969-15.390624c-3.714844 3.863281-7.835937 7.339843-12.308594 10.335937l10.53125 28.933594c1.019532 2.808593-.433593 5.90625-3.242187 6.9375l-8.207031 2.984375-15.292969 5.566406c-2.808594 1.019531-5.917969-.425781-6.9375-3.234375l-7.835937-21.546875-2.695313-7.386719c-1.496094.160157-3.003906.273438-4.527344.34375-1.160156.0625-2.332031.089844-3.511719.089844-2.710937 0-5.398437-.152344-8.039062-.433594l-10.53125 28.933594c-1.019531 2.808594-4.128906 4.253906-6.9375 3.234375l-23.5-8.550781c-2.808594-1.03125-4.261719-4.128907-3.242188-6.9375l10.53125-28.933594c-4.472656-2.992187-8.59375-6.472656-12.308593-10.335937l-26.671875 15.390624c-2.589844 1.496094-5.898438.605469-7.394532-1.980468l-12.503906-21.664063c-1.496094-2.585937-.609375-5.898437 1.980469-7.394531l26.652344-15.382812c-1.46875-5.082032-2.414063-10.382813-2.78125-15.839844l-30.316407-5.347656c-2.949218-.519532-4.914062-3.328126-4.394531-6.277344l4.339844-24.628906c.519531-2.941407 3.328125-4.910157 6.28125-4.390626l30.296875 5.34375c2.191406-4.949218 4.894531-9.605468 8.054688-13.921874l-19.792969-23.578126c-1.917969-2.300781-1.617188-5.707031.671875-7.636718l19.160156-16.078125c2.289062-1.917969 5.703125-1.617188 7.625.671875l19.785156 23.578125c4.773438-2.351563 9.835938-4.207031 15.117188-5.503907v-30.773437c0-2.992187 2.421875-5.414063 5.414062-5.414063h25.007813c2.992187 0 5.414062 2.421876 5.414062 5.414063v30.777344c5.285157 1.292969 10.347657 3.148437 15.121094 5.5l19.785156-23.578125c1.917969-2.289063 5.332031-2.589844 7.625-.667969l19.160157 16.078125c2.289062 1.925781 2.589843 5.335938.667968 7.632812l-19.792968 23.578126c3.160156 4.316406 5.863281 8.976562 8.054687 13.921874l30.308594-5.34375c2.941406-.519531 5.75 1.453126 6.269531 4.394532l4.339844 24.625c.515625 2.949218-1.445313 5.757812-4.394532 6.277344zm0 0" fill="#1980f9"/><path d="m327.714844 79.039062c-7.558594 15.050782-11.828125 32.054688-11.828125 50.050782 0 9.207031 1.109375 18.144531 3.214843 26.703125 2.105469 8.558593 5.195313 16.722656 9.140626 24.371093 4.746093 9.21875 10.738281 17.675782 17.75 25.167969-1.164063.066407-2.339844.089844-3.515626.089844-2.707031 0-5.398437-.148437-8.039062-.425781l-10.53125 28.929687c-1.015625 2.808594-4.132812 4.253907-6.941406 3.226563l-23.5-8.546875c-2.808594-1.03125-4.253906-4.132813-3.234375-6.945313l10.527343-28.929687c-4.46875-2.988281-8.589843-6.472657-12.308593-10.335938l-26.667969 15.386719c-2.585938 1.503906-5.902344.617188-7.40625-1.96875l-12.496094-21.664062c-1.5-2.585938-.605468-5.902344 1.980469-7.402344l26.65625-15.378906c-1.476563-5.085938-2.417969-10.382813-2.789063-15.835938l-30.304687-5.351562c-2.957031-.515626-4.917969-3.328126-4.402344-6.273438l4.34375-24.628906c.515625-2.945313 3.328125-4.917969 6.273438-4.390625l30.296875 5.34375c2.195312-4.953125 4.90625-9.609375 8.0625-13.921875l-19.789063-23.578125c-1.925781-2.304688-1.625-5.710938.660157-7.636719l19.164062-16.074219c2.285156-1.925781 5.699219-1.625 7.628906.660157l19.777344 23.589843c4.769531-2.351562 9.835938-4.210937 15.121094-5.511719v-30.765624c0-3.003907 2.417968-5.421876 5.417968-5.421876h25c3.003907 0 5.421876 2.417969 5.421876 5.421876v12.914062c-13.6875 10.316406-24.921876 23.6875-32.671876 39.132812zm0 0" fill="#285fb3"/><path d="m383.277344 231.582031-15.296875 5.570313c-2.800781 1.027344-5.914063-.417969-6.933594-3.226563l-7.839844-21.550781c8.871094 7.917969 19.007813 14.4375 30.070313 19.207031zm0 0" fill="#285fb3"/><path d="m395.066406 129.53125c0 24.460938-16.691406 45.011719-39.304687 50.890625-.097657.027344-.203125.054687-.300781.070313-4.15625 1.066406-8.503907 1.632812-12.984376 1.632812-4.933593 0-9.703124-.679688-14.230468-1.957031-22.136719-6.199219-38.363282-26.519531-38.363282-50.636719 0-23.921875 15.972657-44.121094 37.84375-50.496094 4.675782-1.375 9.632813-2.105468 14.75-2.105468 4.480469 0 8.828126.5625 12.984376 1.628906.097656.015625.203124.042968.300781.070312 22.613281 5.878906 39.304687 26.441406 39.304687 50.902344zm0 0" fill="#63a6fd"/><path d="m369.058594 129.53125c0 7.097656-2.765625 13.769531-7.785156 18.789062-1.996094 1.992188-4.253907 3.628907-6.683594 4.867188-.648438.347656-1.308594.644531-1.980469.925781-3.175781 1.3125-6.601563 1.992188-10.132813 1.992188-7.097656 0-13.773437-2.765625-18.789062-7.785157-5.03125-5.019531-7.792969-11.695312-7.792969-18.792968 0-7.105469 2.765625-13.777344 7.792969-18.796875 5.015625-5.019531 11.691406-7.785157 18.789062-7.785157 3.53125 0 6.957032.6875 10.132813 1.992188.671875.28125 1.332031.582031 1.980469.921875 2.433594 1.242187 4.6875 2.882813 6.683594 4.871094 5.019531 5.019531 7.785156 11.695312 7.785156 18.800781zm0 0" fill="#1980f9"/><path d="m328.242188 180.164062c-22.132813-6.195312-38.363282-26.523437-38.363282-50.636718 0-23.921875 15.972656-44.105469 37.835938-50.488282-7.5625 15.050782-11.828125 32.054688-11.828125 50.050782 0 9.207031 1.109375 18.144531 3.214843 26.703125 2.105469 8.554687 5.195313 16.722656 9.140626 24.371093zm0 0" fill="#4395fb"/><path d="m347.898438 148.320312c1.992187 1.996094 4.253906 3.628907 6.695312 4.875-.660156.332032-1.320312.636719-1.980469.917969-3.183593 1.308594-6.609375 1.992188-10.136719 1.992188-7.101562 0-13.777343-2.765625-18.792968-7.785157-5.03125-5.015624-7.796875-11.691406-7.796875-18.792968 0-7.101563 2.765625-13.773438 7.796875-18.792969 5.015625-5.015625 11.691406-7.785156 18.792968-7.785156 3.527344 0 6.953126.683593 10.136719 1.984375.660157.292968 1.320313.582031 1.980469.929687-2.441406 1.242188-4.703125 2.878907-6.695312 4.871094-5.03125 5.019531-7.796876 11.695313-7.796876 18.792969 0 7.101562 2.769532 13.777344 7.796876 18.792968zm0 0" fill="#285fb3"/><path d="m506.582031 385.0625-35.863281 6.324219c-.425781 6.457031-1.550781 12.726562-3.289062 18.738281l31.527343 18.195312c3.0625 1.773438 4.117188 5.6875 2.34375 8.75l-14.789062 25.625c-1.773438 3.0625-5.6875 4.113282-8.75 2.34375l-31.550781-18.207031c-4.394532 4.570313-9.269532 8.6875-14.5625 12.226563l12.457031 34.230468c1.210937 3.320313-.507813 6.988282-3.832031 8.207032l-9.707032 3.53125-18.09375 6.582031c-3.324218 1.207031-7-.5-8.207031-3.824219l-9.273437-25.488281-3.183594-8.738281c-1.773438.1875-3.554688.324218-5.355469.40625-1.375.074218-2.761719.105468-4.15625.105468-3.207031 0-6.386719-.179687-9.511719-.511718l-12.457031 34.226562c-1.207031 3.324219-4.886719 5.03125-8.207031 3.824219l-27.800782-10.113281c-3.324218-1.21875-5.042968-4.886719-3.832031-8.210938l12.457031-34.226562c-5.292968-3.542969-10.167968-7.65625-14.5625-12.226563l-31.550781 18.207031c-3.0625 1.769532-6.980469.71875-8.75-2.34375l-14.789062-25.625c-1.773438-3.0625-.71875-6.976562 2.339843-8.75l31.53125-18.195312c-1.738281-6.011719-2.855468-12.28125-3.292968-18.738281l-35.859375-6.324219c-3.492188-.613281-5.816407-3.9375-5.199219-7.425781l5.136719-29.132813c.613281-3.480468 3.933593-5.8125 7.425781-5.199218l35.839844 6.324218c2.59375-5.855468 5.792968-11.367187 9.53125-16.46875l-23.414063-27.894531c-2.269531-2.71875-1.917969-6.75.792969-9.03125l22.664062-19.019531c2.707032-2.273438 6.75-1.917969 9.019532.792968l23.40625 27.894532c5.644531-2.78125 11.632812-4.980469 17.882812-6.511719v-36.402344c0-3.542969 2.867188-6.40625 6.40625-6.40625h29.582032c3.542968 0 6.40625 2.863281 6.40625 6.40625v36.402344c6.25 1.53125 12.238281 3.730469 17.886718 6.511719l23.402344-27.894532c2.269531-2.710937 6.3125-3.0625 9.023438-.792968l22.664062 19.019531c2.707031 2.28125 3.0625 6.3125.792969 9.03125l-23.417969 27.894531c3.742188 5.101563 6.9375 10.613282 9.53125 16.46875l35.851562-6.324218c3.480469-.613282 6.804688 1.71875 7.417969 5.199218l5.136719 29.132813c.613281 3.488281-1.707031 6.8125-5.199219 7.425781zm0 0" fill="#1980f9"/><path d="m364.835938 324.5625c-8.945313 17.808594-13.992188 37.917969-13.992188 59.210938 0 10.890624 1.3125 21.464843 3.804688 31.585937 2.488281 10.125 6.148437 19.78125 10.808593 28.832031 5.621094 10.90625 12.707031 20.90625 21 29.773438-1.375.078125-2.769531.105468-4.160156.105468-3.203125 0-6.386719-.171874-9.511719-.503906l-12.453125 34.222656c-1.207031 3.328126-4.890625 5.039063-8.21875 3.816407l-27.796875-10.109375c-3.324218-1.21875-5.035156-4.886719-3.828125-8.210938l12.453125-34.226562c-5.285156-3.535156-10.160156-7.65625-14.558594-12.226563l-31.546874 18.203125c-3.0625 1.773438-6.984376.726563-8.757813-2.332031l-14.789063-25.625c-1.773437-3.0625-.714843-6.984375 2.347657-8.757813l31.53125-18.191406c-1.75-6.015625-2.859375-12.28125-3.296875-18.734375l-35.855469-6.335937c-3.496094-.609375-5.816406-3.933594-5.207031-7.417969l5.140625-29.136719c.609375-3.484375 3.933593-5.816406 7.417969-5.195312l35.839843 6.320312c2.597657-5.855468 5.804688-11.367187 9.542969-16.46875l-23.414062-27.890625c-2.277344-2.730469-1.921876-6.757812.78125-9.035156l22.671874-19.015625c2.703126-2.277344 6.742188-1.917969 9.019532.785156l23.402344 27.902344c5.640624-2.785156 11.632812-4.980469 17.886718-6.519531v-36.394531c0-3.550782 2.859375-6.414063 6.410156-6.414063h29.574219c3.550781 0 6.414063 2.863281 6.414063 6.414063v15.277343c-16.191406 12.199219-29.480469 28.019531-38.648438 46.292969zm0 0" fill="#285fb3"/><path d="m430.566406 505.019531-18.097656 6.585938c-3.3125 1.21875-6.996094-.488281-8.203125-3.816407l-9.273437-25.492187c10.492187 9.367187 22.484374 17.078125 35.574218 22.722656zm0 0" fill="#285fb3"/><path d="m444.511719 384.292969c0 28.9375-19.746094 53.246093-46.496094 60.207031-.113281.03125-.238281.0625-.355469.082031-4.914062 1.261719-10.0625 1.925781-15.363281 1.925781-5.832031 0-11.476563-.800781-16.832031-2.3125-26.1875-7.332031-45.382813-31.371093-45.382813-59.902343 0-28.300781 18.894531-52.195313 44.769531-59.738281 5.53125-1.625 11.394532-2.488282 17.445313-2.488282 5.300781 0 10.449219.667969 15.363281 1.925782.117188.023437.242188.054687.355469.085937 26.746094 6.957031 46.496094 31.28125 46.496094 60.214844zm0 0" fill="#63a6fd"/><path d="m413.742188 384.292969c0 8.394531-3.269532 16.289062-9.207032 22.226562-2.363281 2.355469-5.03125 4.292969-7.90625 5.761719-.769531.40625-1.550781.761719-2.34375 1.09375-3.757812 1.550781-7.8125 2.355469-11.988281 2.355469-8.394531 0-16.289063-3.273438-22.226563-9.210938-5.949218-5.9375-9.21875-13.832031-9.21875-22.226562 0-8.40625 3.269532-16.300781 9.21875-22.238281 5.9375-5.9375 13.832032-9.207032 22.226563-9.207032 4.175781 0 8.230469.8125 11.988281 2.351563.792969.332031 1.574219.6875 2.34375 1.09375 2.875 1.46875 5.542969 3.40625 7.90625 5.761719 5.9375 5.9375 9.207032 13.832031 9.207032 22.238281zm0 0" fill="#1980f9"/><path d="m365.457031 444.191406c-26.179687-7.328125-45.378906-31.375-45.378906-59.902344 0-28.300781 18.894531-52.175781 44.757813-59.726562-8.945313 17.808594-13.992188 37.917969-13.992188 59.210938 0 10.890624 1.3125 21.464843 3.804688 31.585937 2.488281 10.125 6.148437 19.785156 10.808593 28.832031zm0 0" fill="#4395fb"/><path d="m388.710938 406.523438c2.359374 2.359374 5.035156 4.292968 7.925781 5.765624-.785157.394532-1.566407.753907-2.347657 1.085938-3.761718 1.550781-7.816406 2.359375-11.992187 2.359375-8.398437 0-16.296875-3.273437-22.230469-9.210937-5.949218-5.933594-9.222656-13.832032-9.222656-22.230469 0-8.402344 3.273438-16.296875 9.222656-22.234375 5.933594-5.933594 13.832032-9.207032 22.230469-9.207032 4.175781 0 8.230469.808594 11.992187 2.34375.78125.347657 1.5625.691407 2.347657 1.101563-2.890625 1.46875-5.566407 3.402344-7.925781 5.761719-5.949219 5.9375-9.222657 13.832031-9.222657 22.234375 0 8.398437 3.273438 16.296875 9.222657 22.230469zm0 0" fill="#285fb3"/></svg>