<svg height="512pt" viewBox="0 0 512 512.00021" width="512pt" xmlns="http://www.w3.org/2000/svg"><path d="m390.9375 490.9375c0 5.816406-2.355469 11.085938-6.164062 14.894531-3.8125 3.8125-9.082032 6.167969-14.894532 6.167969h-188.714844c-11.628906 0-21.046874-9.429688-21.046874-21.0625 0-26.5625 10.761718-50.617188 28.175781-68.03125 1.898437-1.902344 3.882812-3.730469 5.949219-5.464844 5.359374-4.535156 11.226562-8.5 17.496093-11.785156 2.65625-1.394531 5.382813-2.652344 8.167969-3.800781 11.230469-4.59375 23.53125-7.136719 36.421875-7.136719h38.390625c12.898438 0 25.199219 2.542969 36.425781 7.136719 4.671875 1.910156 9.140625 4.171875 13.398438 6.746093 4.328125 2.632813 8.425781 5.585938 12.269531 8.828126 20.875 17.652343 34.125 44.03125 34.125 73.507812zm0 0" fill="#fff5f4"/><path d="m256.328125 394.71875h24.964844c-12.902344 0-25.203125 2.542969-36.429688 7.136719-9.386719 3.84375-18.03125 9.121093-25.664062 15.585937-2.058594 1.738282-4.039063 3.554688-5.949219 5.464844-17.414062 17.414062-28.179688 41.46875-28.179688 68.035156 0 11.628906 9.433594 21.058594 21.0625 21.058594h-24.964843c-11.628907 0-21.050781-9.429688-21.050781-21.058594 0-26.566406 10.761718-50.621094 28.175781-68.035156 1.902343-1.898438 3.886719-3.726562 5.949219-5.464844 5.363281-4.53125 11.230468-8.5 17.5-11.785156 2.652343-1.390625 5.378906-2.652344 8.167968-3.800781 11.226563-4.59375 23.527344-7.136719 36.417969-7.136719zm0 0" fill="#ebe0da"/><g fill="#c8bebc"><path d="m280.875 441.59375v70.40625h-10.695312v-70.40625c0-2.949219 2.394531-5.347656 5.347656-5.347656 2.949218 0 5.347656 2.398437 5.347656 5.347656zm0 0"/><path d="m359.128906 487.519531h-39.390625c-2.953125 0-5.347656 2.394531-5.347656 5.347657 0 2.953124 2.394531 5.347656 5.347656 5.347656h39.390625c2.953125 0 5.347656-2.394532 5.347656-5.347656 0-2.953126-2.394531-5.347657-5.347656-5.347657zm0 0"/><path d="m301.554688 465.617188c0 3.644531-2.953126 6.597656-6.59375 6.597656-3.644532 0-6.597657-2.953125-6.597657-6.597656 0-3.640626 2.953125-6.59375 6.597657-6.59375 3.640624 0 6.59375 2.953124 6.59375 6.59375zm0 0"/><path d="m301.554688 492.867188c0 3.640624-2.953126 6.59375-6.59375 6.59375-3.644532 0-6.597657-2.953126-6.597657-6.59375 0-3.644532 2.953125-6.597657 6.597657-6.597657 3.640624 0 6.59375 2.953125 6.59375 6.597657zm0 0"/><path d="m347.546875 435.25c-.039063 3.613281-4.5625 5.253906-7.1875 2.839844l-17.507813-12.644532c-1.546874-.804687-3.386718-.867187-4.988281-.144531l-38.453125 16.351563c-2.601562 1.984375-6.21875 1.960937-8.800781-.050782l-37.417969-16.300781c-1.601562-.722656-3.441406-.660156-5 .144531l-17.496094 12.644532c-2.632812 2.414062-7.148437.773437-7.1875-2.839844-.136718-11.300781 3.28125-21.847656 8.230469-29.59375 2.65625-1.394531 5.382813-2.652344 8.167969-3.800781 11.230469-4.59375 23.53125-7.136719 36.421875-7.136719h38.390625c12.898438 0 25.199219 2.542969 36.425781 7.136719 4.671875 1.910156 9.140625 4.171875 13.398438 6.746093 2.136719 8.117188 3.109375 17.691407 3.003906 26.648438zm0 0"/></g><path d="m251.515625 364.648438v52.03125l20.445313 23.003906c1.339843 2.375 4.742187 2.410156 6.148437.085937.007813-.007812.011719-.019531.019531-.027343l21.402344-23.0625v-52.03125zm0 0" fill="#f2d1a5"/><path d="m234.726562 304.796875c0 14.988281-12.148437 27.136719-27.132812 27.136719s-27.132812-12.148438-27.132812-27.136719c0-14.984375 12.148437-27.132813 27.132812-27.132813s27.132812 12.148438 27.132812 27.132813zm0 0" fill="#f2d1a5"/><path d="m370.59375 304.804688c0 14.984374-12.148438 27.132812-27.132812 27.132812-14.984376 0-27.132813-12.148438-27.132813-27.132812 0-14.988282 12.148437-27.136719 27.132813-27.136719 14.984374 0 27.132812 12.148437 27.132812 27.136719zm0 0" fill="#f2d1a5"/><path d="m347.5 260.546875v63.585937c0 32.019532-36.570312 59.050782-59.496094 67.667969-4.96875 1.875-9.304687 2.878907-12.476562 2.878907-8.914063-.007813-26.90625-7.902344-42.671875-20.664063-15.765625-12.773437-29.300781-30.398437-29.300781-49.882813v-63.585937c0-12.863281 10.425781-23.289063 23.289062-23.289063h97.367188c12.863281 0 23.289062 10.425782 23.289062 23.289063zm0 0" fill="#ffe4c2"/><path d="m288.007812 391.796875c-4.96875 1.878906-9.308593 2.882813-12.480468 2.882813-8.910156-.011719-26.902344-7.902344-42.675782-20.667969-15.761718-12.765625-29.300781-30.398438-29.300781-49.875v-63.59375c0-12.859375 10.429688-23.28125 23.289063-23.28125h24.964844c-12.871094 0-23.289063 10.421875-23.289063 23.28125v63.59375c0 19.476562 13.527344 37.109375 29.300781 49.875 10.140625 8.222656 21.214844 14.417969 30.191406 17.785156zm0 0" fill="#f2d1a5"/><path d="m174.214844 290.164062h17.347656c14.75 0 26.816406-12.066406 26.816406-26.816406v-8.613281c0-13.089844-10.710937-23.800781-23.796875-23.800781h-.984375c-13.144531 0-23.796875 10.65625-23.796875 23.800781v31.011719c0 2.441406 1.976563 4.417968 4.414063 4.417968zm0 0" fill="#ca7400"/><path d="m376.839844 290.164062h-17.347656c-14.75 0-26.816407-12.066406-26.816407-26.816406v-8.613281c0-13.089844 10.707031-23.800781 23.796875-23.800781h.984375c13.144531 0 23.796875 10.65625 23.796875 23.800781v31.011719c0 2.441406-1.976562 4.417968-4.414062 4.417968zm0 0" fill="#ca7400"/><path d="m315.484375 253.265625h-84.496094c-18.957031 0-34.328125-16.835937-34.328125-37.605469 0-20.773437 15.371094-37.609375 34.328125-37.609375 0 0 77.996094 5.460938 111.917969-17.425781 5.019531-3.386719 11.488281.679688 11.488281 7.140625v42.875c0 23.542969-17.421875 42.625-38.910156 42.625zm0 0" fill="#ec8500"/><path d="m349.808594 230.714844c-6.546875 13.417968-19.457032 22.546875-34.320313 22.546875h-84.496093c-18.964844 0-34.332032-16.835938-34.332032-37.605469 0-10.378906 3.839844-19.789062 10.058594-26.59375 5.554688-6.085938 13.015625-10.09375 21.308594-10.867188-1.941406 4.699219-3.015625 9.925782-3.015625 15.421876 0 20.769531 15.378906 37.605468 34.332031 37.605468h84.496094c2.023437 0 4.019531-.164062 5.96875-.507812zm0 0" fill="#db7d00"/><path d="m289.882812 329.917969c-2.957031 0-5.347656 2.394531-5.347656 5.347656 0 4.964844-4.042968 9.007813-9.007812 9.007813s-9.007813-4.042969-9.007813-9.007813c0-2.953125-2.394531-5.347656-5.347656-5.347656s-5.347656 2.394531-5.347656 5.347656c0 10.863281 8.839843 19.703125 19.703125 19.703125 10.863281 0 19.703125-8.839844 19.703125-19.703125 0-2.953125-2.394531-5.347656-5.347657-5.347656zm0 0" fill="#ca7400"/><path d="m320.9375 311.640625c0 4.710937-3.816406 8.527344-8.527344 8.527344-4.707031 0-8.527344-3.816407-8.527344-8.527344 0-4.707031 3.820313-8.527344 8.527344-8.527344 4.710938 0 8.527344 3.820313 8.527344 8.527344zm0 0" fill="#ca7400"/><path d="m247.171875 311.640625c0 4.710937-3.820313 8.527344-8.527344 8.527344-4.710937 0-8.527343-3.816407-8.527343-8.527344 0-4.707031 3.816406-8.527344 8.527343-8.527344 4.707031 0 8.527344 3.820313 8.527344 8.527344zm0 0" fill="#ca7400"/><path d="m331.816406 290.230469c-11.476562-7.21875-29.921875-3.652344-31.988281-3.222657-2.890625.605469-4.746094 3.4375-4.144531 6.328126.605468 2.894531 3.4375 4.746093 6.328125 4.144531 4.140625-.863281 17.453125-2.382813 24.109375 1.800781.886718.558594 1.871094.824219 2.84375.824219 1.777344 0 3.515625-.886719 4.53125-2.503907 1.574218-2.5.820312-5.800781-1.679688-7.371093zm0 0" fill="#ca7400"/><path d="m251.226562 287.007812c-2.066406-.429687-20.507812-3.996093-31.988281 3.222657-2.5 1.570312-3.253906 4.871093-1.679687 7.371093 1.015625 1.617188 2.753906 2.503907 4.53125 2.503907.972656 0 1.957031-.265625 2.84375-.820313 6.648437-4.179687 19.664062-2.71875 24.117187-1.800781 2.886719.59375 5.714844-1.257813 6.320313-4.148437.601562-2.890626-1.253906-5.722657-4.144532-6.328126zm0 0" fill="#ca7400"/><path d="m259.382812 220.996094h-243.234374c-12.769532 0-20.460938-14.121094-13.554688-24.851563l121.621094-188.753906c6.351562-9.839844 20.75-9.839844 27.101562 0l4.523438 7.023437 117.09375 181.730469c6.910156 10.730469-.796875 24.851563-13.550782 24.851563zm0 0" fill="#f64346"/><path d="m52.296875 221h-36.148437c-12.765626 0-20.460938-14.117188-13.550782-24.851562l121.617188-188.753907c6.351562-9.839843 20.75-9.839843 27.101562 0l4.523438 7.023438-117.09375 181.730469c-6.910156 10.734374.785156 24.851562 13.550781 24.851562zm0 0" fill="#cb353c"/><path d="m137.648438 157.414062c2.945312 0 7.472656-2.039062 7.472656-6.117187 0-35.328125 2.71875-77.21875 2.71875-112.320313 0-6.339843-4.757813-9.738281-10.191406-9.738281-5.890626 0-10.191407 3.398438-10.191407 9.738281 0 35.101563 2.71875 76.992188 2.71875 112.320313 0 4.078125 3.621094 6.117187 7.472657 6.117187zm0 0" fill="#fff5f4"/><path d="m137.875 174.625c-6.792969 0-12 5.433594-12 12 0 6.117188 5.207031 11.777344 12 11.777344 6.339844 0 11.550781-5.660156 11.550781-11.777344 0-6.566406-5.210937-12-11.550781-12zm0 0" fill="#fff5f4"/><path d="m511.40625 122.542969-7.78125 21.269531c-.9375 2.542969-3.75 3.859375-6.292969 2.917969l-26.164062-9.589844c-2.710938 4.03125-5.851563 7.773437-9.371094 11.132813l13.875 24.1875c1.34375 2.351562.535156 5.339843-1.808594 6.699218l-6.859375 3.933594-12.769531 7.34375c-2.34375 1.34375-5.335937.542969-6.6875-1.808594l-10.328125-18.007812-3.550781-6.167969c-1.304688.363281-2.632813.699219-3.976563 1.007813-1.03125.226562-2.070312.433593-3.125.617187-2.414062.429687-4.832031.710937-7.230468.863281l-4.902344 27.457032c-.476563 2.664062-3.019532 4.4375-5.683594 3.960937l-22.277344-3.976563c-2.664062-.484374-4.441406-3.027343-3.964844-5.691406l4.898438-27.457031c-4.453125-1.976563-8.667969-4.433594-12.578125-7.304687l-21.390625 17.867187c-2.078125 1.742187-5.164062 1.460937-6.90625-.617187l-14.5-17.382813c-1.742188-2.085937-1.460938-5.167969.617188-6.910156l21.375-17.863281c-2.097657-4.308594-3.761719-8.890626-4.941407-13.707032l-27.859375-.0625c-2.710937-.007812-4.894531-2.207031-4.886718-4.917968l.046874-22.652344c.007813-2.703125 2.207032-4.902344 4.917969-4.894532l27.84375.058594c1.183594-4.75 2.871094-9.332031 5.015625-13.667968l-21.304687-17.96875c-2.0625-1.75-2.332031-4.84375-.582031-6.921876l14.585937-17.320312c1.742187-2.070312 4.835937-2.328125 6.898437-.585938l21.296876 17.96875c3.898437-2.839843 8.121093-5.285156 12.625-7.253906l-4.773438-27.464844c-.464844-2.671874 1.320312-5.207031 3.988281-5.671874l22.300781-3.8789068c2.664063-.4687502 5.199219 1.3124998 5.664063 3.9843748l2 11.53125 2.773437 15.933594c4.910157.335938 9.714844 1.207031 14.335938 2.5625l13.984375-24.117188c1.351563-2.335937 4.351563-3.136718 6.6875-1.777343l19.582031 11.371093c2.339844 1.367188 3.132813 4.359376 1.78125 6.703126l-13.992187 24.121093c3.492187 3.359375 6.621093 7.09375 9.347656 11.171875l26.1875-9.476562c2.542969-.917969 5.351563.402344 6.269531 2.945312l7.699219 21.300782c.914063 2.558593-.398437 5.367187-2.949219 6.285156l-26.195312 9.476562c.519531 4.933594.496094 9.804688-.03125 14.570313l26.15625 9.585937c2.539062.9375 3.84375 3.746094 2.910156 6.289063zm0 0" fill="#1980f9"/><path d="m409.960938 145.757812c-4.710938-6.21875-8.726563-13.023437-11.929688-20.335937-3.191406-7.304687-5.578125-15.113281-7-23.332031-2.789062-16.0625-1.632812-31.894532 2.777344-46.511719h.007812c4.515625-14.976563 12.449219-28.660156 23.042969-39.980469l-2-11.539062c-.464844-2.664063-2.996094-4.449219-5.660156-3.9843752l-22.300781 3.8828122c-2.664063.464844-4.453126 3.003907-3.988282 5.671875l4.773438 27.460938c-4.503906 1.972656-8.726563 4.421875-12.621094 7.261718l-21.308594-17.972656c-2.054687-1.746094-5.152344-1.484375-6.890625.589844l-14.59375 17.320312c-1.746093 2.078126-1.476562 5.164063.589844 6.921876l21.308594 17.96875c-2.148438 4.339843-3.84375 8.914062-5.019531 13.667968l-27.847657-.0625c-2.714843-.011718-4.914062 2.1875-4.914062 4.894532l-.054688 22.652343c0 2.714844 2.179688 4.914063 4.886719 4.914063l27.867188.0625c1.175781 4.824218 2.839843 9.410156 4.9375 13.714844l-21.371094 17.859374c-2.074219 1.746094-2.363282 4.824219-.617188 6.910157l14.5 17.382812c1.734375 2.074219 4.824219 2.363281 6.898438.621094l21.390625-17.871094c3.914062 2.871094 8.128906 5.332031 12.582031 7.304688l-4.898438 27.460937c-.472656 2.664063 1.300782 5.207032 3.96875 5.683594l22.277344 3.984375c2.664063.476563 5.203125-1.300781 5.679688-3.964844l4.90625-27.453125c2.394531-.15625 4.8125-.433594 7.230468-.867187 1.054688-.1875 2.085938-.394531 3.117188-.621094-7.414062-5.597656-14.066406-12.21875-19.726562-19.695313zm0 0" fill="#285fb3"/><path d="m437.21875 170.617188 10.328125 18.011718c1.351563 2.347656 4.347656 3.152344 6.691406 1.808594l12.769531-7.34375c-10.609374-2.550781-20.648437-6.785156-29.789062-12.476562zm0 0" fill="#285fb3"/><path d="m461.6875 90.1875c3.792969 21.828125-7.902344 42.757812-27.148438 51.519531-.082031.039063-.171874.078125-.257812.109375-3.539062 1.597656-7.332031 2.773438-11.324219 3.46875-4.398437.765625-8.757812.902344-12.988281.46875-20.699219-2.09375-38.320312-17.710937-42.0625-39.230468-3.710938-21.347657 7.394531-41.855469 25.90625-50.9375 3.957031-1.953126 8.261719-3.375 12.824219-4.171876 3.996093-.695312 7.960937-.867187 11.832031-.5625.085938.003907.183594.007813.277344.015626 21.070312 1.738281 39.144531 17.492187 42.941406 39.320312zm0 0" fill="#63a6fd"/><path d="m438.496094 94.226562c1.101562 6.332032-.328125 12.71875-4.023438 17.976563-1.472656 2.085937-3.230468 3.898437-5.203125 5.382813-.527343.410156-1.070312.777343-1.621093 1.132812-2.632813 1.664062-5.582032 2.800781-8.726563 3.351562-6.328125 1.101563-12.707031-.328124-17.960937-4.027343-5.261719-3.699219-8.761719-9.226563-9.863282-15.558594-1.101562-6.339844.328125-12.726563 4.03125-17.988281 3.695313-5.257813 9.21875-8.761719 15.546875-9.863282 3.148438-.546874 6.308594-.464843 9.34375.203126.640625.148437 1.273438.3125 1.910157.515624 2.359374.730469 4.621093 1.84375 6.710937 3.308594 5.253906 3.699219 8.753906 9.226563 9.855469 15.566406zm0 0" fill="#1980f9"/><path d="m409.960938 145.757812c-20.6875-2.097656-38.316407-17.714843-42.058594-39.238281-3.707032-21.347656 7.398437-41.851562 25.90625-50.941406-4.410156 14.617187-5.566406 30.449219-2.777344 46.511719 1.421875 8.21875 3.808594 16.027344 7 23.332031 3.203125 7.3125 7.21875 14.117187 11.929688 20.335937zm0 0" fill="#4395fb"/><path d="m429.265625 117.589844c-.527344.402344-1.0625.777344-1.621094 1.128906-2.625 1.660156-5.578125 2.796875-8.726562 3.355469-6.324219 1.09375-12.707031-.332031-17.960938-4.027344-5.257812-3.699219-8.761719-9.234375-9.867187-15.566406-1.09375-6.339844.332031-12.722657 4.039062-17.980469 3.699219-5.257812 9.214844-8.761719 15.546875-9.863281 3.148438-.550781 6.308594-.464844 9.335938.195312.640625.152344 1.28125.320313 1.910156.527344-1.984375 1.476563-3.738281 3.292969-5.207031 5.378906-3.707032 5.257813-5.132813 11.640625-4.027344 17.984375 1.097656 6.328125 4.597656 11.855469 9.863281 15.554688 2.078125 1.464844 4.351563 2.582031 6.714844 3.3125zm0 0" fill="#285fb3"/></svg>