<svg height="512pt" viewBox="0 0 512 512" width="512pt" xmlns="http://www.w3.org/2000/svg"><path d="m0 0h512v512h-512z" fill="#bcaaa4"/><path d="m0 0v512h512v-512zm480 32v128h-448v-128zm0 160v128h-448v-128zm-448 288v-128h448v128zm0 0" fill="#a1887f"/><path d="m336 128h-160v-64h32v32h96v-32h32zm0 0" fill="#fff"/><path d="m336 288h-160v-64h32v32h96v-32h32zm0 0" fill="#fff"/><g fill="#ffd337"><path d="m480 256v43.265625c-23.824219-27.25-58.273438-43.265625-96-43.265625-70.574219 0-128 57.425781-128 128h32c0-52.945312 43.054688-96 96-96 28.097656 0 53.808594 11.824219 71.632812 32h-39.632812v32h96v-96zm0 0"/><path d="m480 384c0 52.945312-43.054688 96-96 96-27.519531 0-53.472656-12.03125-71.488281-32h39.488281v-32h-96v96h32v-43.457031c24.015625 27.089843 58.945312 43.457031 96 43.457031 70.574219 0 128-57.425781 128-128zm0 0"/></g></svg>