<svg height="512pt" viewBox="0 0 512 512" width="512pt" xmlns="http://www.w3.org/2000/svg"><path d="m502 150h-100v-40h-106v100h106v40h100l-40-50zm0 0" fill="#ed5575"/><path d="m362 482v20h-132v-20c0-11.050781 8.949219-20 20-20h86c11.050781 0 26 8.949219 26 20zm0 0" fill="#656d88"/><path d="m50 502v-172h-40v-110c0-49.710938 40.289062-90 90-90 49.703125 0 90 40.277344 90 90v110h-40v172c-27.101562 0-84.039062 0-100 0zm0 0" fill="#5c9cee"/><path d="m150 60c0 27.613281-22.386719 50-50 50s-50-22.386719-50-50 22.386719-50 50-50 50 22.386719 50 50zm0 0" fill="#5c9cee"/><path d="m110 330c0 5.523438-4.476562 10-10 10s-10-4.476562-10-10 4.476562-10 10-10 10 4.476562 10 10zm0 0"/><path d="m10 492c-5.523438 0-10 4.476562-10 10s4.476562 10 10 10h432c5.523438 0 10-4.476562 10-10s-4.476562-10-10-10h-70v-10c0-16.894531-19.351562-30-36-30h-30v-232h86v30c0 5.523438 4.476562 10 10 10h100c3.84375 0 7.347656-2.203125 9.011719-5.667969 1.667969-3.464843 1.199219-7.578125-1.203125-10.578125l-35.003906-43.753906 35.003906-43.753906c2.402344-3 2.871094-7.113282 1.203125-10.578125-1.664063-3.464844-5.167969-5.667969-9.011719-5.667969h-90v-30c0-5.523438-4.476562-10-10-10h-106c-5.523438 0-10 4.476562-10 10v342h-36c-16.542969 0-30 13.457031-30 30v10h-60v-152h30c5.523438 0 10-4.476562 10-10v-110c0-55.257812-44.699219-100-100-100-55.140625 0-100 44.859375-100 100v110c0 5.523438 4.476562 10 10 10h30v152zm471.195312-332-27.003906 33.753906c-2.921875 3.652344-2.921875 8.839844 0 12.492188l27.003906 33.753906h-69.195312c0-14.511719 0-54.566406 0-80zm-175.195312-40h86v80h-86zm-66 362c0-5.515625 4.484375-10 10-10h86c7.265625 0 16 6.140625 16 10v10h-112zm-220-162v-100c0-44.113281 35.886719-80 80-80 44.207031 0 80 35.757812 80 80v100h-30c-5.523438 0-10 4.476562-10 10v162h-30v-122c0-5.523438-4.476562-10-10-10s-10 4.476562-10 10v122h-30v-162c0-5.523438-4.476562-10-10-10zm0 0"/><path d="m160 60c0-33.085938-26.914062-60-60-60s-60 26.914062-60 60 26.914062 60 60 60 60-26.914062 60-60zm-60 40c-22.054688 0-40-17.945312-40-40s17.945312-40 40-40 40 17.945312 40 40-17.945312 40-40 40zm0 0"/></svg>