<svg height="511pt" viewBox="0 0 511.99974 511" width="511pt" xmlns="http://www.w3.org/2000/svg"><path d="m314.898438.5c-10.914063 0-273.042969 0-297.636719 0-9.539063 0-17.261719 7.722656-17.261719 17.25v476.191406c0 9.527344 7.722656 17.25 17.261719 17.25h297.636719c9.539062 0 17.261718-7.722656 17.261718-17.25v-476.191406c0-9.527344-7.722656-17.25-17.261718-17.25zm0 0" fill="#fff5f4"/><path d="m53.589844 511.191406h-36.328125c-9.539063 0-17.261719-7.722656-17.261719-17.25v-476.191406c0-9.527344 7.722656-17.25 17.261719-17.25h36.328125c-9.539063 0-17.261719 7.722656-17.261719 17.25v476.191406c0 9.53125 7.722656 17.25 17.261719 17.25zm0 0" fill="#ebe0da"/><path d="m275.582031 51.082031h-219.003906c-7.558594 0-13.691406 6.132813-13.691406 13.699219v76.335938c0 7.566406 6.132812 13.703124 13.691406 13.703124h219.003906c7.558594 0 13.691407-6.136718 13.691407-13.703124v-76.335938c0-7.566406-6.132813-13.699219-13.691407-13.699219zm0 0" fill="#63a6fd"/><path d="m275.582031 204.464844h-219.003906c-7.558594 0-13.691406 6.136718-13.691406 13.703125v76.332031c0 7.566406 6.132812 13.703125 13.691406 13.703125h219.003906c7.558594 0 13.691407-6.136719 13.691407-13.703125v-76.332031c0-7.566407-6.132813-13.703125-13.691407-13.703125zm0 0" fill="#63a6fd"/><path d="m275.582031 357.851562h-219.003906c-7.558594 0-13.691406 6.132813-13.691406 13.699219v76.335938c0 7.566406 6.132812 13.699219 13.691406 13.699219h219.003906c7.558594 0 13.691407-6.132813 13.691407-13.699219v-76.335938c0-7.566406-6.132813-13.699219-13.691407-13.699219zm0 0" fill="#63a6fd"/><path d="m90.035156 154.820312h-33.453125c-7.558593 0-13.691406-6.136718-13.691406-13.703124v-76.335938c0-7.566406 6.132813-13.699219 13.691406-13.699219h33.453125c-7.554687 0-13.691406 6.132813-13.691406 13.699219v76.335938c0 7.566406 6.136719 13.703124 13.691406 13.703124zm0 0" fill="#1980f9"/><path d="m90.035156 308.203125h-33.453125c-7.558593 0-13.691406-6.136719-13.691406-13.703125v-76.332031c0-7.566407 6.132813-13.703125 13.691406-13.703125h33.453125c-7.554687 0-13.691406 6.136718-13.691406 13.703125v76.332031c0 7.566406 6.136719 13.703125 13.691406 13.703125zm0 0" fill="#1980f9"/><path d="m90.035156 461.585938h-33.453125c-7.558593 0-13.691406-6.132813-13.691406-13.699219v-76.335938c0-7.566406 6.132813-13.699219 13.691406-13.699219h33.453125c-7.554687 0-13.691406 6.132813-13.691406 13.699219v76.335938c0 7.566406 6.136719 13.699219 13.691406 13.699219zm0 0" fill="#1980f9"/><g fill="#274c93"><path d="m73.597656 91.292969h179.21875c4.296875 0 7.785156-3.484375 7.785156-7.785157 0-4.296874-3.484374-7.785156-7.785156-7.785156h-179.21875c-4.300781 0-7.785156 3.488282-7.785156 7.785156 0 4.300782 3.484375 7.785157 7.785156 7.785157zm0 0"/><path d="m73.597656 130.179688h70.582032c4.300781 0 7.785156-3.484376 7.785156-7.785157 0-4.296875-3.484375-7.785156-7.785156-7.785156h-70.582032c-4.300781 0-7.785156 3.488281-7.785156 7.785156 0 4.300781 3.484375 7.785157 7.785156 7.785157zm0 0"/><path d="m175.320312 114.609375c-4.300781 0-7.785156 3.488281-7.785156 7.785156 0 4.300781 3.484375 7.785157 7.785156 7.785157h29.144532c4.296875 0 7.785156-3.484376 7.785156-7.785157 0-4.296875-3.488281-7.785156-7.785156-7.785156zm0 0"/><path d="m252.816406 228.617188h-179.21875c-4.300781 0-7.785156 3.488281-7.785156 7.785156 0 4.300781 3.484375 7.785156 7.785156 7.785156h179.21875c4.296875 0 7.785156-3.484375 7.785156-7.785156 0-4.296875-3.488281-7.785156-7.785156-7.785156zm0 0"/><path d="m73.597656 283.074219h51.078125c4.300781 0 7.785157-3.484375 7.785157-7.785157 0-4.296874-3.484376-7.785156-7.785157-7.785156h-51.078125c-4.300781 0-7.785156 3.488282-7.785156 7.785156 0 4.300782 3.484375 7.785157 7.785156 7.785157zm0 0"/><path d="m73.597656 397.082031h128.273438c4.300781 0 7.785156-3.484375 7.785156-7.785156 0-4.296875-3.484375-7.785156-7.785156-7.785156h-128.273438c-4.300781 0-7.785156 3.488281-7.785156 7.785156 0 4.300781 3.484375 7.785156 7.785156 7.785156zm0 0"/><path d="m214.820312 420.398438h-47.804687c-4.300781 0-7.785156 3.488281-7.785156 7.785156 0 4.300781 3.484375 7.785156 7.785156 7.785156h47.804687c4.296876 0 7.785157-3.484375 7.785157-7.785156 0-4.296875-3.488281-7.785156-7.785157-7.785156zm0 0"/><path d="m135.875 420.398438h-62.277344c-4.300781 0-7.785156 3.488281-7.785156 7.785156 0 4.300781 3.484375 7.785156 7.785156 7.785156h62.277344c4.300781 0 7.785156-3.484375 7.785156-7.785156 0-4.296875-3.484375-7.785156-7.785156-7.785156zm0 0"/></g><path d="m390.183594 510.007812c-1.246094.167969-2.503906.3125-3.757813.4375-76.832031 7.898438-145.527343-47.984374-153.425781-124.828124-7.898438-76.832032 47.984375-145.527344 124.828125-153.425782 11.074219-1.144531 21.996094-.957031 32.574219.433594 62.808594 8.222656 114.09375 58.628906 120.851562 124.394531 7.777344 75.578125-46.167968 143.273438-121.070312 152.988281zm0 0" fill="#63a6fd"/><path d="m390.183594 510.007812c-1.246094.167969-2.503906.3125-3.757813.4375-76.832031 7.898438-145.527343-47.984374-153.425781-124.828124-7.902344-76.832032 47.984375-145.527344 124.828125-153.425782 11.074219-1.144531 21.996094-.957031 32.570313.433594-74.898438 9.71875-128.84375 77.414062-121.070313 152.992188 6.757813 65.765624 58.042969 116.171874 120.855469 124.390624zm0 0" fill="#1980f9"/><path d="m390.246094 473.253906c-2.480469.445313-4.992188.800782-7.535156 1.058594-3.570313.363281-7.183594.550781-10.746094.550781 2.332031 0-36.097656 3.027344-69.003906-26.511719-19.171876-17.199218-31.191407-40.792968-33.828126-66.441406-7.019531-68.34375 53.621094-124.636718 121.226563-112.539062 18.808594 3.351562 36.453125 11.917968 50.933594 24.914062 19.171875 17.199219 31.191406 40.792969 33.828125 66.449219 5.574218 54.246094-31.988282 103.15625-84.875 112.519531zm0 0" fill="#fff5f4"/><path d="m339.289062 448.351562c14.492188 13.007813 32.136719 21.570313 50.957032 24.902344-2.484375.445313-4.996094.800782-7.539063 1.058594-3.570312.363281-7.179687.550781-10.742187.550781 2.335937 0-36.089844 3.03125-69.003906-26.511719-19.171876-17.199218-31.191407-40.792968-33.828126-66.441406-7.019531-68.339844 53.621094-124.632812 121.226563-112.539062-52.898437 9.363281-90.472656 58.273437-84.898437 112.539062 2.636718 25.648438 14.65625 49.242188 33.828124 66.441406zm0 0" fill="#ebe0da"/><path d="m441.910156 328.324219c-3.039062-3.039063-7.96875-3.039063-11.007812 0l-87.527344 87.523437-36.886719-36.882812c-3.039062-3.039063-7.96875-3.042969-11.007812 0-3.042969 3.039062-3.042969 7.96875 0 11.007812l37.753906 37.753906c2.707031 2.710938 6.308594 4.203126 10.140625 4.203126 3.828125 0 7.429688-1.492188 10.140625-4.199219l88.394531-88.398438c3.039063-3.039062 3.039063-7.96875 0-11.007812zm0 0" fill="#274c93"/></svg>