<svg height="512pt" viewBox="-1 0 512 512.00044" width="512pt" xmlns="http://www.w3.org/2000/svg"><path d="m382.789062 193.726562-54.078124 9.527344c-.640626 9.742188-2.335938 19.199219-4.964844 28.257813l47.539062 27.433593c4.625 2.679688 6.207032 8.574219 3.539063 13.199219l-22.300781 38.632813c-2.667969 4.625-8.574219 6.207031-13.199219 3.539062l-47.570313-27.453125c-6.621094 6.886719-13.976562 13.09375-21.949218 18.433594l18.78125 51.613281c1.824218 5.007813-.773438 10.53125-5.78125 12.371094l-14.636719 5.328125-27.285157 9.917969c-5.007812 1.832031-10.550781-.742188-12.371093-5.761719l-13.984375-38.425781-4.800782-13.179688c-2.667968.28125-5.355468.488282-8.078124.613282-2.066407.113281-4.15625.152343-6.257813.152343-4.839844 0-9.628906-.265625-14.347656-.765625l-18.78125 51.605469c-1.824219 5.019531-7.367188 7.59375-12.371094 5.761719l-41.925781-15.246094c-5.003906-1.839844-7.601563-7.363281-5.78125-12.371094l18.785156-51.613281c-7.976562-5.339844-15.320312-11.546875-21.949219-18.433594l-47.570312 27.453125c-4.625 2.667969-10.53125 1.085938-13.199219-3.539062l-22.300781-38.632813c-2.671875-4.625-1.085938-10.519531 3.535156-13.199219l47.539063-27.433593c-2.625-9.058594-4.300782-18.515625-4.964844-28.257813l-54.074219-9.527344c-5.253906-.929687-8.761719-5.9375-7.832031-11.199218l7.738281-43.933594c.929687-5.242188 5.9375-8.757812 11.203125-7.839844l54.035156 9.539063c3.917969-8.824219 8.738282-17.128907 14.375-24.824219l-35.300781-42.070312c-3.433594-4.09375-2.898437-10.175782 1.1875-13.613282l34.175781-28.679687c4.085938-3.425781 10.179688-2.886719 13.601563 1.199219l35.292969 42.054687c8.515624-4.1875 17.542968-7.507813 26.96875-9.816406v-54.890625c0-5.339844 4.3125-9.652344 9.648437-9.652344h44.613281c5.339844 0 9.652344 4.3125 9.652344 9.652344v54.894531c9.421875 2.304687 18.460938 5.625 26.964844 9.816406l35.292968-42.058593c3.421876-4.085938 9.515626-4.625 13.601563-1.199219l34.175781 28.683593c4.085938 3.433594 4.625 9.515626 1.199219 13.609376l-35.3125 42.070312c5.636719 7.695312 10.457031 16 14.378906 24.824219l54.054688-9.535157c5.246093-.921874 10.25 2.59375 11.183593 7.839844l7.734376 43.929688c.933593 5.261718-2.574219 10.269531-7.828126 11.199218zm0 0" fill="#1980f9"/><path d="m169.074219 102.484375c13.820312-27.523437 33.863281-51.398437 58.265625-69.789063v-23.042968c0-5.339844-4.3125-9.652344-9.652344-9.652344h-44.609375c-5.339844 0-9.652344 4.3125-9.652344 9.652344v54.890625c-9.421875 2.308593-18.453125 5.628906-26.964843 9.816406l-35.292969-42.054687c-3.425781-4.085938-9.515625-4.625-13.601563-1.199219l-34.175781 28.679687c-4.085937 3.4375-4.625 9.519532-1.191406 13.613282l35.304687 42.070312c-5.636718 7.695312-10.457031 16-14.378906 24.824219l-54.035156-9.539063c-5.265625-.917968-10.273438 2.597656-11.203125 7.839844l-7.738281 43.933594c-.929688 5.261718 2.578124 10.269531 7.832031 11.199218l54.078125 9.527344c.660156 9.742188 2.335937 19.199219 4.964844 28.257813l-47.542969 27.433593c-4.621094 2.679688-6.203125 8.574219-3.535157 13.199219l22.300782 38.632813c2.667968 4.625 8.574218 6.207031 13.199218 3.539062l47.570313-27.453125c6.628906 6.886719 13.972656 13.09375 21.949219 18.433594l-18.785156 51.613281c-1.820313 5.007813.777343 10.53125 5.78125 12.371094l41.925781 15.246094c5.003906 1.832031 10.550781-.742188 12.371093-5.761719l18.785157-51.605469c4.714843.5 9.503906.765625 14.34375.765625 2.101562 0 4.191406-.039062 6.257812-.152343-12.492187-13.367188-23.179687-28.457032-31.640625-44.894532h-.019531c-14.066406-27.285156-22.011719-58.265625-22.011719-91.105468 0-32.097657 7.59375-62.425782 21.089844-89.289063zm0 0" fill="#285fb3"/><path d="m214.523438 340.339844 13.984374 38.425781c1.820313 5.019531 7.363282 7.59375 12.371094 5.761719l27.285156-9.917969c-19.746093-8.535156-37.824218-20.152344-53.640624-34.269531zm0 0" fill="#285fb3"/><path d="m301.328125 192.570312c0 58.507813-47.429687 105.933594-105.9375 105.933594-5.890625 0-11.671875-.480468-17.300781-1.40625-50.28125-8.257812-88.632813-51.910156-88.632813-104.527344 0-52.238281 37.808594-95.644531 87.546875-104.351562 5.972656-1.046875 12.121094-1.589844 18.390625-1.589844 58.503907-.003906 105.933594 47.433594 105.933594 105.941406zm0 0" fill="#fff5f4"/><path d="m178.09375 297.09375c-50.28125-8.253906-88.636719-51.90625-88.636719-104.523438 0-52.238281 37.808594-95.648437 87.550781-104.347656-2.835937 4.632813-5.484374 9.390625-7.925781 14.261719h-.019531c-13.488281 26.863281-21.089844 57.191406-21.089844 89.296875 0 32.832031 7.945313 63.800781 22.019532 91.097656h.011718c2.503906 4.863282 5.203125 9.601563 8.089844 14.214844zm0 0" fill="#ebe0da"/><path d="m241.835938 169.636719c-2.304688-3.609375-7.101563-4.667969-10.714844-2.363281l-31.90625 20.363281v-61.765625c0-4.285156-3.472656-7.757813-7.757813-7.757813-4.28125 0-7.757812 3.472657-7.757812 7.757813v75.921875c0 6.167969 6.820312 9.800781 11.933593 6.539062l43.835938-27.980469c3.613281-2.304687 4.671875-7.101562 2.367188-10.714843zm0 0" fill="#f64346"/><path d="m510.941406 435.996094-7.796875 21.300781c-.9375 2.546875-3.753906 3.863281-6.300781 2.921875l-26.203125-9.605469c-2.714844 4.039063-5.859375 7.785157-9.386719 11.152344l13.898438 24.222656c1.347656 2.355469.535156 5.34375-1.8125 6.707031l-6.867188 3.9375-12.789062 7.359376c-2.347656 1.34375-5.347656.542968-6.699219-1.816407l-10.339844-18.03125-3.558593-6.179687c-1.304688.367187-2.636719.703125-3.984376 1.007812-1.03125.230469-2.070312.4375-3.125.621094-2.417968.425781-4.84375.710938-7.242187.863281l-4.910156 27.496094c-.476563 2.671875-3.023438 4.445313-5.691407 3.96875l-22.3125-3.984375c-2.667968-.480469-4.449218-3.027344-3.96875-5.699219l4.902344-27.496093c-4.457031-1.980469-8.679687-4.441407-12.59375-7.316407l-21.425781 17.894531c-2.078125 1.746094-5.167969 1.460938-6.914063-.617187l-14.523437-17.410156c-1.742187-2.085938-1.460937-5.175781.621094-6.921875l21.40625-17.886719c-2.101563-4.316406-3.769531-8.90625-4.949219-13.730469l-27.898438-.058594c-2.714843-.007812-4.902343-2.210937-4.894531-4.925781l.042969-22.6875c.007812-2.707031 2.210938-4.910156 4.925781-4.902343l27.886719.0625c1.1875-4.757813 2.875-9.347657 5.023438-13.691407l-21.335938-17.996093c-2.066406-1.75-2.332031-4.847657-.582031-6.929688l14.609375-17.34375c1.742187-2.074219 4.839844-2.335938 6.90625-.589844l21.328125 17.996094c3.902343-2.847656 8.132812-5.292969 12.644531-7.265625l-4.78125-27.503906c-.464844-2.675781 1.324219-5.214844 3.992188-5.683594l22.332031-3.882813c2.671875-.46875 5.210937 1.316407 5.675781 3.992188l2.003906 11.546875 2.777344 15.957031c4.917969.335938 9.726562 1.207032 14.355469 2.566406l14.003906-24.152343c1.355469-2.339844 4.359375-3.144531 6.699219-1.78125l19.613281 11.386719c2.339844 1.371093 3.132813 4.367187 1.78125 6.714843l-14.011719 24.15625c3.496094 3.363281 6.628906 7.105469 9.359375 11.1875l26.226563-9.488281c2.546875-.917969 5.359375.402344 6.28125 2.949219l7.707031 21.332031c.917969 2.5625-.398437 5.375-2.953125 6.292969l-26.230469 9.492187c.519531 4.941406.496094 9.820313-.03125 14.59375l26.195313 9.597656c2.535156.9375 3.84375 3.753907 2.914062 6.300782zm0 0" fill="#1980f9"/><path d="m409.34375 459.242188c-4.71875-6.226563-8.742188-13.042969-11.945312-20.367188-3.199219-7.3125-5.585938-15.132812-7.015626-23.367188-2.792968-16.082031-1.632812-31.941406 2.785157-46.574218h.007812c4.519531-15 12.464844-28.707032 23.078125-40.042969l-2.007812-11.554687c-.464844-2.667969-3-4.457032-5.667969-3.992188l-22.332031 3.890625c-2.667969.464844-4.457032 3.007813-3.992188 5.679687l4.777344 27.503907c-4.507812 1.972656-8.738281 4.425781-12.640625 7.269531l-21.335937-17.996094c-2.058594-1.75-5.164063-1.492187-6.902344.589844l-14.613282 17.34375c-1.75 2.082031-1.480468 5.171875.589844 6.929688l21.339844 18c-2.152344 4.34375-3.851562 8.925781-5.027344 13.683593l-27.886718-.0625c-2.722657-.007812-4.925782 2.195313-4.925782 4.90625l-.050781 22.683594c0 2.71875 2.183594 4.921875 4.890625 4.921875l27.910156.0625c1.179688 4.828125 2.84375 9.421875 4.941406 13.734375l-21.398437 17.886719c-2.082031 1.746094-2.371094 4.828125-.621094 6.917968l14.523438 17.410157c1.738281 2.078125 4.828125 2.367187 6.910156.621093l21.421875-17.894531c3.917969 2.875 8.136719 5.335938 12.597656 7.3125l-4.902344 27.503907c-.476562 2.667968 1.300782 5.210937 3.96875 5.6875l22.3125 3.992187c2.667969.476563 5.214844-1.300781 5.691407-3.96875l4.910156-27.496094c2.402344-.15625 4.820313-.433593 7.242187-.867187 1.054688-.1875 2.089844-.394532 3.125-.621094-7.429687-5.605469-14.089843-12.238281-19.757812-19.726562zm0 0" fill="#285fb3"/><path d="m436.640625 484.140625 10.34375 18.039063c1.355469 2.347656 4.355469 3.15625 6.703125 1.808593l12.785156-7.351562c-10.625-2.554688-20.675781-6.796875-29.832031-12.496094zm0 0" fill="#285fb3"/><path d="m461.144531 403.589844c3.800781 21.863281-7.910156 42.824218-27.1875 51.597656-.082031.039062-.171875.078125-.257812.109375-3.542969 1.597656-7.339844 2.777344-11.339844 3.476563-4.402344.765624-8.769531.902343-13.007813.464843-20.730468-2.097656-38.375-17.734375-42.125-39.285156-3.71875-21.382813 7.40625-41.917969 25.945313-51.015625 3.960937-1.957031 8.273437-3.378906 12.839844-4.175781 4.003906-.695313 7.972656-.871094 11.851562-.5625.089844 0 .1875.007812.277344.015625 21.101563 1.738281 39.203125 17.515625 43.003906 39.375zm0 0" fill="#63a6fd"/><path d="m437.921875 407.636719c1.101563 6.34375-.332031 12.738281-4.03125 18.003906-1.476563 2.089844-3.234375 3.902344-5.210937 5.390625-.527344.410156-1.070313.777344-1.625 1.136719-2.632813 1.664062-5.585938 2.804687-8.738282 3.351562-6.335937 1.105469-12.726562-.328125-17.988281-4.03125-5.269531-3.703125-8.773437-9.238281-9.875-15.582031-1.105469-6.351562.324219-12.746094 4.035156-18.011719 3.703125-5.265625 9.230469-8.777343 15.570313-9.878906 3.152344-.550781 6.316406-.46875 9.355468.199219.644532.148437 1.277344.3125 1.914063.519531 2.363281.730469 4.628906 1.84375 6.722656 3.3125 5.257813 3.707031 8.765625 9.238281 9.871094 15.589844zm0 0" fill="#1980f9"/><path d="m409.34375 459.242188c-20.71875-2.097657-38.375-17.738282-42.121094-39.296876-3.710937-21.378906 7.40625-41.910156 25.945313-51.011718-4.417969 14.632812-5.578125 30.492187-2.785157 46.574218 1.429688 8.234376 3.816407 16.054688 7.015626 23.367188 3.203124 7.324219 7.226562 14.140625 11.945312 20.367188zm0 0" fill="#4395fb"/><path d="m428.675781 431.035156c-.527343.402344-1.066406.777344-1.625 1.128906-2.625 1.664063-5.585937 2.800782-8.738281 3.359376-6.332031 1.097656-12.722656-.328126-17.988281-4.03125-5.265625-3.703126-8.773438-9.25-9.878907-15.589844-1.097656-6.351563.332032-12.742188 4.042969-18.007813 3.703125-5.265625 9.226563-8.773437 15.570313-9.878906 3.152344-.546875 6.320312-.464844 9.347656.195313.644531.15625 1.285156.320312 1.914062.527343-1.984374 1.480469-3.742187 3.300781-5.210937 5.390625-3.714844 5.265625-5.140625 11.65625-4.035156 18.007813 1.097656 6.339843 4.601562 11.875 9.878906 15.578125 2.078125 1.46875 4.355469 2.585937 6.722656 3.320312zm0 0" fill="#285fb3"/></svg>