<svg height="512pt" viewBox="0 0 512 512" width="512pt" xmlns="http://www.w3.org/2000/svg"><path d="m502 362v140h-166v-140zm0 0" fill="#90e36a"/><path d="m336 502h-160c0-14.265625 0-204.003906 0-212h160zm0 0" fill="#f2df33"/><path d="m336 210v20h-160v-20c0-44.179688 35.820312-80 80-80s80 35.820312 80 80zm0 0" fill="#5c9cee"/><path d="m306 60c0 27.613281-22.386719 50-50 50s-50-22.386719-50-50 22.386719-50 50-50 50 22.386719 50 50zm0 0" fill="#5c9cee"/><path d="m176 362v140h-166v-140zm0 0" fill="#ed5575"/><path d="m386 462c0 5.523438-4.476562 10-10 10s-10-4.476562-10-10 4.476562-10 10-10 10 4.476562 10 10zm0 0"/><path d="m60 462c0 5.523438-4.476562 10-10 10s-10-4.476562-10-10 4.476562-10 10-10 10 4.476562 10 10zm0 0"/><path d="m166 210v20c0 5.523438 4.476562 10 10 10h160c5.523438 0 10-4.476562 10-10v-20c0-49.535156-40.074219-90-90-90-49.625 0-90 40.375-90 90zm90-70c38.527344 0 70 31.167969 70 70v10h-140v-10c0-38.597656 31.402344-70 70-70zm0 0"/><path d="m316 60c0-33.085938-26.914062-60-60-60s-60 26.914062-60 60 26.914062 60 60 60 60-26.914062 60-60zm-60 40c-22.054688 0-40-17.945312-40-40s17.945312-40 40-40 40 17.945312 40 40-17.945312 40-40 40zm0 0"/><path d="m276 432h-10v-70c0-5.523438-4.476562-10-10-10h-20c-5.523438 0-10 4.476562-10 10s4.476562 10 10 10h10v60h-10c-5.523438 0-10 4.476562-10 10s4.476562 10 10 10h40c5.523438 0 10-4.476562 10-10s-4.476562-10-10-10zm0 0"/><path d="m502 352h-156v-62c0-5.523438-4.476562-10-10-10h-160c-5.523438 0-10 4.476562-10 10v62h-156c-5.523438 0-10 4.476562-10 10v140c0 5.523438 4.476562 10 10 10h492c5.523438 0 10-4.476562 10-10v-140c0-5.523438-4.476562-10-10-10zm-482 20h146v120h-146zm166-72h140v192h-140zm306 192h-146v-120h146zm0 0"/><path d="m416 472h46c5.523438 0 10-4.476562 10-10s-4.476562-10-10-10h-46c-5.523438 0-10 4.476562-10 10s4.476562 10 10 10zm0 0"/><path d="m136 452h-46c-5.523438 0-10 4.476562-10 10s4.476562 10 10 10h46c5.523438 0 10-4.476562 10-10s-4.476562-10-10-10zm0 0"/></svg>