<svg height="511pt" viewBox="0 1 511 511.99975" width="511pt" xmlns="http://www.w3.org/2000/svg"><path d="m262.507812 3.808594c-2.933593-5.082032-10.28125-5.074219-13.210937 0l-29.511719 51.113281c-2.105468 3.648437-.855468 8.3125 2.792969 10.421875 3.648437 2.101562 8.3125.855469 10.417969-2.792969l15.28125-26.464843v86.34375c0 4.210937 3.410156 7.625 7.625 7.625 4.210937 0 7.625-3.414063 7.625-7.625v-86.34375l15.28125 26.464843c2.105468 3.648438 6.773437 4.894531 10.417968 2.789063 3.648438-2.105469 4.898438-6.769532 2.789063-10.417969zm0 0" fill="#1980f9"/><path d="m152.273438 62.652344 26.464843 15.277344c3.648438 2.105468 8.3125.859374 10.417969-2.789063s.855469-8.3125-2.789062-10.417969l-51.117188-29.511718c-5.082031-2.9375-11.441406.746093-11.441406 6.605468v59.023438c0 4.210937 3.414062 7.625 7.628906 7.625 4.210938 0 7.625-3.414063 7.625-7.625v-30.5625l43.171875 74.777344c1.414063 2.445312 3.976563 3.8125 6.613281 3.8125 5.816406 0 9.542969-6.335938 6.597656-11.441407zm0 0" fill="#63a6fd"/><path d="m143.980469 184.457031-74.773438-43.171875h30.558594c4.210937 0 7.625-3.414062 7.625-7.625 0-4.214844-3.414063-7.628906-7.625-7.628906h-59.023437c-5.867188 0-9.535157 6.367188-6.605469 11.441406l29.511719 51.117188c2.105468 3.648437 6.773437 4.894531 10.417968 2.789062 3.648438-2.105468 4.898438-6.769531 2.792969-10.417968l-15.28125-26.464844c81.246094 46.910156 75.675781 44.195312 78.582031 44.195312 7.773438 0 10.5625-10.339844 3.820313-14.234375zm0 0" fill="#1980f9"/><path d="m122.929688 250.921875h-86.34375l26.464843-15.28125c3.648438-2.105469 4.898438-6.769531 2.792969-10.417969-2.109375-3.648437-6.773438-4.894531-10.421875-2.789062l-51.113281 29.507812c-5.082032 2.9375-5.074219 10.28125 0 13.210938l51.113281 29.511718c3.648437 2.105469 8.3125.855469 10.421875-2.792968 2.105469-3.644532.855469-8.3125-2.792969-10.417969l-26.464843-15.277344h86.339843c4.214844 0 7.628907-3.414062 7.628907-7.628906 0-4.210937-3.414063-7.625-7.625-7.625zm0 0" fill="#63a6fd"/><path d="m372.742188 100.839844c0 4.210937 3.414062 7.625 7.628906 7.625 4.210937 0 7.625-3.414063 7.625-7.625v-59.023438c0-5.867187-6.367188-9.535156-11.4375-6.605468l-51.117188 29.511718c-3.648437 2.105469-4.898437 6.769532-2.792968 10.417969 2.105468 3.648437 6.773437 4.894531 10.417968 2.789063l26.464844-15.277344-43.171875 74.773437c-2.105469 3.648438-.855469 8.3125 2.792969 10.417969 3.652344 2.109375 8.316406.855469 10.417968-2.789062l43.171876-74.777344zm0 0" fill="#63a6fd"/><path d="m434.949219 180.960938c-2.105469 3.648437-.855469 8.3125 2.789062 10.417968 3.65625 2.109375 8.316407.855469 10.417969-2.789062l29.511719-51.117188c2.933593-5.082031-.746094-11.441406-6.601563-11.441406h-59.023437c-4.214844 0-7.628907 3.414062-7.628907 7.628906 0 4.210938 3.414063 7.625 7.628907 7.625h30.558593l-74.773437 43.171875c-3.648437 2.105469-4.898437 6.773438-2.792969 10.417969 2.109375 3.652344 6.773438 4.898438 10.417969 2.792969l74.773437-43.171875zm0 0" fill="#1980f9"/><path d="m507.5 251.941406-51.117188-29.511718c-3.652343-2.105469-8.3125-.855469-10.417968 2.792968-2.105469 3.648438-.855469 8.3125 2.792968 10.417969l26.464844 15.277344h-86.34375c-4.210937 0-7.625 3.414062-7.625 7.628906 0 4.210937 3.414063 7.625 7.625 7.625h86.34375l-26.464844 15.28125c-6.746093 3.894531-3.949218 14.234375 3.820313 14.234375 2.859375 0-.613281 1.527344 54.921875-30.535156 5.082031-2.933594 5.070312-10.28125 0-13.210938zm0 0" fill="#63a6fd"/><path d="m369.527344 491.261719c0 5.726562-2.316406 10.914062-6.070313 14.664062-3.75 3.753907-8.9375 6.070313-14.664062 6.070313h-185.796875c-11.449219 0-20.726563-9.28125-20.726563-20.734375 0-26.152344 10.597657-49.835938 27.742188-66.980469 1.871093-1.871094 3.824219-3.671875 5.859375-5.382812 5.277344-4.460938 11.050781-8.367188 17.226562-11.601563 2.613282-1.371094 5.296875-2.613281 8.042969-3.742187 11.054687-4.523438 23.164063-7.027344 35.855469-7.027344h37.796875c12.703125 0 24.8125 2.503906 35.867187 7.027344 4.597656 1.882812 9 4.109374 13.191406 6.640624 4.257813 2.59375 8.296876 5.5 12.078126 8.695313 20.550781 17.378906 33.597656 43.351563 33.597656 72.371094zm0 0" fill="#fff5f4"/><path d="m236.996094 396.53125h24.578125c-12.699219 0-24.8125 2.5-35.863281 7.027344-9.246094 3.78125-17.757813 8.976562-25.273438 15.34375-2.023438 1.707031-3.972656 3.496094-5.855469 5.378906-17.144531 17.144531-27.742187 40.828125-27.742187 66.984375 0 11.449219 9.285156 20.734375 20.734375 20.734375h-24.578125c-11.449219 0-20.722656-9.285156-20.722656-20.734375 0-26.15625 10.59375-49.839844 27.738281-66.984375 1.871093-1.871094 3.824219-3.671875 5.859375-5.378906 5.277344-4.464844 11.054687-8.371094 17.226562-11.601563 2.613282-1.375 5.296875-2.613281 8.042969-3.742187 11.054687-4.527344 23.164063-7.027344 35.855469-7.027344zm0 0" fill="#ebe0da"/><g fill="#c8bebc"><path d="m261.164062 442.679688v69.320312h-10.53125v-69.320312c0-2.90625 2.359376-5.265626 5.265626-5.265626s5.265624 2.359376 5.265624 5.265626zm0 0"/><path d="m338.210938 487.894531h-38.78125c-2.910157 0-5.265626 2.359375-5.265626 5.265625 0 2.910156 2.355469 5.265625 5.265626 5.265625h38.78125c2.90625 0 5.265624-2.355469 5.265624-5.265625 0-2.90625-2.359374-5.265625-5.265624-5.265625zm0 0"/><path d="m281.527344 466.335938c0 3.585937-2.910156 6.492187-6.496094 6.492187s-6.492188-2.90625-6.492188-6.492187c0-3.585938 2.90625-6.496094 6.492188-6.496094s6.496094 2.910156 6.496094 6.496094zm0 0"/><path d="m281.527344 493.160156c0 3.589844-2.910156 6.496094-6.496094 6.496094s-6.492188-2.90625-6.492188-6.496094c0-3.585937 2.90625-6.492187 6.492188-6.492187s6.496094 2.90625 6.496094 6.492187zm0 0"/><path d="m326.808594 436.429688c-.039063 3.5625-4.496094 5.179687-7.078125 2.796874l-17.234375-12.445312c-1.527344-.792969-3.335938-.855469-4.914063-.140625l-37.859375 16.097656c-2.5625 1.949219-6.121094 1.929688-8.664062-.054687l-36.839844-16.042969c-1.578125-.714844-3.386719-.652344-4.921875.140625l-17.226563 12.445312c-2.59375 2.382813-7.039062.765626-7.078124-2.796874-.132813-11.121094 3.234374-21.503907 8.105468-29.132813 2.613282-1.371094 5.296875-2.613281 8.042969-3.742187 11.054687-4.523438 23.164063-7.027344 35.855469-7.027344h37.796875c12.703125 0 24.8125 2.503906 35.867187 7.027344 4.597656 1.882812 9 4.109374 13.191406 6.640624 2.101563 7.992188 3.058594 17.417969 2.957032 26.234376zm0 0"/></g><path d="m232.261719 366.921875v51.226563l20.128906 22.652343c1.320313 2.335938 4.667969 2.371094 6.050781.082031.007813-.007812.015625-.019531.019532-.027343l21.070312-22.707031v-51.226563zm0 0" fill="#f2d1a5"/><path d="m215.730469 307.996094c0 14.753906-11.960938 26.714844-26.714844 26.714844s-26.714844-11.960938-26.714844-26.714844 11.960938-26.714844 26.714844-26.714844 26.714844 11.960938 26.714844 26.714844zm0 0" fill="#f2d1a5"/><path d="m349.5 308c0 14.753906-11.960938 26.714844-26.714844 26.714844s-26.714844-11.960938-26.714844-26.714844 11.960938-26.714844 26.714844-26.714844 26.714844 11.960938 26.714844 26.714844zm0 0" fill="#f2d1a5"/><path d="m326.761719 264.429688v62.601562c0 31.527344-36.003907 58.140625-58.578125 66.621094-4.890625 1.847656-9.160156 2.835937-12.285156 2.835937-8.773438-.003906-26.488282-7.777343-42.011719-20.34375-15.523438-12.574219-28.847657-29.929687-28.847657-49.113281v-62.601562c0-12.667969 10.265626-22.929688 22.929688-22.929688h95.863281c12.664063 0 22.929688 10.261719 22.929688 22.929688zm0 0" fill="#ffe4c2"/><path d="m268.183594 393.652344c-4.890625 1.851562-9.160156 2.835937-12.28125 2.835937-8.777344-.007812-26.492188-7.777343-42.019532-20.347656-15.519531-12.566406-28.851562-29.925781-28.851562-49.105469v-62.609375c0-12.660156 10.273438-22.921875 22.933594-22.921875h24.578125c-12.671875 0-22.929688 10.261719-22.929688 22.921875v62.609375c0 19.179688 13.320313 36.539063 28.847657 49.105469 9.988281 8.09375 20.886718 14.195313 29.722656 17.511719zm0 0" fill="#f2d1a5"/><path d="m156.152344 293.585938h17.082031c14.519531 0 26.402344-11.878907 26.402344-26.402344v-8.480469c0-12.886719-10.546875-23.429687-23.433594-23.429687h-.96875c-12.9375 0-23.429687 10.488281-23.429687 23.429687v30.535156c0 2.402344 1.949218 4.347657 4.347656 4.347657zm0 0" fill="#ca7400"/><path d="m355.648438 293.585938h-17.082032c-14.519531 0-26.402344-11.878907-26.402344-26.402344v-8.480469c0-12.886719 10.546876-23.429687 23.433594-23.429687h.964844c12.941406 0 23.433594 10.488281 23.433594 23.429687v30.535156c0 2.402344-1.949219 4.347657-4.347656 4.347657zm0 0" fill="#ca7400"/><path d="m295.238281 257.261719h-83.191406c-18.664063 0-33.796875-16.578125-33.796875-37.027344 0-20.453125 15.132812-37.027344 33.796875-37.027344 0 0 76.792969 5.375 110.191406-17.15625 4.941407-3.335937 11.3125.667969 11.3125 7.027344v42.210937c0 23.179688-17.152343 41.972657-38.3125 41.972657zm0 0" fill="#ec8500"/><path d="m329.035156 235.058594c-6.445312 13.207031-19.15625 22.199218-33.789062 22.199218h-83.195313c-18.667969 0-33.800781-16.578124-33.800781-37.027343 0-10.21875 3.78125-19.484375 9.902344-26.183594 5.472656-5.992187 12.816406-9.9375 20.980468-10.699219-1.910156 4.625-2.96875 9.773438-2.96875 15.183594 0 20.449219 15.140626 37.023438 33.800782 37.023438h83.191406c1.996094 0 3.957031-.160157 5.878906-.496094zm0 0" fill="#db7d00"/><path d="m270.03125 332.726562c-2.90625 0-5.265625 2.359376-5.265625 5.265626 0 4.890624-3.976563 8.867187-8.867187 8.867187-4.886719 0-8.867188-3.976563-8.867188-8.867187 0-2.90625-2.355469-5.265626-5.265625-5.265626-2.90625 0-5.265625 2.359376-5.265625 5.265626 0 10.699218 8.703125 19.398437 19.398438 19.398437 10.699218 0 19.398437-8.699219 19.398437-19.398437 0-2.90625-2.355469-5.265626-5.265625-5.265626zm0 0" fill="#ca7400"/><path d="m300.609375 314.734375c0 4.636719-3.757813 8.394531-8.394531 8.394531-4.636719 0-8.398438-3.757812-8.398438-8.394531s3.761719-8.394531 8.398438-8.394531c4.636718 0 8.394531 3.757812 8.394531 8.394531zm0 0" fill="#ca7400"/><path d="m227.980469 314.734375c0 4.636719-3.757813 8.394531-8.394531 8.394531-4.636719 0-8.394532-3.757812-8.394532-8.394531s3.757813-8.394531 8.394532-8.394531c4.636718 0 8.394531 3.757812 8.394531 8.394531zm0 0" fill="#ca7400"/><path d="m311.320312 293.652344c-11.300781-7.105469-29.460937-3.59375-31.496093-3.171875-2.84375.59375-4.671875 3.382812-4.078125 6.230469.59375 2.847656 3.382812 4.671874 6.230468 4.078124 4.074219-.847656 17.183594-2.34375 23.738282 1.777344.867187.546875 1.839844.808594 2.796875.808594 1.75 0 3.460937-.875 4.460937-2.464844 1.550782-2.460937.808594-5.710937-1.652344-7.257812zm0 0" fill="#ca7400"/><path d="m231.972656 290.484375c-2.03125-.425781-20.191406-3.9375-31.492187 3.167969-2.460938 1.546875-3.203125 4.796875-1.65625 7.261718 1 1.589844 2.714843 2.460938 4.464843 2.460938.957032 0 1.925782-.257812 2.796876-.808594 6.550781-4.113281 19.359374-2.671875 23.746093-1.773437 2.839844.589843 5.628907-1.234375 6.222657-4.078125.59375-2.851563-1.234376-5.636719-4.082032-6.230469zm0 0" fill="#ca7400"/></svg>