<svg height="512pt" viewBox="-31 0 512 512.00089" width="512pt" xmlns="http://www.w3.org/2000/svg"><path d="m435.613281 277.183594c9.6875 13.207031.25 31.828125-16.128906 31.828125h-48.480469v86.996093c0 11.046876-9.007812 19.996094-20.046875 19.996094h-59.996093c-11.050782 0-19.949219 8.949219-19.949219 20v65.996094h-180.042969v-10.539062c-.011719-192.738282-125.34375-232.726563-64.078125-379.03125 68.617187-163.871094 344.066406-125.746094 344.066406 76.585937zm0 0" fill="#ffcebf"/><path d="m214.011719 176.015625c0 11.046875-8.953125 20-19.996094 20-11.046875 0-20-8.953125-20-20 0-11.042969 8.953125-20 20-20 11.042969 0 19.996094 8.957031 19.996094 20zm0 0" fill="#ed5575"/><path d="m90.96875 512h180.042969c5.523437 0 10-4.476562 10-10v-65.996094c0-5.511718 4.464843-10 9.949219-10h59.996093c16.570313 0 30.050781-13.457031 30.050781-29.996094v-76.996093h38.476563c11.367187 0 21.621094-6.300781 26.761719-16.445313 5.136718-10.140625 4.152344-22.132812-2.570313-31.296875l-62.742187-85.558593c-1.390625-95.679688-63.890625-163.976563-151.335938-181.542969-85.992187-17.28125-176.378906 19.5-211.925781 104.398437-35.164063 83.96875-11.484375 135.351563 15.933594 194.851563 22.199219 48.171875 47.363281 102.773437 47.367187 188.042969v10.539062c-.003906 5.523438 4.472656 10 9.996094 10zm-39.203125-216.953125c-26.492187-57.488281-47.417969-102.894531-15.648437-178.753906 34.65625-82.769531 122.550781-105.984375 189.542968-92.519531 62.414063 12.539062 135.296875 63.339843 135.296875 165.242187 0 2.128906.679688 4.199219 1.9375 5.914063l64.65625 88.164062c2.273438 3.105469 2.59375 7.003906.855469 10.433594-1.738281 3.433594-5.074219 5.484375-8.921875 5.484375h-48.476563c-5.523437 0-10 4.476562-10 10v86.996093c0 5.511719-4.507812 9.996094-10.050781 9.996094h-59.996093c-16.515626 0-29.949219 13.460938-29.949219 30v55.996094h-160.042969v-.539062c-.003906-89.652344-26.140625-146.371094-49.203125-196.414063zm0 0"/><path d="m263.011719 376.007812c0 5.523438-4.476563 10-10 10-5.523438 0-10-4.476562-10-10 0-5.523437 4.476562-10 10-10 5.523437 0 10 4.476563 10 10zm0 0"/><path d="m124.015625 196.015625c0-5.523437-4.476563-10-9.996094-10h-19.507812c1.933593-19.632813 9.558593-38.042969 22.070312-53.289063l13.792969 13.792969c3.90625 3.90625 10.238281 3.902344 14.144531 0 3.902344-3.90625 3.902344-10.238281 0-14.144531l-13.792969-13.789062c15.246094-12.515626 33.652344-20.136719 53.289063-22.074219.058594 20.429687.0625 21.65625 0 51.226562-11.636719 4.128907-20 15.242188-20 28.277344 0 16.542969 13.457031 30 30 30 16.539063 0 30-13.457031 30-30 0-13.035156-8.363281-24.148437-20-28.277344-.0625-29.921875-.0625-30.832031 0-51.226562 19.632813 1.9375 38.042969 9.558593 53.289063 22.074219l-13.792969 13.792968c-3.90625 3.902344-3.90625 10.234375 0 14.140625s10.234375 3.90625 14.140625 0l13.792968-13.792969c12.511719 15.246094 20.136719 33.65625 22.074219 53.289063h-19.507812c-5.523438 0-10 4.480469-10 10 0 5.523437 4.476562 10 10 10h30c5.519531 0 9.996093-4.476563 9.996093-10 0-68.222656-55.289062-119.992187-119.992187-119.992187-66.191406 0-119.996094 53.648437-119.996094 119.992187 0 5.523437 4.480469 10 10 10h30c5.519531 0 9.996094-4.476563 9.996094-10zm70-10c-5.515625 0-10-4.484375-10-10 0-5.511719 4.484375-10 10-10 5.511719 0 9.996094 4.488281 9.996094 10 0 5.515625-4.484375 10-9.996094 10zm0 0"/><path d="m283.011719 376.007812c0 5.519532 4.476562 10 9.996093 10h40c5.523438 0 10-4.480468 10-10 0-5.523437-4.476562-10-10-10h-40c-5.519531 0-9.996093 4.476563-9.996093 10zm0 0"/></svg>