<svg height="512pt" viewBox="0 0 512 512" width="512pt" xmlns="http://www.w3.org/2000/svg"><path d="m512 64v400c0 26.398438-21.601562 48-48 48h-416c-26.398438 0-48-21.601562-48-48v-464h184l48 64zm0 0" fill="#fcc000"/><path d="m464 512h-416c-26.398438 0-48-23.566406-48-52.367188v-331.632812h416v331.632812c0 28.800782 21.601562 52.367188 48 52.367188zm0 0" fill="#ffd337"/><path d="m32 160h32v32h-32zm0 0" fill="#fff"/><path d="m96 160h32v32h-32zm0 0" fill="#fff"/><path d="m325.121094 241.601562c-6.5625-8.480468-14.242188-16.160156-22.722656-22.722656-21.757813-16.800781-48.957032-26.878906-78.398438-26.878906-70.558594 0-128 57.441406-128 128 0 29.441406 10.078125 56.640625 26.878906 78.398438 6.5625 8.480468 14.242188 16.160156 22.722656 22.722656 21.757813 16.800781 48.957032 26.878906 78.398438 26.878906 70.558594 0 128-57.441406 128-128 0-29.441406-10.078125-56.640625-26.878906-78.398438zm-197.121094 78.398438c0-52.945312 43.054688-96 96-96 19.984375 0 38.960938 6.335938 55.34375 17.9375l-133.40625 133.40625c-11.601562-16.382812-17.9375-35.359375-17.9375-55.34375zm96 96c-19.984375 0-38.960938-6.335938-55.34375-17.9375l133.40625-133.40625c11.601562 16.382812 17.9375 35.359375 17.9375 55.34375 0 52.945312-43.054688 96-96 96zm0 0" fill="#e76e54"/></svg>