<svg height="511pt" viewBox="-13 -15 511 511.99957" width="511pt" xmlns="http://www.w3.org/2000/svg"><path d="m184.792969 511.570312.234375-.160156c0 .765625-.097656.746094-.234375.160156zm0 0" fill="#d8cecc"/><path d="m346.480469 210.65625c-4.378907 15-10.847657 29.105469-19.0625 41.996094-5.605469 8.785156-9.847657 18.304687-12.683594 28.230468-2.835937 9.933594-4.269531 20.269532-4.269531 30.695313v159.273437c0 5.585938-4.535156 10.121094-10.121094 10.121094h-150.027344c-5.585937 0-10.113281-4.535156-10.113281-10.121094v-56.007812l-34.886719 5.839844-19.925781 3.335937c-18.101563 0-32.785156-14.675781-32.785156-32.777343v-68.398438l-19.820313-.039062c-22.691406-1.027344-37.722656-24.136719-30.429687-45.644532l29.96875-88.34375c-1.460938-8.746094-2.238281-17.726562-2.238281-26.886718 0-89.75 73.003906-162.4375 162.871093-161.92578175 5.503907.02734375 10.945313.33203175 16.304688.89453175 80.226562 8.390624 142.6875 74.726562 144.640625 157.105468.441406 18.386719-2.199219 36.09375-7.421875 52.652344zm0 0" fill="#d8cecc"/><path d="m64.449219 161.929688c0 9.15625.773437 18.140624 2.238281 26.886718l-29.96875 88.34375c-7.296875 21.507813 7.734375 44.613282 30.429688 45.644532l19.816406.039062v68.398438c0 12.929687 7.492187 24.097656 18.355468 29.4375l-19.925781 3.339843c-18.101562 0-32.785156-14.675781-32.785156-32.777343v-68.398438l-19.820313-.039062c-22.691406-1.03125-37.722656-24.136719-30.429687-45.644532l29.96875-88.34375c-1.460937-8.746094-2.238281-17.730468-2.238281-26.886718 0-89.75 73.003906-162.4375 162.871094-161.92578175 5.503906.02734375 10.945312.33203175 16.304687.89062475-81.386719 8.542969-144.816406 77.382813-144.816406 161.035157zm0 0" fill="#c8bebc"/><path d="m484.070312 196.445312-11.386718 31.113282c-1.371094 3.71875-5.484375 5.640625-9.203125 4.265625l-38.273438-14.03125c-3.964843 5.898437-8.558593 11.375-13.707031 16.289062l20.296875 35.378907c1.964844 3.441406.78125 7.808593-2.648437 9.796874l-10.03125 5.753907-18.675782 10.746093c-3.429687 1.96875-7.808594.792969-9.785156-2.644531l-15.105469-26.34375-5.191406-9.027343c-1.914063.539062-3.855469 1.03125-5.820313 1.476562-1.507812.335938-3.027343.636719-4.570312.90625-3.53125.625-7.070312 1.035156-10.578125 1.261719l-7.171875 40.160156c-.695312 3.898437-4.414062 6.488281-8.3125 5.796875l-32.585938-5.820312c-3.898437-.703126-6.503906-4.421876-5.800781-8.320313l7.164063-40.160156c-6.515625-2.894531-12.679688-6.492188-18.398438-10.691407l-31.292968 26.140626c-3.035157 2.546874-7.550782 2.132812-10.097657-.90625l-21.214843-25.425782c-2.546876-3.050781-2.132813-7.5625.90625-10.109375l31.265624-26.128906c-3.070312-6.300781-5.507812-13.003906-7.226562-20.054687l-40.753906-.089844c-3.964844-.007813-7.160156-3.226563-7.148438-7.191406l.066406-33.132813c.011719-3.957031 3.230469-7.171875 7.195313-7.164063l40.730469.089844c1.730468-6.949218 4.199218-13.648437 7.339844-19.996094l-31.167969-26.285156c-3.015625-2.558594-3.40625-7.082031-.847657-10.121094l21.335938-25.339843c2.546875-3.023438 7.070312-3.40625 10.085938-.859375l31.15625 26.285156c5.699218-4.15625 11.878906-7.726562 18.46875-10.609375l-6.984376-40.171875c-.679687-3.910156 1.933594-7.621094 5.832032-8.300781l32.621094-5.675781c3.898437-.679688 7.605468 1.921874 8.289062 5.832031l2.925781 16.871093 4.054688 23.300782c7.183593.492187 14.210937 1.765625 20.96875 3.753906l20.457031-35.277344c1.976562-3.417968 6.367188-4.59375 9.785156-2.605468l28.640625 16.636718c3.421875 2 4.582031 6.378906 2.605469 9.808594l-20.464844 35.277344c5.105469 4.914062 9.683594 10.378906 13.671875 16.34375l38.308594-13.863282c3.71875-1.339843 7.828125.59375 9.167969 4.3125l11.261718 31.15625c1.339844 3.742188-.582031 7.855469-4.3125 9.195313l-38.316406 13.863281c.761719 7.214844.726563 14.34375-.046875 21.3125l38.261719 14.019532c3.710938 1.375 5.621094 5.484374 4.257812 9.203124zm0 0" fill="#1980f9"/><path d="m364.53125 259.21875c-1.507812.332031-3.027344.636719-4.566406.902344-3.53125.625-7.070313 1.039062-10.578125 1.265625l-7.171875 40.160156c-.691406 3.898437-4.414063 6.488281-8.3125 5.796875l-32.585938-5.820312c-3.898437-.703126-6.503906-4.421876-5.796875-8.324219l7.160157-40.160157c-6.511719-2.890624-12.679688-6.488281-18.398438-10.691406l-31.292969 26.140625c-3.035156 2.546875-7.550781 2.136719-10.097656-.902343l-21.214844-25.425782c-2.546875-3.050781-2.132812-7.5625.90625-10.109375l31.265625-26.128906c-3.070312-6.304687-5.507812-13.003906-7.226562-20.054687l-40.753906-.089844c-3.964844-.011719-7.160157-3.226563-7.148438-7.191406l.066406-33.136719c.011719-3.953125 3.230469-7.171875 7.195313-7.160157l40.730469.089844c1.730468-6.949218 4.199218-13.652344 7.339843-19.996094l-31.167969-26.285156c-3.019531-2.558594-3.410156-7.082031-.851562-10.121094l21.339844-25.339843c2.546875-3.023438 7.070312-3.40625 10.085937-.859375l31.15625 26.285156c5.699219-4.15625 11.875-7.726562 18.464844-10.609375l-6.980469-40.171875c-.679687-3.910156 1.933594-7.617188 5.832032-8.300781l32.617187-5.675781c3.902344-.679688 7.609375 1.921874 8.289063 5.832031l2.929687 16.871093c-15.507813 16.566407-27.113281 36.585938-33.714844 58.492188h-.011719c-6.445312 21.367188-8.144531 44.539062-4.066406 68.03125 4.175782 24.027344 13.929688 45.679688 27.691406 63.863281h.011719c8.28125 10.949219 18.011719 20.632813 28.855469 28.824219zm0 0" fill="#285fb3"/><path d="m419.113281 285.011719-18.675781 10.746093c-3.429688 1.96875-7.808594.792969-9.785156-2.644531l-15.105469-26.34375c13.363281 8.324219 28.050781 14.523438 43.566406 18.242188zm0 0" fill="#285fb3"/><path d="m411.335938 149.117188c5.554687 31.929687-11.554688 62.546874-39.710938 75.359374-.117188.058594-.25.117188-.371094.160157-5.179687 2.335937-10.722656 4.058593-16.570312 5.078125-6.429688 1.121094-12.808594 1.320312-19 .679687-30.277344-3.0625-56.050782-25.902343-61.527344-57.382812-5.429688-31.226563 10.816406-61.222657 37.894531-74.511719 5.785157-2.855469 12.085938-4.9375 18.757813-6.097656 5.84375-1.019532 11.644531-1.273438 17.308594-.824219.128906 0 .273437.011719.40625.023437 30.824218 2.539063 57.261718 25.585938 62.8125 57.515626zm0 0" fill="#63a6fd"/><path d="m377.417969 155.027344c1.609375 9.261718-.480469 18.601562-5.886719 26.292968-2.15625 3.050782-4.726562 5.703126-7.613281 7.875-.769531.597657-1.5625 1.136719-2.371094 1.65625-3.847656 2.433594-8.164063 4.097657-12.765625 4.902344-9.257812 1.609375-18.589844-.484375-26.273438-5.894531-7.695312-5.410156-12.816406-13.492187-14.425781-22.753906-1.613281-9.277344.476563-18.617188 5.894531-26.308594 5.40625-7.695313 13.484376-12.820313 22.738282-14.429687 4.605468-.804688 9.230468-.683594 13.667968.292968.9375.21875 1.867188.457032 2.796876.757813 3.449218 1.070312 6.761718 2.695312 9.820312 4.839843 7.683594 5.40625 12.804688 13.492188 14.417969 22.769532zm0 0" fill="#1980f9"/><path d="m363.917969 189.195312c-.769531.59375-1.5625 1.140626-2.378907 1.652344-3.84375 2.4375-8.15625 4.101563-12.757812 4.90625-9.261719 1.609375-18.589844-.480468-26.273438-5.898437-7.699218-5.40625-12.8125-13.496094-14.421874-22.757813-1.621094-9.269531.46875-18.609375 5.886718-26.304687 5.40625-7.6875 13.484375-12.816407 22.746094-14.421875 4.601562-.804688 9.226562-.695313 13.660156.289062.9375.210938 1.867188.457032 2.792969.757813-2.890625 2.167969-5.472656 4.828125-7.617187 7.878906-5.417969 7.683594-7.507813 17.035156-5.898438 26.304687 1.617188 9.261719 6.734375 17.351563 14.433594 22.757813 3.046875 2.144531 6.363281 3.765625 9.828125 4.835937zm0 0" fill="#285fb3"/><path d="m335.667969 230.394531c-30.277344-3.070312-56.035157-25.917969-61.511719-57.386719-5.429688-31.222656 10.816406-61.207031 37.882812-74.5-6.445312 21.371094-8.144531 44.527344-4.066406 68.019532 4.179688 24.03125 13.929688 45.683594 27.695313 63.867187zm0 0" fill="#4395fb"/></svg>