<svg height="511pt" viewBox="-26 0 511 511.99923" width="511pt" xmlns="http://www.w3.org/2000/svg"><path d="m407.085938 418.148438c-4.109376-13.707032-15.21875-24.167969-29.148438-27.449219l-55.351562-13.019531h-184.277344l-55.351563 13.019531c-13.929687 3.28125-25.039062 13.742187-29.148437 27.449219l-23.359375 83.851562h399.996093zm0 0" fill="#90e36a"/><path d="m360.417969 137.433594c.828125 43.007812-19.222657 81.359375-50.703125 105.617187-16.261719 12.523438-26.925782 35.359375-28.90625 55.949219h-100.699219c-1.929687-20.589844-12.230469-43.289062-28.132813-55.339844-31.308593-23.738281-51.527343-61.335937-51.527343-103.65625 0-72.441406 59.238281-131.039062 131.917969-129.988281 68.757812 1 126.730468 58.667969 128.050781 127.417969zm0 0" fill="#f2df33"/><path d="m180.109375 299h100.699219c-.242188 2.371094-.363282 4.703125-.363282 7 0 27.601562-22.398437 50-49.996093 50-27.613281 0-50-22.390625-50-50v-.078125c0-2.269531-.113281-4.582031-.339844-6.921875zm0 0" fill="#ede9e8"/><path d="m230.449219 356 42.867187 10.089844-.300781 1.261718-42.566406 48.648438-42.570313-48.648438-.300781-1.261718zm0 0" fill="#ffcebf"/><path d="m273.316406 366.089844-.300781 1.261718-42.566406 48.648438 59.996093 40 31.5-75.597656.640626-2.722656zm0 0" fill="#ede9e8"/><path d="m187.578125 366.089844-49.269531 11.589844.640625 2.722656 31.5 75.597656 60-40-42.570313-48.648438zm0 0" fill="#ede9e8"/><path d="m150.449219 150.003906c0 5.523438-4.476563 10-10 10-5.523438 0-10-4.476562-10-10 0-5.523437 4.476562-10 10-10 5.523437 0 10 4.476563 10 10zm0 0"/><path d="m230.4375 60.003906c5.523438 0 10-4.476562 10-10 0-5.523437-4.476562-10-10-10-42.417969 0-80.355469 26.925782-94.394531 67.003906-1.828125 5.210938.917969 10.917969 6.128906 12.742188 5.179687 1.816406 10.90625-.886719 12.746094-6.132812 11.234375-32.066407 41.582031-53.613282 75.519531-53.613282zm0 0"/><path d="m.5 129.773438c0 5.519531 4.476562 10 10 10h40c5.523438 0 10-4.480469 10-10 0-5.523438-4.476562-9.769532-10-9.769532h-40c-5.523438 0-10 4.246094-10 9.769532zm0 0"/><path d="m460.496094 129.773438c0-5.523438-4.476563-9.769532-10-9.769532h-40c-5.523438 0-10 4.246094-10 9.769532 0 5.519531 4.476562 10 10 10h40c5.523437 0 10-4.480469 10-10zm0 0"/><path d="m44.980469 248.433594 34.636719-20c4.785156-2.761719 6.421874-8.878906 3.660156-13.660156-2.761719-4.785157-8.875-6.425782-13.660156-3.660157l-34.636719 20c-4.785157 2.761719-6.421875 8.875-3.660157 13.660157 2.769532 4.796874 8.890626 6.410156 13.660157 3.660156zm0 0"/><path d="m416.027344 11.113281-34.640625 20c-4.78125 2.761719-6.421875 8.878907-3.660157 13.660157 2.769532 4.800781 8.890626 6.414062 13.660157 3.660156l34.640625-20c4.78125-2.761719 6.421875-8.875 3.660156-13.660156-2.765625-4.78125-8.878906-6.421876-13.660156-3.660157zm0 0"/><path d="m31.320312 14.773438c-2.761718 4.785156-1.125 10.898437 3.660157 13.660156l34.636719 20c4.773437 2.753906 10.894531 1.132812 13.660156-3.660156 2.761718-4.78125 1.125-10.898438-3.660156-13.660157l-34.636719-20c-4.78125-2.757812-10.898438-1.121093-13.660157 3.660157zm0 0"/><path d="m416.027344 248.433594c4.769531 2.753906 10.890625 1.132812 13.660156-3.660156 2.761719-4.785157 1.121094-10.898438-3.660156-13.660157l-34.640625-20c-4.78125-2.761719-10.898438-1.125-13.660157 3.660157-2.761718 4.78125-1.121093 10.898437 3.660157 13.660156zm0 0"/><path d="m22.488281 508.046875c1.890625 2.492187 4.835938 3.953125 7.960938 3.953125h399.996093c3.125 0 6.074219-1.460938 7.964844-3.953125 1.890625-2.488281 2.507813-5.71875 1.667969-8.730469l-23.359375-83.847656c-.019531-.066406-.035156-.128906-.054688-.191406-5.121093-17.074219-19.082031-30.222656-36.4375-34.3125l-113.980468-26.8125c15.214844-11.367188 24.199218-28.960938 24.199218-48.152344 0-18.390625 9.347657-42.6875 25.375-55.027344 34.175782-26.335937 55.480469-67.777344 54.59375-113.730468-1.425781-74.21875-63.683593-136.148438-137.902343-137.226563-78.179688-1.140625-142.0625 61.769531-142.0625 139.988281 0 44.203125 20.226562 84.890625 55.488281 111.628906 15.007812 11.371094 24.511719 34.90625 24.511719 54.367188 0 19.691406 9.535156 37.195312 24.234375 48.144531-125.621094 29.554688-37.578125 8.839844-114.015625 26.820313-17.355469 4.089844-31.316407 17.234375-36.4375 34.3125-.019531.0625-.035157.125-.054688.1875l-23.359375 83.851562c-.839844 3.011719-.222656 6.242188 1.671875 8.730469zm207.960938-107.230469-25.066407-28.644531 25.066407-5.898437 25.0625 5.898437zm-47.101563-23.460937 32.066406 36.648437-40.40625 26.9375-23.386718-56.121094zm94.203125 0 31.722657 7.464843-23.386719 56.121094-40.40625-26.9375zm-7.226562-68.355469c-1.507813 20.453125-18.558594 37-39.875 37-21.023438 0-38.296875-16.304688-39.871094-37zm-112.304688-73.304688c-30.230469-22.925781-47.570312-57.804687-47.570312-95.691406 0-66.902344 54.628906-120.976562 121.773437-119.988281 62.859375.914063 116.988282 54.773437 118.195313 117.609375.742187 38.472656-16.316407 74.011719-46.800781 97.503906-16.34375 12.582032-27.355469 33.484375-31.410157 53.875h-31.757812v-86.484375l20.5625-19.839843c3.972656-3.832032 4.085937-10.164063.25-14.140626-3.832031-3.972656-10.164063-4.085937-14.136719-.25l-16.679688 16.089844-16.675781-16.089844c-3.976562-3.835937-10.304687-3.722656-14.140625.25-3.832031 3.976563-3.71875 10.308594.253906 14.140626l20.5625 19.839843v86.484375h-31.683593c-4.167969-21.640625-15.699219-41.910156-30.742188-53.308594zm-94.605469 185.242188c3.09375-10.207031 11.453126-18.058594 21.835938-20.503906l46.640625-10.972656 29.328125 70.386718c2.421875 5.816406 9.554688 7.957032 14.777344 4.472656l54.453125-36.300781 54.449219 36.300781c5.222656 3.484376 12.355468 1.34375 14.777343-4.472656l29.328125-70.386718 46.640625 10.972656c10.382813 2.445312 18.742188 10.296875 21.835938 20.503906l19.796875 71.0625h-373.660156zm0 0"/></svg>