<svg height="512pt" viewBox="0 0 512 512" width="512pt" xmlns="http://www.w3.org/2000/svg"><path d="m512 64v400c0 26.398438-21.601562 48-48 48h-416c-26.398438 0-48-21.601562-48-48v-464h184l48 64zm0 0" fill="#fcc000"/><path d="m464 512h-416c-26.398438 0-48-23.566406-48-52.367188v-331.632812h416v331.632812c0 28.800782 21.601562 52.367188 48 52.367188zm0 0" fill="#ffd337"/><path d="m336 448h-256c-17.679688 0-32-14.320312-32-32v-160c0-17.679688 14.320312-32 32-32h54.113281l16-32h115.773438l16 32h54.113281c17.679688 0 32 14.320312 32 32v160c0 17.679688-14.320312 32-32 32zm0 0" fill="#57565c"/><path d="m304 336c0 53.019531-42.980469 96-96 96s-96-42.980469-96-96 42.980469-96 96-96 96 42.980469 96 96zm0 0" fill="#2d2d30"/><path d="m272 336c0 35.347656-28.652344 64-64 64s-64-28.652344-64-64 28.652344-64 64-64 64 28.652344 64 64zm0 0" fill="#e4edfb"/><path d="m208 304c29.742188 0 54.574219 20.480469 61.726562 48 1.34375-5.152344 2.273438-10.449219 2.273438-16 0-35.296875-28.703125-64-64-64s-64 28.703125-64 64c0 5.550781.929688 10.847656 2.273438 16 7.152343-27.519531 31.984374-48 61.726562-48zm0 0" fill="#d7e1f2"/></svg>