<svg height="512pt" viewBox="-28 0 512 512" width="512pt" xmlns="http://www.w3.org/2000/svg"><path d="m404.640625 358.148438c-4.109375-13.707032-15.21875-24.167969-29.148437-27.449219l-55.351563-13.019531h-184.28125l-55.347656 13.019531c-13.929688 3.28125-25.042969 13.742187-29.152344 27.449219l-41.359375 143.851562h436zm0 0" fill="#5c9cee"/><path d="m338 130v56c0 60.75-49.25 110-110 110s-110-49.25-110-110v-56h43.429688c36.222656 0 70.960937-14.390625 96.570312-40 0 11.039062 4.480469 21.039062 11.71875 28.28125 7.242188 7.238281 17.242188 11.71875 28.28125 11.71875zm0 0" fill="#ffcebf"/><path d="m338 120v10h-40c-22.078125 0-40-17.917969-40-40-25.609375 25.609375-60.347656 40-96.570312 40h-43.429688v-10c0-60.75 49.25-110 110-110 60.746094 0 110 49.238281 110 110zm0 0" fill="#656d88"/><path d="m320.140625 317.679688-32.140625 78.320312-60-40 42.871094-49.910156zm0 0" fill="#ede9e8"/><path d="m228 296 42.871094 10.089844-.300782 1.261718-42.570312 48.648438-42.570312-48.648438-.300782-1.261718zm0 0" fill="#ffcebf"/><path d="m267.679688 502-20-86 12.78125-38.359375-32.460938-21.640625-30.859375 20.570312 10.378906 39.429688-20.648437 86zm0 0" fill="#656d88"/><path d="m228 356-60 40-32.140625-78.320312 49.269531-11.589844zm0 0" fill="#ede9e8"/><path d="m363 416c0 5.523438-4.476562 10-10 10s-10-4.476562-10-10 4.476562-10 10-10 10 4.476562 10 10zm0 0"/><path d="m288 186c0 5.523438-4.476562 10-10 10s-10-4.476562-10-10 4.476562-10 10-10 10 4.476562 10 10zm0 0"/><path d="m188 186c0 5.523438-4.476562 10-10 10s-10-4.476562-10-10 4.476562-10 10-10 10 4.476562 10 10zm0 0"/><path d="m113 416c0 5.523438-4.476562 10-10 10s-10-4.476562-10-10 4.476562-10 10-10 10 4.476562 10 10zm0 0"/><path d="m78.21875 320.96875c-17.355469 4.085938-31.316406 17.230469-36.4375 34.308594-.011719.039062-.019531.074218-.03125.109375l-41.359375 143.851562c-.871094 3.019531-.269531 6.269531 1.621094 8.777344s4.847656 3.984375 7.988281 3.984375h436c3.140625 0 6.097656-1.476562 7.988281-3.984375s2.492188-5.761719 1.625-8.777344l-41.363281-143.851562c-.007812-.035157-.019531-.070313-.03125-.109375-5.121094-17.074219-19.082031-30.222656-36.4375-34.3125l-103.347656-24.3125c43.175781-18.1875 73.566406-60.9375 73.566406-110.652344v-66c0-66.308594-53.652344-120-120-120-66.167969 0-120 53.832031-120 120v66c0 49.714844 30.390625 92.464844 73.570312 110.652344-100.074218 23.546875-7.3125 1.71875-103.351562 24.316406zm102.679688-3.613281 32.066406 36.648437c-13.78125 9.1875-28.890625 19.261719-40.40625 26.9375l-23.382813-56.121094zm47.101562-11.082031 25.066406 5.898437-25.066406 28.640625-25.0625-28.640625zm78.828125 18.542968-23.386719 56.125-40.40625-26.9375 32.066406-36.648437zm-91.425781 101.183594h24.335937l15.351563 66h-55.535156zm25.070312-20h-25.246094l-6.597656-25.066406 19.371094-12.914063 20.558594 13.707031zm-179.515625-45.03125c3.082031-10.222656 11.449219-18.085938 21.84375-20.535156l46.640625-10.972656 29.328125 70.386718c2.433594 5.835938 9.570313 7.945313 14.777344 4.472656l17.488281-11.65625 6.171875 23.449219-18.21875 75.886719h-86.027343l9.140624-34.886719c1.402344-5.339843-1.792968-10.804687-7.136718-12.207031-5.339844-1.402344-10.808594 1.792969-12.207032 7.140625l-10.472656 39.953125h-49.003906zm334.089844 0 37.671875 131.03125h-49l-10.472656-39.953125c-1.402344-5.34375-6.867188-8.539063-12.210938-7.140625-5.339844 1.402344-8.539062 6.867188-7.136718 12.207031l9.144531 34.886719h-87.421875l-17.5625-75.515625 7.75-23.261719 16.644531 11.097656c5.226563 3.484376 12.355469 1.34375 14.78125-4.476562l29.324219-70.382812 46.640625 10.972656c10.394531 2.449218 18.761719 10.3125 21.847656 20.535156zm-167.046875-340.96875c55.257812 0 100 44.710938 100 100h-30c-16.566406 0-30-13.429688-30-30 0-4.046875-2.4375-7.691406-6.171875-9.238281-3.738281-1.542969-8.039063-.691407-10.898437 2.167969-23.90625 23.90625-55.691407 37.070312-89.5 37.070312h-33.429688c0-55.140625 44.859375-100 100-100zm-100 166v-46h33.429688c33.140624 0 64.601562-10.921875 90.269531-31.066406 7.351562 17.972656 25.128906 31.066406 46.300781 31.066406h30v46c0 55.140625-44.859375 100-100 100s-100-44.859375-100-100zm0 0"/><path d="m258 236c0-5.523438-4.476562-10-10-10h-40c-5.523438 0-10 4.476562-10 10s4.476562 10 10 10h40c5.523438 0 10-4.476562 10-10zm0 0"/></svg>