<svg height="512pt" viewBox="0 0 512 512" width="512pt" xmlns="http://www.w3.org/2000/svg"><path d="m511.863281 315.03125v183.960938c0 6.941406-5.632812 12.566406-12.566406 12.566406h-486.714844c-6.941406 0-12.57812475-5.632813-12.57812475-12.578125v-82.089844c0-6.945313 5.63671875-12.566406 12.57812475-12.566406h162.894531c6.941407 0 12.566407-5.625 12.566407-12.566407v-76.726562c0-6.945312 5.621093-12.566406 12.566406-12.566406h298.679687c6.941407 0 12.574219 5.621094 12.574219 12.566406zm0 0" fill="#ec8500"/><path d="m165.695312 240.972656-30.164062-52.246094c-3-5.195312-10.507812-5.183593-13.5 0l-30.164062 52.246094c-2.152344 3.730469-.875 8.496094 2.851562 10.648438 3.730469 2.152344 8.496094.875 10.648438-2.851563l15.617187-27.050781v97.027344c0 6.972656-5.671875 12.644531-12.644531 12.644531h-84.191406c-4.304688 0-7.796876 3.492187-7.796876 7.796875s3.492188 7.796875 7.796876 7.796875h84.191406c15.566406 0 28.238281-12.667969 28.238281-28.238281v-97.027344l15.617187 27.050781c2.152344 3.726563 6.917969 5.003907 10.648438 2.851563s5.007812-6.917969 2.851562-10.648438zm0 0" fill="#1980f9"/><g fill="#db7d00"><path d="m427.824219 74.074219c-5.917969 0-10.710938-4.796875-10.710938-10.710938v-36.734375c0-2.867187-2.335937-5.203125-5.203125-5.203125h-102.847656c-2.871094 0-5.203125 2.335938-5.203125 5.203125v36.734375c0 5.914063-4.796875 10.710938-10.714844 10.710938s-10.710937-4.796875-10.710937-10.710938v-36.734375c0-14.683594 11.945312-26.628906 26.628906-26.628906h102.847656c14.683594 0 26.628906 11.945312 26.628906 26.628906v36.734375c0 5.914063-4.796874 10.710938-10.714843 10.710938zm0 0"/><path d="m211.847656 404.328125h-36.378906c6.945312 0 12.566406-5.632813 12.566406-12.574219v-76.730468c0-6.941407 5.625-12.554688 12.566406-12.554688h36.378907c-6.941407 0-12.566407 5.613281-12.566407 12.554688v76.730468c0 6.941406-5.621093 12.574219-12.566406 12.574219zm0 0"/><path d="m511.859375 462.628906v36.367188c0 6.945312-5.632813 12.558594-12.566406 12.558594h-486.714844c-6.945313 0-12.578125-5.625-12.578125-12.566407v-82.101562c0-6.945313 5.632812-12.558594 12.578125-12.558594h36.378906c-6.945312 0-12.578125 5.613281-12.578125 12.558594v45.730469c0 6.945312 5.632813 12.578124 12.578125 12.578124h450.335938c6.933593 0 12.566406-5.625 12.566406-12.566406zm0 0"/></g><path d="m512 64.601562v175.1875c0 4.054688-.589844 7.964844-1.679688 11.65625-5.023437 16.941407-20.710937 29.308594-39.285156 29.308594h-221.101562c-22.628906 0-40.964844-18.34375-40.964844-40.964844v-175.1875c0-7.523437 6.097656-13.621093 13.621094-13.621093h275.789062c7.523438 0 13.621094 6.097656 13.621094 13.621093zm0 0" fill="#ca7400"/><path d="m512 64.601562v39.605469c0 10.886719-3.011719 21.066407-8.25 29.757813-10.101562 16.742187-28.460938 27.945312-49.449219 27.945312h-187.632812c-31.871094 0-57.699219-25.832031-57.699219-57.699218v-39.609376c0-7.523437 6.097656-13.621093 13.621094-13.621093h275.789062c7.523438 0 13.621094 6.097656 13.621094 13.621093zm0 0" fill="#b96a00"/><path d="m510.324219 251.445312c-5.027344 16.933594-20.710938 29.304688-39.289063 29.304688h-221.105468c-22.628907 0-40.960938-18.335938-40.960938-40.964844v-175.179687c0-7.53125 6.101562-13.617188 13.617188-13.617188h13.984374v161.183594c0 22.613281 18.335938 40.960937 40.960938 40.960937h221.105469c4.0625 0 7.992187-.585937 11.6875-1.6875zm0 0" fill="#b96a00"/><path d="m455.625 190.332031h-17.769531c-3.710938 0-6.722657-3.007812-6.722657-6.722656v-43.828125c0-3.714844 3.011719-6.722656 6.722657-6.722656h17.769531c3.714844 0 6.722656 3.007812 6.722656 6.722656v43.828125c0 3.714844-3.007812 6.722656-6.722656 6.722656zm0 0" fill="#c8bebc"/><path d="m503.746094 133.96875c-10.097656 16.746094-28.457032 27.945312-49.441406 27.945312h-187.632813c-31.867187 0-57.703125-25.835937-57.703125-57.707031v-39.601562c0-7.53125 6.101562-13.617188 13.617188-13.617188h13.984374v29.558594c0 31.871094 25.835938 57.703125 57.707032 57.703125h187.628906c7.734375 0 15.113281-1.519531 21.839844-4.28125zm0 0" fill="#a86000"/><path d="m462.347656 139.78125v21.570312c-2.625.367188-5.316406.554688-8.046875.554688h-23.171875v-22.125c0-3.710938 3.015625-6.726562 6.726563-6.726562h17.765625c3.722656 0 6.726562 3.015624 6.726562 6.726562zm0 0" fill="#ebe0da"/><path d="m283.175781 190.332031h-17.769531c-3.714844 0-6.722656-3.007812-6.722656-6.722656v-43.828125c0-3.714844 3.007812-6.722656 6.722656-6.722656h17.769531c3.710938 0 6.722657 3.007812 6.722657 6.722656v43.828125c0 3.714844-3.011719 6.722656-6.722657 6.722656zm0 0" fill="#c8bebc"/><path d="m289.894531 139.78125v21.570312c-2.621093.367188-5.3125.554688-8.042969.554688h-23.171874v-22.125c0-3.710938 3.015624-6.726562 6.726562-6.726562h17.761719c3.722656 0 6.726562 3.015624 6.726562 6.726562zm0 0" fill="#ebe0da"/></svg>