<svg height="512pt" viewBox="-48 0 511 512" width="512pt" xmlns="http://www.w3.org/2000/svg"><path d="m365.949219 394.628906c-4.6875-11.730468-14.628907-20.550781-26.828125-23.800781-53.390625-14.234375-35.253906-9.398437-39.121094-10.429687h-183c-3.890625 1.039062 14.269531-3.800782-39.121094 10.429687-12.199218 3.25-22.136718 12.070313-26.828125 23.800781l-40.550781 107.371094h396zm0 0" fill="#ed5575"/><path d="m368.839844 315.578125c0 23.820313-13.847656 44.390625-33.929688 54.132813h-.007812l-126.402344-33.710938c48.378906 0 88.742188-34.359375 98-80h2.242188c.277343 32.949219 27.078124 59.578125 60.097656 59.578125zm0 0" fill="#656d88"/><path d="m338.53125 170h-30.03125l-2 86h32.03125c11.039062 0 20-8.949219 20-20v-46.140625c-.082031-10.988281-9.011719-19.859375-20-19.859375zm0 0" fill="#656d88"/><path d="m308.5 170v66c0 55.464844-45.007812 100-100 100-55.070312 0-100-44.625-100-100v-66h33.429688c36.222656 0 70.960937-14.390625 96.570312-40 0 11.039062 4.480469 21.039062 11.722656 28.28125 7.238282 7.238281 17.238282 11.71875 28.277344 11.71875zm0 0" fill="#ffcebf"/><path d="m308.5 170h-30c-11.039062 0-21.039062-4.480469-28.277344-11.71875-7.242187-7.242188-11.722656-17.242188-11.722656-28.28125-25.609375 25.609375-60.347656 40-96.570312 40h-33.429688c0-55.230469 44.769531-100 100-100 55.226562 0 100 44.757812 100 100zm0 0" fill="#656d88"/><path d="m300 360.398438-31.5 75.601562-60-40 42.570312-48.648438zm0 0" fill="#ede9e8"/><path d="m251.070312 347.351562-42.570312 48.648438-42.570312-48.648438 42.570312-11.351562zm0 0" fill="#ffcebf"/><path d="m165.929688 347.351562 42.570312 48.648438-60 40-31.5-75.601562zm0 0" fill="#ede9e8"/><path d="m208.5 336-127.078125 33.890625c-19.589844-9.921875-33.019531-30.230469-33.019531-53.679687 33.1875 0 60.097656-26.910157 60.097656-60.109376v-.101562h2c9.261719 45.640625 49.621094 80 98 80zm0 0" fill="#656d88"/><path d="m108.5 170h-29.96875c-11.050781 0-20 8.949219-20 20v46c0 11.050781 8.949219 20 20 20h31.96875zm0 0" fill="#656d88"/><path d="m333.5 436c0 5.523438-4.476562 10-10 10s-10-4.476562-10-10 4.476562-10 10-10 10 4.476562 10 10zm0 0"/><path d="m268.5 226c0 5.523438-4.476562 10-10 10s-10-4.476562-10-10 4.476562-10 10-10 10 4.476562 10 10zm0 0"/><path d="m168.5 226c0 5.523438-4.476562 10-10 10s-10-4.476562-10-10 4.476562-10 10-10 10 4.476562 10 10zm0 0"/><path d="m103.5 436c0 5.523438-4.476562 10-10 10s-10-4.476562-10-10 4.476562-10 10-10 10 4.476562 10 10zm0 0"/><path d="m375.308594 391.097656c-.023438-.0625-.046875-.121094-.070313-.179687-3.886719-9.722657-10.765625-17.890625-19.402343-23.460938 14.363281-13.132812 23.007812-31.96875 23.007812-51.875 0-5.523437-4.480469-10-10-10-23.941406 0-44.121094-17.015625-48.984375-39.582031h18.671875c16.542969 0 29.902344-13.457031 29.902344-30-.007813-87.742188-.007813-49.433594-.011719-76.019531-.003906-88.417969-71.488281-159.980469-159.902344-159.980469-88.433593 0-160.011719 71.570312-160 160.023438 0 2.441406 0-15.777344.011719 75.976562 0 16.542969 13.457031 29.988281 30 29.988281h18.984375c-4.609375 22.90625-24.878906 40.222657-49.117187 40.222657-5.523438 0-10 4.476562-10 10 0 19.925781 8.289062 38.394531 22.441406 51.457031-8.484375 5.570312-15.234375 13.648437-19.074219 23.25-.023437.058593-.046875.117187-.070313.179687l-40.550781 107.371094c-1.160156 3.070312-.738281 6.515625 1.128907 9.21875 1.871093 2.699219 4.945312 4.3125 8.226562 4.3125h396c3.285156 0 6.359375-1.613281 8.226562-4.3125 1.867188-2.703125 2.289063-6.148438 1.128907-9.21875zm-17.292969-66.359375c-2.625 14.40625-11.394531 26.894531-24.316406 34.300781l-82.117188-21.898437c23.308594-9.980469 42.71875-27.804687 54.53125-50.460937 9.984375 19.925781 29.183594 34.5 51.902344 38.058593zm-149.515625 56.078125-24.449219-27.945312 24.449219-6.519532 24.453125 6.519532zm-90-144.816406v-56h23.429688c33.140624 0 64.601562-10.925781 90.269531-31.066406 2.480469 6.066406 6.171875 11.640625 10.949219 16.417968 9.449218 9.445313 22.003906 14.648438 35.351562 14.648438h20v56c0 50.421875-41.1875 89.996094-89.992188 90-.003906 0-.007812 0-.011718 0-48.832032-.003906-89.996094-39.597656-89.996094-90zm.558594-76c4.992187-44.9375 43.195312-80 89.441406-80 47.164062 0 84.582031 35.832031 89.433594 80h-19.433594c-8.007812 0-15.539062-3.121094-21.207031-8.789062-5.671875-5.671876-8.792969-13.203126-8.792969-21.210938 0-4.046875-2.4375-7.691406-6.171875-9.238281-3.738281-1.546875-8.039063-.691407-10.898437 2.167969-23.90625 23.90625-55.691407 37.070312-89.5 37.070312zm43.441406 198.613281 30.96875 35.390625-40.410156 26.9375-22.429688-53.828125zm92 .003907 31.867188 8.5-22.425782 53.824218-40.40625-26.9375zm94.03125-122.617188c0 5.515625-4.488281 10-10 10h-20.492188c.300782-3.324219.460938-6.660156.460938-10v-56h20.03125c5.449219 0 9.914062 4.414062 9.996094 9.859375.003906 61.167969.003906 42.488281.003906 46.140625zm-140.011719-216c77.363281 0 140 62.621094 140 139.984375v1.738281c-3.128906-1.113281-6.492187-1.722656-9.988281-1.722656h-20.484375c-4.9375-55.171875-51.253906-100-109.546875-100-57.28125 0-104.46875 44.015625-109.539062 100h-20.429688c-3.511719 0-6.878906.609375-10.011719 1.722656v-1.703125c-.007812-77.382812 62.609375-140.019531 140-140.019531zm-140.089843 216c0-3.640625.003906 14.972656 0-45.953125 0-.015625 0-.03125 0-.046875 0-5.515625 4.585937-10 10.101562-10h19.96875v56c0 3.339844.160156 6.679688.460938 10h-20.429688c-5.515625 0-10.101562-4.484375-10.101562-10zm42.753906 51.246094c11.839844 22.382812 31.121094 39.996094 54.234375 49.894531l-82.683594 22.046875c-12.449219-7.46875-20.917969-19.757812-23.5-33.8125 22.808594-3.554688 42-18.152344 51.949219-38.128906zm242.644531 204.753906-6.800781-21.542969c-1.664063-5.265625-7.28125-8.183593-12.546875-6.523437-5.269531 1.664062-8.191407 7.28125-6.527344 12.546875l4.902344 15.519531h-248.710938l4.902344-15.519531c1.664063-5.265625-1.257813-10.882813-6.523437-12.546875-5.265626-1.664063-10.882813 1.257812-12.546876 6.523437l-6.804687 21.542969h-38.203125l35.398438-93.738281c3.515624-8.714844 11.019531-15.351563 20.082031-17.765625l30.679687-8.183594 28.140625 67.53125c2.425781 5.820312 9.554688 7.957031 14.777344 4.476562l54.453125-36.300781 54.453125 36.300781c5.226563 3.484376 12.355469 1.34375 14.777344-4.476562l28.136719-67.527344 26.457031 7.054688c.074219.019531.148437.039062.226562.058594 1.210938.59375 17.410157 2.292968 24.082031 18.832031l35.402344 93.738281zm0 0"/><path d="m188.5 286h40c5.523438 0 10-4.476562 10-10s-4.476562-10-10-10h-40c-5.523438 0-10 4.476562-10 10s4.476562 10 10 10zm0 0"/></svg>