<svg height="512pt" viewBox="0 0 512 512" width="512pt" xmlns="http://www.w3.org/2000/svg"><path d="m512 64v400c0 25.921875-20.800781 47.199219-46.558594 47.839844-.480468.160156-.960937.160156-1.441406.160156h-416c-26.398438 0-48-21.601562-48-48v-464h184l48 64zm0 0" fill="#ffd337"/><path d="m512 64h-280l-48-64h-184v144h512zm0 0" fill="#fcc000"/><path d="m32 160h32v32h-32zm0 0" fill="#fff"/><path d="m96 160h32v32h-32zm0 0" fill="#fff"/><path d="m465.441406 479.839844c-.480468.160156-.960937.160156-1.441406.160156h-416c-26.398438 0-48-21.601562-48-48v32c0 26.398438 21.601562 48 48 48h416c.480469 0 .960938 0 1.441406-.160156 25.757813-.640625 46.558594-21.917969 46.558594-47.839844v-32c0 25.921875-20.800781 47.199219-46.558594 47.839844zm0 0" fill="#fcc000"/></svg>