<svg height="511pt" viewBox="-65 0 511 511.99875" width="511pt" xmlns="http://www.w3.org/2000/svg"><path d="m370.5 70.277344v204.679687c0 66.871094-33.421875 129.320313-89.0625 166.410157l-90.9375 60.632812-90.941406-60.632812c-55.640625-37.089844-89.058594-99.539063-89.058594-166.410157v-204.679687l180-60.277344zm0 0" fill="#ede9e8"/><path d="m190.5 52.167969-140 46.941406v175.859375c0 53.609375 26.628906 103.378906 71.25 133.117188l68.75 45.84375 68.75-45.84375c44.621094-29.738282 71.25-79.507813 71.25-133.117188v-175.859375zm0 0" fill="#90e36a"/><path d="m264.640625 212.859375c7.808594 7.808594 7.808594 20.46875 0 28.28125l-80 80c-3.910156 3.90625-9.019531 5.859375-14.140625 5.859375s-10.230469-1.953125-14.140625-5.859375l-40-40c-7.808594-7.8125-7.808594-20.472656 0-28.28125 7.808594-7.8125 20.46875-7.8125 28.28125 0l25.859375 25.859375 65.859375-65.859375c7.808594-7.8125 20.46875-7.8125 28.28125 0zm0 0" fill="#ede9e8"/><path d="m60.5 207c0 5.523438-4.476562 10-10 10s-10-4.476562-10-10 4.476562-10 10-10 10 4.476562 10 10zm0 0"/><path d="m184.953125 510.320312c1.679687 1.117188 3.613281 1.679688 5.546875 1.679688s3.867188-.5625 5.546875-1.679688l90.941406-60.632812c58.554688-39.03125 93.511719-104.351562 93.511719-174.730469v-204.679687c0-4.296875-2.75-8.117188-6.824219-9.480469l-180-60.28125c-2.0625-.6875-4.292969-.6875-6.351562 0l-180 60.28125c-4.078125 1.363281-6.824219 5.183594-6.824219 9.480469v204.679687c0 70.378907 34.957031 135.699219 93.511719 174.730469zm-164.453125-235.363281v-197.480469l170-56.933593 170 56.933593v197.480469c0 63.675781-31.628906 122.773438-84.605469 158.089844l-85.394531 56.933594-85.394531-56.933594c-52.976563-35.3125-84.605469-94.414063-84.605469-158.089844zm0 0"/><path d="m184.953125 462.25c1.679687 1.117188 3.613281 1.679688 5.546875 1.679688s3.867188-.5625 5.546875-1.679688l68.75-45.839844c47.402344-31.597656 75.703125-84.472656 75.703125-141.441406v-175.859375c0-4.296875-2.746094-8.117187-6.820312-9.480469l-140-46.941406c-2.0625-.691406-4.296876-.691406-6.359376 0l-140 46.941406c-4.074218 1.363282-6.820312 5.183594-6.820312 9.480469v67.890625c0 5.519531 4.476562 10 10 10 5.519531 0 10-4.480469 10-10v-60.695312l130-43.589844 130 43.589844v168.664062c0 50.269531-24.972656 96.921875-66.796875 124.800781l-63.203125 42.140625-63.203125-42.144531c-41.828125-27.875-66.796875-74.53125-66.796875-124.796875v-27.96875c0-5.523438-4.480469-10-10-10-5.523438 0-10 4.476562-10 10v27.96875c0 56.972656 28.300781 109.847656 75.703125 141.441406zm0 0"/><path d="m149.289062 328.207031c5.664063 5.667969 13.199219 8.789063 21.210938 8.789063s15.542969-3.121094 21.210938-8.789063l80-80c11.722656-11.722656 11.726562-30.695312 0-42.417969-11.722657-11.722656-30.695313-11.726562-42.421876-.003906l-58.789062 58.792969-18.789062-18.789063c-11.71875-11.722656-30.695313-11.726562-42.421876 0-11.726562 11.722657-11.726562 30.695313 0 42.421876zm-25.859374-68.277343c3.910156-3.90625 10.230468-3.90625 14.136718 0l25.859375 25.859374c3.90625 3.902344 10.238281 3.902344 14.144531 0l65.859376-65.859374c3.910156-3.90625 10.226562-3.90625 14.140624 0 3.90625 3.90625 3.90625 10.226562-.003906 14.136718l-80 80c-1.890625 1.890625-4.398437 2.933594-7.066406 2.933594s-5.179688-1.042969-7.070312-2.933594l-40-40c-3.90625-3.90625-3.910157-10.226562 0-14.136718zm0 0"/></svg>