<svg height="512pt" viewBox="0 0 512 512" width="512pt" xmlns="http://www.w3.org/2000/svg"><path d="m368 350v-160h-224v160c0 27.609375-24.390625 52-52 52v20l82 80h164l82-80v-20c-27.609375 0-52-24.390625-52-52zm0 0" fill="#c6715a"/><g fill="#5c9cee"><path d="m502 502h-164c0-44.179688 37.820312-80 82-80 44.175781 0 82 35.820312 82 80zm0 0"/><path d="m420 298c27.609375 0 52 24.390625 52 52s-24.390625 52-52 52-52-24.390625-52-52 24.390625-52 52-52zm0 0"/><path d="m338 502h-164c0-44.179688 37.820312-80 82-80 44.175781 0 82 35.820312 82 80zm0 0"/></g><path d="m333.480469 190h-154.960938c8.878907-34.5 40.199219-60 77.480469-60s68.601562 25.5 77.480469 60zm0 0" fill="#656d88"/><path d="m256 298c27.609375 0 52 24.390625 52 52s-24.390625 52-52 52-52-24.390625-52-52 24.390625-52 52-52zm0 0" fill="#5c9cee"/><path d="m306 60c0 27.613281-22.386719 50-50 50s-50-22.386719-50-50 22.386719-50 50-50 50 22.386719 50 50zm0 0" fill="#656d88"/><path d="m174 502h-164c0-44.179688 37.820312-80 82-80 44.175781 0 82 35.820312 82 80zm0 0" fill="#5c9cee"/><path d="m92 298c27.609375 0 52 24.390625 52 52s-24.390625 52-52 52-52-24.390625-52-52 24.390625-52 52-52zm0 0" fill="#5c9cee"/><path d="m206 236c0 5.523438-4.476562 10-10 10s-10-4.476562-10-10 4.476562-10 10-10 10 4.476562 10 10zm0 0"/><path d="m154 350v-150h204v150c0 33.027344 28.972656 62 62 62s62-28.972656 62-62-28.972656-62-62-62c-15.859375 0-30.769531 6.691406-42 17.289062v-105.289062h20c5.523438 0 10-4.476562 10-10s-4.476562-10-10-10c-7.285156 0-51.011719 0-57.121094 0-12.578125-35.691406-46.429687-60-84.878906-60s-72.300781 24.308594-84.878906 60c-6.09375 0-49.832032 0-57.121094 0-5.523438 0-10 4.476562-10 10s4.476562 10 10 10h20v105.289062c-11.230469-10.597656-26.140625-17.289062-42-17.289062-33.027344 0-62 28.972656-62 62s28.972656 62 62 62 62-28.972656 62-62zm266-42c21.980469 0 42 20.019531 42 42s-20.019531 42-42 42-42-20.019531-42-42 20.019531-42 42-42zm-164-168c27.449219 0 51.871094 15.929688 63.265625 40h-126.53125c11.394531-24.070312 35.816406-40 63.265625-40zm-164 252c-21.980469 0-42-20.019531-42-42s20.019531-42 42-42 42 20.019531 42 42-20.019531 42-42 42zm0 0"/><path d="m420 412c-36.117188 0-67.03125 20.972656-82 49.472656-15.011719-28.582031-45.9375-49.472656-82-49.472656-36.117188 0-67.027344 20.964844-82 49.472656-14.992188-28.542968-45.894531-49.472656-82-49.472656-49.652344 0-92 40.160156-92 90 0 5.523438 4.476562 10 10 10h492c5.523438 0 10-4.476562 10-10 0-49.761719-42.253906-90-92-90zm-399.253906 80c5.019531-33.289062 35.296875-60 71.253906-60 35.949219 0 66.234375 26.710938 71.253906 60zm164 0c5.019531-33.289062 35.296875-60 71.253906-60 35.949219 0 66.234375 26.710938 71.253906 60zm164 0c5.019531-33.289062 35.296875-60 71.253906-60 35.949219 0 66.234375 26.710938 71.253906 60zm0 0"/><path d="m316 60c0-33.085938-26.914062-60-60-60s-60 26.914062-60 60 26.914062 60 60 60 60-26.914062 60-60zm-60 40c-22.054688 0-40-17.945312-40-40s17.945312-40 40-40 40 17.945312 40 40-17.945312 40-40 40zm0 0"/><path d="m318 350c0-33.027344-28.972656-62-62-62s-62 28.972656-62 62 28.972656 62 62 62 62-28.972656 62-62zm-62 42c-21.980469 0-42-20.019531-42-42s20.019531-42 42-42 42 20.019531 42 42-20.019531 42-42 42zm0 0"/><path d="m236 246h80c5.523438 0 10-4.476562 10-10s-4.476562-10-10-10h-80c-5.523438 0-10 4.476562-10 10s4.476562 10 10 10zm0 0"/></svg>