<svg height="512pt" viewBox="0 0 512 512" width="512pt" xmlns="http://www.w3.org/2000/svg"><path d="m512 64v400c0 26.398438-21.601562 48-48 48h-416c-26.398438 0-48-21.601562-48-48v-464h184l48 64zm0 0" fill="#fcc000"/><path d="m464 512h-416c-26.398438 0-48-23.566406-48-52.367188v-331.632812h416v331.632812c0 28.800782 21.601562 52.367188 48 52.367188zm0 0" fill="#ffd337"/><path d="m32 160h32v32h-32zm0 0" fill="#fff"/><path d="m96 160h32v32h-32zm0 0" fill="#fff"/><path d="m305.601562 428.800781h-149.601562c-37.488281 0-68-30.511719-68-68 0-27.214843 16.65625-51.710937 41.023438-62.335937-.144532-1.90625-.222657-3.792969-.222657-5.664063 0-44.992187 36.605469-81.601562 81.597657-81.601562 40.882812 0 74.832031 30.226562 80.707031 69.503906 21.886719 5.25 38.671875 23.777344 41.328125 46.5625 16.796875 9.535156 27.566406 27.453125 27.566406 47.132813 0 30-24.398438 54.402343-54.398438 54.402343zm0 0" fill="#5f90ff"/></svg>