<svg height="511pt" viewBox="-33 0 511 511.99497" width="511pt" xmlns="http://www.w3.org/2000/svg"><path d="m346.855469 226.507812h-81.65625c-18.460938 0-35.050781 8.132813-46.40625 20.992188v-63.769531c0-4.28125-3.46875-7.753907-7.753907-7.753907-4.28125 0-7.753906 3.472657-7.753906 7.753907v44.546875c-11.351562-12.859375-27.941406-20.992188-46.402344-20.992188h-58.128906c-4.28125 0-7.753906 3.472656-7.753906 7.753906 0 4.285157 3.472656 7.753907 7.753906 7.753907h58.128906c25.585938 0 46.402344 20.816406 46.402344 46.40625v69.90625c0 4.28125 3.472656 7.753906 7.753906 7.753906 4.285157 0 7.753907-3.472656 7.753907-7.753906v-50.6875c0-25.585938 20.820312-46.402344 46.40625-46.402344h81.65625c4.285156 0 7.753906-3.472656 7.753906-7.753906 0-4.285157-3.46875-7.753907-7.753906-7.753907zm0 0" fill="#7af4ab"/><path d="m398.554688 296.351562c-4.984376 1.445313-10.238282 2.316407-15.664063 2.523438-35.679687 1.351562-65.703125-26.488281-67.058594-62.167969-1.34375-35.691406 26.488281-65.714843 62.179688-67.058593 7.132812-.265626 14.027343.621093 20.519531 2.523437 26.015625 7.558594 45.449219 31.097656 46.535156 59.644531 1.136719 30.261719-18.691406 56.449219-46.511718 64.535156zm0 0" fill="#ffe5a0"/><path d="m129.769531 217.488281c-1.078125 28.542969-20.511719 52.085938-46.527343 59.644531-6.492188 1.898438-13.398438 2.789063-20.53125 2.519532-35.679688-1.34375-63.519532-31.367188-62.167969-67.054688 1.347656-35.691406 31.371093-63.523437 67.058593-62.167968 5.417969.207031 10.660157 1.066406 15.640626 2.511718 27.832031 8.085938 47.671874 34.273438 46.527343 64.546875zm0 0" fill="#ffe5a0"/><path d="m309.730469 94.558594c-2.328125-54.503906-48.402344-96.796875-102.90625-94.4687502-54.503907 2.3281252-96.800781 48.4023442-94.46875 102.9062502 2.328125 54.503906 48.402343 96.800781 102.90625 94.46875 54.503906-2.328125 96.796875-48.402344 94.46875-102.90625zm0 0" fill="#ffdd81"/><path d="m281.136719 108.972656c-4.195313 28.886719-25.382813 51.1875-51.941407 58.257813-8.972656 2.386719-18.558593 3.039062-28.308593 1.625-19.570313-2.84375-37.1875-13.84375-48.332031-30.199219-10.007813-14.683594-14.113282-32.453125-11.558594-50.050781 2.71875-18.714844 12.570312-35.253907 27.726562-46.566407 15.160156-11.308593 33.808594-16.046874 52.53125-13.328124 2.648438.382812 5.253906.921874 7.816406 1.605468 16.386719 4.320313 30.871094 14.460938 40.519532 28.605469 10.007812 14.679687 14.101562 32.453125 11.546875 50.050781zm0 0" fill="#fed22b"/><path d="m398.554688 296.347656c-4.984376 1.445313-10.238282 2.316406-15.664063 2.519532-35.679687 1.355468-65.703125-26.484376-67.058594-62.164063-1.34375-35.691406 26.488281-65.714844 62.179688-67.058594 7.132812-.269531 14.027343.621094 20.519531 2.523438-27.820312 8.085937-47.648438 34.273437-46.511719 64.535156 1.085938 28.542969 20.523438 52.085937 46.535157 59.644531zm0 0" fill="#ffdd81"/><path d="m83.242188 277.125c-6.492188 1.902344-13.398438 2.792969-20.53125 2.523438-35.679688-1.34375-63.519532-31.367188-62.167969-67.054688 1.347656-35.691406 31.371093-63.523438 67.058593-62.167969 5.417969.207031 10.660157 1.066407 15.640626 2.511719-26 7.578125-45.4375 31.101562-46.511719 59.65625-1.148438 30.261719 18.691406 56.449219 46.511719 64.53125zm0 0" fill="#ffdd81"/><path d="m229.195312 167.226562c-8.972656 2.386719-18.558593 3.039063-28.308593 1.621094-19.570313-2.839844-37.1875-13.839844-48.332031-30.199218-10.007813-14.679688-14.113282-32.453126-11.558594-50.046876 2.71875-18.714843 12.570312-35.253906 27.726562-46.566406 15.160156-11.308594 33.808594-16.046875 52.53125-13.328125 2.648438.382813 5.253906.921875 7.816406 1.605469-8.609374 2.292969-16.800781 6.234375-24.160156 11.722656-15.15625 11.3125-25.007812 27.851563-27.730468 46.566406-2.550782 17.59375 1.550781 35.367188 11.558593 50.046876 9.628907 14.125 24.082031 24.257812 40.457031 28.578124zm0 0" fill="#fdc202"/><g fill="#e38803"><path d="m213.824219 89.453125c-8.257813-3.207031-13.320313-5.464844-13.320313-11.351563 0-5.683593 4.089844-8.566406 12.15625-8.566406 5.6875 0 8.675782 1.539063 11.082032 2.777344 1.546874.796875 2.882812 1.488281 4.507812 1.488281 4.597656 0 7.140625-4.886719 7.140625-8.261719 0-4.96875-5.328125-8.460937-15.046875-9.902343v-11.105469c0-5.132812-4.175781-9.304688-9.304688-9.304688-5.128906 0-9.304687 4.171876-9.304687 9.304688v11.953125c-10.734375 3.128906-16.859375 11.273437-16.859375 22.511719 0 16.335937 11.4375 20.867187 21.527344 24.867187 8.253906 3.269531 15.382812 6.09375 15.382812 14.734375 0 8.933594-6.792968 10.808594-12.492187 10.808594-7.53125 0-10.820313-3.226562-13.460938-5.824219-1.636719-1.605469-3.328125-3.261719-5.722656-3.261719-4.019531 0-7.253906 4.519532-7.253906 8.261719 0 5.527344 7.179687 12.65625 18.878906 14.988281v9.449219c0 5.128907 4.175781 9.304688 9.304687 9.304688 5.128907 0 9.304688-4.175781 9.304688-9.304688v-10.1875c10.863281-3.417969 17.066406-12.511719 17.066406-25.132812 0-19.097657-13.078125-24.171875-23.585937-28.246094zm0 0"/><path d="m374.554688 218.539062c.015624-3.609374 3.261718-4.199218 6.992187-4.199218 6.753906.03125 7.777344 3.285156 11.867187 3.304687 5.023438 0 7.753907-5.078125 7.769532-8.546875.03125-6.214844-6.898438-8.792968-13.007813-9.8125l.03125-6.3125c.023438-4.285156-3.433593-7.773437-7.714843-7.792968-4.292969.027343-7.773438 3.433593-7.792969 7.714843l-.035157 6.976563c-8.910156 2.539062-14.546874 9.179687-14.597656 19.269531-.113281 23.640625 28.03125 18.410156 27.972656 30.308594-.023437 4.523437-2.644531 5.855469-7.257812 5.914062-8.828125-.042969-8.558594-6.996093-14.613281-6.996093-4.457031 0-7.804688 4.5-7.824219 8.542968-.03125 5.992188 6.886719 11.757813 15.972656 13.695313l-.023437 4.941406c-.023438 4.296875 3.453125 7.792969 7.753906 7.792969 4.265625 0 7.730469-3.445313 7.753906-7.714844l.023438-5.527344c9.1875-2.824218 14.648437-10.417968 14.703125-21.25.125-25.367187-28.015625-21.800781-27.972656-30.308594zm0 0"/><path d="m59.257812 199.320312c.011719-1.878906.664063-2.5625 1.371094-3.027343 2.066406-1.351563 7.71875-2.039063 13.007813.722656 1.269531.660156 2.703125 1.40625 4.511719 1.40625 7.136718 0 13.417968-12.8125-.6875-17.289063-1.378907-.4375-2.945313-.796874-4.582032-1.070312l.03125-6.3125c.023438-4.292969-3.453125-7.792969-7.753906-7.792969-4.265625 0-7.730469 3.449219-7.753906 7.71875l-.03125 6.976563c-8.933594 2.539062-14.550782 9.199218-14.601563 19.269531-.113281 23.628906 27.972657 18.386719 27.972657 30.308594-.023438 4.417969-2.578126 5.914062-7.257813 5.910156-8.808594-.042969-8.554687-6.964844-14.582031-6.996094-6.339844-.167969-13.53125 10.746094-.78125 18.742188 2.585937 1.625 5.628906 2.804687 8.898437 3.5l-.023437 4.941406c-.023438 4.292969 3.453125 7.792969 7.753906 7.792969 4.265625 0 7.734375-3.449219 7.753906-7.71875l.027344-5.527344c9.183594-2.824219 14.644531-10.417969 14.699219-21.25.125-25.363281-28.011719-21.796875-27.972657-30.304688zm0 0"/></g><path d="m307.707031 342.171875v164.652344c0 2.855469-2.316406 5.171875-5.167969 5.171875h-182.996093c-2.851563 0-5.167969-2.316406-5.167969-5.171875v-164.652344zm0 0" fill="#ca7400"/><path d="m307.707031 496.660156v10.160156c0 2.855469-2.316406 5.171876-5.167969 5.171876h-182.996093c-2.851563 0-5.167969-2.316407-5.167969-5.171876v-164.652343h36.527344v149.320312c0 2.863281 2.3125 5.171875 5.167968 5.171875zm0 0" fill="#b96a00"/><path d="m330.453125 320.179688v43.972656c0 5.273437-4.28125 9.550781-9.554687 9.550781h-219.714844c-5.273438 0-9.554688-4.277344-9.554688-9.550781v-43.972656c0-5.269532 4.28125-9.542969 9.554688-9.542969h219.714844c5.273437 0 9.554687 4.273437 9.554687 9.542969zm0 0" fill="#b96a00"/><path d="m330.453125 358.367188v5.78125c0 5.273437-4.28125 9.550781-9.554687 9.550781h-219.714844c-5.273438 0-9.554688-4.277344-9.554688-9.550781v-43.972657c0-5.269531 4.28125-9.542969 9.554688-9.542969h28.636718v38.183594c0 5.28125 4.269532 9.550782 9.542969 9.550782zm0 0" fill="#a86000"/></svg>