<svg height="512pt" viewBox="0 -16 512.00017 512" width="512pt" xmlns="http://www.w3.org/2000/svg"><path d="m335.949219 387.78125c2.28125-1.160156 4.339843-2.769531 6.039062-4.761719l78.339844-84.398437c21.640625-25.25 60.902344-24.582032 81.671875 1.378906l-128 148.140625c-11.398438 13.839844-28.390625 21.859375-46.320312 21.859375h-251.679688v-140h-.339844c12.339844-17.660156 40.53125-30 73.339844-30s73.339844 30 73.339844 30h53.660156c32.390625 0 58.789062 25.660156 59.949219 57.78125zm0 0" fill="#ffcebf"/><path d="m456 130c0 66.273438-53.726562 120-120 120s-120-53.726562-120-120 53.726562-120 120-120 120 53.726562 120 120zm0 0" fill="#5c9cee"/><path d="m76 330v140h-66v-140zm0 0" fill="#ed5575"/><path d="m186 390c0 5.523438-4.476562 10-10 10s-10-4.476562-10-10 4.476562-10 10-10 10 4.476562 10 10zm0 0"/><path d="m412.871094 291.957031-70.449219 75.898438c-9.160156-27.578125-35.257813-47.855469-66.421875-47.855469h-50.46875c-10.109375-7.011719-45.617188-30-76.53125-30-32.527344 0-62.46875 11.632812-78.210938 30h-60.789062c-5.523438 0-10 4.476562-10 10v140c0 5.523438 4.476562 10 10 10h317.679688c20.953124 0 40.613281-9.257812 53.960937-25.40625l127.925781-148.054688c3.152344-3.648437 3.253906-9.023437.242188-12.785156-24.75-30.933594-71.304688-31.511718-96.9375-1.796875zm-392.871094 48.042969h46v120h-46zm346.433594 101.601562c-.050782.058594-.101563.121094-.152344.179688-9.535156 11.578125-23.605469 18.21875-38.601562 18.21875h-241.679688v-127.035156c11.816406-13.851563 36.511719-22.964844 63-22.964844 29.074219 0 67.015625 27.761719 67.390625 28.039062 1.722656 1.273438 3.808594 1.960938 5.949219 1.960938h53.660156c24.25 0 44.390625 17.015625 48.992188 40h-108.992188c-5.523438 0-10 4.476562-10 10s4.476562 10 10 10h110.800781c3.539063 0 7.074219-.640625 10.386719-1.863281 2.351562-.285157 4.445312-1.382813 6-3.007813 2.328125-1.507812 4.425781-3.328125 6.257812-5.441406l78.214844-84.265625c.089844-.097656.179688-.195313.265625-.292969 15.402344-17.976562 42.554688-20.128906 60.554688-4.777344zm0 0"/><path d="m336 260c71.683594 0 130-58.316406 130-130s-58.316406-130-130-130-130 58.316406-130 130 58.316406 130 130 130zm-103.535156-92.84375c12.496094 7.496094 29.039062 13.53125 48.820312 17.558594 4.027344 19.78125 10.0625 36.324218 17.558594 48.820312-30.8125-11.09375-55.285156-35.566406-66.378906-66.378906zm103.535156-147.15625c11.003906 0 25.203125 17.78125 33.480469 51.917969-10.832031-1.265625-22.035157-1.917969-33.480469-1.917969s-22.648438.652344-33.480469 1.917969c8.277344-34.136719 22.476563-51.917969 33.480469-51.917969zm0 220c-11 0-25.203125-17.78125-33.480469-51.917969 10.832031 1.265625 22.035157 1.917969 33.480469 1.917969 11.449219 0 22.652344-.652344 33.480469-1.917969-8.277344 34.136719-22.476563 51.917969-33.480469 51.917969zm-40-110c0-12.902344.878906-25.445312 2.589844-37.410156 11.964844-1.710938 24.507812-2.589844 37.410156-2.589844s25.445312.878906 37.410156 2.589844c1.710938 11.960937 2.589844 24.503906 2.589844 37.410156 0 12.902344-.878906 25.445312-2.589844 37.410156-11.960937 1.710938-24.507812 2.589844-37.410156 2.589844s-25.445312-.878906-37.410156-2.589844c-1.710938-11.960937-2.589844-24.503906-2.589844-37.410156zm98.082031-33.480469c34.136719 8.277344 51.917969 22.480469 51.917969 33.480469 0 11.003906-17.78125 25.203125-51.917969 33.480469 1.265625-10.832031 1.917969-22.03125 1.917969-33.480469s-.652344-22.652344-1.917969-33.480469zm-116.164062 66.960938c-34.136719-8.273438-51.917969-22.476563-51.917969-33.480469s17.78125-25.203125 51.917969-33.480469c-1.265625 10.828125-1.917969 22.03125-1.917969 33.480469s.652344 22.652344 1.917969 33.480469zm95.238281 70.054687c7.496094-12.496094 13.53125-29.039062 17.554688-48.820312 19.785156-4.027344 36.328124-10.0625 48.824218-17.558594-11.09375 30.8125-35.566406 55.285156-66.378906 66.378906zm66.378906-140.691406c-12.496094-7.496094-29.039062-13.53125-48.820312-17.558594-4.027344-19.78125-10.0625-36.324218-17.558594-48.820312 30.8125 11.089844 55.285156 35.566406 66.378906 66.378906zm-140.691406-66.378906c-7.496094 12.496094-13.53125 29.039062-17.554688 48.820312-19.785156 4.027344-36.328124 10.0625-48.824218 17.558594 11.089844-30.8125 35.566406-55.285156 66.378906-66.378906zm0 0"/></svg>