<svg height="512pt" viewBox="0 0 512 512" width="512pt" xmlns="http://www.w3.org/2000/svg"><path d="m256 10v86c88.21875 0 160 71.777344 160 160h86c0-132.554688-113.4375-246-246-246zm0 0" fill="#90e36a"/><path d="m416 256c0 88.214844-71.777344 160-160 160v86c132.554688 0 246-113.4375 246-246zm0 0" fill="#f2df33"/><path d="m256 96c-88.21875 0-160 71.777344-160 160 0 58.78125 31.914062 110.632812 80.011719 138.53125h159.976562c48.082031-27.890625 80.011719-79.726562 80.011719-138.53125 0-88.21875-71.777344-160-160-160zm0 0" fill="#ede9e8"/><path d="m256 316c43.691406 0 79.210938 35.03125 79.988281 78.53125-23.546875 13.648438-50.867187 21.46875-79.988281 21.46875s-56.441406-7.820312-79.988281-21.46875c.777343-43.5 36.296875-78.53125 79.988281-78.53125zm0 0" fill="#656d88"/><path d="m306 246c0 27.613281-22.386719 50-50 50s-50-22.386719-50-50 22.386719-50 50-50 50 22.386719 50 50zm0 0" fill="#656d88"/><path d="m96 256h-86c0 132.554688 113.4375 246 246 246v-86c-88.210938 0-160-71.773438-160-160zm0 0" fill="#ed5575"/><path d="m10 256h86c0-88.21875 71.777344-160 160-160v-86c-132.554688 0-246 113.4375-246 246zm0 0" fill="#5c9cee"/><path d="m146 256c0 5.523438-4.476562 10-10 10s-10-4.476562-10-10 4.476562-10 10-10 10 4.476562 10 10zm0 0"/><path d="m316 246c0-33.085938-26.914062-60-60-60s-60 26.914062-60 60 26.914062 60 60 60 60-26.914062 60-60zm-60 40c-22.054688 0-40-17.945312-40-40s17.945312-40 40-40 40 17.945312 40 40-17.945312 40-40 40zm0 0"/><path d="m256 0c-137.996094 0-256 117.828125-256 256 0 137.855469 117.699219 256 256 256 137.992188 0 256-117.824219 256-256 0-138-117.828125-256-256-256zm169.699219 246c-2.214844-38.28125-17.113281-74.191406-42.6875-102.871094l45.542969-45.539062c38.078124 41.324218 60.699218 94.453125 63.199218 148.410156zm-81.636719 131.335938c-8.515625-40.554688-44.539062-71.335938-88.0625-71.335938-43.480469 0-79.535156 30.742188-88.0625 71.335938-37.40625-27.234376-61.9375-71.109376-61.9375-121.335938 0-82.75 67.21875-150 150-150 82.605469 0 150 67.222656 150 150 0 50.253906-24.5625 94.121094-61.9375 121.335938zm-88.0625 28.664062c-24.289062 0-48.226562-5.933594-69.617188-17.179688 3.632813-35.136718 33.691407-62.820312 69.617188-62.820312s65.984375 27.683594 69.617188 62.820312c-21.390626 11.246094-45.328126 17.179688-69.617188 17.179688zm158.410156-322.554688-45.539062 45.542969c-28.683594-25.574219-64.59375-40.472656-102.871094-42.6875v-66.054687c53.957031 2.5 107.085938 25.125 148.410156 63.199218zm-168.410156-63.199218v66.054687c-38.28125 2.214844-74.191406 17.113281-102.871094 42.6875l-45.539062-45.542969c41.324218-38.074218 94.453125-60.699218 148.410156-63.199218zm-162.554688 77.34375 45.542969 45.539062c-25.574219 28.679688-40.472656 64.589844-42.6875 102.871094h-66.054687c2.5-53.957031 25.125-107.085938 63.199218-148.410156zm-63.199218 168.410156h66.054687c2.214844 38.28125 17.113281 74.191406 42.6875 102.871094l-45.542969 45.539062c-38.074218-41.324218-60.699218-94.453125-63.199218-148.410156zm77.34375 162.554688 45.546875-45.550782c29.667969 26.390625 65.96875 40.503906 102.863281 42.683594v66.066406c-53.957031-2.5-107.085938-25.125-148.410156-63.199218zm168.410156 63.199218v-66.066406c26.328125-1.554688 52.015625-9.21875 74.851562-22.421875.035157-.019531.070313-.039063.105469-.058594.015625-.007812.035157-.019531.050781-.027343 9.9375-5.765626 19.269532-12.535157 27.855469-20.175782l45.546875 45.550782c-41.324218 38.074218-94.453125 60.699218-148.410156 63.199218zm162.554688-77.34375-45.542969-45.539062c25.574219-28.679688 40.472656-64.601563 42.6875-102.882813h66.054687c-2.5 53.957031-25.125 107.097657-63.199218 148.421875zm0 0"/><path d="m184.191406 147.671875c-23.589844 15.6875-41.691406 38.980469-50.972656 65.585937-1.820312 5.214844.933594 10.914063 6.148438 12.734376 5.234374 1.824218 10.921874-.957032 12.734374-6.148438 7.851563-22.515625 23.183594-42.230469 43.164063-55.515625 4.597656-3.058594 5.847656-9.265625 2.789063-13.863281-3.058594-4.601563-9.261719-5.851563-13.863282-2.792969zm0 0"/></svg>