<svg height="511pt" viewBox="-3 0 511 511.99601" width="511pt" xmlns="http://www.w3.org/2000/svg"><path d="m505.3125 487.1875c0 6.851562-2.773438 13.058594-7.265625 17.539062-4.480469 4.5-10.6875 7.265626-17.539063 7.265626h-222.304687c-13.699219 0-24.8125-11.105469-24.8125-24.804688 0-31.296875 12.683594-59.628906 33.203125-80.148438 2.234375-2.242187 4.574219-4.394531 7.003906-6.433593 8.992188-7.605469 19.175782-13.835938 30.234375-18.367188.746094-.300781 1.492188-.601562 2.246094-.878906.011719 0 .019531-.011719.019531-.011719.125-.050781.257813-.101562.394532-.152344 12.5-4.75 26.074218-7.359374 40.25-7.359374h45.226562c14.238281 0 27.855469 2.628906 40.40625 7.417968.050781.023438.113281.042969.164062.0625.789063.289063 1.5625.601563 2.339844.921875 11.058594 4.53125 21.242188 10.761719 30.234375 18.355469 24.582031 20.796875 40.199219 51.871094 40.199219 86.59375zm0 0" fill="#fff5f4"/><path d="m378.746094 373.835938c-15.53125 0-30.359375 2.992187-43.894532 8.402343-11.320312 4.535157-21.738281 10.761719-30.925781 18.367188-2.484375 2.039062-4.875 4.191406-7.171875 6.4375-20.984375 20.515625-33.957031 48.847656-33.957031 80.148437 0 13.699219 11.359375 24.800782 25.371094 24.800782h-29.96875c-13.699219 0-24.808594-11.101563-24.808594-24.800782 0-31.300781 12.683594-59.632812 33.203125-80.148437 2.234375-2.246094 4.570312-4.398438 7.003906-6.4375 8.992188-7.605469 19.171875-13.832031 30.234375-18.367188.746094-.296875 1.488281-.597656 2.246094-.878906.007813 0 .019531-.007813.019531-.007813.125-.054687.257813-.105468.394532-.15625 12.496093-4.75 26.074218-7.359374 40.25-7.359374zm0 0" fill="#ebe0da"/><path d="m454.195312 421.578125c-.050781 4.261719-5.371093 6.199219-8.464843 3.34375l-20.621094-14.878906c-1.832031-.964844-3.992187-1.027344-5.875-.175781l-45.300781 19.253906c-3.0625 2.339844-7.324219 2.316406-10.367188-.0625l-44.089844-19.191406c-1.882812-.851563-4.042968-.789063-5.886718.175781l-20.609375 14.878906c-3.105469 2.855469-8.425781.917969-8.464844-3.34375-.257813-21.851563 9.839844-33.761719 21.5625-40.21875.011719 0 .019531-.011719.019531-.011719.125-.050781.257813-.101562.394532-.152344 12.5-4.75 26.074218-7.359374 40.25-7.359374h45.226562c14.238281 0 27.855469 2.628906 40.40625 7.417968.050781.023438.113281.042969.164062.0625 11.765626 6.457032 21.914063 18.355469 21.65625 40.261719zm0 0" fill="#63a6fd"/><path d="m375.652344 429.058594v82.9375h-12.597656v-82.9375c0-3.476563 2.820312-6.300782 6.296874-6.300782 3.480469 0 6.300782 2.820313 6.300782 6.300782zm0 0" fill="#63a6fd"/><path d="m467.972656 474.789062h-53.988281c-3.480469 0-6.300781 2.820313-6.300781 6.300782 0 3.480468 2.820312 6.300781 6.300781 6.300781h53.988281c3.480469 0 6.300782-2.820313 6.300782-6.300781 0-3.480469-2.820313-6.300782-6.300782-6.300782zm0 0" fill="#63a6fd"/><path d="m324.988281 474.789062h-53.984375c-3.480468 0-6.300781 2.820313-6.300781 6.300782 0 3.480468 2.820313 6.300781 6.300781 6.300781h53.984375c3.480469 0 6.300781-2.820313 6.300781-6.300781 0-3.480469-2.820312-6.300782-6.300781-6.300782zm0 0" fill="#63a6fd"/><path d="m341.070312 338.410156v61.296875l24.085938 27.097657c1.578125 2.796874 5.585938 2.839843 7.238281.101562.007813-.007812.015625-.023438.027344-.035156l25.207031-27.164063v-61.296875zm0 0" fill="#f2d1a5"/><path d="m323.101562 268.082031c0 17.65625-14.308593 31.964844-31.960937 31.964844-17.65625 0-31.964844-14.308594-31.964844-31.964844 0-17.652343 14.308594-31.960937 31.964844-31.960937 17.652344 0 31.960937 14.308594 31.960937 31.960937zm0 0" fill="#f2d1a5"/><path d="m483.15625 268.089844c0 17.652344-14.308594 31.964844-31.960938 31.964844-17.65625 0-31.964843-14.3125-31.964843-31.964844 0-17.65625 14.308593-31.964844 31.964843-31.964844 17.652344 0 31.960938 14.308594 31.960938 31.964844zm0 0" fill="#f2d1a5"/><path d="m454.273438 142.222656v148.640625c0 22.941407-15.945313 43.722657-34.515626 58.757813-11.957031 9.679687-24.992187 16.988281-35.570312 20.960937-5.855469 2.199219-10.953125 3.386719-14.699219 3.386719-21.003906-.011719-84.789062-37.214844-84.789062-83.105469v-148.640625c0-15.152344 12.285156-27.433594 27.4375-27.433594h114.699219c15.15625 0 27.4375 12.28125 27.4375 27.433594zm0 0" fill="#ffe4c2"/><path d="m462.375 204.726562h-30.875c-15.800781 0-28.609375-12.808593-28.609375-28.609374v-34.359376c0-15.796874 12.808594-28.605468 28.609375-28.605468h7.578125c15.800781 0 28.609375 12.808594 28.609375 28.605468v57.660157c-.003906 2.929687-2.378906 5.308593-5.3125 5.308593zm0 0" fill="#b96a00"/><path d="m384.1875 370.578125c-5.855469 2.203125-10.957031 3.394531-14.703125 3.394531-20.996094-.011718-84.785156-37.21875-84.785156-83.109375v-148.632812c0-15.160157 12.28125-27.441407 27.441406-27.441407h29.394531c-15.148437 0-27.429687 12.28125-27.429687 27.441407v148.632812c0 37.707031 43.074219 69.566407 70.082031 79.714844zm0 0" fill="#f2d1a5"/><path d="m444.589844 97.476562h-132.007813c-9.96875 0-19.261719 2.886719-27.015625 7.859376-13.382812 8.5625-22.21875 23.320312-22.21875 40.078124v51.65625c0 8.449219 7.023438 15.304688 15.683594 15.304688h15.40625c82.835938.765625 146.949219-42.050781 155.730469-86.355469.679687-3.429687 1.023437-6.863281 1.023437-10.289062v-11.804688c0-3.5625-2.957031-6.449219-6.601562-6.449219zm0 0" fill="#db7d00"/><path d="m450.171875 126.015625c-8.785156 44.304687-72.898437 87.121094-155.734375 86.355469h-15.40625c-8.660156 0-15.6875-6.847656-15.6875-15.300782v-51.65625c0-16.761718 8.847656-31.515624 22.226562-40.074218-.023437.457031-.03125.921875-.03125 1.386718v51.664063c0 8.445313 7.023438 15.304687 15.683594 15.304687h15.410156c57.734376.527344 106.386719-20.117187 133.539063-47.679687zm0 0" fill="#ca7400"/><path d="m139.921875 264.445312h-21.273437v-51.539062h21.273437zm0 0" fill="#4395fb"/><path d="m210.558594 281.953125c-55.171875-44.886719-136.289063-36.546875-181.175782 18.625-44.886718 55.171875-36.546874 136.285156 18.625 181.171875 55.171876 44.886719 136.285157 36.550781 181.171876-18.621094 44.886718-55.171875 36.550781-136.289062-18.621094-181.175781zm0 0" fill="#63a6fd"/><path d="m191.3125 465.523438c-46.183594 34.230468-111.421875 24.589843-145.707031-21.648438-34.257813-46.21875-24.5625-111.445312 21.648437-145.707031 23.902344-17.722657 52.902344-23.683594 80.066406-18.902344 25.347657 4.449219 49.105469 18.242187 65.640626 40.558594 34.257812 46.210937 24.5625 111.449219-21.648438 145.699219zm0 0" fill="#fff5f4"/><path d="m154.808594 194.855469h-51.050782c-9.023437 0-16.402343 7.382812-16.402343 16.402343 0 9.023438 7.378906 16.402344 16.402343 16.402344h51.050782c9.023437 0 16.402344-7.378906 16.402344-16.402344 0-9.019531-7.378907-16.402343-16.402344-16.402343zm0 0" fill="#63a6fd"/><path d="m147.445312 484.425781c-37.621093 6.632813-77.519531-7.75-101.835937-40.546875-34.257813-46.222656-24.5625-111.449218 21.648437-145.710937 23.898438-17.722657 52.902344-23.683594 80.0625-18.902344-15.40625 2.710937-30.429687 8.949219-43.847656 18.902344-73.878906 54.769531-45.074218 170.625 43.972656 186.257812zm0 0" fill="#ebe0da"/><g fill="#285fb3"><path d="m129.285156 323.28125c4.285156 0 7.757813-3.472656 7.757813-7.757812v-16.878907c0-4.285156-3.472657-7.757812-7.757813-7.757812-4.289062 0-7.761718 3.472656-7.761718 7.757812v16.878907c0 4.285156 3.472656 7.757812 7.761718 7.757812zm0 0"/><path d="m174.765625 303.074219c-3.710937-2.144531-8.460937-.871094-10.601563 2.839843l-8.4375 14.613282c-2.144531 3.710937-.871093 8.457031 2.839844 10.601562 3.710938 2.144532 8.457032.871094 10.601563-2.839844l8.4375-14.617187c2.144531-3.710937.871093-8.457031-2.839844-10.597656zm0 0"/><path d="m190.601562 355.40625 14.617188-8.4375c3.710938-2.144531 4.980469-6.890625 2.839844-10.601562-2.144532-3.710938-6.890625-4.984376-10.601563-2.839844l-14.613281 8.4375c-3.714844 2.144531-4.984375 6.890625-2.839844 10.601562 2.140625 3.710938 6.886719 4.984375 10.597656 2.839844zm0 0"/><path d="m212.484375 374.085938h-16.875c-4.285156 0-7.761719 3.476562-7.761719 7.761718s3.476563 7.761719 7.761719 7.761719h16.875c4.285156 0 7.761719-3.476563 7.761719-7.761719s-3.476563-7.761718-7.761719-7.761718zm0 0"/><path d="m205.21875 416.726562-14.617188-8.4375c-3.710937-2.140624-8.457031-.871093-10.597656 2.839844-2.144531 3.710938-.875 8.457032 2.839844 10.601563l14.613281 8.4375c3.710938 2.144531 8.457031.871093 10.601563-2.839844 2.144531-3.710937.871094-8.457031-2.839844-10.601563zm0 0"/><path d="m169.167969 435.40625c-2.144531-3.710938-6.890625-4.984375-10.601563-2.839844-3.710937 2.144532-4.984375 6.890625-2.839844 10.601563l8.4375 14.613281c2.144532 3.714844 6.890626 4.984375 10.601563 2.839844 3.710937-2.140625 4.984375-6.886719 2.839844-10.597656zm0 0"/><path d="m129.285156 440.410156c-4.289062 0-7.761718 3.476563-7.761718 7.761719v16.878906c0 4.285157 3.472656 7.757813 7.761718 7.757813 4.285156 0 7.757813-3.472656 7.757813-7.757813v-16.878906c0-4.285156-3.472657-7.761719-7.757813-7.761719zm0 0"/><path d="m100 432.566406c-3.710938-2.144531-8.457031-.871094-10.597656 2.839844l-8.4375 14.613281c-2.144532 3.714844-.875 8.460938 2.839844 10.601563 3.710937 2.144531 8.457031.871094 10.597656-2.839844l8.441406-14.613281c2.140625-3.710938.871094-8.457031-2.84375-10.601563zm0 0"/><path d="m67.964844 408.289062-14.613282 8.4375c-6.859374 3.960938-4.023437 14.484376 3.886719 14.484376 2.757813 0 2.78125-.414063 18.488281-9.480469 3.710938-2.144531 4.980469-6.890625 2.839844-10.601563-2.144531-3.710937-6.890625-4.980468-10.601562-2.839844zm0 0"/><path d="m70.71875 381.847656c0-4.285156-3.472656-7.761718-7.757812-7.761718h-16.878907c-4.285156 0-7.757812 3.476562-7.757812 7.761718s3.472656 7.761719 7.757812 7.761719h16.878907c4.285156 0 7.757812-3.476563 7.757812-7.761719zm0 0"/><path d="m75.726562 341.964844-14.617187-8.4375c-3.710937-2.144532-8.457031-.871094-10.601563 2.839844-2.140624 3.710937-.871093 8.457031 2.84375 10.601562l14.613282 8.4375c1.222656.703125 2.558594 1.039062 3.871094 1.039062 7.914062.003907 10.75-10.519531 3.890624-14.480468zm0 0"/><path d="m94.402344 305.914062c-2.140625-3.714843-6.890625-4.984374-10.597656-2.839843-3.714844 2.140625-4.984376 6.886719-2.839844 10.597656l8.4375 14.617187c1.4375 2.488282 4.042968 3.882813 6.726562 3.882813 5.917969 0 9.710938-6.449219 6.714844-11.644531zm0 0"/><path d="m154.285156 344.5c-3.609375-2.3125-8.410156-1.261719-10.722656 2.347656l-16.640625 25.761719c-2.3125 3.605469-1.257813 8.40625 2.347656 10.71875 1.296875.832031 2.746094 1.226563 4.179688 1.226563 2.558593 0 5.0625-1.261719 6.542969-3.574219l16.640624-25.761719c2.3125-3.609375 1.257813-8.410156-2.347656-10.71875zm0 0"/></g><path d="m129.367188 396.839844c3.222656 0 6.195312-.996094 8.839843-2.953125 4.121094-3.054688 5.484375-7.035157 5.898438-9.835938.417969-2.800781.273437-7.003906-2.78125-11.128906-4.0625-5.476563-9.828125-6.066406-12.121094-6.066406-3.222656 0-6.199219.992187-8.839844 2.953125-4.121093 3.054687-5.484375 7.035156-5.898437 9.835937-.417969 2.800781-.273438 7.003907 2.78125 11.125 4.058594 5.476563 9.828125 6.070313 12.121094 6.070313zm0 0" fill="#f64346"/><path d="m341.90625 94.636719c-2.332031-54.546875-48.441406-96.878907-102.992188-94.5468752-54.546874 2.3320312-96.875 48.4414062-94.546874 102.9882812 2.332031 54.550781 48.441406 96.878906 102.992187 94.546875 54.546875-2.332031 96.875-48.441406 94.546875-102.988281zm0 0" fill="#fdc202"/><path d="m313.289062 109.054688c-4.199218 28.921874-25.402343 51.25-52.003906 58.328124-8.96875 2.378907-18.5625 3.03125-28.320312 1.613282-19.574219-2.847656-37.207032-13.867188-48.371094-30.222656-10.015625-14.695313-14.113281-32.492188-11.558594-50.101563 2.722656-18.730469 12.570313-35.273437 27.75-46.59375 15.167969-11.328125 33.835938-16.058594 52.5625-13.335937 2.652344.382812 5.257813.917968 7.8125 1.601562 16.421875 4.316406 30.917969 14.464844 40.5625 28.621094 10.015625 14.691406 14.121094 32.480468 11.566406 50.089844zm0 0" fill="#ffdd81"/><path d="m261.285156 167.382812c-8.972656 2.378907-18.5625 3.03125-28.320312 1.613282-19.578125-2.84375-37.207032-13.863282-48.371094-30.222656-10.019531-14.691407-14.113281-32.492188-11.558594-50.101563 2.71875-18.726563 12.570313-35.273437 27.75-46.59375 15.167969-11.328125 33.835938-16.058594 52.5625-13.335937 2.648438.382812 5.257813.921874 7.8125 1.605468-8.609375 2.285156-16.804687 6.238282-24.160156 11.730469-15.179688 11.320313-25.03125 27.867187-27.75 46.59375-2.558594 17.609375 1.539062 35.410156 11.558594 50.101563 9.640625 14.125 24.097656 24.273437 40.476562 28.609374zm0 0" fill="#fed22b"/><path d="m267.976562 117.796875c0-31.371094-36.9375-22.554687-36.9375-39.632813 0-8.367187 7.457032-10.125 13.714844-10.125 6.074219 0 9.386719 1.707032 11.804688 2.953126 1.425781.734374 2.546875 1.316406 3.800781 1.316406 3.726563 0 5.59375-4.304688 5.59375-6.71875 0-5.421875-8.324219-7.71875-15.058594-8.550782v-12.472656c0-4.289062-3.472656-7.761718-7.761719-7.761718-4.285156 0-7.757812 3.472656-7.757812 7.761718v13.152344c-10.707031 2.679688-16.871094 10.230469-16.871094 21.34375 0 28.433594 36.9375 18.640625 36.9375 39.632812 0 10.761719-8.804687 12.367188-14.054687 12.367188-8.171875 0-11.863281-3.621094-14.558594-6.269531-1.542969-1.515625-2.878906-2.824219-4.640625-2.824219-3.074219 0-5.707031 3.695312-5.707031 6.71875 0 4.945312 7.191406 11.785156 18.894531 13.703125v10.75c0 4.289063 3.472656 7.761719 7.757812 7.761719 4.285157 0 7.761719-3.472656 7.761719-7.761719v-11.355469c10.839844-2.925781 17.082031-11.429687 17.082031-23.988281zm0 0" fill="#f0a70a"/><path d="m386.398438 288.328125c-3.480469 0-6.300782 2.820313-6.300782 6.300781 0 5.851563-4.761718 10.609375-10.609375 10.609375-5.851562 0-10.609375-4.757812-10.609375-10.609375 0-3.480468-2.820312-6.300781-6.300781-6.300781s-6.300781 2.820313-6.300781 6.300781c0 12.796875 10.414062 23.210938 23.210937 23.210938s23.210938-10.414063 23.210938-23.210938c0-3.480468-2.824219-6.300781-6.300781-6.300781zm0 0" fill="#ca7400"/><path d="m422.980469 257.246094c0 5.546875-4.496094 10.046875-10.042969 10.046875s-10.046875-4.5-10.046875-10.046875 4.5-10.042969 10.046875-10.042969 10.042969 4.496094 10.042969 10.042969zm0 0" fill="#ca7400"/><path d="m336.082031 257.246094c0 5.546875-4.496093 10.046875-10.042969 10.046875-5.550781 0-10.046874-4.5-10.046874-10.046875s4.496093-10.042969 10.046874-10.042969c5.546876 0 10.042969 4.496094 10.042969 10.042969zm0 0" fill="#ca7400"/><path d="m435.796875 232.023438c-13.519531-8.5-35.25-4.300782-37.683594-3.792969-3.40625.710937-5.589843 4.046875-4.878906 7.453125.707031 3.40625 4.046875 5.597656 7.453125 4.878906 4.875-1.015625 20.558594-2.808594 28.402344 2.125 1.042968.65625 2.203125.96875 3.347656.96875 2.09375 0 4.144531-1.042969 5.339844-2.949219 1.851562-2.941406.964844-6.832031-1.980469-8.683593zm0 0" fill="#ca7400"/><path d="m340.859375 228.230469c-2.433594-.507813-24.160156-4.710938-37.683594 3.792969-2.945312 1.851562-3.832031 5.742187-1.980469 8.6875 1.199219 1.902343 3.246094 2.945312 5.34375 2.945312 1.144532 0 2.304688-.3125 3.34375-.964844 7.835938-4.925781 23.152344-3.203125 28.40625-2.125 3.40625.71875 6.742188-1.476562 7.453126-4.882812.710937-3.40625-1.476563-6.742188-4.882813-7.453125zm0 0" fill="#ca7400"/></svg>