<svg height="511pt" viewBox="-66 1 511 511.99896" width="511pt" xmlns="http://www.w3.org/2000/svg"><path d="m379.765625 169.167969v331.292969c0 6.371093-5.164063 11.539062-11.535156 11.539062h-266.207031c-6.371094 0-11.535157-5.167969-11.535157-11.539062v-398.9375c0-6.375 5.164063-11.539063 11.535157-11.539063h200.710937l75.507813 75.507813c.976562.976562 1.523437 2.296874 1.523437 3.675781zm0 0" fill="#c8bebc"/><path d="m334.34375 121.597656v333.449219c0 6.371094-5.164062 11.535156-11.535156 11.535156h-266.207032c-6.371093 0-11.535156-5.164062-11.535156-11.535156v-398.941406c0-6.375 5.164063-11.539063 11.535156-11.539063h200.710938zm0 0" fill="#ebe0da"/><path d="m289.78125 77.027344v333.445312c0 6.371094-5.164062 11.539063-11.539062 11.539063h-266.195313c-6.375 0-11.542969-5.167969-11.542969-11.539063v-398.941406c0-6.375 5.167969-11.53125 11.542969-11.53125h200.707031c7.183594 7.183594 69.84375 69.84375 77.027344 77.027344zm0 0" fill="#fff5f4"/><path d="m289.78125 77.027344v.011718h-61.433594c-8.609375 0-15.59375-6.976562-15.59375-15.59375v-61.445312c7.183594 7.183594 69.84375 69.84375 77.027344 77.027344zm0 0" fill="#ebe0da"/><path d="m145.144531 26.398438c-28.0625 0-50.882812 22.820312-50.882812 50.878906v112.015625h15.59375v-112.015625c0-19.460938 15.824219-35.285156 35.289062-35.285156 19.453125 0 35.285157 15.824218 35.285157 35.285156v112.015625h15.59375v-112.015625c0-28.058594-22.828126-50.878906-50.878907-50.878906zm0 0" fill="#285fb3"/><path d="m238.121094 206.71875v146.53125c0 16.09375-13.046875 29.140625-29.140625 29.140625h-127.683594c-16.082031 0-29.132813-13.046875-29.132813-29.140625v-146.53125c0-16.085938 13.050782-29.132812 29.132813-29.132812h127.683594c16.09375 0 29.140625 13.046874 29.140625 29.132812zm0 0" fill="#4395fb"/><path d="m238.121094 206.71875v146.53125c0 16.09375-13.046875 29.140625-29.140625 29.140625h-91.292969c-16.085938 0-29.132812-13.046875-29.132812-29.140625v-146.53125c0-16.085938 13.046874-29.132812 29.132812-29.132812h91.292969c16.09375 0 29.140625 13.046874 29.140625 29.132812zm0 0" fill="#63a6fd"/><path d="m174.707031 263.613281c0-16.328125-13.238281-29.5625-29.566406-29.5625-16.324219 0-29.5625 13.234375-29.5625 29.5625 0 10.492188 5.472656 19.699219 13.710937 24.949219v21.511719c0 8.753906 7.097657 15.851562 15.851563 15.851562 8.757813 0 15.855469-7.097656 15.855469-15.851562v-21.511719c8.238281-5.25 13.710937-14.457031 13.710937-24.949219zm0 0" fill="#285fb3"/><path d="m48.4375 422.015625h-36.386719c-6.382812 0-11.550781-5.167969-11.550781-11.542969v-398.941406c0-6.371094 5.167969-11.52734375 11.550781-11.52734375h36.386719c-6.382812 0-11.550781 5.15624975-11.550781 11.52734375v398.941406c0 6.375 5.167969 11.542969 11.550781 11.542969zm0 0" fill="#ebe0da"/></svg>