<svg height="512pt" viewBox="0 -23 512 512" width="512pt" xmlns="http://www.w3.org/2000/svg"><path d="m110 10c-55.253906 0-100 44.761719-100 100 0 35.28125 18.269531 66.300781 45.871094 84.089844h108.257812c27.601563-17.789063 45.871094-48.808594 45.871094-84.089844 0-55.230469-44.769531-100-100-100zm0 0" fill="#ede9e8"/><path d="m402 10c-55.230469 0-100 44.769531-100 100 0 35.28125 18.269531 66.300781 45.871094 84.089844h108.257812c27.601563-17.789063 45.871094-48.808594 45.871094-84.089844 0-55.230469-44.769531-100-100-100zm0 0" fill="#ede9e8"/><path d="m402 160c23.859375 0 44.46875 13.929688 54.128906 34.089844-15.597656 10.070312-34.179687 15.910156-54.128906 15.910156-19.347656 0-38.046875-5.527344-54.128906-15.910156 9.660156-20.160156 30.269531-34.089844 54.128906-34.089844zm0 0" fill="#5c9cee"/><path d="m442 100c0 22.089844-17.910156 40-40 40s-40-17.910156-40-40 17.910156-40 40-40 40 17.910156 40 40zm0 0" fill="#5c9cee"/><path d="m330.949219 289.820312c-18.300781-20.742187-45.097657-33.820312-74.949219-33.820312s-56.648438 13.078125-74.949219 33.820312c-15.601562 17.628907-25.050781 40.800782-25.050781 66.179688 0 35.28125 18.269531 66.300781 45.871094 84.089844h108.257812c27.601563-17.789063 45.871094-48.808594 45.871094-84.089844 0-25.378906-9.449219-48.550781-25.050781-66.179688zm0 0" fill="#ede9e8"/><g fill="#5c9cee"><path d="m256 406c23.859375 0 44.46875 13.929688 54.128906 34.089844-15.597656 10.070312-34.179687 15.910156-54.128906 15.910156s-38.53125-5.839844-54.128906-15.910156c9.660156-20.160156 30.269531-34.089844 54.128906-34.089844zm0 0"/><path d="m296 346c0 22.089844-17.910156 40-40 40s-40-17.910156-40-40 17.910156-40 40-40 40 17.910156 40 40zm0 0"/><path d="m164.128906 194.089844c-16.0625 10.371094-34.757812 15.910156-54.128906 15.910156-19.949219 0-38.53125-5.839844-54.128906-15.910156 9.660156-20.160156 30.269531-34.089844 54.128906-34.089844s44.46875 13.929688 54.128906 34.089844zm0 0"/><path d="m150 100c0 22.089844-17.910156 40-40 40s-40-17.910156-40-40 17.910156-40 40-40 40 17.910156 40 40zm0 0"/></g><path d="m30 60c5.519531 0 10-4.480469 10-10 0-5.503906-4.449219-10-10-10-5.519531 0-10 4.480469-10 10 0 5.550781 4.519531 10 10 10zm0 0"/><path d="m160 100c0-27.570312-22.429688-50-50-50s-50 22.429688-50 50 22.429688 50 50 50 50-22.429688 50-50zm-50 30c-16.542969 0-30-13.457031-30-30s13.457031-30 30-30 30 13.457031 30 30-13.457031 30-30 30zm0 0"/><path d="m452 100c0-27.570312-22.429688-50-50-50s-50 22.429688-50 50 22.429688 50 50 50 50-22.429688 50-50zm-50 30c-16.542969 0-30-13.457031-30-30s13.457031-30 30-30 30 13.457031 30 30-13.457031 30-30 30zm0 0"/><path d="m402 0c-57.28125 0-104.472656 44.015625-109.539062 100h-72.921876c-5.066406-55.984375-52.257812-100-109.539062-100-19.433594 0-38.5 5.117188-55.140625 14.796875-4.773437 2.777344-6.390625 8.898437-3.613281 13.671875 2.773437 4.773438 8.894531 6.394531 13.671875 3.617188 13.589843-7.90625 29.179687-12.085938 45.082031-12.085938 49.625 0 90 40.375 90 90 0 27.230469-12.128906 52.542969-32.886719 69.554688-12.988281-18.25-34.324219-29.554688-57.113281-29.554688s-44.125 11.304688-57.113281 29.554688c-20.757813-17.007813-32.886719-42.324219-32.886719-69.554688 0-7.355469.84375-14.386719 2.574219-21.488281 1.3125-5.367188-1.976563-10.777344-7.34375-12.085938-5.367188-1.304687-10.777344 1.976563-12.085938 7.34375-2.117187 8.675781-3.144531 17.253907-3.144531 26.230469 0 61.390625 49.8125 110 110 110 5.554688 0 11.089844-.425781 16.527344-1.246094l42.300781 70.167969c-14.769531 19.15625-22.828125 42.703125-22.828125 67.078125 0 61.625 50.054688 110 110 110 60.042969 0 110-48.480469 110-110 0-24.375-8.058594-47.921875-22.828125-67.078125l42.300781-70.167969c5.441406.820313 10.972656 1.246094 16.527344 1.246094 60.042969 0 110-48.480469 110-110 0-60.652344-49.347656-110-110-110zm-182.453125 120h72.90625c3.941406 43.746094 33.242187 79.65625 72.730469 93.667969l-36.203125 60.054687c-20-17.746094-45.941407-27.722656-72.980469-27.722656-27.042969 0-52.984375 9.980469-72.980469 27.722656l-36.203125-60.054687c39.480469-14.003907 68.785156-49.890625 72.730469-93.667969zm-149.886719 70.472656c9.320313-12.660156 24.328125-20.472656 40.339844-20.472656 16.003906 0 31.007812 7.804688 40.328125 20.457031-12.664063 6.367188-26.375 9.542969-40.328125 9.542969-14.113281 0-27.886719-3.269531-40.339844-9.527344zm146 246c9.320313-12.660156 24.328125-20.472656 40.339844-20.472656s31.019531 7.8125 40.339844 20.472656c-12.453125 6.253906-26.226563 9.527344-40.339844 9.527344s-27.886719-3.269531-40.339844-9.527344zm97.453125-10.917968c-12.988281-18.25-34.324219-29.554688-57.113281-29.554688s-44.125 11.304688-57.113281 29.554688c-20.757813-17.007813-32.886719-42.324219-32.886719-69.554688 0-49.894531 40.554688-90 90-90 49.308594 0 90 39.96875 90 90 0 27.230469-12.128906 52.542969-32.886719 69.554688zm48.558594-235.097657c9.320313-12.652343 24.324219-20.457031 40.328125-20.457031 16.011719 0 31.019531 7.8125 40.339844 20.472656-12.453125 6.253906-26.226563 9.527344-40.339844 9.527344-13.941406 0-27.660156-3.171875-40.328125-9.542969zm97.441406-10.902343c-12.988281-18.25-34.324219-29.554688-57.113281-29.554688s-44.125 11.304688-57.113281 29.554688c-20.757813-17.007813-32.886719-42.324219-32.886719-69.554688 0-49.625 40.375-90 90-90s90 40.375 90 90c0 27.230469-12.128906 52.542969-32.886719 69.554688zm0 0"/><path d="m306 346c0-27.570312-22.429688-50-50-50s-50 22.429688-50 50 22.429688 50 50 50 50-22.429688 50-50zm-50 30c-16.542969 0-30-13.457031-30-30s13.457031-30 30-30 30 13.457031 30 30-13.457031 30-30 30zm0 0"/></svg>