<svg height="512pt" viewBox="0 -4 512.00051 512" width="512pt" xmlns="http://www.w3.org/2000/svg"><path d="m501.539062 253.828125-70.855468 12.5c-.835938 12.757813-3.070313 25.140625-6.503906 37.019531l62.296874 35.949219c6.042969 3.5 8.128907 11.230469 4.628907 17.285156l-29.226563 50.617188c-3.496094 6.054687-11.230468 8.128906-17.285156 4.632812l-62.328125-35.972656c-8.683594 9.039063-18.308594 17.167969-28.765625 24.164063l24.609375 67.621093c2.386719 6.554688-1.007813 13.804688-7.574219 16.214844l-19.179687 6.976563-35.742188 13c-6.558593 2.386718-13.828125-.984376-16.21875-7.554688l-18.308593-50.355469-6.296876-17.261719c-3.5.367188-7.019531.640626-10.582031.808594-2.710937.132813-5.445312.195313-8.210937.195313-6.335938 0-12.613282-.34375-18.78125-1.003907l-24.617188 67.617188c-2.378906 6.570312-9.648437 9.941406-16.21875 7.554688l-54.921875-19.976563c-6.554687-2.410156-9.949219-9.660156-7.5625-16.214844l24.605469-67.621093c-10.453125-6.996094-20.078125-15.125-28.765625-24.164063l-62.328125 35.972656c-6.054688 3.496094-13.796875 1.421875-17.292969-4.632812l-29.214843-50.617188c-3.5-6.054687-1.425782-13.785156 4.628906-17.285156l62.285156-35.949219c-3.433594-11.878906-5.632812-24.261718-6.503906-37.019531l-70.84375-12.5c-6.894532-1.203125-11.484375-7.769531-10.269532-14.664063l10.140626-57.5625c1.214843-6.871093 7.785156-11.480468 14.675781-10.265624l70.804687 12.496093c5.121094-11.5625 11.449219-22.457031 18.835938-32.535156l-46.261719-55.113281c-4.480469-5.371094-3.789063-13.332032 1.5625-17.835938l44.78125-37.578125c5.34375-4.484375 13.335937-3.78125 17.820313 1.5625l46.238281 55.109375c11.15625-5.5 22.984375-9.835937 35.332031-12.863281v-71.914063c0-6.996093 5.65625-12.664062 12.65625-12.664062h58.441406c6.996094 0 12.652344 5.667969 12.652344 12.664062v71.914063c12.351562 3.027344 24.179688 7.363281 35.335938 12.863281l46.238281-55.109375c4.484375-5.34375 12.464843-6.046875 17.816406-1.5625l44.785156 37.578125c5.339844 4.503906 6.042969 12.464844 1.558594 17.835938l-46.257813 55.113281c7.386719 10.078125 13.703126 20.972656 18.824219 32.535156l70.835938-12.496093c6.871093-1.214844 13.4375 3.394531 14.644531 10.265624l10.148438 57.5625c1.214843 6.894532-3.371094 13.460938-10.265626 14.664063zm0 0" fill="#1980f9"/><path d="m371.273438 483.558594c-.242188.113281-.484376.207031-.734376.300781l-19.179687 6.976563-35.742187 13c-6.558594 2.390624-13.828126-.984376-16.214844-7.550782l-18.3125-50.355468-6.304688-17.261719c-3.488281.363281-7.007812.636719-10.570312.804687-2.722656.136719-5.449219.199219-8.222656.199219-6.328126 0-12.601563-.34375-18.773438-1.003906l-24.617188 67.617187c-2.378906 6.566406-9.648437 9.941406-16.214843 7.550782l-54.921875-19.976563c-6.558594-2.40625-9.953125-9.65625-7.574219-16.214844l24.617187-67.617187c-10.457031-7-20.082031-15.128906-28.765624-24.167969l-62.328126 35.972656c-6.066406 3.5-13.796874 1.425781-17.296874-4.628906l-29.214844-50.617187c-3.5-6.054688-1.425782-13.785157 4.628906-17.285157l62.289062-35.953125c-3.4375-11.878906-5.636718-24.257812-6.507812-37.019531l-70.84375-12.496094c-6.894531-1.203125-11.480469-7.773437-10.277344-14.664062l10.152344-57.5625c1.214844-6.875 7.78125-11.484375 14.664062-10.265625l70.8125 12.496094c5.125-11.566407 11.453126-22.460938 18.835938-32.539063l-46.257812-55.109375c-4.496094-5.375-3.792969-13.335938 1.558593-17.839844l44.785157-37.574218c5.332031-4.484376 13.324218-3.78125 17.816406 1.558593l46.238281 55.113281c11.15625-5.5 22.984375-9.835937 35.335937-12.863281v-71.914062c0-7 5.65625-12.66406275 12.652344-12.66406275h58.441406c7 0 12.65625 5.66406275 12.65625 12.66406275v46.824219c-15.882812 16.121093-29.710937 34.265624-41.054687 54.023437-48.628906 84.632813-47.433594 192.390625 8.601563 277.292969 26.175781 39.671875 62.757812 71.882812 105.84375 92.75zm0 0" fill="#285fb3"/><path d="m394.8125 252.324219c0 73.484375-57.101562 133.644531-129.382812 138.484375-3.113282.210937-6.253907.3125-9.417969.3125-76.691407 0-138.800781-62.160156-138.800781-138.796875 0-75.371094 60.539062-138.808594 139.617187-138.808594 76.273437.4375 137.984375 62.421875 137.984375 138.808594zm0 0" fill="#63a6fd"/><path d="m265.429688 390.808594c-3.113282.210937-6.253907.3125-9.417969.3125-76.691407 0-138.800781-62.160156-138.800781-138.796875 0-75.371094 60.539062-138.808594 139.617187-138.808594-48.625 84.628906-47.433594 192.390625 8.601563 277.292969zm0 0" fill="#4395fb"/><path d="m140.085938 246.960938c20.171874-22.253907 114.003906-111.847657 230.777343-.296876 2.878907 2.75 2.871094 7.347657.007813 10.109376-24.253906 23.40625-131.214844 113.976562-230.878906-.511719-2.324219-2.671875-2.289063-6.675781.09375-9.300781zm0 0" fill="#fff5f4"/><path d="m316.4375 252.289062c0 27.75-18.707031 51.132813-44.195312 58.222657-5.164063 1.445312-10.609376 2.210937-16.234376 2.210937-33.375 0-60.433593-27.058594-60.433593-60.433594 0-33.363281 27.058593-60.421874 60.433593-60.421874 5.625 0 11.070313.765624 16.234376 2.210937 25.488281 7.089844 44.195312 30.472656 44.195312 58.210937zm0 0" fill="#c8bebc"/><path d="m316.4375 252.289062c0 27.75-18.707031 51.132813-44.195312 58.222657-25.484376-7.089844-44.195313-30.472657-44.195313-58.222657 0-27.738281 18.710937-51.121093 44.195313-58.210937 25.488281 7.089844 44.195312 30.472656 44.195312 58.210937zm0 0" fill="#d8cecc"/></svg>