<svg height="512pt" viewBox="0 0 512 512" width="512pt" xmlns="http://www.w3.org/2000/svg"><path d="m512 64v400c0 26.398438-21.601562 48-48 48h-416c-26.398438 0-48-21.601562-48-48v-464h184l48 64zm0 0" fill="#fcc000"/><path d="m464 512h-416c-26.398438 0-48-23.566406-48-52.367188v-331.632812h416v331.632812c0 28.800782 21.601562 52.367188 48 52.367188zm0 0" fill="#ffd337"/><path d="m163.871094 448h-67.871094v-67.886719l174.382812-174.386719 67.890626 67.890626zm0 0" fill="#e76e54"/><path d="m32 160h32v32h-32zm0 0" fill="#fff"/><path d="m96 160h32v32h-32zm0 0" fill="#fff"/><path d="m352 448h-32v-32h32zm-64 0h-64v-32h64zm0 0" fill="#5f90ff"/><path d="m96 380.113281v67.886719h67.871094l.609375-.609375-68-67.757813zm0 0" fill="#e4edfb"/></svg>