<svg height="512pt" viewBox="0 0 512 512" width="512pt" xmlns="http://www.w3.org/2000/svg"><path d="m512 64v400c0 26.398438-21.601562 48-48 48h-416c-26.398438 0-48-21.601562-48-48v-464h184l48 64zm0 0" fill="#fcc000"/><path d="m464 512h-416c-26.398438 0-48-23.566406-48-52.367188v-331.632812h416v331.632812c0 28.800782 21.601562 52.367188 48 52.367188zm0 0" fill="#ffd337"/><path d="m128 320h32v128h-32zm0 0" fill="#bcaaa4"/><path d="m128 320h32v64h-32zm0 0" fill="#a1887f"/><path d="m305.886719 272 40-80h-217.886719v160h217.886719zm0 0" fill="#e76e54"/></svg>