<svg height="512pt" viewBox="0 0 512 512" width="512pt" xmlns="http://www.w3.org/2000/svg"><path d="m512 64v400c0 26.398438-21.601562 48-48 48h-416c-26.398438 0-48-21.601562-48-48v-464h184l48 64zm0 0" fill="#fcc000"/><path d="m464 512h-416c-26.398438 0-48-23.566406-48-52.367188v-331.632812h416v331.632812c0 28.800782 21.601562 52.367188 48 52.367188zm0 0" fill="#ffd337"/><path d="m32 160h32v32h-32zm0 0" fill="#fff"/><path d="m96 160h32v32h-32zm0 0" fill="#fff"/><path d="m224 436.191406-91.089844-91.085937c-13.484375-13.472657-20.910156-31.410157-20.910156-50.480469 0-19.074219 7.425781-37.007812 20.910156-50.496094 13.488282-13.488281 31.410156-20.914062 50.496094-20.914062 14.707031 0 28.753906 4.417968 40.59375 12.640625 11.839844-8.222657 25.886719-12.640625 40.59375-12.640625 19.070312 0 37.007812 7.425781 50.496094 20.914062 13.484375 13.488282 20.910156 31.40625 20.910156 50.496094 0 19.070312-7.425781 37.007812-20.910156 50.496094zm0 0" fill="#ff668b"/></svg>