<svg height="512pt" viewBox="0 0 512 512" width="512pt" xmlns="http://www.w3.org/2000/svg"><path d="m512 64v400c0 26.398438-21.601562 48-48 48h-416c-26.398438 0-48-21.601562-48-48v-464h184l48 64zm0 0" fill="#fcc000"/><path d="m464 512h-416c-26.398438 0-48-23.566406-48-52.367188v-331.632812h416v331.632812c0 28.800782 21.601562 52.367188 48 52.367188zm0 0" fill="#ffd337"/><path d="m32 160h32v32h-32zm0 0" fill="#fff"/><path d="m96 160h32v32h-32zm0 0" fill="#fff"/><path d="m230.449219 448c-42.175781 0-74.304688-13.3125-92.882813-38.496094-25.644531-34.71875-21.007812-73.664062 15.425782-130.175781l23.214843-35.984375 6.082031 42.382812c.046876.289063 5.664063 34.273438 24.160157 34.273438 5.695312 0 9.839843-1.824219 13.421875-5.953125 14.496094-16.703125 14.289062-62.71875 10.738281-87.789063l-5.121094-36.320312 30.113281 20.925781c2.894532 2.015625 70.863282 50.335938 70.863282 141.136719-.015625 65.953125-49.777344 96-96.015625 96zm0 0" fill="#e76e54"/></svg>