<svg height="512pt" viewBox="0 0 512 512" width="512pt" xmlns="http://www.w3.org/2000/svg"><path d="m512 64v400c0 26.398438-21.601562 48-48 48h-416c-26.398438 0-48-21.601562-48-48v-464h184l48 64zm0 0" fill="#fcc000"/><path d="m464 512h-416c-26.398438 0-48-23.566406-48-52.367188v-331.632812h416v331.632812c0 28.800782 21.601562 52.367188 48 52.367188zm0 0" fill="#ffd337"/><path d="m32 160h32v32h-32zm0 0" fill="#fff"/><path d="m96 160h32v32h-32zm0 0" fill="#fff"/><g fill="#5f90ff"><path d="m144.800781 463.199219c-17.089843 0-33.167969-6.65625-45.265625-18.734375-24.960937-24.960938-24.960937-65.570313 0-90.511719l22.640625-22.640625c12.082031-12.082031 28.160157-18.738281 45.25-18.738281 17.085938 0 33.167969 6.65625 45.261719 18.738281 24.960938 24.960938 24.960938 65.566406 0 90.511719l-22.640625 22.640625c-12.078125 12.078125-28.144531 18.734375-45.246094 18.734375zm22.625-118.625c-8.546875 0-16.578125 3.328125-22.625 9.363281l-22.640625 22.636719c-12.480468 12.480469-12.464844 32.785156 0 45.265625 12.097656 12.082031 33.167969 12.082031 45.265625 0l22.636719-22.640625c12.480469-12.480469 12.464844-32.785157 0-45.261719-6.046875-6.035156-14.078125-9.363281-22.636719-9.363281zm0 0"/><path d="m280.574219 327.425781c-17.085938 0-33.167969-6.65625-45.261719-18.738281-24.960938-24.960938-24.960938-65.566406 0-90.511719l22.640625-22.640625c12.078125-12.078125 28.160156-18.734375 45.246094-18.734375 17.089843 0 33.167969 6.65625 45.265625 18.734375 24.960937 24.960938 24.960937 65.570313 0 90.511719l-22.640625 22.640625c-12.097657 12.082031-28.160157 18.738281-45.25 18.738281zm22.625-118.625c-8.542969 0-16.574219 3.328125-22.625 9.359375l-22.636719 22.640625c-12.480469 12.480469-12.464844 32.785157 0 45.261719 12.09375 12.082031 33.167969 12.082031 45.261719 0l22.640625-22.636719c12.480468-12.480469 12.464844-32.785156 0-45.265625-6.0625-6.03125-14.097656-9.359375-22.640625-9.359375zm0 0"/><path d="m156.679688 364.6875 111.996093-111.992188 22.625 22.628907-111.992187 111.992187zm0 0"/></g></svg>