<svg height="512pt" viewBox="0 0 512 512" width="512pt" xmlns="http://www.w3.org/2000/svg"><path d="m512 64v400c0 26.398438-21.601562 48-48 48h-416c-26.398438 0-48-21.601562-48-48v-464h184l48 64zm0 0" fill="#fcc000"/><path d="m464 512h-416c-26.398438 0-48-23.566406-48-52.367188v-331.632812h416v331.632812c0 28.800782 21.601562 52.367188 48 52.367188zm0 0" fill="#ffd337"/><path d="m32 160h32v32h-32zm0 0" fill="#fff"/><path d="m96 160h32v32h-32zm0 0" fill="#fff"/><path d="m288 320h-128v-64c0-35.296875 28.703125-64 64-64s64 28.703125 64 64zm-96-32h64v-32c0-17.648438-14.351562-32-32-32s-32 14.351562-32 32zm0 0" fill="#b0b4b9"/><path d="m128 288h192v160h-192zm0 0" fill="#e76e54"/><path d="m208 352h32v32h-32zm0 0" fill="#fff"/></svg>