<svg height="512pt" viewBox="0 0 512 512" width="512pt" xmlns="http://www.w3.org/2000/svg"><path d="m512 64v400c0 26.398438-21.601562 48-48 48h-416c-26.398438 0-48-21.601562-48-48v-464h184l48 64zm0 0" fill="#fcc000"/><path d="m464 512h-416c-26.398438 0-48-23.566406-48-52.367188v-331.632812h416v331.632812c0 28.800782 21.601562 52.367188 48 52.367188zm0 0" fill="#ffd337"/><path d="m32 160h32v32h-32zm0 0" fill="#fff"/><path d="m96 160h32v32h-32zm0 0" fill="#fff"/><path d="m192 198.113281v153.886719h-16c-26.464844 0-48 21.535156-48 48s21.535156 48 48 48 48-21.535156 48-48v-150.113281l72.847656 36.417969 14.320313-28.625zm0 201.886719c0 8.816406-7.167969 16-16 16s-16-7.183594-16-16 7.167969-16 16-16h16zm0 0" fill="#5f90ff"/></svg>