<svg height="512pt" viewBox="0 0 512 512" width="512pt" xmlns="http://www.w3.org/2000/svg"><path d="m512 64v400c0 26.398438-21.601562 48-48 48h-416c-26.398438 0-48-21.601562-48-48v-464h184l48 64zm0 0" fill="#fcc000"/><path d="m464 512h-416c-26.398438 0-48-23.566406-48-52.367188v-331.632812h416v331.632812c0 28.800782 21.601562 52.367188 48 52.367188zm0 0" fill="#ffd337"/><path d="m32 160h32v32h-32zm0 0" fill="#fff"/><path d="m96 160h32v32h-32zm0 0" fill="#fff"/><path d="m224 176c-79.40625 0-144 64.59375-144 144s64.59375 144 144 144 144-64.59375 144-144-64.59375-144-144-144zm101.039062 96h-33.488281c-2.527343-18.113281-6.527343-34.59375-11.742187-48.960938 19.617187 11.328126 35.421875 28.417969 45.230468 48.960938zm10.960938 48c0 5.441406-.527344 10.753906-1.28125 16h-40.351562c.226562-5.296875.496093-10.558594.496093-16s-.269531-10.703125-.496093-16h40.351562c.753906 5.246094 1.28125 10.558594 1.28125 16zm-224 0c0-5.441406.527344-10.753906 1.28125-16h40.351562c-.226562 5.296875-.496093 10.558594-.496093 16s.269531 10.703125.496093 16h-40.351562c-.753906-5.246094-1.28125-10.558594-1.28125-16zm73.136719 0c0-5.550781.269531-10.769531.511719-16h76.6875c.257812 5.230469.511718 10.449219.511718 16s-.273437 10.769531-.511718 16h-76.6875c-.242188-5.230469-.511719-10.449219-.511719-16zm51.808593-111.183594c8.878907 11.742188 17.4375 33.617188 22.144532 63.183594h-70.210938c4.722656-29.585938 13.28125-51.441406 22.144532-63.183594 4.289062-.496094 8.59375-.816406 12.976562-.816406s8.6875.320312 12.945312.816406zm-68.753906 14.222656c-5.199218 14.367188-9.199218 30.847657-11.742187 48.960938h-33.488281c9.808593-20.542969 25.613281-37.617188 45.230468-48.960938zm-45.230468 144.960938h33.488281c2.527343 18.113281 6.527343 34.59375 11.742187 48.960938-19.617187-11.34375-35.421875-28.417969-45.230468-48.960938zm88.09375 63.183594c-8.878907-11.742188-17.4375-33.617188-22.144532-63.183594h70.210938c-4.722656 29.585938-13.28125 51.441406-22.144532 63.183594-4.289062.496094-8.59375.816406-12.976562.816406s-8.6875-.320312-12.945312-.816406zm68.753906-14.222656c5.199218-14.367188 9.199218-30.847657 11.742187-48.960938h33.488281c-9.808593 20.542969-25.613281 37.617188-45.230468 48.960938zm0 0" fill="#5f90ff"/></svg>