<svg height="512pt" viewBox="-3 0 512 512" width="512pt" xmlns="http://www.w3.org/2000/svg"><path d="m458.894531 512h-336l-80-368v-144h184l48 64h232v400c0 26.511719-21.488281 48-48 48zm0 0" fill="#fcc000"/><path d="m458.894531 512h-352.6875c-25.886719 0-47.984375-18.71875-52.238281-44.257812l-53.96875-323.742188h337.265625c31.855469 0 58.847656 23.425781 63.359375 54.945312l37.582031 263.101563c1.457031 10.242187 10.351563 49.953125 20.6875 49.953125zm0 0" fill="#ffd337"/><g fill="#fff"><path d="m58.894531 176h32v32h-32zm0 0"/><path d="m122.894531 176h32v32h-32zm0 0"/></g></svg>