<svg height="512pt" viewBox="-5 0 512 512" width="512pt" xmlns="http://www.w3.org/2000/svg"><path d="m459.105469 64v224h-416v-288h168l48 64zm0 0" fill="#ffd337"/><path d="m107.105469 128h288v160h-288zm0 0" fill="#5f90ff"/><path d="m43.105469 224h416v64h-416zm0 0" fill="#fcc000"/><path d="m171.105469 192h160v32h-160zm0 0" fill="#e4edfb"/><path d="m107.105469 224h288v64h-288zm0 0" fill="#347bf7"/><path d="m456.496094 512h-410.785156l-45.710938-256h502.222656zm0 0" fill="#ffd337"/><g fill="#fff"><path d="m59.105469 288h32v32h-32zm0 0"/><path d="m123.105469 288h32v32h-32zm0 0"/></g></svg>