<svg height="512pt" viewBox="0 0 512 512" width="512pt" xmlns="http://www.w3.org/2000/svg"><path d="m512 64v400c0 26.398438-21.601562 48-48 48h-416c-26.398438 0-48-21.601562-48-48v-464h184l48 64zm0 0" fill="#fcc000"/><path d="m464 512h-416c-26.398438 0-48-23.566406-48-52.367188v-331.632812h416v331.632812c0 28.800782 21.601562 52.367188 48 52.367188zm0 0" fill="#ffd337"/><path d="m384 224v192c0 17.679688-14.320312 32-32 32h-256c-17.679688 0-32-14.320312-32-32v-192c0-17.679688 14.320312-32 32-32h256c17.679688 0 32 14.320312 32 32zm0 0" fill="#5f90ff"/><path d="m220.160156 304-15.648437-16-139.296875 136.257812c3.648437 13.644532 15.984375 23.742188 30.785156 23.742188h256c17.679688 0 32-14.320312 32-32v-128l-84.480469-63.359375zm0 0" fill="#347bf7"/><path d="m128 256h32v32h-32zm0 0" fill="#fff"/><path d="m194.863281 329.296875-114.464843 114.464844c4.625 2.621093 9.90625 4.238281 15.601562 4.238281h144v-88.640625zm0 0" fill="#74b521"/><path d="m121.441406 448h230.558594c17.679688 0 32-14.320312 32-32v-88l-81.441406-61.121094zm0 0" fill="#8bc34a"/></svg>