<svg height="512pt" viewBox="0 0 512 512" width="512pt" xmlns="http://www.w3.org/2000/svg"><path d="m512 64v400c0 26.398438-21.601562 48-48 48h-416c-26.398438 0-48-21.601562-48-48v-464h184l48 64zm0 0" fill="#fcc000"/><path d="m464 512h-416c-26.398438 0-48-23.566406-48-52.367188v-331.632812h416v331.632812c0 28.800782 21.601562 52.367188 48 52.367188zm0 0" fill="#ffd337"/><path d="m352 320c0 70.691406-57.308594 128-128 128s-128-57.308594-128-128 57.308594-128 128-128 128 57.308594 128 128zm0 0" fill="#8bc34a"/><path d="m32 160h32v32h-32zm0 0" fill="#fff"/><path d="m96 160h32v32h-32zm0 0" fill="#fff"/><path d="m345.34375 279.550781c-16.976562-50.796875-64.910156-87.550781-121.34375-87.550781v128zm0 0" fill="#e76e54"/><path d="m345.34375 279.550781-121.34375 40.449219 90.464844 90.464844c23.183594-23.167969 37.535156-55.167969 37.535156-90.464844 0-14.144531-2.398438-27.710938-6.65625-40.449219zm0 0" fill="#5f90ff"/></svg>