<svg height="512pt" viewBox="0 0 512 512" width="512pt" xmlns="http://www.w3.org/2000/svg"><path d="m512 64v400c0 26.398438-21.601562 48-48 48h-416c-26.398438 0-48-21.601562-48-48v-464h184l48 64zm0 0" fill="#fcc000"/><path d="m464 512h-416c-26.398438 0-48-23.566406-48-52.367188v-331.632812h416v331.632812c0 28.800782 21.601562 52.367188 48 52.367188zm0 0" fill="#ffd337"/><path d="m32 160h32v32h-32zm0 0" fill="#fff"/><path d="m96 160h32v32h-32zm0 0" fill="#fff"/><path d="m370.273438 391.761719-22.625-22.625-33.9375 33.933593-22.621094-22.621093 33.933594-33.9375-22.625-22.625-33.933594 33.9375-37.488282-38.097657c5.726563-9.726562 9.023438-20.734374 9.023438-32.335937 0-17.085937-6.65625-33.167969-18.753906-45.246094-24.15625-24.191406-66.335938-24.191406-90.492188 0-12.097656 12.078125-18.753906 28.160157-18.753906 45.246094 0 17.089844 6.65625 33.167969 18.753906 45.25 12.078125 12.09375 28.15625 18.75 45.246094 18.75 11.601562 0 22.609375-3.292969 32.335938-9.039063l105.359374 105.96875zm-216.898438-81.746094c-6.046875-6.046875-9.375-14.078125-9.375-22.625 0-8.542969 3.328125-16.574219 9.375-22.621094 6.050781-6.050781 14.082031-9.378906 22.625-9.378906s16.574219 3.328125 22.625 9.378906c6.046875 6.046875 9.375 14.078125 9.375 22.621094 0 8.546875-3.328125 16.578125-9.375 22.625-12.097656 12.097656-33.152344 12.097656-45.25 0zm0 0" fill="#8bc34a"/></svg>