<svg height="512pt" viewBox="0 0 512 512" width="512pt" xmlns="http://www.w3.org/2000/svg"><path d="m512 64v400c0 26.398438-21.601562 48-48 48h-416c-26.398438 0-48-21.601562-48-48v-464h184l48 64zm0 0" fill="#fcc000"/><path d="m464 512h-416c-26.398438 0-48-23.566406-48-52.367188v-331.632812h416v331.632812c0 28.800782 21.601562 52.367188 48 52.367188zm0 0" fill="#ffd337"/><path d="m32 160h32v32h-32zm0 0" fill="#fff"/><path d="m96 160h32v32h-32zm0 0" fill="#fff"/><path d="m224 452.480469-10-7.984375c-54.65625-43.726563-86-108.945313-86-178.945313v-41.550781h18.753906c24.542969 0 48.574219-9.953125 65.933594-27.3125l11.3125-11.3125 11.3125 11.3125c17.359375 17.359375 41.390625 27.3125 65.933594 27.3125h18.753906v41.550781c0 70-31.34375 135.21875-86 178.960938zm0 0" fill="#8382ff"/></svg>