<svg height="512pt" viewBox="0 0 512 512" width="512pt" xmlns="http://www.w3.org/2000/svg"><path d="m512 64v400c0 26.398438-21.601562 48-48 48h-416c-26.398438 0-48-21.601562-48-48v-464h184l48 64zm0 0" fill="#fcc000"/><path d="m464 512h-416c-26.398438 0-48-23.566406-48-52.367188v-331.632812h416v331.632812c0 28.800782 21.601562 52.367188 48 52.367188zm0 0" fill="#ffd337"/><path d="m32 160h32v32h-32zm0 0" fill="#fff"/><path d="m96 160h32v32h-32zm0 0" fill="#fff"/><g fill="#8382ff"><path d="m208 416h32v32h-32zm0 0"/><path d="m240 384h-32v-8.449219c0-30.480469 16.945312-57.902343 44.222656-71.550781 12.191406-6.097656 19.777344-18.351562 19.777344-32 0-26.464844-21.535156-48-48-48s-48 21.535156-48 48v16h-32v-16c0-44.113281 35.886719-80 80-80s80 35.886719 80 80c0 25.839844-14.351562 49.070312-37.472656 60.625-16.367188 8.191406-26.527344 24.621094-26.527344 42.925781zm0 0"/></g></svg>