<svg height="512pt" viewBox="0 0 512 512" width="512pt" xmlns="http://www.w3.org/2000/svg"><path d="m512 64v336c0 25.921875-20.800781 47.199219-46.558594 47.839844-.480468.160156-.960937.160156-1.441406.160156h-352c-26.398438 0-48-21.601562-48-48v-400h184l48 64zm0 0" fill="#ffd337"/><path d="m32 224h32v32h-32zm0 0" fill="#fff"/><path d="m96 224h32v32h-32zm0 0" fill="#fff"/><path d="m448 128v336c0 26.398438-21.601562 48-48 48h-352c-26.398438 0-48-21.601562-48-48v-400h184l48 64zm0 0" fill="#fcc000"/><path d="m400 512h-352c-26.398438 0-48-21.601562-48-48v-272h352v272c0 26.398438 21.601562 48 48 48zm0 0" fill="#ffd337"/><g fill="#fff"><path d="m32 224h32v32h-32zm0 0"/><path d="m96 224h32v32h-32zm0 0"/></g></svg>