<svg height="512pt" viewBox="0 0 512 512" width="512pt" xmlns="http://www.w3.org/2000/svg"><path d="m512 64v400c0 26.398438-21.601562 48-48 48h-416c-26.398438 0-48-21.601562-48-48v-464h184l48 64zm0 0" fill="#fcc000"/><path d="m464 512h-416c-26.398438 0-48-23.566406-48-52.367188v-331.632812h416v331.632812c0 28.800782 21.601562 52.367188 48 52.367188zm0 0" fill="#ffd337"/><path d="m32 160h32v32h-32zm0 0" fill="#fff"/><path d="m96 160h32v32h-32zm0 0" fill="#fff"/><path d="m347.3125 420.6875-77.152344-77.152344c11.183594-15.695312 17.839844-34.832031 17.839844-55.535156 0-52.945312-43.054688-96-96-96s-96 43.054688-96 96 43.054688 96 96 96c20.703125 0 39.839844-6.65625 55.535156-17.839844l77.152344 77.152344zm-219.3125-132.6875c0-35.296875 28.703125-64 64-64s64 28.703125 64 64-28.703125 64-64 64-64-28.703125-64-64zm0 0" fill="#5f90ff"/></svg>