<svg height="512pt" viewBox="0 0 512 512" width="512pt" xmlns="http://www.w3.org/2000/svg"><path d="m512 64v400c0 26.398438-21.601562 48-48 48h-416c-26.398438 0-48-21.601562-48-48v-464h184l48 64zm0 0" fill="#fcc000"/><path d="m464 512h-416c-26.398438 0-48-23.566406-48-52.367188v-331.632812h416v331.632812c0 28.800782 21.601562 52.367188 48 52.367188zm0 0" fill="#ffd337"/><path d="m337.535156 309.535156 28.832032-30.941406-35.328126-61.203125-41.199218 9.503906-18.128906-10.445312-12.367188-40.449219h-70.6875l-12.351562 40.449219-18.128907 10.445312-41.199219-9.503906-35.328124 61.203125 28.832031 30.941406v20.929688l-28.832031 30.941406 35.328124 61.203125 41.199219-9.503906 18.128907 10.445312 12.351562 40.449219h70.6875l12.351562-40.449219 18.128907-10.445312 41.199219 9.503906 35.328124-61.203125-28.832031-30.941406v-20.929688zm-113.535156 34.464844c-13.230469 0-24-10.769531-24-24s10.769531-24 24-24 24 10.769531 24 24-10.769531 24-24 24zm0 0" fill="#b0b4b9"/><path d="m224 376c-30.878906 0-56-25.121094-56-56s25.121094-56 56-56 56 25.121094 56 56-25.121094 56-56 56zm0-80c-13.230469 0-24 10.769531-24 24s10.769531 24 24 24 24-10.769531 24-24-10.769531-24-24-24zm0 0" fill="#9da3aa"/><g fill="#fff"><path d="m32 160h32v32h-32zm0 0"/><path d="m96 160h32v32h-32zm0 0"/></g></svg>