<svg height="512pt" viewBox="0 0 512 512" width="512pt" xmlns="http://www.w3.org/2000/svg"><path d="m512 64v400c0 26.398438-21.601562 48-48 48h-416c-26.398438 0-48-21.601562-48-48v-464h184l48 64zm0 0" fill="#fcc000"/><path d="m464 512h-416c-26.398438 0-48-23.566406-48-52.367188v-331.632812h416v331.632812c0 28.800782 21.601562 52.367188 48 52.367188zm0 0" fill="#ffd337"/><path d="m32 160h32v32h-32zm0 0" fill="#fff"/><path d="m96 160h32v32h-32zm0 0" fill="#fff"/><g fill="#e76e54"><path d="m224 448v-32c52.945312 0 96-43.054688 96-96v-16h64v32h-32.992188c-7.902343 63.054688-61.855468 112-127.007812 112zm0 0"/><path d="m128 336h-64v-32h32.992188c7.902343-63.054688 61.855468-112 127.007812-112v32c-52.945312 0-96 43.054688-96 96zm0 0"/><path d="m224 384c-35.296875 0-64-28.703125-64-64s28.703125-64 64-64 64 28.703125 64 64-28.703125 64-64 64zm0-96c-17.648438 0-32 14.351562-32 32s14.351562 32 32 32 32-14.351562 32-32-14.351562-32-32-32zm0 0"/></g></svg>