<svg height="512pt" viewBox="0 0 512 512" width="512pt" xmlns="http://www.w3.org/2000/svg"><path d="m512 64v400c0 26.398438-21.601562 48-48 48h-416c-26.398438 0-48-21.601562-48-48v-464h184l48 64zm0 0" fill="#fcc000"/><path d="m464 512h-416c-26.398438 0-48-23.566406-48-52.367188v-331.632812h416v331.632812c0 28.800782 21.601562 52.367188 48 52.367188zm0 0" fill="#ffd337"/><path d="m32 160h32v32h-32zm0 0" fill="#fff"/><path d="m96 160h32v32h-32zm0 0" fill="#fff"/><path d="m288 192v32h41.375l-48 48h-66.429688l-39.648437 66.078125-32.335937-48.492187-76.847657 134.476562 27.773438 15.875 51.152343-89.523438 31.664063 47.507813 56.351563-93.921875h61.570312l57.375-57.375v41.375h32v-96zm0 0" fill="#8382ff"/></svg>