<svg height="512pt" viewBox="0 0 512 512" width="512pt" xmlns="http://www.w3.org/2000/svg"><path d="m512 64v400c0 26.398438-21.601562 48-48 48h-416c-26.398438 0-48-21.601562-48-48v-464h184l48 64zm0 0" fill="#fcc000"/><path d="m464 512h-416c-26.398438 0-48-23.566406-48-52.367188v-331.632812h416v331.632812c0 28.800782 21.601562 52.367188 48 52.367188zm0 0" fill="#ffd337"/><path d="m32 160h32v32h-32zm0 0" fill="#fff"/><path d="m96 160h32v32h-32zm0 0" fill="#fff"/><g fill="#5f90ff"><path d="m299.3125 260.6875-75.3125-75.3125-75.3125 75.3125 22.625 22.625 36.6875-36.6875v137.375h32v-137.375l36.6875 36.6875zm0 0"/><path d="m208 416h32v32h-32zm0 0"/></g></svg>