<svg height="512pt" viewBox="0 0 512 512" width="512pt" xmlns="http://www.w3.org/2000/svg"><path d="m512 512h-512v-480c0-17.679688 14.320312-32 32-32h448c17.679688 0 32 14.320312 32 32zm0 0" fill="#ffd337"/><g fill="#57565c"><path d="m131.199219 190.929688h-37.726563l-17.746094-53.21875v53.21875h-27.726562v-110.929688h37.726562l17.746094 53.214844v-53.214844h27.726563zm0 0"/><path d="m228.273438 107.726562v-27.726562h-69.34375v110.929688h69.34375v-27.730469h-41.601563v-13.871094h41.601563v-27.726563h-41.601563v-13.875zm0 0"/><path d="m364.800781 190.929688h-35.214843l-11.1875-29.839844-11.183594 29.839844h-35.214844l-16-97.058594v-13.871094h27.726562v12.71875l9.441407 56.65625 25.230469-67.261719 25.234374 67.261719 9.4375-56.65625v-12.71875h27.730469l-.191406 16.144531zm0 0"/><path d="m429.328125 190.929688h-34.671875v-27.730469h34.671875c3.824219 0 6.929687-3.121094 6.929687-6.925781 0-3.824219-3.121093-6.929688-6.929687-6.929688-19.121094 0-34.671875-15.550781-34.671875-34.671875s15.550781-34.671875 34.671875-34.671875h34.671875v27.726562h-34.671875c-3.824219 0-6.929687 3.121094-6.929687 6.929688 0 3.824219 3.121093 6.929688 6.929687 6.929688 19.121094.015624 34.671875 15.566406 34.671875 34.6875 0 19.117187-15.550781 34.65625-34.671875 34.65625zm0 0"/></g><path d="m0 231.472656h512v32h-512zm0 0" fill="#fcc000"/><path d="m64 295.472656h192v160h-192zm0 0" fill="#5f90ff"/><path d="m288 295.472656h160v32h-160zm0 0" fill="#fff"/><path d="m288 359.472656h160v32h-160zm0 0" fill="#fff"/><path d="m288 423.472656h96v32h-96zm0 0" fill="#fff"/></svg>