<svg height="512pt" viewBox="-32 0 512 512" width="512pt" xmlns="http://www.w3.org/2000/svg"><path d="m416 32v448c0 17.679688-14.320312 32-32 32h-384v-512h384c17.679688 0 32 14.320312 32 32zm0 0" fill="#bcaaa4"/><path d="m224 160v320c0 17.679688 14.320312 32 32 32h160v-384h-160c-17.679688 0-32 14.320312-32 32zm0 0" fill="#a1887f"/><path d="m96 64h256v160h-256zm0 0" fill="#e4edfb"/><path d="m0 0h48v512h-48zm0 0" fill="#a1887f"/><path d="m96 320h128v32h-128zm0 0" fill="#ffd337"/><path d="m96 384h128v32h-128zm0 0" fill="#ffd337"/><path d="m352 224v-96h-96c-17.679688 0-32 14.320312-32 32v64zm0 0" fill="#d7e1f2"/><path d="m416 512h-128c-17.679688 0-32-14.320312-32-32v-288c0-17.679688 14.320312-32 32-32h128c17.679688 0 32 14.320312 32 32v288c0 17.679688-14.320312 32-32 32zm0 0" fill="#5f90ff"/><path d="m256 400v80c0 17.679688 14.320312 32 32 32h128c17.679688 0 32-14.320312 32-32v-80zm0 0" fill="#e4edfb"/><path d="m336 432h32v32h-32zm0 0" fill="#b0b4b9"/><g fill="#fff"><path d="m384 256h32v32h-32zm0 0"/><path d="m384 192h32v32h-32zm0 0"/></g></svg>