<svg height="512pt" viewBox="-32 0 512 512" width="512pt" xmlns="http://www.w3.org/2000/svg"><path d="m416 512h-368v-512h368c17.679688 0 32 14.320312 32 32v448c0 17.679688-14.320312 32-32 32zm0 0" fill="#e76e54"/><path d="m0 0h80v512h-80zm0 0" fill="#ffd337"/><g fill="#fff"><path d="m256 64c-70.574219 0-128 57.425781-128 128s57.425781 128 128 128 128-57.425781 128-128-57.425781-128-128-128zm83.007812 80h-23.34375c-2.257812-12.0625-5.40625-23.40625-9.40625-33.632812 13.503907 8.335937 24.78125 19.890624 32.75 33.632812zm12.992188 48c0 5.457031-.558594 10.785156-1.441406 16h-31.070313c.304688-5.3125.511719-10.65625.511719-16s-.207031-10.6875-.527344-16h31.070313c.898437 5.214844 1.457031 10.542969 1.457031 16zm-96 96c-7.792969 0-19.9375-17.679688-26.800781-48h53.585937c-6.847656 30.320312-18.992187 48-26.785156 48zm-31.3125-80c-.335938-5.183594-.6875-10.382812-.6875-16s.351562-10.816406.6875-16h62.625c.335938 5.183594.6875 10.382812.6875 16s-.351562 10.816406-.6875 16zm-64.6875-16c0-5.457031.558594-10.785156 1.441406-16h31.070313c-.304688 5.3125-.511719 10.65625-.511719 16s.207031 10.6875.527344 16h-31.085938c-.882812-5.214844-1.441406-10.542969-1.441406-16zm96-96c7.792969 0 19.9375 17.679688 26.800781 48h-53.585937c6.847656-30.320312 18.992187-48 26.785156-48zm-50.273438 14.367188c-3.984374 10.226562-7.132812 21.570312-9.390624 33.632812h-23.34375c7.96875-13.742188 19.246093-25.296875 32.734374-33.632812zm-32.734374 129.632812h23.34375c2.257812 12.0625 5.40625 23.40625 9.40625 33.632812-13.503907-8.335937-24.78125-19.890624-32.75-33.632812zm133.28125 33.632812c3.984374-10.226562 7.152343-21.570312 9.40625-33.632812h23.34375c-7.984376 13.742188-19.261719 25.296875-32.75 33.632812zm0 0"/><path d="m160 352h192v32h-192zm0 0"/><path d="m352 448h-32v-32h32zm-64 0h-32v-32h32zm-64 0h-64v-32h64zm0 0"/></g></svg>