<svg height="512pt" viewBox="0 0 512 512" width="512pt" xmlns="http://www.w3.org/2000/svg"><path d="m448 512c35.34375 0 64-28.65625 64-64v-416c0-17.679688-14.320312-32-32-32h-320c-17.679688 0-32 14.320312-32 32v480zm0 0" fill="#ffd337"/><g fill="#fff"><path d="m192 64h144v32h-144zm0 0"/><path d="m192 128h256v32h-256zm0 0"/><path d="m192 256h256v32h-256zm0 0"/><path d="m192 192h32v32h-32zm64 0h192v32h-192zm0 0"/><path d="m192 320h32v32h-32zm64 0h128v32h-128zm0 0"/></g><path d="m384 384v64c0 35.296875 28.703125 64 64 64h-384c-35.296875 0-64-28.703125-64-64v-64zm0 0" fill="#bcaaa4"/><path d="m64 480h328.894531c11.105469 19.039062 31.519531 32 55.105469 32h-384c-35.296875 0-64-28.703125-64-64v-32c0 35.296875 28.703125 64 64 64zm0 0" fill="#a1887f"/></svg>