<svg height="512pt" viewBox="0 0 512 512" width="512pt" xmlns="http://www.w3.org/2000/svg"><path d="m352 0c17.679688 0 32 14.320312 32 32v416c0 35.296875 28.703125 64 64 64h-384c-35.34375 0-64-28.65625-64-64v-416c0-17.679688 14.320312-32 32-32zm0 0" fill="#ffd337"/><path d="m384 448v-64h128v64c0 35.296875-28.703125 64-64 64s-64-28.703125-64-64zm0 0" fill="#bcaaa4"/><path d="m64 480h328.894531c11.105469 19.039062 31.519531 32 55.105469 32h-384c-35.296875 0-64-28.703125-64-64v-32c0 35.296875 28.703125 64 64 64zm0 0" fill="#fcc000"/><g fill="#fff"><path d="m64 80h192v32h-192zm0 0"/><path d="m64 144h256v32h-256zm0 0"/><path d="m64 208h256v32h-256zm0 0"/><path d="m64 272h32v32h-32zm64 0h192v32h-192zm0 0"/><path d="m64 336h256v32h-256zm0 0"/><path d="m224 432h-32v-32h32zm-64 0h-96v-32h96zm0 0"/></g></svg>