<svg height="512pt" viewBox="0 0 512 512" width="512pt" xmlns="http://www.w3.org/2000/svg"><path d="m160 0c-17.679688 0-32 14.320312-32 32v416c0 35.296875-28.703125 64-64 64h384c35.34375 0 64-28.65625 64-64v-416c0-17.679688-14.320312-32-32-32zm0 0" fill="#ffd337"/><g fill="#fff"><path d="m240 80h208v32h-208zm0 0"/><path d="m192 144h256v32h-256zm0 0"/><path d="m192 208h256v32h-256zm0 0"/><path d="m448 304h-32v-32h32zm-64 0h-192v-32h192zm0 0"/><path d="m192 336h256v32h-256zm0 0"/><path d="m384 432h-32v-32h32zm-64 0h-128v-32h128zm0 0"/></g><path d="m64 512c-35.296875 0-64-28.703125-64-64v-64h128v64c0 35.296875-28.703125 64-64 64zm0 0" fill="#bcaaa4"/><path d="m448 480h-328.894531c-11.105469 19.039062-31.519531 32-55.105469 32h384c35.296875 0 64-28.703125 64-64v-32c0 35.296875-28.703125 64-64 64zm0 0" fill="#fcc000"/></svg>