<svg height="512pt" viewBox="0 0 512 512" width="512pt" xmlns="http://www.w3.org/2000/svg"><path d="m0 64c0-35.296875 28.703125-64 64-64h416c17.679688 0 32 14.320312 32 32v384c0 17.679688-14.320312 32-32 32h-480" fill="#ffd337"/><path d="m64 128h64v384h-64c-35.296875 0-64-28.703125-64-64v-384c0 35.296875 28.703125 64 64 64zm0 0" fill="#bcaaa4"/><g fill="#fff"><path d="m224 80h224v32h-224zm0 0"/><path d="m192 144h256v32h-256zm0 0"/><path d="m384 240h-32v-32h32zm-64 0h-32v-32h32zm-64 0h-64v-32h64zm0 0"/><path d="m192 272h256v32h-256zm0 0"/><path d="m384 368h-32v-32h32zm-64 0h-32v-32h32zm-64 0h-64v-32h64zm0 0"/></g><path d="m32 448v-328.894531c-19.039062-11.105469-32-31.519531-32-55.105469v384c0 35.296875 28.703125 64 64 64h32c-35.296875 0-64-28.703125-64-64zm0 0" fill="#a1887f"/></svg>