<svg height="512pt" viewBox="0 0 512 512" width="512pt" xmlns="http://www.w3.org/2000/svg"><path d="m512 448h-480c-17.679688 0-32-14.320312-32-32v-384c0-17.679688 14.320312-32 32-32h416c35.296875 0 64 28.703125 64 64" fill="#ffd337"/><path d="m448 128h-64v384h64c35.296875 0 64-28.703125 64-64v-384c0 35.296875-28.703125 64-64 64zm0 0" fill="#bcaaa4"/><g fill="#fff"><path d="m128 80h192v32h-192zm0 0"/><path d="m64 144h256v32h-256zm0 0"/><path d="m288 240h-32v-32h32zm-64 0h-32v-32h32zm-64 0h-96v-32h96zm0 0"/><path d="m64 272h256v32h-256zm0 0"/><path d="m288 368h-32v-32h32zm-64 0h-32v-32h32zm-64 0h-96v-32h96zm0 0"/></g><path d="m480 119.105469v328.894531c0 35.296875-28.703125 64-64 64h32c35.296875 0 64-28.703125 64-64v-384c0 23.585938-12.960938 44-32 55.105469zm0 0" fill="#a1887f"/></svg>