<svg height="512pt" viewBox="-64 0 512 512" width="512pt" xmlns="http://www.w3.org/2000/svg"><path d="m384 0v512h-384v-406.558594l105.441406-105.441406zm0 0" fill="#bcaaa4"/><path d="m320 96v-32h-32v-64h-32v64h-32v32h32v32h-32v32h32v32h-32v32h32v64h-32v128h96v-128h-32v-64h32v-32h-32v-32h32v-32h-32v-32zm-32 288h-32v-64h32zm0 0" fill="#ffd337"/><path d="m104 1.375-104 104v1.023438h104zm0 0" fill="#a1887f"/><g fill="#fff"><path d="m32 144h32v32h-32zm0 0"/><path d="m96 144h32v32h-32zm0 0"/></g></svg>